<?xml version="1.0" standalone="no"?>
<!DOCTYPE svg PUBLIC "-//W3C//DTD SVG 20010904//EN"
 "http://www.w3.org/TR/2001/REC-SVG-20010904/DTD/svg10.dtd">
<svg version="1.0" xmlns="http://www.w3.org/2000/svg"
 width="744.000000pt" height="744.000000pt" viewBox="0 0 744.000000 744.000000"
 preserveAspectRatio="xMidYMid meet">
<metadata>
Created by potrace 1.14, written by Peter Selinger 2001-2017
</metadata>
<g transform="translate(0.000000,744.000000) scale(0.100000,-0.100000)"
fill="#000000" stroke="none">
<path d="M3519 6336 c-2 -2 -35 -7 -74 -10 -90 -8 -271 -39 -355 -61 -36 -10
-69 -18 -75 -19 -146 -33 -433 -154 -615 -260 -79 -45 -269 -171 -280 -185 -3
-4 -30 -26 -60 -50 -386 -302 -666 -700 -832 -1181 -47 -140 -100 -362 -114
-484 -3 -23 -7 -52 -11 -66 -9 -44 -12 -493 -3 -555 5 -33 11 -82 15 -110 3
-27 17 -104 30 -170 121 -588 450 -1123 921 -1501 103 -82 264 -193 344 -235
25 -13 47 -26 50 -29 17 -18 287 -136 400 -175 121 -41 269 -82 327 -90 11 -2
29 -6 40 -9 10 -3 41 -8 68 -11 28 -4 61 -9 75 -11 102 -19 461 -26 595 -11
39 4 93 10 120 13 82 9 323 64 425 96 297 95 608 258 830 437 25 20 53 43 64
51 10 8 51 46 92 83 40 38 75 68 78 68 5 0 48 44 126 129 25 27 94 112 109
134 8 12 17 23 21 26 3 3 28 39 55 80 28 41 52 77 55 80 15 13 105 177 154
280 97 203 160 393 205 618 41 208 45 249 45 502 1 219 -2 270 -23 415 -16
106 -19 120 -56 260 -95 365 -260 692 -492 980 -92 113 -180 210 -193 210 -4
0 -19 11 -32 25 -125 134 -423 347 -626 450 -267 134 -586 234 -842 265 -30 4
-66 9 -80 12 -30 5 -476 13 -481 9z m426 -526 c388 -46 737 -184 1045 -414 95
-71 310 -277 366 -350 16 -22 39 -51 50 -65 45 -55 143 -212 191 -307 75 -146
149 -349 177 -489 4 -16 9 -41 12 -55 29 -138 39 -261 37 -442 -5 -477 -185
-961 -493 -1323 -48 -56 -215 -222 -270 -267 -245 -203 -629 -386 -910 -433
-19 -3 -42 -8 -50 -10 -101 -29 -472 -42 -630 -22 -366 45 -736 194 -1023 411
-67 50 -87 67 -164 137 -39 36 -152 162 -214 239 -208 260 -369 618 -423 940
-45 267 -40 553 15 808 35 160 105 359 174 492 66 128 93 174 161 270 141 201
264 324 519 518 23 18 165 102 220 132 151 80 412 174 539 194 21 4 41 8 45
10 7 5 44 10 151 22 30 4 56 8 58 9 8 7 354 2 417 -5z"/>
<path d="M3569 4857 c-2 -3 -29 -7 -59 -11 -443 -49 -785 -310 -921 -705 -91
-261 -84 -634 17 -889 138 -348 416 -566 830 -649 95 -19 419 -25 519 -10 531
81 896 421 941 876 l7 71 -353 -2 -352 -3 -18 -57 c-31 -100 -108 -183 -213
-232 -97 -45 -261 -57 -387 -30 -90 20 -146 50 -210 114 -91 90 -130 198 -135
372 -6 183 36 311 134 409 95 94 208 131 381 124 182 -7 307 -66 388 -182 25
-36 65 -142 54 -145 -34 -8 157 -13 407 -10 l303 3 -7 76 c-4 42 -11 87 -16
100 -5 12 -6 23 -4 23 3 0 -7 33 -21 73 -90 249 -254 429 -499 547 -204 98
-349 131 -606 137 -96 2 -177 2 -180 0z"/>
</g>
</svg>
