<svg width="96" height="38" viewBox="0 0 96 38" fill="none" xmlns="http://www.w3.org/2000/svg">
<path d="M94.759 22.8911C95.8341 22.0248 96.0034 20.451 95.1372 19.3759L81.0205 1.85533C80.1542 0.780178 78.5804 0.610849 77.5052 1.47712C76.4301 2.34339 76.2608 3.91722 77.127 4.99237L89.6752 20.5662L74.1014 33.1143C73.0262 33.9806 72.8569 35.5544 73.7232 36.6296C74.5895 37.7047 76.1633 37.8741 77.2384 37.0078L94.759 22.8911ZM1.24833 26.103C31.5089 23.0822 54.4687 22.4185 69.8425 22.5076C77.5295 22.5522 83.3201 22.785 87.1787 23.0056C89.108 23.1158 90.5543 23.2231 91.5132 23.3022C91.9926 23.3417 92.3502 23.3742 92.5854 23.3966C92.7029 23.4078 92.7899 23.4164 92.8462 23.4221C92.8744 23.425 92.8948 23.4271 92.9076 23.4284C92.914 23.4291 92.9185 23.4296 92.9211 23.4298C92.9224 23.43 92.9232 23.4301 92.9235 23.4301C92.9237 23.4301 92.9235 23.4301 92.9236 23.4301C92.9234 23.4301 92.923 23.43 93.1904 20.9444C93.4579 18.4587 93.4573 18.4587 93.4566 18.4586C93.4562 18.4585 93.4553 18.4585 93.4545 18.4584C93.4529 18.4582 93.4508 18.458 93.4483 18.4577C93.4431 18.4572 93.4361 18.4564 93.4271 18.4555C93.4092 18.4536 93.3836 18.451 93.3503 18.4476C93.2837 18.4408 93.1865 18.4312 93.0586 18.419C92.8028 18.3947 92.4245 18.3604 91.9242 18.3191C90.9238 18.2366 89.4355 18.1264 87.464 18.0137C83.521 17.7883 77.6449 17.5528 69.8715 17.5077C54.3246 17.4175 31.1893 18.0893 0.751671 21.1277L1.24833 26.103Z" fill="#3DD7AC"/>
</svg>
