<svg width="99" height="47" viewBox="0 0 99 47" fill="none" xmlns="http://www.w3.org/2000/svg">
<path d="M3.7264 15.563C2.57052 16.3181 2.24568 17.8674 3.00086 19.0232L15.3072 37.8595C16.0624 39.0154 17.6116 39.3402 18.7675 38.585C19.9234 37.8298 20.2482 36.2806 19.493 35.1247L8.55406 18.3814L25.2974 7.44244C26.4533 6.68726 26.7781 5.13804 26.0229 3.98215C25.2678 2.82627 23.7185 2.50143 22.5626 3.25661L3.7264 15.563ZM97.0936 21.6564C66.6826 21.6562 43.7704 20.0358 28.4815 18.4198C20.837 17.6118 15.0981 16.8049 11.2805 16.2021C9.37174 15.9007 7.94323 15.6503 6.99696 15.4764C6.52383 15.3894 6.17126 15.3215 5.93948 15.2759C5.8236 15.2531 5.73791 15.2359 5.68246 15.2246C5.65473 15.219 5.63456 15.2148 5.62195 15.2122C5.61565 15.2109 5.61123 15.21 5.60871 15.2095C5.60744 15.2092 5.60666 15.209 5.60634 15.209C5.60618 15.2089 5.6063 15.209 5.60622 15.2089C5.60646 15.209 5.60681 15.2091 5.09377 17.6559C4.58074 20.1027 4.58133 20.1028 4.58204 20.1029C4.58243 20.103 4.58326 20.1032 4.58405 20.1034C4.58562 20.1037 4.58767 20.1041 4.59019 20.1046C4.59524 20.1057 4.60217 20.1071 4.611 20.1089C4.62866 20.1126 4.65388 20.1178 4.68667 20.1244C4.75225 20.1378 4.84808 20.157 4.97414 20.1818C5.22625 20.2314 5.59926 20.3032 6.09292 20.394C7.08024 20.5755 8.55016 20.8329 10.5007 21.1409C14.4019 21.7569 20.2255 22.575 27.9559 23.3921C43.417 25.0263 66.5046 26.6561 97.0935 26.6564L97.0936 21.6564Z" fill="#3DD7AC"/>
</svg>
