<svg width="409" height="426" viewBox="0 0 409 426" fill="none" xmlns="http://www.w3.org/2000/svg">
<path d="M125 271.998L128.138 278.256L125 271.998ZM337.671 418.602C335.403 421.733 331.027 422.434 327.896 420.166L276.866 383.221C273.735 380.953 273.034 376.577 275.301 373.446C277.568 370.314 281.945 369.614 285.076 371.881L330.436 404.721L363.276 359.362C365.544 356.23 369.92 355.53 373.051 357.797C376.183 360.064 376.883 364.441 374.616 367.572L337.671 418.602ZM62.1627 3.92547C68.8591 5.96455 68.8591 5.96467 68.8586 5.96612C68.8579 5.96842 68.8571 5.97122 68.8557 5.97577C68.8529 5.98488 68.8486 5.99932 68.8426 6.01903C68.8306 6.05848 68.8123 6.11914 68.7878 6.20055C68.7387 6.36339 68.6649 6.60942 68.5677 6.93555C68.3734 7.58787 68.0858 8.5607 67.7168 9.82983C66.9787 12.3682 65.9149 16.0914 64.6193 20.8059C62.0276 30.2368 58.5113 43.6252 54.8209 59.4271C47.4272 91.0856 39.3888 132.204 36.6253 170.528C35.2436 189.689 35.1957 207.963 37.1392 223.904C39.0936 239.934 42.9983 253.051 49.1013 262.337C55.0228 271.347 63.0332 276.838 74.1202 278.07C85.5999 279.345 101.144 276.13 121.862 265.741L128.138 278.256C106.231 289.241 87.8421 293.68 72.5747 291.984C56.9147 290.245 45.3635 282.141 37.4018 270.026C29.6216 258.188 25.3214 242.653 23.2421 225.598C21.152 208.455 21.2417 189.212 22.6616 169.521C25.5014 130.138 33.7226 88.2077 41.1877 56.2432C44.9267 40.2337 48.4896 26.6673 51.1197 17.0962C52.4351 12.3097 53.5178 8.52002 54.2736 5.92091C54.6515 4.62131 54.9477 3.61916 55.1504 2.93872C55.2517 2.59847 55.3297 2.33865 55.3828 2.16226C55.4094 2.07406 55.4298 2.00673 55.4437 1.96061C55.4507 1.93757 55.4561 1.91982 55.4599 1.90744C55.4617 1.90124 55.4633 1.89598 55.4643 1.89288C55.4655 1.88895 55.4663 1.88639 62.1627 3.92547ZM121.862 265.741C165.745 243.735 201.96 241.475 231.535 251.569C260.926 261.6 282.576 283.435 298.288 307.34C314.011 331.264 324.139 357.786 330.331 378.174C333.437 388.398 335.573 397.152 336.937 403.367C337.619 406.476 338.108 408.954 338.429 410.668C338.59 411.525 338.708 412.191 338.788 412.65C338.828 412.88 338.858 413.058 338.878 413.182C338.889 413.244 338.897 413.292 338.902 413.327C338.905 413.344 338.908 413.358 338.909 413.369C338.91 413.374 338.911 413.379 338.911 413.382C338.912 413.386 338.913 413.39 332.001 414.496C325.089 415.603 325.089 415.605 325.089 415.606C325.089 415.605 325.089 415.605 325.089 415.603C325.088 415.6 325.087 415.593 325.085 415.583C325.082 415.563 325.076 415.529 325.069 415.481C325.053 415.387 325.028 415.239 324.993 415.04C324.924 414.641 324.817 414.038 324.669 413.246C324.372 411.662 323.911 409.325 323.262 406.367C321.963 400.447 319.916 392.056 316.936 382.242C310.956 362.552 301.303 337.418 286.588 315.03C271.863 292.624 252.419 273.49 227.013 264.818C201.79 256.21 169.505 257.511 128.138 278.256L121.862 265.741Z" fill="#00ECAA"/>
</svg>
