<svg width="72" height="12" viewBox="0 0 72 12" fill="none" xmlns="http://www.w3.org/2000/svg">
<path d="M0.461094 11H4.10109C6.67709 11 8.73509 10.622 8.73509 8.382C8.73509 6.282 7.13909 6.142 5.64109 6.086V5.526C6.69109 5.442 8.00709 5.4 8.00709 3.552C8.00709 1.606 6.67709 1.13 3.93309 1.13H0.461094V11ZM2.70109 4.882V3.09H4.21309C5.12309 3.09 5.76709 3.09 5.76709 3.986C5.76709 4.882 5.12309 4.882 4.21309 4.882H2.70109ZM2.70109 9.04V6.842H4.38109C5.71109 6.842 6.49509 6.842 6.49509 7.948C6.49509 9.04 5.71109 9.04 4.38109 9.04H2.70109ZM9.72406 9.068C9.72406 9.796 10.1021 11.14 12.3001 11.14C14.2741 11.14 14.9601 10.146 15.2261 8.97H15.7861L15.4361 9.81V9.95C15.4361 10.622 15.8141 11 16.4861 11H18.0401V9.04H17.0181V7.052C17.0181 4.728 15.3101 3.79 13.3641 3.79C11.3901 3.79 9.86406 4.84 9.86406 6.632H11.9641C11.9641 5.988 12.4681 5.61 13.3641 5.61C14.3301 5.61 14.7781 5.96 14.7781 6.534L12.5521 6.842C10.4521 7.136 9.72406 7.85 9.72406 9.068ZM11.9641 8.648C11.9641 8.242 12.3001 8.144 12.9721 8.046L14.7781 7.794C14.7781 8.662 13.9661 9.18 12.7341 9.18C12.3561 9.18 11.9641 9.054 11.9641 8.648ZM18.4604 7.458C18.4604 9.824 20.0704 11.14 22.3244 11.14C24.2564 11.14 26.0204 10.09 26.1184 8.074H23.8784C23.7944 8.704 23.2204 9.18 22.3244 9.18C21.2604 9.18 20.7004 8.55 20.7004 7.458C20.7004 6.38 21.2604 5.75 22.3244 5.75C23.2204 5.75 23.7944 6.226 23.8784 6.856H26.1184C26.0204 4.84 24.2564 3.79 22.3244 3.79C20.0704 3.79 18.4604 5.106 18.4604 7.458ZM32.5152 11H35.0632L32.6692 7.374L33.7612 6.87C34.3772 6.576 34.6432 6.142 34.6432 5.47V3.93H32.4032L32.4312 5.204L29.1972 6.688V0.71H26.9572V11H29.1972V8.998L30.7512 8.27L32.5152 11ZM36.4624 6.38V8.06H44.0224V6.38H36.4624ZM45.838 11H52.88V9.04H48.078V7.038H52.18V5.078H48.078V3.09H52.88V1.13H45.838V11ZM58.3929 5.75C59.4709 5.75 59.8489 6.24 59.8489 7.528V11H62.0889V7.178C62.0889 4.994 60.9969 3.79 59.1909 3.79C57.6789 3.79 56.7969 4.784 56.5169 6.044H55.9569L56.3769 4.784V3.93H54.1369V11H56.3769V8.382C56.3769 6.394 57.1749 5.75 58.3929 5.75ZM71.1533 11V0.71H68.9133V4.364L69.3333 5.624H68.7733C68.4093 4.686 67.7373 3.79 65.9873 3.79C63.9433 3.79 62.9213 5.456 62.9213 7.458C62.9213 9.46 63.9433 11.14 65.9873 11.14C67.7373 11.14 68.4093 10.244 68.7733 9.306H69.3333L68.9133 10.566V11H71.1533ZM68.9133 7.458C68.9133 8.648 68.2413 9.18 67.0373 9.18C65.8333 9.18 65.1613 8.648 65.1613 7.458C65.1613 6.268 65.8333 5.75 67.0373 5.75C68.2413 5.75 68.9133 6.268 68.9133 7.458Z" fill="#03000F"/>
</svg>
