<svg width="862" height="861" viewBox="0 0 862 861" fill="none" xmlns="http://www.w3.org/2000/svg">
<path d="M734.5 432.5C734.5 599.285 598.847 734.5 431.5 734.5C264.153 734.5 128.5 599.285 128.5 432.5C128.5 265.715 264.153 130.5 431.5 130.5C598.847 130.5 734.5 265.715 734.5 432.5Z" fill="#070021" stroke="#3DD7AC" stroke-width="3"/>
<path d="M646.751 217.517C675.018 245.784 697.44 279.342 712.738 316.274C728.036 353.207 735.91 392.791 735.91 432.766C735.91 472.742 728.036 512.326 712.738 549.258C697.44 586.191 675.018 619.748 646.751 648.015L603.701 604.966C626.314 582.352 644.252 555.506 656.491 525.96C668.729 496.414 675.028 464.747 675.028 432.766C675.028 400.786 668.729 369.118 656.491 339.572C644.253 310.026 626.314 283.18 603.701 260.567L646.751 217.517Z" fill="#3DD7AC"/>
<path d="M215.249 647.775C186.982 619.508 164.56 585.95 149.262 549.018C133.964 512.085 126.09 472.501 126.09 432.526C126.09 392.55 133.964 352.966 149.262 316.034C164.56 279.101 186.982 245.544 215.249 217.277L258.299 260.326C235.686 282.94 217.748 309.786 205.509 339.332C193.271 368.878 186.972 400.545 186.972 432.526C186.972 464.506 193.271 496.174 205.509 525.72C217.747 555.266 235.686 582.112 258.299 604.725L215.249 647.775Z" fill="#3DD7AC"/>
</svg>
