<svg width="134" height="20" viewBox="0 0 134 20" fill="none" xmlns="http://www.w3.org/2000/svg">
<path d="M0.708984 19H4.70898V13.5L12.709 13V9.45L4.70898 9.95V4.875H13.284V1.375H0.708984V19ZM14.5273 19H18.5273V9.725L24.9523 9.875V6.375L16.6773 6.175C15.3023 6.15 14.5273 6.9 14.5273 8.275V19ZM25.9658 12.675C25.9658 17.1 29.1158 19.25 33.0908 19.25C37.0408 19.25 40.1908 17.1 40.1908 12.675C40.1908 8.275 37.0408 6.125 33.0908 6.125C29.1158 6.125 25.9658 8.275 25.9658 12.675ZM29.9658 12.675C29.9658 10.575 31.1908 9.625 33.0908 9.625C34.9658 9.625 36.1908 10.575 36.1908 12.675C36.1908 14.8 34.9658 15.75 33.0908 15.75C31.1908 15.75 29.9658 14.8 29.9658 12.675ZM49.5443 9.625C51.4693 9.625 52.1443 10.5 52.1443 12.8V19H56.1443V12.175C56.1443 8.275 54.1943 6.125 50.9693 6.125C48.2693 6.125 46.6943 7.9 46.1943 10.15H45.1943L45.9443 7.9V6.375H41.9443V19H45.9443V14.325C45.9443 10.775 47.3693 9.625 49.5443 9.625ZM64.3936 15.75V9.875H68.5436V6.375H64.3936V2.75L60.3936 4V6.375H57.3936V9.875H60.3936V17.125C60.3936 18.5 61.1436 19.3 62.5186 19.25L69.0436 19V15.5L64.3936 15.75ZM71.54 10.75V13.75H85.04V10.75H71.54ZM88.2822 19H100.857V15.5H92.2822V11.925H99.6072V8.425H92.2822V4.875H100.857V1.375H88.2822V19ZM110.702 9.625C112.627 9.625 113.302 10.5 113.302 12.8V19H117.302V12.175C117.302 8.275 115.352 6.125 112.127 6.125C109.427 6.125 107.852 7.9 107.352 10.15H106.352L107.102 7.9V6.375H103.102V19H107.102V14.325C107.102 10.775 108.527 9.625 110.702 9.625ZM133.488 19V0.625H129.488V7.15L130.238 9.4H129.238C128.588 7.725 127.388 6.125 124.263 6.125C120.613 6.125 118.788 9.1 118.788 12.675C118.788 16.25 120.613 19.25 124.263 19.25C127.388 19.25 128.588 17.65 129.238 15.975H130.238L129.488 18.225V19H133.488ZM129.488 12.675C129.488 14.8 128.288 15.75 126.138 15.75C123.988 15.75 122.788 14.8 122.788 12.675C122.788 10.55 123.988 9.625 126.138 9.625C128.288 9.625 129.488 10.55 129.488 12.675Z" fill="#03000F"/>
</svg>
