<svg width="156" height="26" viewBox="0 0 156 26" fill="none" xmlns="http://www.w3.org/2000/svg">
<path d="M15.0151 7.332C15.0151 9.796 16.5411 11.14 19.4671 11.14C22.3931 11.14 23.9331 9.796 23.9331 7.332V1.13H21.6931V6.338C21.6931 8.102 21.5251 9.18 19.4671 9.18C17.4091 9.18 17.2551 8.102 17.2551 6.338V1.13H15.0151V7.332ZM31.6368 3.09V1.13H24.9168V3.09H27.1568V9.04H24.9168V11H31.6368V9.04H29.3968V3.09H31.6368ZM34.8439 6.87C35.7679 6.87 36.3979 6.198 36.3979 5.316C36.3979 4.462 35.7679 3.79 34.8439 3.79C33.8919 3.79 33.3179 4.462 33.3179 5.316C33.3179 6.198 33.8919 6.87 34.8439 6.87ZM34.8439 11.14C35.7679 11.14 36.3979 10.468 36.3979 9.586C36.3979 8.732 35.7679 8.06 34.8439 8.06C33.8919 8.06 33.3179 8.732 33.3179 9.586C33.3179 10.468 33.8919 11.14 34.8439 11.14ZM42.0066 6.058C42.0066 9.082 43.6306 11.14 46.5846 11.14C49.3006 11.14 50.5186 9.152 50.5326 6.058H51.0926L50.6726 7.598V11H52.9126V6.688C52.9126 5.918 52.4926 5.498 51.7226 5.498H46.5706V7.178H48.8526C48.8526 8.508 48.0126 9.18 46.6686 9.18C45.0446 9.18 44.2466 8.242 44.2466 6.058C44.2466 3.888 45.2546 2.95 46.9766 2.95C48.4606 2.95 49.2026 3.496 49.4266 4.658H51.6666C51.3726 2.502 49.4546 0.99 46.9766 0.99C44.1206 0.99 42.0066 3.048 42.0066 6.058ZM53.7475 7.374C53.7475 9.376 54.9935 11.14 57.7095 11.14C60.1595 11.14 61.3215 9.53 61.4615 8.508H59.2215C59.0815 9.04 58.4935 9.32 57.7095 9.32C56.4355 9.32 55.8475 8.746 55.8475 7.934H61.2095V7.234C61.2095 5.092 59.6695 3.79 57.4715 3.79C55.2735 3.79 53.7475 5.134 53.7475 7.374ZM55.8475 6.674C55.8475 6.142 56.2255 5.61 57.4715 5.61C58.7175 5.61 59.1095 6.142 59.1095 6.674H55.8475ZM69.0297 9.054C69.0297 7.584 67.7697 7.234 66.3977 6.786C65.2777 6.422 64.5777 6.212 64.5777 5.876C64.5777 5.596 64.8717 5.47 65.4037 5.47C66.1737 5.47 66.5517 5.848 66.5517 6.352H68.7917C68.7917 4.98 67.8117 3.79 65.4177 3.79C63.4717 3.79 62.3377 4.518 62.3377 5.778C62.3377 7.36 63.9477 7.71 65.2637 8.144C66.3977 8.522 66.7897 8.62 66.7897 8.984C66.7897 9.32 66.4117 9.46 65.8097 9.46C64.6337 9.46 64.2557 8.984 64.2557 8.438H62.0157C62.0157 10.09 63.1357 11.14 65.7397 11.14C68.1757 11.14 69.0297 10.244 69.0297 9.054ZM73.2299 9.18V5.89H75.5539V3.93H73.2299V1.9L70.9899 2.6V3.93H69.3099V5.89H70.9899V9.95C70.9899 10.72 71.4099 11.168 72.1799 11.14L75.8339 11V9.04L73.2299 9.18ZM76.6752 9.068C76.6752 9.796 77.0532 11.14 79.2512 11.14C81.2252 11.14 81.9112 10.146 82.1772 8.97H82.7372L82.3872 9.81V9.95C82.3872 10.622 82.7652 11 83.4372 11H84.9912V9.04H83.9692V7.052C83.9692 4.728 82.2612 3.79 80.3152 3.79C78.3412 3.79 76.8152 4.84 76.8152 6.632H78.9152C78.9152 5.988 79.4192 5.61 80.3152 5.61C81.2812 5.61 81.7292 5.96 81.7292 6.534L79.5032 6.842C77.4032 7.136 76.6752 7.85 76.6752 9.068ZM78.9152 8.648C78.9152 8.242 79.2512 8.144 79.9232 8.046L81.7292 7.794C81.7292 8.662 80.9172 9.18 79.6852 9.18C79.3072 9.18 78.9152 9.054 78.9152 8.648ZM85.545 11H91.705V9.04H89.745V1.788C89.745 1.004 89.311 0.584 88.527 0.611999L85.825 0.71V2.67L87.505 2.586V9.04H85.545V11ZM95.2143 9.18V5.89H97.5383V3.93H95.2143V1.9L92.9743 2.6V3.93H91.2943V5.89H92.9743V9.95C92.9743 10.72 93.3943 11.168 94.1643 11.14L97.8183 11V9.04L95.2143 9.18ZM102.496 9.18C101.418 9.18 101.04 8.69 101.04 7.402V3.93H98.7996V7.752C98.7996 9.936 99.8916 11.14 101.698 11.14C103.21 11.14 104.092 10.146 104.372 8.886H104.932L104.512 10.146V11H106.752V3.93H104.512V6.548C104.512 8.536 103.714 9.18 102.496 9.18ZM112.123 5.75C113.201 5.75 113.579 6.24 113.579 7.528V11H115.819V7.178C115.819 4.994 114.727 3.79 112.921 3.79C111.409 3.79 110.527 4.784 110.247 6.044H109.687L110.107 4.784V3.93H107.867V11H110.107V8.382C110.107 6.394 110.905 5.75 112.123 5.75ZM125.083 3.93C124.453 3.93 123.725 4 123.305 4.546C122.563 4 121.583 3.79 120.505 3.79C118.279 3.79 116.515 4.686 116.515 6.548C116.515 8.872 119.245 9.25 121.835 8.326V8.886C120.547 9.194 119.091 9.362 117.481 9.53L117.719 10.79C119.889 10.426 122.423 9.964 122.423 11C122.423 11.77 121.555 11.84 116.977 11.84V13.8C122.227 13.8 124.677 13.562 124.677 11.476C124.677 9.978 123.179 9.558 121.569 9.656C123.515 8.998 124.761 8.158 124.761 6.828C124.761 6.45 124.649 6.128 124.565 6.016C124.761 5.89 125.013 5.89 125.223 5.89H125.699V3.93H125.083ZM120.645 7.626C119.301 7.626 118.755 7.29 118.755 6.688C118.755 6.1 119.301 5.75 120.645 5.75C121.989 5.75 122.521 6.1 122.521 6.688C122.521 7.29 121.989 7.626 120.645 7.626ZM135.91 3.93L134.3 10.44H133.74L132.116 3.93H129.904L131.71 11H136.33L138.122 3.93H135.91ZM138.404 7.458C138.404 9.936 140.168 11.14 142.394 11.14C144.606 11.14 146.37 9.936 146.37 7.458C146.37 4.994 144.606 3.79 142.394 3.79C140.168 3.79 138.404 4.994 138.404 7.458ZM140.644 7.458C140.644 6.282 141.33 5.75 142.394 5.75C143.444 5.75 144.13 6.282 144.13 7.458C144.13 8.648 143.444 9.18 142.394 9.18C141.33 9.18 140.644 8.648 140.644 7.458ZM151.608 5.75C152.686 5.75 153.064 6.24 153.064 7.528V11H155.304V7.178C155.304 4.994 154.212 3.79 152.406 3.79C150.894 3.79 150.012 4.784 149.732 6.044H149.172L149.592 4.784V3.93H147.352V11H149.592V8.382C149.592 6.394 150.39 5.75 151.608 5.75ZM0.584141 25H4.22414C6.80014 25 8.85814 24.622 8.85814 22.382C8.85814 20.282 7.26214 20.142 5.76414 20.086V19.526C6.81414 19.442 8.13014 19.4 8.13014 17.552C8.13014 15.606 6.80014 15.13 4.05614 15.13H0.584141V25ZM2.82414 18.882V17.09H4.33614C5.24614 17.09 5.89014 17.09 5.89014 17.986C5.89014 18.882 5.24614 18.882 4.33614 18.882H2.82414ZM2.82414 23.04V20.842H4.50414C5.83414 20.842 6.61814 20.842 6.61814 21.948C6.61814 23.04 5.83414 23.04 4.50414 23.04H2.82414ZM9.69672 21.374C9.69672 23.376 10.9427 25.14 13.6587 25.14C16.1087 25.14 17.2707 23.53 17.4107 22.508H15.1707C15.0307 23.04 14.4427 23.32 13.6587 23.32C12.3847 23.32 11.7967 22.746 11.7967 21.934H17.1587V21.234C17.1587 19.092 15.6187 17.79 13.4207 17.79C11.2227 17.79 9.69672 19.134 9.69672 21.374ZM11.7967 20.674C11.7967 20.142 12.1747 19.61 13.4207 19.61C14.6667 19.61 15.0587 20.142 15.0587 20.674H11.7967ZM22.6409 19.75C23.7189 19.75 24.0969 20.24 24.0969 21.528V25H26.3369V21.178C26.3369 18.994 25.2449 17.79 23.4389 17.79C21.9269 17.79 21.0449 18.784 20.7649 20.044H20.2049L20.6249 18.784V17.93H18.3849V25H20.6249V22.382C20.6249 20.394 21.4229 19.75 22.6409 19.75ZM31.0054 23.18C29.9274 23.18 29.5494 22.69 29.5494 21.402V17.93H27.3094V21.752C27.3094 23.936 28.4014 25.14 30.2074 25.14C31.7194 25.14 32.6014 24.146 32.8814 22.886H33.4414L33.0214 24.146V25H35.2614V17.93H33.0214V20.548C33.0214 22.536 32.2234 23.18 31.0054 23.18ZM40.0209 23.18V19.89H42.3449V17.93H40.0209V15.9L37.7809 16.6V17.93H36.1009V19.89H37.7809V23.95C37.7809 24.72 38.2009 25.168 38.9709 25.14L42.6249 25V23.04L40.0209 23.18ZM43.4663 25H50.4243V23.04H45.2863L44.0263 23.46V22.9L50.4243 21.71V17.93H43.4663V19.89H48.6043L49.8643 19.47V20.03L43.4663 21.22V25ZM51.2729 21.374C51.2729 23.376 52.5189 25.14 55.2349 25.14C57.6849 25.14 58.8469 23.53 58.9869 22.508H56.7469C56.6069 23.04 56.0189 23.32 55.2349 23.32C53.9609 23.32 53.3729 22.746 53.3729 21.934H58.7349V21.234C58.7349 19.092 57.1949 17.79 54.9969 17.79C52.7989 17.79 51.2729 19.134 51.2729 21.374ZM53.3729 20.674C53.3729 20.142 53.7509 19.61 54.9969 19.61C56.2429 19.61 56.6349 20.142 56.6349 20.674H53.3729ZM59.9611 25H62.2011V19.806L65.7991 19.89V17.93L61.1651 17.818C60.3951 17.804 59.9611 18.224 59.9611 18.994V25ZM66.3666 21.458C66.3666 23.936 68.1306 25.14 70.3566 25.14C72.5686 25.14 74.3326 23.936 74.3326 21.458C74.3326 18.994 72.5686 17.79 70.3566 17.79C68.1306 17.79 66.3666 18.994 66.3666 21.458ZM68.6066 21.458C68.6066 20.282 69.2926 19.75 70.3566 19.75C71.4066 19.75 72.0926 20.282 72.0926 21.458C72.0926 22.648 71.4066 23.18 70.3566 23.18C69.2926 23.18 68.6066 22.648 68.6066 21.458ZM75.1779 25H77.4179V24.566L76.9979 23.306H77.5579C77.9219 24.244 78.5939 25.14 80.3439 25.14C82.3879 25.14 83.4099 23.46 83.4099 21.458C83.4099 19.456 82.3879 17.79 80.3439 17.79C78.5939 17.79 77.9219 18.686 77.5579 19.624H76.9979L77.4179 18.364V14.71H75.1779V25ZM77.4179 21.458C77.4179 20.268 78.0899 19.75 79.2939 19.75C80.4979 19.75 81.1699 20.268 81.1699 21.458C81.1699 22.648 80.4979 23.18 79.2939 23.18C78.0899 23.18 77.4179 22.648 77.4179 21.458ZM84.1127 21.374C84.1127 23.376 85.3587 25.14 88.0747 25.14C90.5247 25.14 91.6867 23.53 91.8267 22.508H89.5867C89.4467 23.04 88.8587 23.32 88.0747 23.32C86.8007 23.32 86.2127 22.746 86.2127 21.934H91.5747V21.234C91.5747 19.092 90.0347 17.79 87.8367 17.79C85.6387 17.79 84.1127 19.134 84.1127 21.374ZM86.2127 20.674C86.2127 20.142 86.5907 19.61 87.8367 19.61C89.0827 19.61 89.4747 20.142 89.4747 20.674H86.2127ZM92.8009 25H95.0409V19.806L98.6389 19.89V17.93L94.0049 17.818C93.2349 17.804 92.8009 18.224 92.8009 18.994V25ZM103.739 16.67H105.223V14.71H104.019C101.653 14.71 100.547 15.774 100.547 17.678V17.93H99.2032V19.89H100.547V23.04H99.2032V25H104.831V23.04H102.787V19.89H104.831V17.93H102.787V17.748C102.787 16.964 103.081 16.67 103.739 16.67ZM105.779 25H111.939V23.04H109.979V15.788C109.979 15.004 109.545 14.584 108.761 14.612L106.059 14.71V16.67L107.739 16.586V23.04H105.779V25ZM114.592 17.23C115.488 17.23 116.006 16.838 116.006 16.11C116.006 15.396 115.488 14.99 114.592 14.99C113.696 14.99 113.206 15.396 113.206 16.11C113.206 16.838 113.696 17.23 114.592 17.23ZM118.232 17.23C119.128 17.23 119.646 16.838 119.646 16.11C119.646 15.396 119.128 14.99 118.232 14.99C117.336 14.99 116.846 15.396 116.846 16.11C116.846 16.838 117.336 17.23 118.232 17.23ZM112.646 23.068C112.646 23.796 113.024 25.14 115.222 25.14C117.196 25.14 117.882 24.146 118.148 22.97H118.708L118.358 23.81V23.95C118.358 24.622 118.736 25 119.408 25H120.962V23.04H119.94V21.052C119.94 18.728 118.232 17.79 116.286 17.79C114.312 17.79 112.786 18.84 112.786 20.632H114.886C114.886 19.988 115.39 19.61 116.286 19.61C117.252 19.61 117.7 19.96 117.7 20.534L115.474 20.842C113.374 21.136 112.646 21.85 112.646 23.068ZM114.886 22.648C114.886 22.242 115.222 22.144 115.894 22.046L117.7 21.794C117.7 22.662 116.888 23.18 115.656 23.18C115.278 23.18 114.886 23.054 114.886 22.648ZM121.382 21.458C121.382 23.824 122.992 25.14 125.246 25.14C127.178 25.14 128.942 24.09 129.04 22.074H126.8C126.716 22.704 126.142 23.18 125.246 23.18C124.182 23.18 123.622 22.55 123.622 21.458C123.622 20.38 124.182 19.75 125.246 19.75C126.142 19.75 126.716 20.226 126.8 20.856H129.04C128.942 18.84 127.178 17.79 125.246 17.79C122.992 17.79 121.382 19.106 121.382 21.458ZM134.933 17.79C133.421 17.79 132.539 18.784 132.259 20.044H131.699L132.119 18.784V14.71H129.879V25H132.119V22.382C132.119 20.394 132.917 19.75 134.135 19.75C135.213 19.75 135.591 20.24 135.591 21.528V25H137.831V21.178C137.831 18.994 136.739 17.79 134.933 17.79ZM138.664 21.374C138.664 23.376 139.91 25.14 142.626 25.14C145.076 25.14 146.238 23.53 146.378 22.508H144.138C143.998 23.04 143.41 23.32 142.626 23.32C141.352 23.32 140.764 22.746 140.764 21.934H146.126V21.234C146.126 19.092 144.586 17.79 142.388 17.79C140.19 17.79 138.664 19.134 138.664 21.374ZM140.764 20.674C140.764 20.142 141.142 19.61 142.388 19.61C143.634 19.61 144.026 20.142 144.026 20.674H140.764ZM151.608 19.75C152.686 19.75 153.064 20.24 153.064 21.528V25H155.304V21.178C155.304 18.994 154.212 17.79 152.406 17.79C150.894 17.79 150.012 18.784 149.732 20.044H149.172L149.592 18.784V17.93H147.352V25H149.592V22.382C149.592 20.394 150.39 19.75 151.608 19.75Z" fill="#03000F"/>
</svg>
