<svg width="277" height="44" viewBox="0 0 277 44" fill="none" xmlns="http://www.w3.org/2000/svg">
<path d="M26.2412 12.45C26.2412 16.85 28.9662 19.25 34.1912 19.25C39.4162 19.25 42.1662 16.85 42.1662 12.45V1.375H38.1662V10.675C38.1662 13.825 37.8662 15.75 34.1912 15.75C30.5162 15.75 30.2412 13.825 30.2412 10.675V1.375H26.2412V12.45ZM55.9229 4.875V1.375H43.9229V4.875H47.9229V15.5H43.9229V19H55.9229V15.5H51.9229V4.875H55.9229ZM61.6498 11.625C63.2998 11.625 64.4248 10.425 64.4248 8.85C64.4248 7.325 63.2998 6.125 61.6498 6.125C59.9498 6.125 58.9248 7.325 58.9248 8.85C58.9248 10.425 59.9498 11.625 61.6498 11.625ZM61.6498 19.25C63.2998 19.25 64.4248 18.05 64.4248 16.475C64.4248 14.95 63.2998 13.75 61.6498 13.75C59.9498 13.75 58.9248 14.95 58.9248 16.475C58.9248 18.05 59.9498 19.25 61.6498 19.25ZM74.4404 10.175C74.4404 15.575 77.3404 19.25 82.6154 19.25C87.4654 19.25 89.6404 15.7 89.6654 10.175H90.6654L89.9154 12.925V19H93.9154V11.3C93.9154 9.925 93.1654 9.175 91.7904 9.175H82.5904V12.175H86.6654C86.6654 14.55 85.1654 15.75 82.7654 15.75C79.8654 15.75 78.4404 14.075 78.4404 10.175C78.4404 6.3 80.2404 4.625 83.3154 4.625C85.9654 4.625 87.2904 5.6 87.6904 7.675H91.6904C91.1654 3.825 87.7404 1.125 83.3154 1.125C78.2154 1.125 74.4404 4.8 74.4404 10.175ZM95.4063 12.525C95.4063 16.1 97.6313 19.25 102.481 19.25C106.856 19.25 108.931 16.375 109.181 14.55H105.181C104.931 15.5 103.881 16 102.481 16C100.206 16 99.1563 14.975 99.1563 13.525H108.731V12.275C108.731 8.45 105.981 6.125 102.056 6.125C98.1313 6.125 95.4063 8.525 95.4063 12.525ZM99.1563 11.275C99.1563 10.325 99.8313 9.375 102.056 9.375C104.281 9.375 104.981 10.325 104.981 11.275H99.1563ZM122.696 15.525C122.696 12.9 120.446 12.275 117.996 11.475C115.996 10.825 114.746 10.45 114.746 9.85C114.746 9.35 115.271 9.125 116.221 9.125C117.596 9.125 118.271 9.8 118.271 10.7H122.271C122.271 8.25 120.521 6.125 116.246 6.125C112.771 6.125 110.746 7.425 110.746 9.675C110.746 12.5 113.621 13.125 115.971 13.9C117.996 14.575 118.696 14.75 118.696 15.4C118.696 16 118.021 16.25 116.946 16.25C114.846 16.25 114.171 15.4 114.171 14.425H110.171C110.171 17.375 112.171 19.25 116.821 19.25C121.171 19.25 122.696 17.65 122.696 15.525ZM130.196 15.75V9.875H134.346V6.375H130.196V2.75L126.196 4V6.375H123.196V9.875H126.196V17.125C126.196 18.5 126.946 19.3 128.321 19.25L134.846 19V15.5L130.196 15.75ZM136.349 15.55C136.349 16.85 137.024 19.25 140.949 19.25C144.474 19.25 145.699 17.475 146.174 15.375H147.174L146.549 16.875V17.125C146.549 18.325 147.224 19 148.424 19H151.199V15.5H149.374V11.95C149.374 7.8 146.324 6.125 142.849 6.125C139.324 6.125 136.599 8 136.599 11.2H140.349C140.349 10.05 141.249 9.375 142.849 9.375C144.574 9.375 145.374 10 145.374 11.025L141.399 11.575C137.649 12.1 136.349 13.375 136.349 15.55ZM140.349 14.8C140.349 14.075 140.949 13.9 142.149 13.725L145.374 13.275C145.374 14.825 143.924 15.75 141.724 15.75C141.049 15.75 140.349 15.525 140.349 14.8ZM152.188 19H163.188V15.5H159.688V2.55C159.688 1.15 158.913 0.4 157.513 0.449999L152.688 0.625V4.125L155.688 3.975V15.5H152.188V19ZM169.454 15.75V9.875H173.604V6.375H169.454V2.75L165.454 4V6.375H162.454V9.875H165.454V17.125C165.454 18.5 166.204 19.3 167.579 19.25L174.104 19V15.5L169.454 15.75ZM182.456 15.75C180.531 15.75 179.856 14.875 179.856 12.575V6.375H175.856V13.2C175.856 17.1 177.806 19.25 181.031 19.25C183.731 19.25 185.306 17.475 185.806 15.225H186.806L186.056 17.475V19H190.056V6.375H186.056V11.05C186.056 14.6 184.631 15.75 182.456 15.75ZM199.649 9.625C201.574 9.625 202.249 10.5 202.249 12.8V19H206.249V12.175C206.249 8.275 204.299 6.125 201.074 6.125C198.374 6.125 196.799 7.9 196.299 10.15H195.299L196.049 7.9V6.375H192.049V19H196.049V14.325C196.049 10.775 197.474 9.625 199.649 9.625ZM222.791 6.375C221.666 6.375 220.366 6.5 219.616 7.475C218.291 6.5 216.541 6.125 214.616 6.125C210.641 6.125 207.491 7.725 207.491 11.05C207.491 15.2 212.366 15.875 216.991 14.225V15.225C214.691 15.775 212.091 16.075 209.216 16.375L209.641 18.625C213.516 17.975 218.041 17.15 218.041 19C218.041 20.375 216.491 20.5 208.316 20.5V24C217.691 24 222.066 23.575 222.066 19.85C222.066 17.175 219.391 16.425 216.516 16.6C219.991 15.425 222.216 13.925 222.216 11.55C222.216 10.875 222.016 10.3 221.866 10.1C222.216 9.875 222.666 9.875 223.041 9.875H223.891V6.375H222.791ZM214.866 12.975C212.466 12.975 211.491 12.375 211.491 11.3C211.491 10.25 212.466 9.625 214.866 9.625C217.266 9.625 218.216 10.25 218.216 11.3C218.216 12.375 217.266 12.975 214.866 12.975ZM242.124 6.375L239.249 18H238.249L235.349 6.375H231.399L234.624 19H242.874L246.074 6.375H242.124ZM246.578 12.675C246.578 17.1 249.728 19.25 253.703 19.25C257.653 19.25 260.803 17.1 260.803 12.675C260.803 8.275 257.653 6.125 253.703 6.125C249.728 6.125 246.578 8.275 246.578 12.675ZM250.578 12.675C250.578 10.575 251.803 9.625 253.703 9.625C255.578 9.625 256.803 10.575 256.803 12.675C256.803 14.8 255.578 15.75 253.703 15.75C251.803 15.75 250.578 14.8 250.578 12.675ZM270.157 9.625C272.082 9.625 272.757 10.5 272.757 12.8V19H276.757V12.175C276.757 8.275 274.807 6.125 271.582 6.125C268.882 6.125 267.307 7.9 266.807 10.15H265.807L266.557 7.9V6.375H262.557V19H266.557V14.325C266.557 10.775 267.982 9.625 270.157 9.625ZM0.47168 43H6.97168C11.5717 43 15.2467 42.325 15.2467 38.325C15.2467 34.575 12.3967 34.325 9.72168 34.225V33.225C11.5967 33.075 13.9467 33 13.9467 29.7C13.9467 26.225 11.5717 25.375 6.67168 25.375H0.47168V43ZM4.47168 32.075V28.875H7.17168C8.79668 28.875 9.94668 28.875 9.94668 30.475C9.94668 32.075 8.79668 32.075 7.17168 32.075H4.47168ZM4.47168 39.5V35.575H7.47168C9.84668 35.575 11.2467 35.575 11.2467 37.55C11.2467 39.5 9.84668 39.5 7.47168 39.5H4.47168ZM16.7441 36.525C16.7441 40.1 18.9691 43.25 23.8191 43.25C28.1941 43.25 30.2691 40.375 30.5191 38.55H26.5191C26.2691 39.5 25.2191 40 23.8191 40C21.5441 40 20.4941 38.975 20.4941 37.525H30.0691V36.275C30.0691 32.45 27.3191 30.125 23.3941 30.125C19.4691 30.125 16.7441 32.525 16.7441 36.525ZM20.4941 35.275C20.4941 34.325 21.1691 33.375 23.3941 33.375C25.6191 33.375 26.3191 34.325 26.3191 35.275H20.4941ZM39.8588 33.625C41.7838 33.625 42.4588 34.5 42.4588 36.8V43H46.4588V36.175C46.4588 32.275 44.5088 30.125 41.2838 30.125C38.5838 30.125 37.0088 31.9 36.5088 34.15H35.5088L36.2588 31.9V30.375H32.2588V43H36.2588V38.325C36.2588 34.775 37.6838 33.625 39.8588 33.625ZM54.7953 39.75C52.8703 39.75 52.1953 38.875 52.1953 36.575V30.375H48.1953V37.2C48.1953 41.1 50.1453 43.25 53.3703 43.25C56.0703 43.25 57.6453 41.475 58.1453 39.225H59.1453L58.3953 41.475V43H62.3953V30.375H58.3953V35.05C58.3953 38.6 56.9703 39.75 54.7953 39.75ZM70.8945 39.75V33.875H75.0445V30.375H70.8945V26.75L66.8945 28V30.375H63.8945V33.875H66.8945V41.125C66.8945 42.5 67.6445 43.3 69.0195 43.25L75.5445 43V39.5L70.8945 39.75ZM77.0469 43H89.4719V39.5H80.2969L78.0469 40.25V39.25L89.4719 37.125V30.375H77.0469V33.875H86.2219L88.4719 33.125V34.125L77.0469 36.25V43ZM90.9873 36.525C90.9873 40.1 93.2123 43.25 98.0623 43.25C102.437 43.25 104.512 40.375 104.762 38.55H100.762C100.512 39.5 99.4623 40 98.0623 40C95.7873 40 94.7373 38.975 94.7373 37.525H104.312V36.275C104.312 32.45 101.562 30.125 97.6373 30.125C93.7123 30.125 90.9873 32.525 90.9873 36.525ZM94.7373 35.275C94.7373 34.325 95.4123 33.375 97.6373 33.375C99.8623 33.375 100.562 34.325 100.562 35.275H94.7373ZM106.502 43H110.502V33.725L116.927 33.875V30.375L108.652 30.175C107.277 30.15 106.502 30.9 106.502 32.275V43ZM117.94 36.675C117.94 41.1 121.09 43.25 125.065 43.25C129.015 43.25 132.165 41.1 132.165 36.675C132.165 32.275 129.015 30.125 125.065 30.125C121.09 30.125 117.94 32.275 117.94 36.675ZM121.94 36.675C121.94 34.575 123.165 33.625 125.065 33.625C126.94 33.625 128.165 34.575 128.165 36.675C128.165 38.8 126.94 39.75 125.065 39.75C123.165 39.75 121.94 38.8 121.94 36.675ZM133.675 43H137.675V42.225L136.925 39.975H137.925C138.575 41.65 139.775 43.25 142.9 43.25C146.55 43.25 148.375 40.25 148.375 36.675C148.375 33.1 146.55 30.125 142.9 30.125C139.775 30.125 138.575 31.725 137.925 33.4H136.925L137.675 31.15V24.625H133.675V43ZM137.675 36.675C137.675 34.55 138.875 33.625 141.025 33.625C143.175 33.625 144.375 34.55 144.375 36.675C144.375 38.8 143.175 39.75 141.025 39.75C138.875 39.75 137.675 38.8 137.675 36.675ZM149.63 36.525C149.63 40.1 151.855 43.25 156.705 43.25C161.08 43.25 163.155 40.375 163.405 38.55H159.405C159.155 39.5 158.105 40 156.705 40C154.43 40 153.38 38.975 153.38 37.525H162.955V36.275C162.955 32.45 160.205 30.125 156.28 30.125C152.355 30.125 149.63 32.525 149.63 36.525ZM153.38 35.275C153.38 34.325 154.055 33.375 156.28 33.375C158.505 33.375 159.205 34.325 159.205 35.275H153.38ZM165.145 43H169.145V33.725L175.57 33.875V30.375L167.295 30.175C165.92 30.15 165.145 30.9 165.145 32.275V43ZM184.677 28.125H187.327V24.625H185.177C180.952 24.625 178.977 26.525 178.977 29.925V30.375H176.577V33.875H178.977V39.5H176.577V43H186.627V39.5H182.977V33.875H186.627V30.375H182.977V30.05C182.977 28.65 183.502 28.125 184.677 28.125ZM188.32 43H199.32V39.5H195.82V26.55C195.82 25.15 195.045 24.4 193.645 24.45L188.82 24.625V28.125L191.82 27.975V39.5H188.32V43ZM204.057 29.125C205.657 29.125 206.582 28.425 206.582 27.125C206.582 25.85 205.657 25.125 204.057 25.125C202.457 25.125 201.582 25.85 201.582 27.125C201.582 28.425 202.457 29.125 204.057 29.125ZM210.557 29.125C212.157 29.125 213.082 28.425 213.082 27.125C213.082 25.85 212.157 25.125 210.557 25.125C208.957 25.125 208.082 25.85 208.082 27.125C208.082 28.425 208.957 29.125 210.557 29.125ZM200.582 39.55C200.582 40.85 201.257 43.25 205.182 43.25C208.707 43.25 209.932 41.475 210.407 39.375H211.407L210.782 40.875V41.125C210.782 42.325 211.457 43 212.657 43H215.432V39.5H213.607V35.95C213.607 31.8 210.557 30.125 207.082 30.125C203.557 30.125 200.832 32 200.832 35.2H204.582C204.582 34.05 205.482 33.375 207.082 33.375C208.807 33.375 209.607 34 209.607 35.025L205.632 35.575C201.882 36.1 200.582 37.375 200.582 39.55ZM204.582 38.8C204.582 38.075 205.182 37.9 206.382 37.725L209.607 37.275C209.607 38.825 208.157 39.75 205.957 39.75C205.282 39.75 204.582 39.525 204.582 38.8ZM216.183 36.675C216.183 40.9 219.058 43.25 223.083 43.25C226.533 43.25 229.683 41.375 229.858 37.775H225.858C225.708 38.9 224.683 39.75 223.083 39.75C221.183 39.75 220.183 38.625 220.183 36.675C220.183 34.75 221.183 33.625 223.083 33.625C224.683 33.625 225.708 34.475 225.858 35.6H229.858C229.683 32 226.533 30.125 223.083 30.125C219.058 30.125 216.183 32.475 216.183 36.675ZM240.38 30.125C237.68 30.125 236.105 31.9 235.605 34.15H234.605L235.355 31.9V24.625H231.355V43H235.355V38.325C235.355 34.775 236.78 33.625 238.955 33.625C240.88 33.625 241.555 34.5 241.555 36.8V43H245.555V36.175C245.555 32.275 243.605 30.125 240.38 30.125ZM247.042 36.525C247.042 40.1 249.267 43.25 254.117 43.25C258.492 43.25 260.567 40.375 260.817 38.55H256.817C256.567 39.5 255.517 40 254.117 40C251.842 40 250.792 38.975 250.792 37.525H260.367V36.275C260.367 32.45 257.617 30.125 253.692 30.125C249.767 30.125 247.042 32.525 247.042 36.525ZM250.792 35.275C250.792 34.325 251.467 33.375 253.692 33.375C255.917 33.375 256.617 34.325 256.617 35.275H250.792ZM270.157 33.625C272.082 33.625 272.757 34.5 272.757 36.8V43H276.757V36.175C276.757 32.275 274.807 30.125 271.582 30.125C268.882 30.125 267.307 31.9 266.807 34.15H265.807L266.557 31.9V30.375H262.557V43H266.557V38.325C266.557 34.775 267.982 33.625 270.157 33.625Z" fill="#03000F"/>
</svg>
