<svg width="167" height="14" viewBox="0 0 167 14" fill="none" xmlns="http://www.w3.org/2000/svg">
<path d="M4.13395 2.13H0.591953V12H2.83195V9.06H4.13395C6.62595 9.06 8.52995 8.584 8.52995 5.588C8.52995 2.606 6.62595 2.13 4.13395 2.13ZM4.27395 7.1H2.83195V4.09H4.27395C5.60395 4.09 6.28995 4.23 6.28995 5.588C6.28995 6.96 5.60395 7.1 4.27395 7.1ZM8.67586 12H14.8359V10.04H12.8759V2.788C12.8759 2.004 12.4419 1.584 11.6579 1.612L8.95586 1.71V3.67L10.6359 3.586V10.04H8.67586V12ZM19.0913 10.18C18.0133 10.18 17.6353 9.69 17.6353 8.402V4.93H15.3953V8.752C15.3953 10.936 16.4873 12.14 18.2933 12.14C19.8053 12.14 20.6873 11.146 20.9673 9.886H21.5273L21.1073 11.146V12H23.3473V4.93H21.1073V7.548C21.1073 9.536 20.3093 10.18 19.0913 10.18ZM31.2074 10.054C31.2074 8.584 29.9474 8.234 28.5754 7.786C27.4554 7.422 26.7554 7.212 26.7554 6.876C26.7554 6.596 27.0494 6.47 27.5814 6.47C28.3514 6.47 28.7294 6.848 28.7294 7.352H30.9694C30.9694 5.98 29.9894 4.79 27.5954 4.79C25.6494 4.79 24.5154 5.518 24.5154 6.778C24.5154 8.36 26.1254 8.71 27.4414 9.144C28.5754 9.522 28.9674 9.62 28.9674 9.984C28.9674 10.32 28.5894 10.46 27.9874 10.46C26.8114 10.46 26.4334 9.984 26.4334 9.438H24.1934C24.1934 11.09 25.3134 12.14 27.9174 12.14C30.3534 12.14 31.2074 11.244 31.2074 10.054ZM44.9422 9.284C44.9422 7.226 42.1562 6.442 40.3362 5.826C38.7542 5.294 38.5162 5.126 38.5162 4.678C38.5162 4.174 39.1462 3.95 40.1542 3.95C41.3722 3.95 42.2962 4.286 42.2962 5.49H44.5362C44.5362 3.53 43.1782 1.99 40.1542 1.99C37.6062 1.99 36.2762 2.914 36.2762 4.594C36.2762 6.526 37.9702 7.086 40.0562 7.786C41.4982 8.276 42.7022 8.598 42.7022 9.312C42.7022 9.844 42.2262 10.18 40.7842 10.18C38.8242 10.18 38.0682 9.704 38.0682 8.192H35.8282C35.8282 10.684 37.1582 12.14 40.7142 12.14C43.7522 12.14 44.9422 10.978 44.9422 9.284ZM51.4859 12H54.0339L51.6399 8.374L52.7319 7.87C53.3479 7.576 53.6139 7.142 53.6139 6.47V4.93H51.3739L51.4019 6.204L48.1679 7.688V1.71H45.9279V12H48.1679V9.998L49.7219 9.27L51.4859 12ZM57.4873 4.23C58.3133 4.23 58.8313 3.838 58.8313 3.11C58.8313 2.396 58.3133 1.99 57.4873 1.99C56.6613 1.99 56.1713 2.396 56.1713 3.11C56.1713 3.838 56.6613 4.23 57.4873 4.23ZM54.5893 12H60.7493V10.04H58.7473V5.966C58.7473 5.182 58.3133 4.748 57.5293 4.79L54.8693 4.93V6.89L56.5913 6.806V10.04H54.5893V12ZM61.4493 12H67.6093V10.04H65.6493V2.788C65.6493 2.004 65.2153 1.584 64.4313 1.612L61.7293 1.71V3.67L63.4093 3.586V10.04H61.4493V12ZM68.3126 12H74.4726V10.04H72.5126V2.788C72.5126 2.004 72.0786 1.584 71.2946 1.612L68.5926 1.71V3.67L70.2726 3.586V10.04H68.3126V12ZM82.0531 10.054C82.0531 8.584 80.7931 8.234 79.4211 7.786C78.3011 7.422 77.6011 7.212 77.6011 6.876C77.6011 6.596 77.8951 6.47 78.4271 6.47C79.1971 6.47 79.5751 6.848 79.5751 7.352H81.8151C81.8151 5.98 80.8351 4.79 78.4411 4.79C76.4951 4.79 75.3611 5.518 75.3611 6.778C75.3611 8.36 76.9711 8.71 78.2871 9.144C79.4211 9.522 79.8131 9.62 79.8131 9.984C79.8131 10.32 79.4351 10.46 78.8331 10.46C77.6571 10.46 77.2791 9.984 77.2791 9.438H75.0391C75.0391 11.09 76.1591 12.14 78.7631 12.14C81.1991 12.14 82.0531 11.244 82.0531 10.054ZM87.7621 0.604L83.0301 12.91L84.6121 13.526L89.3441 1.22L87.7621 0.604ZM90.741 7.058C90.741 10.082 92.365 12.14 95.319 12.14C98.035 12.14 99.253 10.152 99.267 7.058H99.827L99.407 8.598V12H101.647V7.688C101.647 6.918 101.227 6.498 100.457 6.498H95.305V8.178H97.587C97.587 9.508 96.747 10.18 95.403 10.18C93.779 10.18 92.981 9.242 92.981 7.058C92.981 4.888 93.989 3.95 95.711 3.95C97.195 3.95 97.937 4.496 98.161 5.658H100.401C100.107 3.502 98.189 1.99 95.711 1.99C92.855 1.99 90.741 4.048 90.741 7.058ZM102.482 8.374C102.482 10.376 103.728 12.14 106.444 12.14C108.894 12.14 110.056 10.53 110.196 9.508H107.956C107.816 10.04 107.228 10.32 106.444 10.32C105.17 10.32 104.582 9.746 104.582 8.934H109.944V8.234C109.944 6.092 108.404 4.79 106.206 4.79C104.008 4.79 102.482 6.134 102.482 8.374ZM104.582 7.674C104.582 7.142 104.96 6.61 106.206 6.61C107.452 6.61 107.844 7.142 107.844 7.674H104.582ZM114.39 10.18V6.89H116.714V4.93H114.39V2.9L112.15 3.6V4.93H110.47V6.89H112.15V10.95C112.15 11.72 112.57 12.168 113.34 12.14L116.994 12V10.04L114.39 10.18ZM124.794 4.23C125.62 4.23 126.138 3.838 126.138 3.11C126.138 2.396 125.62 1.99 124.794 1.99C123.968 1.99 123.478 2.396 123.478 3.11C123.478 3.838 123.968 4.23 124.794 4.23ZM121.896 12H128.056V10.04H126.054V5.966C126.054 5.182 125.62 4.748 124.836 4.79L122.176 4.93V6.89L123.898 6.806V10.04H121.896V12ZM133.159 6.75C134.237 6.75 134.615 7.24 134.615 8.528V12H136.855V8.178C136.855 5.994 135.763 4.79 133.957 4.79C132.445 4.79 131.562 5.784 131.283 7.044H130.723L131.143 5.784V4.93H128.903V12H131.143V9.382C131.143 7.394 131.941 6.75 133.159 6.75ZM144.261 12.14C147.425 12.322 148.265 11.006 148.265 8.22V3.18C148.265 2.41 147.845 1.962 147.075 1.99L143.057 2.13V4.09L146.025 3.95V7.464C146.025 9.158 145.899 10.278 144.261 10.18L141.755 10.04V12L144.261 12.14ZM149.39 8.458C149.39 10.936 151.154 12.14 153.38 12.14C155.592 12.14 157.356 10.936 157.356 8.458C157.356 5.994 155.592 4.79 153.38 4.79C151.154 4.79 149.39 5.994 149.39 8.458ZM151.63 8.458C151.63 7.282 152.316 6.75 153.38 6.75C154.43 6.75 155.116 7.282 155.116 8.458C155.116 9.648 154.43 10.18 153.38 10.18C152.316 10.18 151.63 9.648 151.63 8.458ZM158.201 12H160.441V11.566L160.021 10.306H160.581C160.945 11.244 161.617 12.14 163.367 12.14C165.411 12.14 166.433 10.46 166.433 8.458C166.433 6.456 165.411 4.79 163.367 4.79C161.617 4.79 160.945 5.686 160.581 6.624H160.021L160.441 5.364V1.71H158.201V12ZM160.441 8.458C160.441 7.268 161.113 6.75 162.317 6.75C163.521 6.75 164.193 7.268 164.193 8.458C164.193 9.648 163.521 10.18 162.317 10.18C161.113 10.18 160.441 9.648 160.441 8.458Z" fill="#03000F"/>
</svg>
