<svg width="296" height="24" viewBox="0 0 296 24" fill="none" xmlns="http://www.w3.org/2000/svg">
<path d="M6.87578 3.375H0.550781V21H4.55078V15.75H6.87578C11.3258 15.75 14.7258 14.9 14.7258 9.55C14.7258 4.225 11.3258 3.375 6.87578 3.375ZM7.12578 12.25H4.55078V6.875H7.12578C9.50078 6.875 10.7258 7.125 10.7258 9.55C10.7258 12 9.50078 12.25 7.12578 12.25ZM14.9863 21H25.9863V17.5H22.4863V4.55C22.4863 3.15 21.7113 2.4 20.3113 2.45L15.4863 2.625V6.125L18.4863 5.975V17.5H14.9863V21ZM33.5854 17.75C31.6604 17.75 30.9854 16.875 30.9854 14.575V8.375H26.9854V15.2C26.9854 19.1 28.9354 21.25 32.1604 21.25C34.8604 21.25 36.4354 19.475 36.9354 17.225H37.9354L37.1854 19.475V21H41.1854V8.375H37.1854V13.05C37.1854 16.6 35.7604 17.75 33.5854 17.75ZM55.2213 17.525C55.2213 14.9 52.9713 14.275 50.5213 13.475C48.5213 12.825 47.2713 12.45 47.2713 11.85C47.2713 11.35 47.7963 11.125 48.7463 11.125C50.1213 11.125 50.7963 11.8 50.7963 12.7H54.7963C54.7963 10.25 53.0463 8.125 48.7713 8.125C45.2963 8.125 43.2713 9.425 43.2713 11.675C43.2713 14.5 46.1463 15.125 48.4963 15.9C50.5213 16.575 51.2213 16.75 51.2213 17.4C51.2213 18 50.5463 18.25 49.4713 18.25C47.3713 18.25 46.6963 17.4 46.6963 16.425H42.6963C42.6963 19.375 44.6963 21.25 49.3463 21.25C53.6963 21.25 55.2213 19.65 55.2213 17.525ZM79.7477 16.15C79.7477 12.475 74.7727 11.075 71.5227 9.975C68.6977 9.025 68.2727 8.725 68.2727 7.925C68.2727 7.025 69.3977 6.625 71.1977 6.625C73.3727 6.625 75.0227 7.225 75.0227 9.375H79.0227C79.0227 5.875 76.5977 3.125 71.1977 3.125C66.6477 3.125 64.2727 4.775 64.2727 7.775C64.2727 11.225 67.2977 12.225 71.0227 13.475C73.5977 14.35 75.7477 14.925 75.7477 16.2C75.7477 17.15 74.8977 17.75 72.3227 17.75C68.8227 17.75 67.4727 16.9 67.4727 14.2H63.4727C63.4727 18.65 65.8477 21.25 72.1977 21.25C77.6227 21.25 79.7477 19.175 79.7477 16.15ZM91.4328 21H95.9828L91.7078 14.525L93.6578 13.625C94.7578 13.1 95.2328 12.325 95.2328 11.125V8.375H91.2328L91.2828 10.65L85.5078 13.3V2.625H81.5078V21H85.5078V17.425L88.2828 16.125L91.4328 21ZM102.15 7.125C103.625 7.125 104.55 6.425 104.55 5.125C104.55 3.85 103.625 3.125 102.15 3.125C100.675 3.125 99.7996 3.85 99.7996 5.125C99.7996 6.425 100.675 7.125 102.15 7.125ZM96.9746 21H107.975V17.5H104.4V10.225C104.4 8.825 103.625 8.05 102.225 8.125L97.4746 8.375V11.875L100.55 11.725V17.5H96.9746V21ZM109.225 21H120.225V17.5H116.725V4.55C116.725 3.15 115.95 2.4 114.55 2.45L109.725 2.625V6.125L112.725 5.975V17.5H109.225V21ZM121.48 21H132.48V17.5H128.98V4.55C128.98 3.15 128.205 2.4 126.805 2.45L121.98 2.625V6.125L124.98 5.975V17.5H121.48V21ZM146.017 17.525C146.017 14.9 143.767 14.275 141.317 13.475C139.317 12.825 138.067 12.45 138.067 11.85C138.067 11.35 138.592 11.125 139.542 11.125C140.917 11.125 141.592 11.8 141.592 12.7H145.592C145.592 10.25 143.842 8.125 139.567 8.125C136.092 8.125 134.067 9.425 134.067 11.675C134.067 14.5 136.942 15.125 139.292 15.9C141.317 16.575 142.017 16.75 142.017 17.4C142.017 18 141.342 18.25 140.267 18.25C138.167 18.25 137.492 17.4 137.492 16.425H133.492C133.492 19.375 135.492 21.25 140.142 21.25C144.492 21.25 146.017 19.65 146.017 17.525ZM163.219 0.65L154.769 22.625L157.594 23.725L166.044 1.75L163.219 0.65ZM182.12 3.375H175.795V21H179.795V15.75H182.12C186.57 15.75 189.97 14.9 189.97 9.55C189.97 4.225 186.57 3.375 182.12 3.375ZM182.37 12.25H179.795V6.875H182.37C184.745 6.875 185.97 7.125 185.97 9.55C185.97 12 184.745 12.25 182.37 12.25ZM190.725 14.675C190.725 19.1 193.875 21.25 197.85 21.25C201.8 21.25 204.95 19.1 204.95 14.675C204.95 10.275 201.8 8.125 197.85 8.125C193.875 8.125 190.725 10.275 190.725 14.675ZM194.725 14.675C194.725 12.575 195.95 11.625 197.85 11.625C199.725 11.625 200.95 12.575 200.95 14.675C200.95 16.8 199.725 17.75 197.85 17.75C195.95 17.75 194.725 16.8 194.725 14.675ZM206.703 21H210.703V11.725L217.128 11.875V8.375L208.853 8.175C207.478 8.15 206.703 8.9 206.703 10.275V21ZM224.88 17.75V11.875H229.03V8.375H224.88V4.75L220.88 6V8.375H217.88V11.875H220.88V19.125C220.88 20.5 221.63 21.3 223.005 21.25L229.53 21V17.5L224.88 17.75ZM239.126 6.125H241.776V2.625H239.626C235.401 2.625 233.426 4.525 233.426 7.925V8.375H231.026V11.875H233.426V17.5H231.026V21H241.076V17.5H237.426V11.875H241.076V8.375H237.426V8.05C237.426 6.65 237.951 6.125 239.126 6.125ZM242.531 14.675C242.531 19.1 245.681 21.25 249.656 21.25C253.606 21.25 256.756 19.1 256.756 14.675C256.756 10.275 253.606 8.125 249.656 8.125C245.681 8.125 242.531 10.275 242.531 14.675ZM246.531 14.675C246.531 12.575 247.756 11.625 249.656 11.625C251.531 11.625 252.756 12.575 252.756 14.675C252.756 16.8 251.531 17.75 249.656 17.75C247.756 17.75 246.531 16.8 246.531 14.675ZM257.76 21H268.76V17.5H265.26V4.55C265.26 3.15 264.485 2.4 263.085 2.45L258.26 2.625V6.125L261.26 5.975V17.5H257.76V21ZM275.196 7.125C276.671 7.125 277.596 6.425 277.596 5.125C277.596 3.85 276.671 3.125 275.196 3.125C273.721 3.125 272.846 3.85 272.846 5.125C272.846 6.425 273.721 7.125 275.196 7.125ZM270.021 21H281.021V17.5H277.446V10.225C277.446 8.825 276.671 8.05 275.271 8.125L270.521 8.375V11.875L273.596 11.725V17.5H270.021V21ZM281.765 14.675C281.765 19.1 284.915 21.25 288.89 21.25C292.84 21.25 295.99 19.1 295.99 14.675C295.99 10.275 292.84 8.125 288.89 8.125C284.915 8.125 281.765 10.275 281.765 14.675ZM285.765 14.675C285.765 12.575 286.99 11.625 288.89 11.625C290.765 11.625 291.99 12.575 291.99 14.675C291.99 16.8 290.765 17.75 288.89 17.75C286.99 17.75 285.765 16.8 285.765 14.675Z" fill="white"/>
</svg>
