<svg width="311" height="24" viewBox="0 0 311 24" fill="none" xmlns="http://www.w3.org/2000/svg">
<path d="M7.1541 3.375H0.829102V21H4.8291V15.75H7.1541C11.6041 15.75 15.0041 14.9 15.0041 9.55C15.0041 4.225 11.6041 3.375 7.1541 3.375ZM7.4041 12.25H4.8291V6.875H7.4041C9.7791 6.875 11.0041 7.125 11.0041 9.55C11.0041 12 9.7791 12.25 7.4041 12.25ZM15.2646 21H26.2646V17.5H22.7646V4.55C22.7646 3.15 21.9896 2.4 20.5896 2.45L15.7646 2.625V6.125L18.7646 5.975V17.5H15.2646V21ZM33.8637 17.75C31.9387 17.75 31.2637 16.875 31.2637 14.575V8.375H27.2637V15.2C27.2637 19.1 29.2137 21.25 32.4387 21.25C35.1387 21.25 36.7137 19.475 37.2137 17.225H38.2137L37.4637 19.475V21H41.4637V8.375H37.4637V13.05C37.4637 16.6 36.0387 17.75 33.8637 17.75ZM55.4996 17.525C55.4996 14.9 53.2496 14.275 50.7996 13.475C48.7996 12.825 47.5496 12.45 47.5496 11.85C47.5496 11.35 48.0746 11.125 49.0246 11.125C50.3996 11.125 51.0746 11.8 51.0746 12.7H55.0746C55.0746 10.25 53.3246 8.125 49.0496 8.125C45.5746 8.125 43.5496 9.425 43.5496 11.675C43.5496 14.5 46.4246 15.125 48.7746 15.9C50.7996 16.575 51.4996 16.75 51.4996 17.4C51.4996 18 50.8246 18.25 49.7496 18.25C47.6496 18.25 46.9746 17.4 46.9746 16.425H42.9746C42.9746 19.375 44.9746 21.25 49.6246 21.25C53.9746 21.25 55.4996 19.65 55.4996 17.525ZM80.026 16.15C80.026 12.475 75.051 11.075 71.801 9.975C68.976 9.025 68.551 8.725 68.551 7.925C68.551 7.025 69.676 6.625 71.476 6.625C73.651 6.625 75.301 7.225 75.301 9.375H79.301C79.301 5.875 76.876 3.125 71.476 3.125C66.926 3.125 64.551 4.775 64.551 7.775C64.551 11.225 67.576 12.225 71.301 13.475C73.876 14.35 76.026 14.925 76.026 16.2C76.026 17.15 75.176 17.75 72.601 17.75C69.101 17.75 67.751 16.9 67.751 14.2H63.751C63.751 18.65 66.126 21.25 72.476 21.25C77.901 21.25 80.026 19.175 80.026 16.15ZM91.7111 21H96.2611L91.9861 14.525L93.9361 13.625C95.0361 13.1 95.5111 12.325 95.5111 11.125V8.375H91.5111L91.5611 10.65L85.7861 13.3V2.625H81.7861V21H85.7861V17.425L88.5611 16.125L91.7111 21ZM102.428 7.125C103.903 7.125 104.828 6.425 104.828 5.125C104.828 3.85 103.903 3.125 102.428 3.125C100.953 3.125 100.078 3.85 100.078 5.125C100.078 6.425 100.953 7.125 102.428 7.125ZM97.2529 21H108.253V17.5H104.678V10.225C104.678 8.825 103.903 8.05 102.503 8.125L97.7529 8.375V11.875L100.828 11.725V17.5H97.2529V21ZM109.503 21H120.503V17.5H117.003V4.55C117.003 3.15 116.228 2.4 114.828 2.45L110.003 2.625V6.125L113.003 5.975V17.5H109.503V21ZM121.759 21H132.759V17.5H129.259V4.55C129.259 3.15 128.484 2.4 127.084 2.45L122.259 2.625V6.125L125.259 5.975V17.5H121.759V21ZM146.296 17.525C146.296 14.9 144.046 14.275 141.596 13.475C139.596 12.825 138.346 12.45 138.346 11.85C138.346 11.35 138.871 11.125 139.821 11.125C141.196 11.125 141.871 11.8 141.871 12.7H145.871C145.871 10.25 144.121 8.125 139.846 8.125C136.371 8.125 134.346 9.425 134.346 11.675C134.346 14.5 137.221 15.125 139.571 15.9C141.596 16.575 142.296 16.75 142.296 17.4C142.296 18 141.621 18.25 140.546 18.25C138.446 18.25 137.771 17.4 137.771 16.425H133.771C133.771 19.375 135.771 21.25 140.421 21.25C144.771 21.25 146.296 19.65 146.296 17.525ZM163.497 0.65L155.047 22.625L157.872 23.725L166.322 1.75L163.497 0.65ZM175.823 12.175C175.823 17.575 178.723 21.25 183.998 21.25C188.848 21.25 191.023 17.7 191.048 12.175H192.048L191.298 14.925V21H195.298V13.3C195.298 11.925 194.548 11.175 193.173 11.175H183.973V14.175H188.048C188.048 16.55 186.548 17.75 184.148 17.75C181.248 17.75 179.823 16.075 179.823 12.175C179.823 8.3 181.623 6.625 184.698 6.625C187.348 6.625 188.673 7.6 189.073 9.675H193.073C192.548 5.825 189.123 3.125 184.698 3.125C179.598 3.125 175.823 6.8 175.823 12.175ZM196.789 14.525C196.789 18.1 199.014 21.25 203.864 21.25C208.239 21.25 210.314 18.375 210.564 16.55H206.564C206.314 17.5 205.264 18 203.864 18C201.589 18 200.539 16.975 200.539 15.525H210.114V14.275C210.114 10.45 207.364 8.125 203.439 8.125C199.514 8.125 196.789 10.525 196.789 14.525ZM200.539 13.275C200.539 12.325 201.214 11.375 203.439 11.375C205.664 11.375 206.364 12.325 206.364 13.275H200.539ZM218.054 17.75V11.875H222.204V8.375H218.054V4.75L214.054 6V8.375H211.054V11.875H214.054V19.125C214.054 20.5 214.804 21.3 216.179 21.25L222.704 21V17.5L218.054 17.75ZM236.632 7.125C238.107 7.125 239.032 6.425 239.032 5.125C239.032 3.85 238.107 3.125 236.632 3.125C235.157 3.125 234.282 3.85 234.282 5.125C234.282 6.425 235.157 7.125 236.632 7.125ZM231.457 21H242.457V17.5H238.882V10.225C238.882 8.825 238.107 8.05 236.707 8.125L231.957 8.375V11.875L235.032 11.725V17.5H231.457V21ZM251.569 11.625C253.494 11.625 254.169 12.5 254.169 14.8V21H258.169V14.175C258.169 10.275 256.219 8.125 252.994 8.125C250.294 8.125 248.719 9.9 248.219 12.15H247.219L247.969 9.9V8.375H243.969V21H247.969V16.325C247.969 12.775 249.394 11.625 251.569 11.625ZM271.394 21.25C277.044 21.575 278.544 19.225 278.544 14.25V5.25C278.544 3.875 277.794 3.075 276.419 3.125L269.244 3.375V6.875L274.544 6.625V12.9C274.544 15.925 274.319 17.925 271.394 17.75L266.919 17.5V21L271.394 21.25ZM280.554 14.675C280.554 19.1 283.704 21.25 287.679 21.25C291.629 21.25 294.779 19.1 294.779 14.675C294.779 10.275 291.629 8.125 287.679 8.125C283.704 8.125 280.554 10.275 280.554 14.675ZM284.554 14.675C284.554 12.575 285.779 11.625 287.679 11.625C289.554 11.625 290.779 12.575 290.779 14.675C290.779 16.8 289.554 17.75 287.679 17.75C285.779 17.75 284.554 16.8 284.554 14.675ZM296.288 21H300.288V20.225L299.538 17.975H300.538C301.188 19.65 302.388 21.25 305.513 21.25C309.163 21.25 310.988 18.25 310.988 14.675C310.988 11.1 309.163 8.125 305.513 8.125C302.388 8.125 301.188 9.725 300.538 11.4H299.538L300.288 9.15V2.625H296.288V21ZM300.288 14.675C300.288 12.55 301.488 11.625 303.638 11.625C305.788 11.625 306.988 12.55 306.988 14.675C306.988 16.8 305.788 17.75 303.638 17.75C301.488 17.75 300.288 16.8 300.288 14.675Z" fill="#fff"/>
</svg>
