<svg width="852" height="753" viewBox="0 0 852 753" fill="none" xmlns="http://www.w3.org/2000/svg">
<path d="M411.095 146.4C429.739 112.314 457.388 84.0029 491.023 64.557C524.659 45.1112 562.99 35.2775 601.833 36.1291C640.676 36.9807 678.539 48.4848 711.29 69.3861C744.041 90.2874 770.422 119.783 787.554 154.654L597.184 248.184L411.095 146.4Z" fill="#5D3EDE"/>
<path d="M579.171 459.522C530.135 455.343 484.077 434.242 448.89 399.834C413.702 365.427 391.575 319.853 386.299 270.923C381.022 221.992 392.925 172.749 419.969 131.631C447.012 90.5125 487.512 60.0779 534.53 45.541L597.182 248.183L579.171 459.522Z" fill="#1E22AA"/>
<path d="M780.872 142.131C800.286 175.757 810.098 214.066 809.237 252.885C808.377 291.703 796.877 329.54 775.992 362.273C755.107 395.005 725.638 421.377 690.796 438.513C655.955 455.65 617.078 462.894 578.403 459.456L597.184 248.184L780.872 142.131Z" fill="#00ECAA"/>
<path d="M427.987 376.094C403.291 343.428 388.58 304.311 385.629 263.467C382.679 222.622 391.615 181.797 411.359 145.92L597.184 248.184L427.987 376.094Z" fill="#121E28"/>
<path d="M222.437 604.85H214.847V626H219.647V619.7H222.437C227.777 619.7 231.857 618.68 231.857 612.26C231.857 605.87 227.777 604.85 222.437 604.85ZM222.737 615.5H219.647V609.05H222.737C225.587 609.05 227.057 609.35 227.057 612.26C227.057 615.2 225.587 615.5 222.737 615.5ZM232.17 626H245.37V621.8H241.17V606.26C241.17 604.58 240.24 603.68 238.56 603.74L232.77 603.95V608.15L236.37 607.97V621.8H232.17V626ZM254.488 622.1C252.178 622.1 251.368 621.05 251.368 618.29V610.85H246.568V619.04C246.568 623.72 248.908 626.3 252.778 626.3C256.018 626.3 257.908 624.17 258.508 621.47H259.708L258.808 624.17V626H263.608V610.85H258.808V616.46C258.808 620.72 257.098 622.1 254.488 622.1ZM280.451 621.83C280.451 618.68 277.751 617.93 274.811 616.97C272.411 616.19 270.911 615.74 270.911 615.02C270.911 614.42 271.541 614.15 272.681 614.15C274.331 614.15 275.141 614.96 275.141 616.04H279.941C279.941 613.1 277.841 610.55 272.711 610.55C268.541 610.55 266.111 612.11 266.111 614.81C266.111 618.2 269.561 618.95 272.381 619.88C274.811 620.69 275.651 620.9 275.651 621.68C275.651 622.4 274.841 622.7 273.551 622.7C271.031 622.7 270.221 621.68 270.221 620.51H265.421C265.421 624.05 267.821 626.3 273.401 626.3C278.621 626.3 280.451 624.38 280.451 621.83ZM309.883 620.18C309.883 615.77 303.913 614.09 300.013 612.77C296.623 611.63 296.113 611.27 296.113 610.31C296.113 609.23 297.463 608.75 299.623 608.75C302.233 608.75 304.213 609.47 304.213 612.05H309.013C309.013 607.85 306.103 604.55 299.623 604.55C294.163 604.55 291.313 606.53 291.313 610.13C291.313 614.27 294.943 615.47 299.413 616.97C302.503 618.02 305.083 618.71 305.083 620.24C305.083 621.38 304.063 622.1 300.973 622.1C296.773 622.1 295.153 621.08 295.153 617.84H290.353C290.353 623.18 293.203 626.3 300.823 626.3C307.333 626.3 309.883 623.81 309.883 620.18ZM323.905 626H329.365L324.235 618.23L326.575 617.15C327.895 616.52 328.465 615.59 328.465 614.15V610.85H323.665L323.725 613.58L316.795 616.76V603.95H311.995V626H316.795V621.71L320.125 620.15L323.905 626ZM336.765 609.35C338.535 609.35 339.645 608.51 339.645 606.95C339.645 605.42 338.535 604.55 336.765 604.55C334.995 604.55 333.945 605.42 333.945 606.95C333.945 608.51 334.995 609.35 336.765 609.35ZM330.555 626H343.755V621.8H339.465V613.07C339.465 611.39 338.535 610.46 336.855 610.55L331.155 610.85V615.05L334.845 614.87V621.8H330.555V626ZM345.255 626H358.455V621.8H354.255V606.26C354.255 604.58 353.325 603.68 351.645 603.74L345.855 603.95V608.15L349.455 607.97V621.8H345.255V626ZM359.963 626H373.163V621.8H368.963V606.26C368.963 604.58 368.033 603.68 366.353 603.74L360.563 603.95V608.15L364.163 607.97V621.8H359.963V626ZM389.407 621.83C389.407 618.68 386.707 617.93 383.767 616.97C381.367 616.19 379.867 615.74 379.867 615.02C379.867 614.42 380.497 614.15 381.637 614.15C383.287 614.15 384.097 614.96 384.097 616.04H388.897C388.897 613.1 386.797 610.55 381.667 610.55C377.497 610.55 375.067 612.11 375.067 614.81C375.067 618.2 378.517 618.95 381.337 619.88C383.767 620.69 384.607 620.9 384.607 621.68C384.607 622.4 383.797 622.7 382.507 622.7C379.987 622.7 379.177 621.68 379.177 620.51H374.377C374.377 624.05 376.777 626.3 382.357 626.3C387.577 626.3 389.407 624.38 389.407 621.83Z" fill="#5D3EDE"/>
<path d="M75.3236 638.775C77.9236 638.775 80.007 639.383 81.5736 640.6C83.157 641.8 83.9486 644.033 83.9486 647.3C83.9486 650.483 83.157 652.733 81.5736 654.05C80.007 655.35 78.0986 656 75.8486 656H71.7236V638.775H75.3236ZM74.0986 640.675V654.125H76.0236C77.6236 654.125 78.9236 653.633 79.9236 652.65C80.9236 651.667 81.4236 649.883 81.4236 647.3C81.4236 645.483 81.1653 644.092 80.6486 643.125C80.132 642.142 79.4736 641.492 78.6736 641.175C77.8736 640.842 76.932 640.675 75.8486 640.675H74.0986ZM97.6375 649.025C97.6375 649.408 97.6208 649.8 97.5875 650.2H89.1875C89.2875 651.65 89.6542 652.717 90.2875 653.4C90.9208 654.083 91.7375 654.425 92.7375 654.425C93.3708 654.425 93.9542 654.333 94.4875 654.15C95.0208 653.967 95.5792 653.675 96.1625 653.275L97.1625 654.65C95.7625 655.75 94.2292 656.3 92.5625 656.3C90.7292 656.3 89.2958 655.7 88.2625 654.5C87.2458 653.3 86.7375 651.65 86.7375 649.55C86.7375 648.183 86.9542 646.975 87.3875 645.925C87.8375 644.858 88.4708 644.025 89.2875 643.425C90.1208 642.825 91.0958 642.525 92.2125 642.525C93.9625 642.525 95.3042 643.1 96.2375 644.25C97.1708 645.4 97.6375 646.992 97.6375 649.025ZM95.3625 648.35C95.3625 647.05 95.1042 646.058 94.5875 645.375C94.0708 644.692 93.2958 644.35 92.2625 644.35C90.3792 644.35 89.3542 645.733 89.1875 648.5H95.3625V648.35ZM104.886 642.525C105.786 642.525 106.594 642.65 107.311 642.9C108.027 643.15 108.711 643.525 109.361 644.025L108.386 645.475C107.786 645.092 107.211 644.808 106.661 644.625C106.127 644.442 105.561 644.35 104.961 644.35C104.211 644.35 103.619 644.508 103.186 644.825C102.752 645.125 102.536 645.542 102.536 646.075C102.536 646.608 102.736 647.025 103.136 647.325C103.552 647.625 104.294 647.917 105.361 648.2C106.827 648.567 107.919 649.067 108.636 649.7C109.369 650.333 109.736 651.2 109.736 652.3C109.736 653.6 109.227 654.592 108.211 655.275C107.211 655.958 105.986 656.3 104.536 656.3C102.536 656.3 100.877 655.725 99.5605 654.575L100.786 653.175C101.902 654.025 103.136 654.45 104.486 654.45C105.352 654.45 106.036 654.275 106.536 653.925C107.052 653.558 107.311 653.067 107.311 652.45C107.311 652 107.219 651.642 107.036 651.375C106.852 651.092 106.536 650.85 106.086 650.65C105.636 650.433 104.977 650.208 104.111 649.975C102.711 649.608 101.694 649.117 101.061 648.5C100.444 647.883 100.136 647.1 100.136 646.15C100.136 645.467 100.336 644.85 100.736 644.3C101.152 643.733 101.719 643.3 102.436 643C103.169 642.683 103.986 642.525 104.886 642.525ZM115.28 642.825V656H112.98V642.825H115.28ZM114.105 636.5C114.589 636.5 114.98 636.65 115.28 636.95C115.58 637.25 115.73 637.625 115.73 638.075C115.73 638.525 115.58 638.9 115.28 639.2C114.98 639.483 114.589 639.625 114.105 639.625C113.639 639.625 113.255 639.483 112.955 639.2C112.655 638.9 112.505 638.525 112.505 638.075C112.505 637.625 112.655 637.25 112.955 636.95C113.255 636.65 113.639 636.5 114.105 636.5ZM130.661 643.425C130.161 643.592 129.611 643.7 129.011 643.75C128.411 643.8 127.678 643.825 126.811 643.825C128.361 644.525 129.136 645.633 129.136 647.15C129.136 648.467 128.686 649.542 127.786 650.375C126.886 651.208 125.661 651.625 124.111 651.625C123.511 651.625 122.953 651.542 122.436 651.375C122.236 651.508 122.078 651.692 121.961 651.925C121.844 652.142 121.786 652.367 121.786 652.6C121.786 653.317 122.361 653.675 123.511 653.675H125.611C126.494 653.675 127.278 653.833 127.961 654.15C128.644 654.467 129.169 654.9 129.536 655.45C129.919 656 130.111 656.625 130.111 657.325C130.111 658.608 129.586 659.592 128.536 660.275C127.486 660.975 125.953 661.325 123.936 661.325C122.519 661.325 121.394 661.175 120.561 660.875C119.744 660.592 119.161 660.158 118.811 659.575C118.461 658.992 118.286 658.242 118.286 657.325H120.361C120.361 657.858 120.461 658.275 120.661 658.575C120.861 658.892 121.219 659.125 121.736 659.275C122.253 659.442 122.986 659.525 123.936 659.525C125.319 659.525 126.303 659.35 126.886 659C127.486 658.667 127.786 658.158 127.786 657.475C127.786 656.858 127.553 656.392 127.086 656.075C126.619 655.758 125.969 655.6 125.136 655.6H123.061C121.944 655.6 121.094 655.367 120.511 654.9C119.944 654.417 119.661 653.817 119.661 653.1C119.661 652.667 119.786 652.25 120.036 651.85C120.286 651.45 120.644 651.092 121.111 650.775C120.344 650.375 119.778 649.883 119.411 649.3C119.061 648.7 118.886 647.975 118.886 647.125C118.886 646.242 119.103 645.45 119.536 644.75C119.986 644.05 120.594 643.508 121.361 643.125C122.144 642.725 123.011 642.525 123.961 642.525C124.994 642.542 125.861 642.508 126.561 642.425C127.261 642.325 127.836 642.2 128.286 642.05C128.753 641.883 129.319 641.65 129.986 641.35L130.661 643.425ZM123.961 644.175C123.094 644.175 122.419 644.45 121.936 645C121.469 645.533 121.236 646.242 121.236 647.125C121.236 648.025 121.478 648.75 121.961 649.3C122.444 649.833 123.128 650.1 124.011 650.1C124.911 650.1 125.594 649.842 126.061 649.325C126.544 648.792 126.786 648.05 126.786 647.1C126.786 645.15 125.844 644.175 123.961 644.175ZM139.224 642.525C140.424 642.525 141.358 642.883 142.024 643.6C142.708 644.317 143.049 645.3 143.049 646.55V656H140.749V646.875C140.749 645.942 140.574 645.283 140.224 644.9C139.874 644.517 139.358 644.325 138.674 644.325C137.974 644.325 137.358 644.525 136.824 644.925C136.291 645.325 135.791 645.9 135.324 646.65V656H133.024V642.825H134.999L135.199 644.775C135.666 644.075 136.241 643.525 136.924 643.125C137.624 642.725 138.391 642.525 139.224 642.525ZM159.464 638.475C160.364 638.475 161.156 638.642 161.839 638.975C162.539 639.292 163.081 639.742 163.464 640.325C163.847 640.908 164.039 641.558 164.039 642.275C164.039 643.258 163.722 644.108 163.089 644.825C162.472 645.525 161.614 646.2 160.514 646.85L164.914 651C165.581 649.65 166.081 648.242 166.414 646.775L168.564 647.4C167.981 649.333 167.239 650.975 166.339 652.325L169.139 654.95L167.489 656.3L165.064 653.95C164.347 654.733 163.539 655.325 162.639 655.725C161.739 656.108 160.706 656.3 159.539 656.3C158.439 656.3 157.464 656.108 156.614 655.725C155.781 655.342 155.122 654.8 154.639 654.1C154.172 653.383 153.939 652.558 153.939 651.625C153.939 650.592 154.231 649.692 154.814 648.925C155.397 648.142 156.264 647.383 157.414 646.65C156.581 645.85 155.964 645.133 155.564 644.5C155.181 643.867 154.989 643.15 154.989 642.35C154.989 641.217 155.381 640.292 156.164 639.575C156.964 638.842 158.064 638.475 159.464 638.475ZM159.489 640.175C158.789 640.175 158.239 640.375 157.839 640.775C157.439 641.175 157.239 641.692 157.239 642.325C157.239 642.925 157.397 643.467 157.714 643.95C158.031 644.417 158.531 644.975 159.214 645.625C160.064 645.108 160.706 644.6 161.139 644.1C161.572 643.583 161.789 643.017 161.789 642.4C161.789 641.7 161.581 641.158 161.164 640.775C160.747 640.375 160.189 640.175 159.489 640.175ZM158.739 647.9C157.906 648.45 157.289 649.017 156.889 649.6C156.489 650.167 156.289 650.817 156.289 651.55C156.289 652.467 156.606 653.183 157.239 653.7C157.889 654.217 158.739 654.475 159.789 654.475C160.572 654.475 161.281 654.325 161.914 654.025C162.547 653.725 163.156 653.275 163.739 652.675L158.739 647.9ZM191.043 650.475C191.043 651.625 190.801 652.642 190.318 653.525C189.851 654.392 189.16 655.075 188.243 655.575C187.343 656.058 186.26 656.3 184.993 656.3C183.076 656.3 181.593 655.775 180.543 654.725C179.51 653.658 178.993 652.242 178.993 650.475V638.775H181.368V650.3C181.368 651.633 181.668 652.633 182.268 653.3C182.868 653.967 183.776 654.3 184.993 654.3C186.226 654.3 187.143 653.975 187.743 653.325C188.343 652.658 188.643 651.65 188.643 650.3V638.775H191.043V650.475ZM201.323 646.7L206.573 656H203.873L199.898 648.375L195.873 656H193.323L198.498 646.825L193.773 638.775H196.473L199.948 645.25L203.448 638.775H205.998L201.323 646.7ZM209.674 652.825C210.174 652.825 210.591 652.992 210.924 653.325C211.258 653.658 211.424 654.067 211.424 654.55C211.424 655.067 211.274 655.658 210.974 656.325L209.299 660.15H207.649L208.649 656C208.433 655.833 208.258 655.625 208.124 655.375C208.008 655.125 207.949 654.85 207.949 654.55C207.949 654.067 208.116 653.658 208.449 653.325C208.783 652.992 209.191 652.825 209.674 652.825ZM224.196 638.775V653.925H231.271L230.996 656H221.821V638.775H224.196ZM243.463 649.025C243.463 649.408 243.446 649.8 243.413 650.2H235.013C235.113 651.65 235.479 652.717 236.113 653.4C236.746 654.083 237.563 654.425 238.563 654.425C239.196 654.425 239.779 654.333 240.313 654.15C240.846 653.967 241.404 653.675 241.988 653.275L242.988 654.65C241.588 655.75 240.054 656.3 238.388 656.3C236.554 656.3 235.121 655.7 234.088 654.5C233.071 653.3 232.563 651.65 232.563 649.55C232.563 648.183 232.779 646.975 233.213 645.925C233.663 644.858 234.296 644.025 235.113 643.425C235.946 642.825 236.921 642.525 238.038 642.525C239.788 642.525 241.129 643.1 242.063 644.25C242.996 645.4 243.463 646.992 243.463 649.025ZM241.188 648.35C241.188 647.05 240.929 646.058 240.413 645.375C239.896 644.692 239.121 644.35 238.088 644.35C236.204 644.35 235.179 645.733 235.013 648.5H241.188V648.35ZM255.767 652.925C255.767 653.458 255.858 653.858 256.042 654.125C256.225 654.375 256.5 654.567 256.867 654.7L256.342 656.3C255.658 656.217 255.108 656.025 254.692 655.725C254.275 655.425 253.967 654.958 253.767 654.325C252.883 655.642 251.575 656.3 249.842 656.3C248.542 656.3 247.517 655.933 246.767 655.2C246.017 654.467 245.642 653.508 245.642 652.325C245.642 650.925 246.142 649.85 247.142 649.1C248.158 648.35 249.592 647.975 251.442 647.975H253.467V647C253.467 646.067 253.242 645.4 252.792 645C252.342 644.6 251.65 644.4 250.717 644.4C249.75 644.4 248.567 644.633 247.167 645.1L246.592 643.425C248.225 642.825 249.742 642.525 251.142 642.525C252.692 642.525 253.85 642.908 254.617 643.675C255.383 644.425 255.767 645.5 255.767 646.9V652.925ZM250.367 654.575C251.683 654.575 252.717 653.892 253.467 652.525V649.5H251.742C249.308 649.5 248.092 650.4 248.092 652.2C248.092 652.983 248.283 653.575 248.667 653.975C249.05 654.375 249.617 654.575 250.367 654.575ZM266.215 642.525C266.682 642.525 267.115 642.575 267.515 642.675L267.09 644.925C266.69 644.825 266.307 644.775 265.94 644.775C265.124 644.775 264.465 645.075 263.965 645.675C263.465 646.275 263.074 647.208 262.79 648.475V656H260.49V642.825H262.465L262.69 645.5C263.04 644.517 263.515 643.775 264.115 643.275C264.715 642.775 265.415 642.525 266.215 642.525ZM276.334 642.525C277.534 642.525 278.467 642.883 279.134 643.6C279.817 644.317 280.159 645.3 280.159 646.55V656H277.859V646.875C277.859 645.942 277.684 645.283 277.334 644.9C276.984 644.517 276.467 644.325 275.784 644.325C275.084 644.325 274.467 644.525 273.934 644.925C273.4 645.325 272.9 645.9 272.434 646.65V656H270.134V642.825H272.109L272.309 644.775C272.775 644.075 273.35 643.525 274.034 643.125C274.734 642.725 275.5 642.525 276.334 642.525ZM298.048 655.4C297.182 656 296.198 656.3 295.098 656.3C293.982 656.3 293.107 655.983 292.473 655.35C291.857 654.7 291.548 653.767 291.548 652.55V644.6H289.248V642.825H291.548V639.85L293.848 639.575V642.825H296.973L296.723 644.6H293.848V652.45C293.848 653.133 293.965 653.633 294.198 653.95C294.448 654.25 294.857 654.4 295.423 654.4C295.94 654.4 296.523 654.225 297.173 653.875L298.048 655.4ZM305.015 642.525C306.865 642.525 308.299 643.142 309.315 644.375C310.349 645.608 310.865 647.283 310.865 649.4C310.865 650.767 310.632 651.975 310.165 653.025C309.699 654.058 309.024 654.867 308.14 655.45C307.257 656.017 306.207 656.3 304.99 656.3C303.14 656.3 301.699 655.683 300.665 654.45C299.632 653.217 299.115 651.542 299.115 649.425C299.115 648.058 299.349 646.858 299.815 645.825C300.282 644.775 300.957 643.967 301.84 643.4C302.724 642.817 303.782 642.525 305.015 642.525ZM305.015 644.375C302.732 644.375 301.59 646.058 301.59 649.425C301.59 652.775 302.724 654.45 304.99 654.45C307.257 654.45 308.39 652.767 308.39 649.4C308.39 646.05 307.265 644.375 305.015 644.375ZM323.906 656.3C323.056 656.3 322.381 656.05 321.881 655.55C321.398 655.033 321.156 654.317 321.156 653.4V637.525L323.456 637.25V653.35C323.456 653.717 323.515 653.983 323.631 654.15C323.765 654.317 323.981 654.4 324.281 654.4C324.598 654.4 324.881 654.35 325.131 654.25L325.731 655.85C325.181 656.15 324.573 656.3 323.906 656.3ZM338.433 649.025C338.433 649.408 338.417 649.8 338.383 650.2H329.983C330.083 651.65 330.45 652.717 331.083 653.4C331.717 654.083 332.533 654.425 333.533 654.425C334.167 654.425 334.75 654.333 335.283 654.15C335.817 653.967 336.375 653.675 336.958 653.275L337.958 654.65C336.558 655.75 335.025 656.3 333.358 656.3C331.525 656.3 330.092 655.7 329.058 654.5C328.042 653.3 327.533 651.65 327.533 649.55C327.533 648.183 327.75 646.975 328.183 645.925C328.633 644.858 329.267 644.025 330.083 643.425C330.917 642.825 331.892 642.525 333.008 642.525C334.758 642.525 336.1 643.1 337.033 644.25C337.967 645.4 338.433 646.992 338.433 649.025ZM336.158 648.35C336.158 647.05 335.9 646.058 335.383 645.375C334.867 644.692 334.092 644.35 333.058 644.35C331.175 644.35 330.15 645.733 329.983 648.5H336.158V648.35ZM350.737 652.925C350.737 653.458 350.829 653.858 351.012 654.125C351.196 654.375 351.471 654.567 351.837 654.7L351.312 656.3C350.629 656.217 350.079 656.025 349.662 655.725C349.246 655.425 348.937 654.958 348.737 654.325C347.854 655.642 346.546 656.3 344.812 656.3C343.512 656.3 342.487 655.933 341.737 655.2C340.987 654.467 340.612 653.508 340.612 652.325C340.612 650.925 341.112 649.85 342.112 649.1C343.129 648.35 344.562 647.975 346.412 647.975H348.437V647C348.437 646.067 348.212 645.4 347.762 645C347.312 644.6 346.621 644.4 345.687 644.4C344.721 644.4 343.537 644.633 342.137 645.1L341.562 643.425C343.196 642.825 344.712 642.525 346.112 642.525C347.662 642.525 348.821 642.908 349.587 643.675C350.354 644.425 350.737 645.5 350.737 646.9V652.925ZM345.337 654.575C346.654 654.575 347.687 653.892 348.437 652.525V649.5H346.712C344.279 649.5 343.062 650.4 343.062 652.2C343.062 652.983 343.254 653.575 343.637 653.975C344.021 654.375 344.587 654.575 345.337 654.575ZM361.186 642.525C361.653 642.525 362.086 642.575 362.486 642.675L362.061 644.925C361.661 644.825 361.278 644.775 360.911 644.775C360.094 644.775 359.436 645.075 358.936 645.675C358.436 646.275 358.044 647.208 357.761 648.475V656H355.461V642.825H357.436L357.661 645.5C358.011 644.517 358.486 643.775 359.086 643.275C359.686 642.775 360.386 642.525 361.186 642.525ZM371.304 642.525C372.504 642.525 373.438 642.883 374.104 643.6C374.788 644.317 375.129 645.3 375.129 646.55V656H372.829V646.875C372.829 645.942 372.654 645.283 372.304 644.9C371.954 644.517 371.438 644.325 370.754 644.325C370.054 644.325 369.438 644.525 368.904 644.925C368.371 645.325 367.871 645.9 367.404 646.65V656H365.104V642.825H367.079L367.279 644.775C367.746 644.075 368.321 643.525 369.004 643.125C369.704 642.725 370.471 642.525 371.304 642.525ZM380.353 652.825C380.853 652.825 381.27 652.992 381.603 653.325C381.936 653.658 382.103 654.067 382.103 654.55C382.103 655.067 381.953 655.658 381.653 656.325L379.978 660.15H378.328L379.328 656C379.111 655.833 378.936 655.625 378.803 655.375C378.686 655.125 378.628 654.85 378.628 654.55C378.628 654.067 378.795 653.658 379.128 653.325C379.461 652.992 379.87 652.825 380.353 652.825ZM81.7418 668.775C83.8751 668.775 85.5251 669.225 86.6918 670.125C87.8585 671.008 88.4418 672.333 88.4418 674.1C88.4418 675.983 87.8335 677.383 86.6168 678.3C85.4001 679.217 83.7835 679.675 81.7668 679.675H79.5918V686H77.2168V668.775H81.7418ZM81.6668 677.8C83.0501 677.8 84.1001 677.533 84.8168 677C85.5501 676.467 85.9168 675.508 85.9168 674.125C85.9168 672.892 85.5501 672 84.8168 671.45C84.1001 670.9 83.0668 670.625 81.7168 670.625H79.5918V677.8H81.6668ZM96.8549 672.525C97.3215 672.525 97.7549 672.575 98.1549 672.675L97.7299 674.925C97.3299 674.825 96.9465 674.775 96.5799 674.775C95.7632 674.775 95.1049 675.075 94.6049 675.675C94.1049 676.275 93.7132 677.208 93.4299 678.475V686H91.1299V672.825H93.1049L93.3299 675.5C93.6799 674.517 94.1549 673.775 94.7549 673.275C95.3549 672.775 96.0549 672.525 96.8549 672.525ZM104.967 672.525C106.817 672.525 108.25 673.142 109.267 674.375C110.3 675.608 110.817 677.283 110.817 679.4C110.817 680.767 110.583 681.975 110.117 683.025C109.65 684.058 108.975 684.867 108.092 685.45C107.208 686.017 106.158 686.3 104.942 686.3C103.092 686.3 101.65 685.683 100.617 684.45C99.5833 683.217 99.0666 681.542 99.0666 679.425C99.0666 678.058 99.2999 676.858 99.7666 675.825C100.233 674.775 100.908 673.967 101.792 673.4C102.675 672.817 103.733 672.525 104.967 672.525ZM104.967 674.375C102.683 674.375 101.542 676.058 101.542 679.425C101.542 682.775 102.675 684.45 104.942 684.45C107.208 684.45 108.342 682.767 108.342 679.4C108.342 676.05 107.217 674.375 104.967 674.375ZM116.866 685.2C116.866 686.417 116.716 687.392 116.416 688.125C116.116 688.858 115.675 689.45 115.091 689.9C114.525 690.367 113.725 690.833 112.691 691.3L112.016 689.625C112.666 689.325 113.166 689.025 113.516 688.725C113.866 688.442 114.125 688.033 114.291 687.5C114.475 686.983 114.566 686.267 114.566 685.35V672.825H116.866V685.2ZM115.716 666.5C116.2 666.5 116.591 666.65 116.891 666.95C117.191 667.25 117.341 667.625 117.341 668.075C117.341 668.525 117.191 668.9 116.891 669.2C116.591 669.483 116.2 669.625 115.716 669.625C115.25 669.625 114.866 669.483 114.566 669.2C114.266 668.9 114.116 668.525 114.116 668.075C114.116 667.625 114.266 667.25 114.566 666.95C114.866 666.65 115.25 666.5 115.716 666.5ZM131.573 679.025C131.573 679.408 131.556 679.8 131.523 680.2H123.123C123.223 681.65 123.59 682.717 124.223 683.4C124.856 684.083 125.673 684.425 126.673 684.425C127.306 684.425 127.89 684.333 128.423 684.15C128.956 683.967 129.515 683.675 130.098 683.275L131.098 684.65C129.698 685.75 128.165 686.3 126.498 686.3C124.665 686.3 123.231 685.7 122.198 684.5C121.181 683.3 120.673 681.65 120.673 679.55C120.673 678.183 120.89 676.975 121.323 675.925C121.773 674.858 122.406 674.025 123.223 673.425C124.056 672.825 125.031 672.525 126.148 672.525C127.898 672.525 129.24 673.1 130.173 674.25C131.106 675.4 131.573 676.992 131.573 679.025ZM129.298 678.35C129.298 677.05 129.04 676.058 128.523 675.375C128.006 674.692 127.231 674.35 126.198 674.35C124.315 674.35 123.29 675.733 123.123 678.5H129.298V678.35ZM140.046 672.525C140.829 672.525 141.546 672.642 142.196 672.875C142.846 673.092 143.471 673.45 144.071 673.95L142.971 675.4C142.504 675.067 142.046 674.825 141.596 674.675C141.163 674.508 140.679 674.425 140.146 674.425C139.079 674.425 138.246 674.85 137.646 675.7C137.063 676.55 136.771 677.808 136.771 679.475C136.771 681.142 137.063 682.375 137.646 683.175C138.229 683.958 139.063 684.35 140.146 684.35C140.663 684.35 141.138 684.275 141.571 684.125C142.004 683.958 142.488 683.7 143.021 683.35L144.071 684.85C142.871 685.817 141.529 686.3 140.046 686.3C138.263 686.3 136.854 685.7 135.821 684.5C134.804 683.3 134.296 681.642 134.296 679.525C134.296 678.125 134.529 676.9 134.996 675.85C135.463 674.8 136.121 673.983 136.971 673.4C137.838 672.817 138.863 672.525 140.046 672.525ZM153.835 685.4C152.968 686 151.985 686.3 150.885 686.3C149.768 686.3 148.893 685.983 148.26 685.35C147.643 684.7 147.335 683.767 147.335 682.55V674.6H145.035V672.825H147.335V669.85L149.635 669.575V672.825H152.76L152.51 674.6H149.635V682.45C149.635 683.133 149.751 683.633 149.985 683.95C150.235 684.25 150.643 684.4 151.21 684.4C151.726 684.4 152.31 684.225 152.96 683.875L153.835 685.4ZM178.359 686H176.059L175.459 678.225C175.209 675.175 175.067 672.833 175.034 671.2L171.309 684.05H169.084L165.159 671.175C165.159 673.258 165.051 675.667 164.834 678.4L164.259 686H162.009L163.434 668.775H166.634L170.259 681.3L173.709 668.775H176.934L178.359 686ZM191.167 682.925C191.167 683.458 191.259 683.858 191.442 684.125C191.625 684.375 191.9 684.567 192.267 684.7L191.742 686.3C191.059 686.217 190.509 686.025 190.092 685.725C189.675 685.425 189.367 684.958 189.167 684.325C188.284 685.642 186.975 686.3 185.242 686.3C183.942 686.3 182.917 685.933 182.167 685.2C181.417 684.467 181.042 683.508 181.042 682.325C181.042 680.925 181.542 679.85 182.542 679.1C183.559 678.35 184.992 677.975 186.842 677.975H188.867V677C188.867 676.067 188.642 675.4 188.192 675C187.742 674.6 187.05 674.4 186.117 674.4C185.15 674.4 183.967 674.633 182.567 675.1L181.992 673.425C183.625 672.825 185.142 672.525 186.542 672.525C188.092 672.525 189.25 672.908 190.017 673.675C190.784 674.425 191.167 675.5 191.167 676.9V682.925ZM185.767 684.575C187.084 684.575 188.117 683.892 188.867 682.525V679.5H187.142C184.709 679.5 183.492 680.4 183.492 682.2C183.492 682.983 183.684 683.575 184.067 683.975C184.45 684.375 185.017 684.575 185.767 684.575ZM202.091 672.525C203.291 672.525 204.224 672.883 204.891 673.6C205.574 674.317 205.916 675.3 205.916 676.55V686H203.616V676.875C203.616 675.942 203.441 675.283 203.091 674.9C202.741 674.517 202.224 674.325 201.541 674.325C200.841 674.325 200.224 674.525 199.691 674.925C199.157 675.325 198.657 675.9 198.191 676.65V686H195.891V672.825H197.866L198.066 674.775C198.532 674.075 199.107 673.525 199.791 673.125C200.491 672.725 201.257 672.525 202.091 672.525ZM219.414 682.925C219.414 683.458 219.506 683.858 219.689 684.125C219.872 684.375 220.147 684.567 220.514 684.7L219.989 686.3C219.306 686.217 218.756 686.025 218.339 685.725C217.922 685.425 217.614 684.958 217.414 684.325C216.531 685.642 215.222 686.3 213.489 686.3C212.189 686.3 211.164 685.933 210.414 685.2C209.664 684.467 209.289 683.508 209.289 682.325C209.289 680.925 209.789 679.85 210.789 679.1C211.806 678.35 213.239 677.975 215.089 677.975H217.114V677C217.114 676.067 216.889 675.4 216.439 675C215.989 674.6 215.297 674.4 214.364 674.4C213.397 674.4 212.214 674.633 210.814 675.1L210.239 673.425C211.872 672.825 213.389 672.525 214.789 672.525C216.339 672.525 217.497 672.908 218.264 673.675C219.031 674.425 219.414 675.5 219.414 676.9V682.925ZM214.014 684.575C215.331 684.575 216.364 683.892 217.114 682.525V679.5H215.389C212.956 679.5 211.739 680.4 211.739 682.2C211.739 682.983 211.931 683.575 212.314 683.975C212.697 684.375 213.264 684.575 214.014 684.575ZM234.519 673.425C234.019 673.592 233.469 673.7 232.869 673.75C232.269 673.8 231.535 673.825 230.669 673.825C232.219 674.525 232.994 675.633 232.994 677.15C232.994 678.467 232.544 679.542 231.644 680.375C230.744 681.208 229.519 681.625 227.969 681.625C227.369 681.625 226.81 681.542 226.294 681.375C226.094 681.508 225.935 681.692 225.819 681.925C225.702 682.142 225.644 682.367 225.644 682.6C225.644 683.317 226.219 683.675 227.369 683.675H229.469C230.352 683.675 231.135 683.833 231.819 684.15C232.502 684.467 233.027 684.9 233.394 685.45C233.777 686 233.969 686.625 233.969 687.325C233.969 688.608 233.444 689.592 232.394 690.275C231.344 690.975 229.81 691.325 227.794 691.325C226.377 691.325 225.252 691.175 224.419 690.875C223.602 690.592 223.019 690.158 222.669 689.575C222.319 688.992 222.144 688.242 222.144 687.325H224.219C224.219 687.858 224.319 688.275 224.519 688.575C224.719 688.892 225.077 689.125 225.594 689.275C226.11 689.442 226.844 689.525 227.794 689.525C229.177 689.525 230.16 689.35 230.744 689C231.344 688.667 231.644 688.158 231.644 687.475C231.644 686.858 231.41 686.392 230.944 686.075C230.477 685.758 229.827 685.6 228.994 685.6H226.919C225.802 685.6 224.952 685.367 224.369 684.9C223.802 684.417 223.519 683.817 223.519 683.1C223.519 682.667 223.644 682.25 223.894 681.85C224.144 681.45 224.502 681.092 224.969 680.775C224.202 680.375 223.635 679.883 223.269 679.3C222.919 678.7 222.744 677.975 222.744 677.125C222.744 676.242 222.96 675.45 223.394 674.75C223.844 674.05 224.452 673.508 225.219 673.125C226.002 672.725 226.869 672.525 227.819 672.525C228.852 672.542 229.719 672.508 230.419 672.425C231.119 672.325 231.694 672.2 232.144 672.05C232.61 671.883 233.177 671.65 233.844 671.35L234.519 673.425ZM227.819 674.175C226.952 674.175 226.277 674.45 225.794 675C225.327 675.533 225.094 676.242 225.094 677.125C225.094 678.025 225.335 678.75 225.819 679.3C226.302 679.833 226.985 680.1 227.869 680.1C228.769 680.1 229.452 679.842 229.919 679.325C230.402 678.792 230.644 678.05 230.644 677.1C230.644 675.15 229.702 674.175 227.819 674.175ZM246.441 679.025C246.441 679.408 246.425 679.8 246.391 680.2H237.991C238.091 681.65 238.458 682.717 239.091 683.4C239.725 684.083 240.541 684.425 241.541 684.425C242.175 684.425 242.758 684.333 243.291 684.15C243.825 683.967 244.383 683.675 244.966 683.275L245.966 684.65C244.566 685.75 243.033 686.3 241.366 686.3C239.533 686.3 238.1 685.7 237.066 684.5C236.05 683.3 235.541 681.65 235.541 679.55C235.541 678.183 235.758 676.975 236.191 675.925C236.641 674.858 237.275 674.025 238.091 673.425C238.925 672.825 239.9 672.525 241.016 672.525C242.766 672.525 244.108 673.1 245.041 674.25C245.975 675.4 246.441 676.992 246.441 679.025ZM244.166 678.35C244.166 677.05 243.908 676.058 243.391 675.375C242.875 674.692 242.1 674.35 241.066 674.35C239.183 674.35 238.158 675.733 237.991 678.5H244.166V678.35ZM263.339 672.525C264.423 672.525 265.289 672.892 265.939 673.625C266.589 674.342 266.914 675.317 266.914 676.55V686H264.614V676.875C264.614 675.175 263.998 674.325 262.764 674.325C262.114 674.325 261.564 674.517 261.114 674.9C260.664 675.267 260.181 675.85 259.664 676.65V686H257.364V676.875C257.364 675.175 256.748 674.325 255.514 674.325C254.848 674.325 254.289 674.517 253.839 674.9C253.389 675.283 252.914 675.867 252.414 676.65V686H250.114V672.825H252.089L252.289 674.75C253.273 673.267 254.539 672.525 256.089 672.525C256.906 672.525 257.598 672.733 258.164 673.15C258.748 673.567 259.164 674.15 259.414 674.9C259.931 674.133 260.498 673.55 261.114 673.15C261.748 672.733 262.489 672.525 263.339 672.525ZM281.5 679.025C281.5 679.408 281.483 679.8 281.45 680.2H273.05C273.15 681.65 273.516 682.717 274.15 683.4C274.783 684.083 275.6 684.425 276.6 684.425C277.233 684.425 277.816 684.333 278.35 684.15C278.883 683.967 279.441 683.675 280.025 683.275L281.025 684.65C279.625 685.75 278.091 686.3 276.425 686.3C274.591 686.3 273.158 685.7 272.125 684.5C271.108 683.3 270.6 681.65 270.6 679.55C270.6 678.183 270.816 676.975 271.25 675.925C271.7 674.858 272.333 674.025 273.15 673.425C273.983 672.825 274.958 672.525 276.075 672.525C277.825 672.525 279.166 673.1 280.1 674.25C281.033 675.4 281.5 676.992 281.5 679.025ZM279.225 678.35C279.225 677.05 278.966 676.058 278.45 675.375C277.933 674.692 277.158 674.35 276.125 674.35C274.241 674.35 273.216 675.733 273.05 678.5H279.225V678.35ZM291.373 672.525C292.573 672.525 293.506 672.883 294.173 673.6C294.856 674.317 295.198 675.3 295.198 676.55V686H292.898V676.875C292.898 675.942 292.723 675.283 292.373 674.9C292.023 674.517 291.506 674.325 290.823 674.325C290.123 674.325 289.506 674.525 288.973 674.925C288.44 675.325 287.94 675.9 287.473 676.65V686H285.173V672.825H287.148L287.348 674.775C287.815 674.075 288.39 673.525 289.073 673.125C289.773 672.725 290.54 672.525 291.373 672.525ZM306.471 685.4C305.605 686 304.621 686.3 303.521 686.3C302.405 686.3 301.53 685.983 300.896 685.35C300.28 684.7 299.971 683.767 299.971 682.55V674.6H297.671V672.825H299.971V669.85L302.271 669.575V672.825H305.396L305.146 674.6H302.271V682.45C302.271 683.133 302.388 683.633 302.621 683.95C302.871 684.25 303.28 684.4 303.846 684.4C304.363 684.4 304.946 684.225 305.596 683.875L306.471 685.4ZM323.196 676.9C324.379 677.1 325.337 677.517 326.071 678.15C326.804 678.783 327.171 679.767 327.171 681.1C327.171 684.367 324.896 686 320.346 686H315.596V668.775H319.671C321.854 668.775 323.521 669.133 324.671 669.85C325.837 670.567 326.421 671.658 326.421 673.125C326.421 674.125 326.104 674.958 325.471 675.625C324.854 676.292 324.096 676.717 323.196 676.9ZM317.971 670.65V676.075H320.571C321.571 676.075 322.387 675.833 323.021 675.35C323.671 674.867 323.996 674.183 323.996 673.3C323.996 672.3 323.654 671.608 322.971 671.225C322.304 670.842 321.287 670.65 319.921 670.65H317.971ZM320.346 684.1C321.746 684.1 322.812 683.892 323.546 683.475C324.296 683.058 324.671 682.267 324.671 681.1C324.671 679.967 324.312 679.15 323.596 678.65C322.879 678.15 321.946 677.9 320.796 677.9H317.971V684.1H320.346ZM339.556 682.925C339.556 683.458 339.647 683.858 339.831 684.125C340.014 684.375 340.289 684.567 340.656 684.7L340.131 686.3C339.447 686.217 338.897 686.025 338.481 685.725C338.064 685.425 337.756 684.958 337.556 684.325C336.672 685.642 335.364 686.3 333.631 686.3C332.331 686.3 331.306 685.933 330.556 685.2C329.806 684.467 329.431 683.508 329.431 682.325C329.431 680.925 329.931 679.85 330.931 679.1C331.947 678.35 333.381 677.975 335.231 677.975H337.256V677C337.256 676.067 337.031 675.4 336.581 675C336.131 674.6 335.439 674.4 334.506 674.4C333.539 674.4 332.356 674.633 330.956 675.1L330.381 673.425C332.014 672.825 333.531 672.525 334.931 672.525C336.481 672.525 337.639 672.908 338.406 673.675C339.172 674.425 339.556 675.5 339.556 676.9V682.925ZM334.156 684.575C335.472 684.575 336.506 683.892 337.256 682.525V679.5H335.531C333.097 679.5 331.881 680.4 331.881 682.2C331.881 682.983 332.072 683.575 332.456 683.975C332.839 684.375 333.406 684.575 334.156 684.575ZM347.61 672.525C348.51 672.525 349.318 672.65 350.035 672.9C350.752 673.15 351.435 673.525 352.085 674.025L351.11 675.475C350.51 675.092 349.935 674.808 349.385 674.625C348.852 674.442 348.285 674.35 347.685 674.35C346.935 674.35 346.343 674.508 345.91 674.825C345.477 675.125 345.26 675.542 345.26 676.075C345.26 676.608 345.46 677.025 345.86 677.325C346.277 677.625 347.018 677.917 348.085 678.2C349.552 678.567 350.643 679.067 351.36 679.7C352.093 680.333 352.46 681.2 352.46 682.3C352.46 683.6 351.952 684.592 350.935 685.275C349.935 685.958 348.71 686.3 347.26 686.3C345.26 686.3 343.602 685.725 342.285 684.575L343.51 683.175C344.627 684.025 345.86 684.45 347.21 684.45C348.077 684.45 348.76 684.275 349.26 683.925C349.777 683.558 350.035 683.067 350.035 682.45C350.035 682 349.943 681.642 349.76 681.375C349.577 681.092 349.26 680.85 348.81 680.65C348.36 680.433 347.702 680.208 346.835 679.975C345.435 679.608 344.418 679.117 343.785 678.5C343.168 677.883 342.86 677.1 342.86 676.15C342.86 675.467 343.06 674.85 343.46 674.3C343.877 673.733 344.443 673.3 345.16 673C345.893 672.683 346.71 672.525 347.61 672.525ZM358.005 672.825V686H355.705V672.825H358.005ZM356.83 666.5C357.313 666.5 357.705 666.65 358.005 666.95C358.305 667.25 358.455 667.625 358.455 668.075C358.455 668.525 358.305 668.9 358.005 669.2C357.705 669.483 357.313 669.625 356.83 669.625C356.363 669.625 355.98 669.483 355.68 669.2C355.38 668.9 355.23 668.525 355.23 668.075C355.23 667.625 355.38 667.25 355.68 666.95C355.98 666.65 356.363 666.5 356.83 666.5ZM367.561 672.525C368.344 672.525 369.061 672.642 369.711 672.875C370.361 673.092 370.986 673.45 371.586 673.95L370.486 675.4C370.019 675.067 369.561 674.825 369.111 674.675C368.677 674.508 368.194 674.425 367.661 674.425C366.594 674.425 365.761 674.85 365.161 675.7C364.577 676.55 364.286 677.808 364.286 679.475C364.286 681.142 364.577 682.375 365.161 683.175C365.744 683.958 366.577 684.35 367.661 684.35C368.177 684.35 368.652 684.275 369.086 684.125C369.519 683.958 370.002 683.7 370.536 683.35L371.586 684.85C370.386 685.817 369.044 686.3 367.561 686.3C365.777 686.3 364.369 685.7 363.336 684.5C362.319 683.3 361.811 681.642 361.811 679.525C361.811 678.125 362.044 676.9 362.511 675.85C362.977 674.8 363.636 673.983 364.486 673.4C365.352 672.817 366.377 672.525 367.561 672.525ZM378.274 672.525C379.174 672.525 379.983 672.65 380.699 672.9C381.416 673.15 382.099 673.525 382.749 674.025L381.774 675.475C381.174 675.092 380.599 674.808 380.049 674.625C379.516 674.442 378.949 674.35 378.349 674.35C377.599 674.35 377.008 674.508 376.574 674.825C376.141 675.125 375.924 675.542 375.924 676.075C375.924 676.608 376.124 677.025 376.524 677.325C376.941 677.625 377.683 677.917 378.749 678.2C380.216 678.567 381.308 679.067 382.024 679.7C382.758 680.333 383.124 681.2 383.124 682.3C383.124 683.6 382.616 684.592 381.599 685.275C380.599 685.958 379.374 686.3 377.924 686.3C375.924 686.3 374.266 685.725 372.949 684.575L374.174 683.175C375.291 684.025 376.524 684.45 377.874 684.45C378.741 684.45 379.424 684.275 379.924 683.925C380.441 683.558 380.699 683.067 380.699 682.45C380.699 682 380.608 681.642 380.424 681.375C380.241 681.092 379.924 680.85 379.474 680.65C379.024 680.433 378.366 680.208 377.499 679.975C376.099 679.608 375.083 679.117 374.449 678.5C373.833 677.883 373.524 677.1 373.524 676.15C373.524 675.467 373.724 674.85 374.124 674.3C374.541 673.733 375.108 673.3 375.824 673C376.558 672.683 377.374 672.525 378.274 672.525ZM386.969 682.825C387.469 682.825 387.886 682.992 388.219 683.325C388.552 683.658 388.719 684.067 388.719 684.55C388.719 685.067 388.569 685.658 388.269 686.325L386.594 690.15H384.944L385.944 686C385.727 685.833 385.552 685.625 385.419 685.375C385.302 685.125 385.244 684.85 385.244 684.55C385.244 684.067 385.411 683.658 385.744 683.325C386.077 682.992 386.486 682.825 386.969 682.825ZM169.217 698.775C171.351 698.775 173.001 699.225 174.167 700.125C175.334 701.008 175.917 702.333 175.917 704.1C175.917 705.983 175.309 707.383 174.092 708.3C172.876 709.217 171.259 709.675 169.242 709.675H167.067V716H164.692V698.775H169.217ZM169.142 707.8C170.526 707.8 171.576 707.533 172.292 707C173.026 706.467 173.392 705.508 173.392 704.125C173.392 702.892 173.026 702 172.292 701.45C171.576 700.9 170.542 700.625 169.192 700.625H167.067V707.8H169.142ZM184.33 702.525C184.797 702.525 185.23 702.575 185.63 702.675L185.205 704.925C184.805 704.825 184.422 704.775 184.055 704.775C183.239 704.775 182.58 705.075 182.08 705.675C181.58 706.275 181.189 707.208 180.905 708.475V716H178.605V702.825H180.58L180.805 705.5C181.155 704.517 181.63 703.775 182.23 703.275C182.83 702.775 183.53 702.525 184.33 702.525ZM197.442 709.025C197.442 709.408 197.426 709.8 197.392 710.2H188.992C189.092 711.65 189.459 712.717 190.092 713.4C190.726 714.083 191.542 714.425 192.542 714.425C193.176 714.425 193.759 714.333 194.292 714.15C194.826 713.967 195.384 713.675 195.967 713.275L196.967 714.65C195.567 715.75 194.034 716.3 192.367 716.3C190.534 716.3 189.101 715.7 188.067 714.5C187.051 713.3 186.542 711.65 186.542 709.55C186.542 708.183 186.759 706.975 187.192 705.925C187.642 704.858 188.276 704.025 189.092 703.425C189.926 702.825 190.901 702.525 192.017 702.525C193.767 702.525 195.109 703.1 196.042 704.25C196.976 705.4 197.442 706.992 197.442 709.025ZM195.167 708.35C195.167 707.05 194.909 706.058 194.392 705.375C193.876 704.692 193.101 704.35 192.067 704.35C190.184 704.35 189.159 705.733 188.992 708.5H195.167V708.35ZM204.69 702.525C205.59 702.525 206.399 702.65 207.115 702.9C207.832 703.15 208.515 703.525 209.165 704.025L208.19 705.475C207.59 705.092 207.015 704.808 206.465 704.625C205.932 704.442 205.365 704.35 204.765 704.35C204.015 704.35 203.424 704.508 202.99 704.825C202.557 705.125 202.34 705.542 202.34 706.075C202.34 706.608 202.54 707.025 202.94 707.325C203.357 707.625 204.099 707.917 205.165 708.2C206.632 708.567 207.724 709.067 208.44 709.7C209.174 710.333 209.54 711.2 209.54 712.3C209.54 713.6 209.032 714.592 208.015 715.275C207.015 715.958 205.79 716.3 204.34 716.3C202.34 716.3 200.682 715.725 199.365 714.575L200.59 713.175C201.707 714.025 202.94 714.45 204.29 714.45C205.157 714.45 205.84 714.275 206.34 713.925C206.857 713.558 207.115 713.067 207.115 712.45C207.115 712 207.024 711.642 206.84 711.375C206.657 711.092 206.34 710.85 205.89 710.65C205.44 710.433 204.782 710.208 203.915 709.975C202.515 709.608 201.499 709.117 200.865 708.5C200.249 707.883 199.94 707.1 199.94 706.15C199.94 705.467 200.14 704.85 200.54 704.3C200.957 703.733 201.524 703.3 202.24 703C202.974 702.683 203.79 702.525 204.69 702.525ZM222.735 709.025C222.735 709.408 222.718 709.8 222.685 710.2H214.285C214.385 711.65 214.752 712.717 215.385 713.4C216.018 714.083 216.835 714.425 217.835 714.425C218.468 714.425 219.052 714.333 219.585 714.15C220.118 713.967 220.677 713.675 221.26 713.275L222.26 714.65C220.86 715.75 219.327 716.3 217.66 716.3C215.827 716.3 214.393 715.7 213.36 714.5C212.343 713.3 211.835 711.65 211.835 709.55C211.835 708.183 212.052 706.975 212.485 705.925C212.935 704.858 213.568 704.025 214.385 703.425C215.218 702.825 216.193 702.525 217.31 702.525C219.06 702.525 220.402 703.1 221.335 704.25C222.268 705.4 222.735 706.992 222.735 709.025ZM220.46 708.35C220.46 707.05 220.202 706.058 219.685 705.375C219.168 704.692 218.393 704.35 217.36 704.35C215.477 704.35 214.452 705.733 214.285 708.5H220.46V708.35ZM232.608 702.525C233.808 702.525 234.742 702.883 235.408 703.6C236.092 704.317 236.433 705.3 236.433 706.55V716H234.133V706.875C234.133 705.942 233.958 705.283 233.608 704.9C233.258 704.517 232.742 704.325 232.058 704.325C231.358 704.325 230.742 704.525 230.208 704.925C229.675 705.325 229.175 705.9 228.708 706.65V716H226.408V702.825H228.383L228.583 704.775C229.05 704.075 229.625 703.525 230.308 703.125C231.008 702.725 231.775 702.525 232.608 702.525ZM247.707 715.4C246.84 716 245.857 716.3 244.757 716.3C243.64 716.3 242.765 715.983 242.132 715.35C241.515 714.7 241.207 713.767 241.207 712.55V704.6H238.907V702.825H241.207V699.85L243.507 699.575V702.825H246.632L246.382 704.6H243.507V712.45C243.507 713.133 243.623 713.633 243.857 713.95C244.107 714.25 244.515 714.4 245.082 714.4C245.598 714.4 246.182 714.225 246.832 713.875L247.707 715.4ZM258.794 712.925C258.794 713.458 258.886 713.858 259.069 714.125C259.252 714.375 259.527 714.567 259.894 714.7L259.369 716.3C258.686 716.217 258.136 716.025 257.719 715.725C257.302 715.425 256.994 714.958 256.794 714.325C255.911 715.642 254.602 716.3 252.869 716.3C251.569 716.3 250.544 715.933 249.794 715.2C249.044 714.467 248.669 713.508 248.669 712.325C248.669 710.925 249.169 709.85 250.169 709.1C251.186 708.35 252.619 707.975 254.469 707.975H256.494V707C256.494 706.067 256.269 705.4 255.819 705C255.369 704.6 254.677 704.4 253.744 704.4C252.777 704.4 251.594 704.633 250.194 705.1L249.619 703.425C251.252 702.825 252.769 702.525 254.169 702.525C255.719 702.525 256.877 702.908 257.644 703.675C258.411 704.425 258.794 705.5 258.794 706.9V712.925ZM253.394 714.575C254.711 714.575 255.744 713.892 256.494 712.525V709.5H254.769C252.336 709.5 251.119 710.4 251.119 712.2C251.119 712.983 251.311 713.575 251.694 713.975C252.077 714.375 252.644 714.575 253.394 714.575ZM270.168 715.4C269.301 716 268.318 716.3 267.218 716.3C266.101 716.3 265.226 715.983 264.593 715.35C263.976 714.7 263.668 713.767 263.668 712.55V704.6H261.368V702.825H263.668V699.85L265.968 699.575V702.825H269.093L268.843 704.6H265.968V712.45C265.968 713.133 266.084 713.633 266.318 713.95C266.568 714.25 266.976 714.4 267.543 714.4C268.059 714.4 268.643 714.225 269.293 713.875L270.168 715.4ZM274.851 702.825V716H272.551V702.825H274.851ZM273.676 696.5C274.159 696.5 274.551 696.65 274.851 696.95C275.151 697.25 275.301 697.625 275.301 698.075C275.301 698.525 275.151 698.9 274.851 699.2C274.551 699.483 274.159 699.625 273.676 699.625C273.209 699.625 272.826 699.483 272.526 699.2C272.226 698.9 272.076 698.525 272.076 698.075C272.076 697.625 272.226 697.25 272.526 696.95C272.826 696.65 273.209 696.5 273.676 696.5ZM284.556 702.525C286.406 702.525 287.84 703.142 288.856 704.375C289.89 705.608 290.406 707.283 290.406 709.4C290.406 710.767 290.173 711.975 289.706 713.025C289.24 714.058 288.565 714.867 287.681 715.45C286.798 716.017 285.748 716.3 284.531 716.3C282.681 716.3 281.24 715.683 280.206 714.45C279.173 713.217 278.656 711.542 278.656 709.425C278.656 708.058 278.89 706.858 279.356 705.825C279.823 704.775 280.498 703.967 281.381 703.4C282.265 702.817 283.323 702.525 284.556 702.525ZM284.556 704.375C282.273 704.375 281.131 706.058 281.131 709.425C281.131 712.775 282.265 714.45 284.531 714.45C286.798 714.45 287.931 712.767 287.931 709.4C287.931 706.05 286.806 704.375 284.556 704.375ZM300.406 702.525C301.606 702.525 302.539 702.883 303.206 703.6C303.889 704.317 304.231 705.3 304.231 706.55V716H301.931V706.875C301.931 705.942 301.756 705.283 301.406 704.9C301.056 704.517 300.539 704.325 299.856 704.325C299.156 704.325 298.539 704.525 298.006 704.925C297.473 705.325 296.973 705.9 296.506 706.65V716H294.206V702.825H296.181L296.381 704.775C296.848 704.075 297.423 703.525 298.106 703.125C298.806 702.725 299.573 702.525 300.406 702.525ZM323.196 706.9C324.379 707.1 325.337 707.517 326.071 708.15C326.804 708.783 327.171 709.767 327.171 711.1C327.171 714.367 324.896 716 320.346 716H315.596V698.775H319.671C321.854 698.775 323.521 699.133 324.671 699.85C325.837 700.567 326.421 701.658 326.421 703.125C326.421 704.125 326.104 704.958 325.471 705.625C324.854 706.292 324.096 706.717 323.196 706.9ZM317.971 700.65V706.075H320.571C321.571 706.075 322.387 705.833 323.021 705.35C323.671 704.867 323.996 704.183 323.996 703.3C323.996 702.3 323.654 701.608 322.971 701.225C322.304 700.842 321.287 700.65 319.921 700.65H317.971ZM320.346 714.1C321.746 714.1 322.812 713.892 323.546 713.475C324.296 713.058 324.671 712.267 324.671 711.1C324.671 709.967 324.312 709.15 323.596 708.65C322.879 708.15 321.946 707.9 320.796 707.9H317.971V714.1H320.346ZM339.556 712.925C339.556 713.458 339.647 713.858 339.831 714.125C340.014 714.375 340.289 714.567 340.656 714.7L340.131 716.3C339.447 716.217 338.897 716.025 338.481 715.725C338.064 715.425 337.756 714.958 337.556 714.325C336.672 715.642 335.364 716.3 333.631 716.3C332.331 716.3 331.306 715.933 330.556 715.2C329.806 714.467 329.431 713.508 329.431 712.325C329.431 710.925 329.931 709.85 330.931 709.1C331.947 708.35 333.381 707.975 335.231 707.975H337.256V707C337.256 706.067 337.031 705.4 336.581 705C336.131 704.6 335.439 704.4 334.506 704.4C333.539 704.4 332.356 704.633 330.956 705.1L330.381 703.425C332.014 702.825 333.531 702.525 334.931 702.525C336.481 702.525 337.639 702.908 338.406 703.675C339.172 704.425 339.556 705.5 339.556 706.9V712.925ZM334.156 714.575C335.472 714.575 336.506 713.892 337.256 712.525V709.5H335.531C333.097 709.5 331.881 710.4 331.881 712.2C331.881 712.983 332.072 713.575 332.456 713.975C332.839 714.375 333.406 714.575 334.156 714.575ZM347.61 702.525C348.51 702.525 349.318 702.65 350.035 702.9C350.752 703.15 351.435 703.525 352.085 704.025L351.11 705.475C350.51 705.092 349.935 704.808 349.385 704.625C348.852 704.442 348.285 704.35 347.685 704.35C346.935 704.35 346.343 704.508 345.91 704.825C345.477 705.125 345.26 705.542 345.26 706.075C345.26 706.608 345.46 707.025 345.86 707.325C346.277 707.625 347.018 707.917 348.085 708.2C349.552 708.567 350.643 709.067 351.36 709.7C352.093 710.333 352.46 711.2 352.46 712.3C352.46 713.6 351.952 714.592 350.935 715.275C349.935 715.958 348.71 716.3 347.26 716.3C345.26 716.3 343.602 715.725 342.285 714.575L343.51 713.175C344.627 714.025 345.86 714.45 347.21 714.45C348.077 714.45 348.76 714.275 349.26 713.925C349.777 713.558 350.035 713.067 350.035 712.45C350.035 712 349.943 711.642 349.76 711.375C349.577 711.092 349.26 710.85 348.81 710.65C348.36 710.433 347.702 710.208 346.835 709.975C345.435 709.608 344.418 709.117 343.785 708.5C343.168 707.883 342.86 707.1 342.86 706.15C342.86 705.467 343.06 704.85 343.46 704.3C343.877 703.733 344.443 703.3 345.16 703C345.893 702.683 346.71 702.525 347.61 702.525ZM358.005 702.825V716H355.705V702.825H358.005ZM356.83 696.5C357.313 696.5 357.705 696.65 358.005 696.95C358.305 697.25 358.455 697.625 358.455 698.075C358.455 698.525 358.305 698.9 358.005 699.2C357.705 699.483 357.313 699.625 356.83 699.625C356.363 699.625 355.98 699.483 355.68 699.2C355.38 698.9 355.23 698.525 355.23 698.075C355.23 697.625 355.38 697.25 355.68 696.95C355.98 696.65 356.363 696.5 356.83 696.5ZM367.561 702.525C368.344 702.525 369.061 702.642 369.711 702.875C370.361 703.092 370.986 703.45 371.586 703.95L370.486 705.4C370.019 705.067 369.561 704.825 369.111 704.675C368.677 704.508 368.194 704.425 367.661 704.425C366.594 704.425 365.761 704.85 365.161 705.7C364.577 706.55 364.286 707.808 364.286 709.475C364.286 711.142 364.577 712.375 365.161 713.175C365.744 713.958 366.577 714.35 367.661 714.35C368.177 714.35 368.652 714.275 369.086 714.125C369.519 713.958 370.002 713.7 370.536 713.35L371.586 714.85C370.386 715.817 369.044 716.3 367.561 716.3C365.777 716.3 364.369 715.7 363.336 714.5C362.319 713.3 361.811 711.642 361.811 709.525C361.811 708.125 362.044 706.9 362.511 705.85C362.977 704.8 363.636 703.983 364.486 703.4C365.352 702.817 366.377 702.525 367.561 702.525ZM378.274 702.525C379.174 702.525 379.983 702.65 380.699 702.9C381.416 703.15 382.099 703.525 382.749 704.025L381.774 705.475C381.174 705.092 380.599 704.808 380.049 704.625C379.516 704.442 378.949 704.35 378.349 704.35C377.599 704.35 377.008 704.508 376.574 704.825C376.141 705.125 375.924 705.542 375.924 706.075C375.924 706.608 376.124 707.025 376.524 707.325C376.941 707.625 377.683 707.917 378.749 708.2C380.216 708.567 381.308 709.067 382.024 709.7C382.758 710.333 383.124 711.2 383.124 712.3C383.124 713.6 382.616 714.592 381.599 715.275C380.599 715.958 379.374 716.3 377.924 716.3C375.924 716.3 374.266 715.725 372.949 714.575L374.174 713.175C375.291 714.025 376.524 714.45 377.874 714.45C378.741 714.45 379.424 714.275 379.924 713.925C380.441 713.558 380.699 713.067 380.699 712.45C380.699 712 380.608 711.642 380.424 711.375C380.241 711.092 379.924 710.85 379.474 710.65C379.024 710.433 378.366 710.208 377.499 709.975C376.099 709.608 375.083 709.117 374.449 708.5C373.833 707.883 373.524 707.1 373.524 706.15C373.524 705.467 373.724 704.85 374.124 704.3C374.541 703.733 375.108 703.3 375.824 703C376.558 702.683 377.374 702.525 378.274 702.525ZM386.969 712.825C387.469 712.825 387.886 712.992 388.219 713.325C388.552 713.658 388.719 714.067 388.719 714.55C388.719 715.067 388.569 715.658 388.269 716.325L386.594 720.15H384.944L385.944 716C385.727 715.833 385.552 715.625 385.419 715.375C385.302 715.125 385.244 714.85 385.244 714.55C385.244 714.067 385.411 713.658 385.744 713.325C386.077 712.992 386.486 712.825 386.969 712.825ZM160.867 736.9C162.05 737.1 163.008 737.517 163.742 738.15C164.475 738.783 164.842 739.767 164.842 741.1C164.842 744.367 162.567 746 158.017 746H153.267V728.775H157.342C159.525 728.775 161.192 729.133 162.342 729.85C163.508 730.567 164.092 731.658 164.092 733.125C164.092 734.125 163.775 734.958 163.142 735.625C162.525 736.292 161.767 736.717 160.867 736.9ZM155.642 730.65V736.075H158.242C159.242 736.075 160.058 735.833 160.692 735.35C161.342 734.867 161.667 734.183 161.667 733.3C161.667 732.3 161.325 731.608 160.642 731.225C159.975 730.842 158.958 730.65 157.592 730.65H155.642ZM158.017 744.1C159.417 744.1 160.483 743.892 161.217 743.475C161.967 743.058 162.342 742.267 162.342 741.1C162.342 739.967 161.983 739.15 161.267 738.65C160.55 738.15 159.617 737.9 158.467 737.9H155.642V744.1H158.017ZM178.302 739.025C178.302 739.408 178.285 739.8 178.252 740.2H169.852C169.952 741.65 170.318 742.717 170.952 743.4C171.585 744.083 172.402 744.425 173.402 744.425C174.035 744.425 174.618 744.333 175.152 744.15C175.685 743.967 176.243 743.675 176.827 743.275L177.827 744.65C176.427 745.75 174.893 746.3 173.227 746.3C171.393 746.3 169.96 745.7 168.927 744.5C167.91 743.3 167.402 741.65 167.402 739.55C167.402 738.183 167.618 736.975 168.052 735.925C168.502 734.858 169.135 734.025 169.952 733.425C170.785 732.825 171.76 732.525 172.877 732.525C174.627 732.525 175.968 733.1 176.902 734.25C177.835 735.4 178.302 736.992 178.302 739.025ZM176.027 738.35C176.027 737.05 175.768 736.058 175.252 735.375C174.735 734.692 173.96 734.35 172.927 734.35C171.043 734.35 170.018 735.733 169.852 738.5H176.027V738.35ZM197.025 732.825L194.025 746H190.9L188.6 734.9L186.225 746H183.175L180.1 732.825H182.4L184.775 744.4L187.375 732.825H189.95L192.425 744.4L194.825 732.825H197.025ZM209.845 739.025C209.845 739.408 209.828 739.8 209.795 740.2H201.395C201.495 741.65 201.861 742.717 202.495 743.4C203.128 744.083 203.945 744.425 204.945 744.425C205.578 744.425 206.161 744.333 206.695 744.15C207.228 743.967 207.786 743.675 208.37 743.275L209.37 744.65C207.97 745.75 206.436 746.3 204.77 746.3C202.936 746.3 201.503 745.7 200.47 744.5C199.453 743.3 198.945 741.65 198.945 739.55C198.945 738.183 199.161 736.975 199.595 735.925C200.045 734.858 200.678 734.025 201.495 733.425C202.328 732.825 203.303 732.525 204.42 732.525C206.17 732.525 207.511 733.1 208.445 734.25C209.378 735.4 209.845 736.992 209.845 739.025ZM207.57 738.35C207.57 737.05 207.311 736.058 206.795 735.375C206.278 734.692 205.503 734.35 204.47 734.35C202.586 734.35 201.561 735.733 201.395 738.5H207.57V738.35ZM219.243 732.525C219.709 732.525 220.143 732.575 220.543 732.675L220.118 734.925C219.718 734.825 219.334 734.775 218.968 734.775C218.151 734.775 217.493 735.075 216.993 735.675C216.493 736.275 216.101 737.208 215.818 738.475V746H213.518V732.825H215.493L215.718 735.5C216.068 734.517 216.543 733.775 217.143 733.275C217.743 732.775 218.443 732.525 219.243 732.525ZM229.186 732.525C230.686 732.525 231.878 733.133 232.761 734.35C233.644 735.55 234.086 737.233 234.086 739.4C234.086 740.767 233.878 741.975 233.461 743.025C233.044 744.058 232.444 744.867 231.661 745.45C230.878 746.017 229.961 746.3 228.911 746.3C227.528 746.3 226.361 745.717 225.411 744.55L225.186 746H223.161V727.525L225.461 727.25V734.475C226.411 733.175 227.653 732.525 229.186 732.525ZM228.361 744.475C229.378 744.475 230.169 744.067 230.736 743.25C231.319 742.417 231.611 741.133 231.611 739.4C231.611 737.617 231.344 736.333 230.811 735.55C230.278 734.75 229.519 734.35 228.536 734.35C227.369 734.35 226.344 735.033 225.461 736.4V742.7C225.811 743.25 226.236 743.683 226.736 744C227.253 744.317 227.794 744.475 228.361 744.475ZM247.805 746H245.83L245.655 743.95C245.155 744.767 244.58 745.367 243.93 745.75C243.28 746.117 242.488 746.3 241.555 746.3C240.405 746.3 239.505 745.95 238.855 745.25C238.205 744.55 237.88 743.558 237.88 742.275V732.825H240.18V742.025C240.18 742.925 240.338 743.567 240.655 743.95C240.972 744.317 241.488 744.5 242.205 744.5C243.488 744.5 244.588 743.742 245.505 742.225V732.825H247.805V746ZM258.756 732.525C259.956 732.525 260.889 732.883 261.556 733.6C262.239 734.317 262.581 735.3 262.581 736.55V746H260.281V736.875C260.281 735.942 260.106 735.283 259.756 734.9C259.406 734.517 258.889 734.325 258.206 734.325C257.506 734.325 256.889 734.525 256.356 734.925C255.822 735.325 255.322 735.9 254.856 736.65V746H252.556V732.825H254.531L254.731 734.775C255.197 734.075 255.772 733.525 256.456 733.125C257.156 732.725 257.922 732.525 258.756 732.525ZM277.829 733.425C277.329 733.592 276.779 733.7 276.179 733.75C275.579 733.8 274.846 733.825 273.979 733.825C275.529 734.525 276.304 735.633 276.304 737.15C276.304 738.467 275.854 739.542 274.954 740.375C274.054 741.208 272.829 741.625 271.279 741.625C270.679 741.625 270.121 741.542 269.604 741.375C269.404 741.508 269.246 741.692 269.129 741.925C269.012 742.142 268.954 742.367 268.954 742.6C268.954 743.317 269.529 743.675 270.679 743.675H272.779C273.662 743.675 274.446 743.833 275.129 744.15C275.812 744.467 276.337 744.9 276.704 745.45C277.087 746 277.279 746.625 277.279 747.325C277.279 748.608 276.754 749.592 275.704 750.275C274.654 750.975 273.121 751.325 271.104 751.325C269.687 751.325 268.562 751.175 267.729 750.875C266.912 750.592 266.329 750.158 265.979 749.575C265.629 748.992 265.454 748.242 265.454 747.325H267.529C267.529 747.858 267.629 748.275 267.829 748.575C268.029 748.892 268.387 749.125 268.904 749.275C269.421 749.442 270.154 749.525 271.104 749.525C272.487 749.525 273.471 749.35 274.054 749C274.654 748.667 274.954 748.158 274.954 747.475C274.954 746.858 274.721 746.392 274.254 746.075C273.787 745.758 273.137 745.6 272.304 745.6H270.229C269.112 745.6 268.262 745.367 267.679 744.9C267.112 744.417 266.829 743.817 266.829 743.1C266.829 742.667 266.954 742.25 267.204 741.85C267.454 741.45 267.812 741.092 268.279 740.775C267.512 740.375 266.946 739.883 266.579 739.3C266.229 738.7 266.054 737.975 266.054 737.125C266.054 736.242 266.271 735.45 266.704 734.75C267.154 734.05 267.762 733.508 268.529 733.125C269.312 732.725 270.179 732.525 271.129 732.525C272.162 732.542 273.029 732.508 273.729 732.425C274.429 732.325 275.004 732.2 275.454 732.05C275.921 731.883 276.487 731.65 277.154 731.35L277.829 733.425ZM271.129 734.175C270.262 734.175 269.587 734.45 269.104 735C268.637 735.533 268.404 736.242 268.404 737.125C268.404 738.025 268.646 738.75 269.129 739.3C269.612 739.833 270.296 740.1 271.179 740.1C272.079 740.1 272.762 739.842 273.229 739.325C273.712 738.792 273.954 738.05 273.954 737.1C273.954 735.15 273.012 734.175 271.129 734.175ZM283.596 732.525C284.496 732.525 285.305 732.65 286.021 732.9C286.738 733.15 287.421 733.525 288.071 734.025L287.096 735.475C286.496 735.092 285.921 734.808 285.371 734.625C284.838 734.442 284.271 734.35 283.671 734.35C282.921 734.35 282.33 734.508 281.896 734.825C281.463 735.125 281.246 735.542 281.246 736.075C281.246 736.608 281.446 737.025 281.846 737.325C282.263 737.625 283.005 737.917 284.071 738.2C285.538 738.567 286.63 739.067 287.346 739.7C288.08 740.333 288.446 741.2 288.446 742.3C288.446 743.6 287.938 744.592 286.921 745.275C285.921 745.958 284.696 746.3 283.246 746.3C281.246 746.3 279.588 745.725 278.271 744.575L279.496 743.175C280.613 744.025 281.846 744.45 283.196 744.45C284.063 744.45 284.746 744.275 285.246 743.925C285.763 743.558 286.021 743.067 286.021 742.45C286.021 742 285.93 741.642 285.746 741.375C285.563 741.092 285.246 740.85 284.796 740.65C284.346 740.433 283.688 740.208 282.821 739.975C281.421 739.608 280.405 739.117 279.771 738.5C279.155 737.883 278.846 737.1 278.846 736.15C278.846 735.467 279.046 734.85 279.446 734.3C279.863 733.733 280.43 733.3 281.146 733C281.88 732.683 282.696 732.525 283.596 732.525ZM296.491 732.525C297.275 732.525 297.991 732.642 298.641 732.875C299.291 733.092 299.916 733.45 300.516 733.95L299.416 735.4C298.95 735.067 298.491 734.825 298.041 734.675C297.608 734.508 297.125 734.425 296.591 734.425C295.525 734.425 294.691 734.85 294.091 735.7C293.508 736.55 293.216 737.808 293.216 739.475C293.216 741.142 293.508 742.375 294.091 743.175C294.675 743.958 295.508 744.35 296.591 744.35C297.108 744.35 297.583 744.275 298.016 744.125C298.45 743.958 298.933 743.7 299.466 743.35L300.516 744.85C299.316 745.817 297.975 746.3 296.491 746.3C294.708 746.3 293.3 745.7 292.266 744.5C291.25 743.3 290.741 741.642 290.741 739.525C290.741 738.125 290.975 736.9 291.441 735.85C291.908 734.8 292.566 733.983 293.416 733.4C294.283 732.817 295.308 732.525 296.491 732.525ZM308.092 732.525C309.942 732.525 311.375 733.142 312.392 734.375C313.425 735.608 313.942 737.283 313.942 739.4C313.942 740.767 313.708 741.975 313.242 743.025C312.775 744.058 312.1 744.867 311.217 745.45C310.333 746.017 309.283 746.3 308.067 746.3C306.217 746.3 304.775 745.683 303.742 744.45C302.708 743.217 302.192 741.542 302.192 739.425C302.192 738.058 302.425 736.858 302.892 735.825C303.358 734.775 304.033 733.967 304.917 733.4C305.8 732.817 306.858 732.525 308.092 732.525ZM308.092 734.375C305.808 734.375 304.667 736.058 304.667 739.425C304.667 742.775 305.8 744.45 308.067 744.45C310.333 744.45 311.467 742.767 311.467 739.4C311.467 736.05 310.342 734.375 308.092 734.375ZM326.372 742.925C326.372 743.458 326.464 743.858 326.647 744.125C326.83 744.375 327.105 744.567 327.472 744.7L326.947 746.3C326.264 746.217 325.714 746.025 325.297 745.725C324.88 745.425 324.572 744.958 324.372 744.325C323.489 745.642 322.18 746.3 320.447 746.3C319.147 746.3 318.122 745.933 317.372 745.2C316.622 744.467 316.247 743.508 316.247 742.325C316.247 740.925 316.747 739.85 317.747 739.1C318.764 738.35 320.197 737.975 322.047 737.975H324.072V737C324.072 736.067 323.847 735.4 323.397 735C322.947 734.6 322.255 734.4 321.322 734.4C320.355 734.4 319.172 734.633 317.772 735.1L317.197 733.425C318.83 732.825 320.347 732.525 321.747 732.525C323.297 732.525 324.455 732.908 325.222 733.675C325.989 734.425 326.372 735.5 326.372 736.9V742.925ZM320.972 744.575C322.289 744.575 323.322 743.892 324.072 742.525V739.5H322.347C319.914 739.5 318.697 740.4 318.697 742.2C318.697 742.983 318.889 743.575 319.272 743.975C319.655 744.375 320.222 744.575 320.972 744.575ZM335.896 732.525C336.679 732.525 337.396 732.642 338.046 732.875C338.696 733.092 339.321 733.45 339.921 733.95L338.821 735.4C338.354 735.067 337.896 734.825 337.446 734.675C337.012 734.508 336.529 734.425 335.996 734.425C334.929 734.425 334.096 734.85 333.496 735.7C332.912 736.55 332.621 737.808 332.621 739.475C332.621 741.142 332.912 742.375 333.496 743.175C334.079 743.958 334.912 744.35 335.996 744.35C336.512 744.35 336.987 744.275 337.421 744.125C337.854 743.958 338.337 743.7 338.871 743.35L339.921 744.85C338.721 745.817 337.379 746.3 335.896 746.3C334.112 746.3 332.704 745.7 331.671 744.5C330.654 743.3 330.146 741.642 330.146 739.525C330.146 738.125 330.379 736.9 330.846 735.85C331.312 734.8 331.971 733.983 332.821 733.4C333.687 732.817 334.712 732.525 335.896 732.525ZM349.234 732.525C350.434 732.525 351.368 732.883 352.034 733.6C352.718 734.317 353.059 735.3 353.059 736.55V746H350.759V736.875C350.759 735.942 350.576 735.283 350.209 734.9C349.859 734.517 349.343 734.325 348.659 734.325C347.976 734.325 347.368 734.525 346.834 734.925C346.301 735.325 345.801 735.892 345.334 736.625V746H343.034V727.55L345.334 727.3V734.65C346.368 733.233 347.668 732.525 349.234 732.525ZM359.983 732.825V746H357.683V732.825H359.983ZM358.808 726.5C359.291 726.5 359.683 726.65 359.983 726.95C360.283 727.25 360.433 727.625 360.433 728.075C360.433 728.525 360.283 728.9 359.983 729.2C359.683 729.483 359.291 729.625 358.808 729.625C358.341 729.625 357.958 729.483 357.658 729.2C357.358 728.9 357.208 728.525 357.208 728.075C357.208 727.625 357.358 727.25 357.658 726.95C357.958 726.65 358.341 726.5 358.808 726.5ZM370.938 732.525C372.138 732.525 373.072 732.883 373.738 733.6C374.422 734.317 374.763 735.3 374.763 736.55V746H372.463V736.875C372.463 735.942 372.288 735.283 371.938 734.9C371.588 734.517 371.072 734.325 370.388 734.325C369.688 734.325 369.072 734.525 368.538 734.925C368.005 735.325 367.505 735.9 367.038 736.65V746H364.738V732.825H366.713L366.913 734.775C367.38 734.075 367.955 733.525 368.638 733.125C369.338 732.725 370.105 732.525 370.938 732.525ZM390.012 733.425C389.512 733.592 388.962 733.7 388.362 733.75C387.762 733.8 387.028 733.825 386.162 733.825C387.712 734.525 388.487 735.633 388.487 737.15C388.487 738.467 388.037 739.542 387.137 740.375C386.237 741.208 385.012 741.625 383.462 741.625C382.862 741.625 382.303 741.542 381.787 741.375C381.587 741.508 381.428 741.692 381.312 741.925C381.195 742.142 381.137 742.367 381.137 742.6C381.137 743.317 381.712 743.675 382.862 743.675H384.962C385.845 743.675 386.628 743.833 387.312 744.15C387.995 744.467 388.52 744.9 388.887 745.45C389.27 746 389.462 746.625 389.462 747.325C389.462 748.608 388.937 749.592 387.887 750.275C386.837 750.975 385.303 751.325 383.287 751.325C381.87 751.325 380.745 751.175 379.912 750.875C379.095 750.592 378.512 750.158 378.162 749.575C377.812 748.992 377.637 748.242 377.637 747.325H379.712C379.712 747.858 379.812 748.275 380.012 748.575C380.212 748.892 380.57 749.125 381.087 749.275C381.603 749.442 382.337 749.525 383.287 749.525C384.67 749.525 385.653 749.35 386.237 749C386.837 748.667 387.137 748.158 387.137 747.475C387.137 746.858 386.903 746.392 386.437 746.075C385.97 745.758 385.32 745.6 384.487 745.6H382.412C381.295 745.6 380.445 745.367 379.862 744.9C379.295 744.417 379.012 743.817 379.012 743.1C379.012 742.667 379.137 742.25 379.387 741.85C379.637 741.45 379.995 741.092 380.462 740.775C379.695 740.375 379.128 739.883 378.762 739.3C378.412 738.7 378.237 737.975 378.237 737.125C378.237 736.242 378.453 735.45 378.887 734.75C379.337 734.05 379.945 733.508 380.712 733.125C381.495 732.725 382.362 732.525 383.312 732.525C384.345 732.542 385.212 732.508 385.912 732.425C386.612 732.325 387.187 732.2 387.637 732.05C388.103 731.883 388.67 731.65 389.337 731.35L390.012 733.425ZM383.312 734.175C382.445 734.175 381.77 734.45 381.287 735C380.82 735.533 380.587 736.242 380.587 737.125C380.587 738.025 380.828 738.75 381.312 739.3C381.795 739.833 382.478 740.1 383.362 740.1C384.262 740.1 384.945 739.842 385.412 739.325C385.895 738.792 386.137 738.05 386.137 737.1C386.137 735.15 385.195 734.175 383.312 734.175Z" fill="#00ECAA"/>
<path d="M344.031 254.152C344.031 237.555 343.665 207.053 346.952 190.732C357.752 158.353 378.463 110.935 398.355 82.2953C414.214 59.4632 436.239 49.3915 461.325 38.7473C498.014 23.1801 535.393 7.10783 575.816 7.10783C600.924 7.10783 625.85 5.97137 650.585 11.0774C669.541 14.9902 686 24.6025 704.209 30.5164C715.076 34.046 724.291 42.9183 734.584 48.4376C749.94 56.672 764.47 66.2715 777.927 77.3918C789.352 86.8334 799.655 98.1069 810.463 108.272C864.568 206.545 846.953 262.127 843.584 284.274C837.22 326.1 797.017 401.16 765.371 429.744C713.034 471.1 621.137 509.538 555.137 500.73C527.718 497.071 435.526 461.369 385.796 405.87L385.333 405.104C374.384 386.995 362.902 368.005 356.823 347.611C352.539 333.238 350.066 318.093 346.951 303.421C343.489 287.109 344.031 270.753 344.031 254.152Z" stroke="#00ECAA" stroke-width="5" stroke-linecap="round" stroke-linejoin="round"/>
<path d="M536.948 496.386C534.178 505.196 531.852 515.843 527.412 523.6C521.003 534.796 513.222 543.94 505.808 553.268C497.929 563.181 489.254 569.603 480.495 575.824C473.119 581.063 465.476 588.164 457.963 591.428C448.401 595.582 438.521 601.918 429.048 604.419C427.345 604.869 424.84 606.26 423.337 605.899C422.225 605.633 417.848 608.636 420.293 607.126" stroke="#00ECAA" stroke-width="5" stroke-linecap="round" stroke-linejoin="round"/>
</svg>
