<svg width="320" height="79" viewBox="0 0 320 79" fill="none" xmlns="http://www.w3.org/2000/svg">
<path d="M180.364 12.375H174.039V30H178.039V24.75H180.364C184.814 24.75 188.214 23.9 188.214 18.55C188.214 13.225 184.814 12.375 180.364 12.375ZM180.614 21.25H178.039V15.875H180.614C182.989 15.875 184.214 16.125 184.214 18.55C184.214 21 182.989 21.25 180.614 21.25ZM188.475 30H199.475V26.5H195.975V13.55C195.975 12.15 195.2 11.4 193.8 11.45L188.975 11.625V15.125L191.975 14.975V26.5H188.475V30ZM207.074 26.75C205.149 26.75 204.474 25.875 204.474 23.575V17.375H200.474V24.2C200.474 28.1 202.424 30.25 205.649 30.25C208.349 30.25 209.924 28.475 210.424 26.225H211.424L210.674 28.475V30H214.674V17.375H210.674V22.05C210.674 25.6 209.249 26.75 207.074 26.75ZM228.71 26.525C228.71 23.9 226.46 23.275 224.01 22.475C222.01 21.825 220.76 21.45 220.76 20.85C220.76 20.35 221.285 20.125 222.235 20.125C223.61 20.125 224.285 20.8 224.285 21.7H228.285C228.285 19.25 226.535 17.125 222.26 17.125C218.785 17.125 216.76 18.425 216.76 20.675C216.76 23.5 219.635 24.125 221.985 24.9C224.01 25.575 224.71 25.75 224.71 26.4C224.71 27 224.035 27.25 222.96 27.25C220.86 27.25 220.185 26.4 220.185 25.425H216.185C216.185 28.375 218.185 30.25 222.835 30.25C227.185 30.25 228.71 28.65 228.71 26.525ZM253.236 25.15C253.236 21.475 248.261 20.075 245.011 18.975C242.186 18.025 241.761 17.725 241.761 16.925C241.761 16.025 242.886 15.625 244.686 15.625C246.861 15.625 248.511 16.225 248.511 18.375H252.511C252.511 14.875 250.086 12.125 244.686 12.125C240.136 12.125 237.761 13.775 237.761 16.775C237.761 20.225 240.786 21.225 244.511 22.475C247.086 23.35 249.236 23.925 249.236 25.2C249.236 26.15 248.386 26.75 245.811 26.75C242.311 26.75 240.961 25.9 240.961 23.2H236.961C236.961 27.65 239.336 30.25 245.686 30.25C251.111 30.25 253.236 28.175 253.236 25.15ZM264.921 30H269.471L265.196 23.525L267.146 22.625C268.246 22.1 268.721 21.325 268.721 20.125V17.375H264.721L264.771 19.65L258.996 22.3V11.625H254.996V30H258.996V26.425L261.771 25.125L264.921 30ZM275.638 16.125C277.113 16.125 278.038 15.425 278.038 14.125C278.038 12.85 277.113 12.125 275.638 12.125C274.163 12.125 273.288 12.85 273.288 14.125C273.288 15.425 274.163 16.125 275.638 16.125ZM270.463 30H281.463V26.5H277.888V19.225C277.888 17.825 277.113 17.05 275.713 17.125L270.963 17.375V20.875L274.038 20.725V26.5H270.463V30ZM282.713 30H293.713V26.5H290.213V13.55C290.213 12.15 289.438 11.4 288.038 11.45L283.213 11.625V15.125L286.213 14.975V26.5H282.713V30ZM294.969 30H305.969V26.5H302.469V13.55C302.469 12.15 301.694 11.4 300.294 11.45L295.469 11.625V15.125L298.469 14.975V26.5H294.969V30ZM319.505 26.525C319.505 23.9 317.255 23.275 314.805 22.475C312.805 21.825 311.555 21.45 311.555 20.85C311.555 20.35 312.08 20.125 313.03 20.125C314.405 20.125 315.08 20.8 315.08 21.7H319.08C319.08 19.25 317.33 17.125 313.055 17.125C309.58 17.125 307.555 18.425 307.555 20.675C307.555 23.5 310.43 24.125 312.78 24.9C314.805 25.575 315.505 25.75 315.505 26.4C315.505 27 314.83 27.25 313.755 27.25C311.655 27.25 310.98 26.4 310.98 25.425H306.98C306.98 28.375 308.98 30.25 313.63 30.25C317.98 30.25 319.505 28.65 319.505 26.525Z" fill="#03000F"/>
<path d="M48.6719 49.3181C48.3242 48.5662 48.6518 47.6747 49.4038 47.327L61.6569 41.6604C62.4088 41.3127 63.3002 41.6403 63.648 42.3922C63.9957 43.1441 63.6681 44.0356 62.9161 44.3833L52.0245 49.4203L57.0615 60.312C57.4092 61.0639 57.0816 61.9553 56.3296 62.3031C55.5777 62.6508 54.6863 62.3231 54.3386 61.5712L48.6719 49.3181ZM60.6733 52.2124L60.4685 53.6984L60.4685 53.6984L60.6733 52.2124ZM74.933 52.6043L74.955 54.1041L74.955 54.1041L74.933 52.6043ZM87.884 50.1665L87.446 48.7319L87.446 48.7319L87.884 50.1665ZM98.0353 46.9345L98.7598 48.2479L98.0353 46.9345ZM108.897 41.1176L107.982 39.9288L107.982 39.9288L108.897 41.1176ZM110.708 39.7109L112.077 40.3246L110.708 39.7109ZM50.5509 47.2806C51.4141 47.5978 52.3032 47.9505 53.186 48.3003C54.0751 48.6527 54.9606 49.0034 55.8452 49.3296C57.6244 49.9856 59.3206 50.5118 60.8781 50.7264L60.4685 53.6984C58.5846 53.4387 56.6454 52.8221 54.8073 52.1443C53.8833 51.8036 52.9646 51.4396 52.0806 51.0893C51.1903 50.7364 50.3373 50.3983 49.5159 50.0964L50.5509 47.2806ZM60.8781 50.7264C65.7022 51.3913 70.215 51.1734 74.911 51.1044L74.955 54.1041C70.3893 54.1712 65.5791 54.4027 60.4685 53.6984L60.8781 50.7264ZM74.911 51.1044C79.6051 51.0355 83.4674 49.9466 87.446 48.7319L88.3221 51.6011C84.3135 52.825 80.1038 54.0285 74.955 54.1041L74.911 51.1044ZM87.446 48.7319C89.1377 48.2153 91.1104 47.7552 92.7772 47.2959C94.5263 46.814 96.0799 46.3001 97.3108 45.6211L98.7598 48.2479C97.2029 49.1067 95.3627 49.6953 93.5741 50.1881C91.703 50.7037 89.994 51.0906 88.3221 51.6011L87.446 48.7319ZM97.3108 45.6211C99.1302 44.6175 101.178 43.7025 103.01 42.8134C104.892 41.9001 106.603 40.9903 107.982 39.9288L109.812 42.3064C108.173 43.5671 106.227 44.5872 104.32 45.5125C102.363 46.4619 100.489 47.2943 98.7598 48.2479L97.3108 45.6211ZM107.982 39.9288C108.185 39.7728 108.409 39.6318 108.587 39.5222C108.788 39.3982 108.938 39.3086 109.095 39.2067C109.247 39.1078 109.34 39.0371 109.395 38.9881C109.458 38.9309 109.399 38.965 109.34 39.0972L112.077 40.3246C111.895 40.7311 111.615 41.0258 111.401 41.2186C111.178 41.4195 110.936 41.5879 110.733 41.7199C110.535 41.8489 110.313 41.9821 110.162 42.0753C109.988 42.1829 109.88 42.2536 109.812 42.3064L107.982 39.9288ZM109.34 39.0972C109.512 38.712 109.795 38.4747 109.912 38.3805C110.066 38.2571 110.227 38.1567 110.36 38.0809C110.629 37.9274 110.922 37.7954 111.14 37.7042C111.325 37.627 111.569 37.5317 111.726 37.491C111.745 37.486 111.785 37.4759 111.836 37.4665C111.861 37.4618 111.905 37.4543 111.959 37.4488C111.999 37.4447 112.117 37.4335 112.267 37.4491C112.342 37.4569 112.486 37.477 112.654 37.5422C112.815 37.6043 113.121 37.7554 113.355 38.0999C113.935 38.9565 113.386 39.7418 113.326 39.8244C113.196 40.0022 113.058 40.1075 113.025 40.1328C112.97 40.1749 112.924 40.2045 112.899 40.22C112.815 40.2718 112.74 40.3058 112.73 40.3105C112.702 40.3234 112.677 40.3347 112.657 40.3432C112.581 40.3755 112.473 40.4177 112.338 40.4687L111.279 37.6618C111.405 37.6143 111.465 37.59 111.481 37.5832C111.532 37.5611 111.432 37.5995 111.322 37.6675C111.299 37.6821 111.253 37.711 111.199 37.7525C111.167 37.7771 111.029 37.8819 110.9 38.0592C110.84 38.1414 110.291 38.9264 110.871 39.7827C111.105 40.127 111.411 40.278 111.572 40.3401C111.74 40.4052 111.883 40.4253 111.957 40.433C112.107 40.4486 112.224 40.4374 112.263 40.4334C112.316 40.428 112.358 40.4207 112.382 40.4163C112.43 40.4075 112.466 40.3983 112.48 40.3946C112.557 40.3747 112.495 40.3895 112.297 40.4723C112.132 40.5411 111.965 40.6191 111.847 40.6863C111.787 40.7209 111.773 40.7334 111.789 40.7208C111.798 40.7135 111.833 40.6854 111.878 40.6354C111.918 40.5899 112.004 40.4863 112.077 40.3246L109.34 39.0972Z" fill="#00ECAA"/>
</svg>
