<svg width="194" height="61" viewBox="0 0 194 61" fill="none" xmlns="http://www.w3.org/2000/svg">
<path d="M78.7319 15.332C78.7319 17.796 80.2579 19.14 83.1839 19.14C86.1099 19.14 87.6499 17.796 87.6499 15.332V9.13H85.4099V14.338C85.4099 16.102 85.2419 17.18 83.1839 17.18C81.1259 17.18 80.9719 16.102 80.9719 14.338V9.13H78.7319V15.332ZM87.7898 19H90.3658L93.0258 15.206L95.6998 19H98.2758L94.9298 14.338V13.778L98.2758 9.13H95.6998L93.0258 12.91L90.3658 9.13H87.7898L91.1218 13.778V14.338L87.7898 19ZM103.989 7.604L99.2566 19.91L100.839 20.526L105.571 8.22L103.989 7.604ZM106.828 15.332C106.828 17.796 108.354 19.14 111.28 19.14C114.206 19.14 115.746 17.796 115.746 15.332V9.13H113.506V14.338C113.506 16.102 113.338 17.18 111.28 17.18C109.222 17.18 109.068 16.102 109.068 14.338V9.13H106.828V15.332ZM123.449 11.09V9.13H116.729V11.09H118.969V17.04H116.729V19H123.449V17.04H121.209V11.09H123.449ZM126.656 14.87C127.58 14.87 128.21 14.198 128.21 13.316C128.21 12.462 127.58 11.79 126.656 11.79C125.704 11.79 125.13 12.462 125.13 13.316C125.13 14.198 125.704 14.87 126.656 14.87ZM126.656 19.14C127.58 19.14 128.21 18.468 128.21 17.586C128.21 16.732 127.58 16.06 126.656 16.06C125.704 16.06 125.13 16.732 125.13 17.586C125.13 18.468 125.704 19.14 126.656 19.14ZM137.599 9.13H133.959V19H137.599C140.231 19 142.975 18.314 142.975 14.058C142.975 9.816 140.231 9.13 137.599 9.13ZM137.599 17.04H136.199V11.09H137.599C139.349 11.09 140.735 11.23 140.735 14.058C140.735 16.9 139.349 17.04 137.599 17.04ZM143.673 15.374C143.673 17.376 144.919 19.14 147.635 19.14C150.085 19.14 151.247 17.53 151.387 16.508H149.147C149.007 17.04 148.419 17.32 147.635 17.32C146.361 17.32 145.773 16.746 145.773 15.934H151.135V15.234C151.135 13.092 149.595 11.79 147.397 11.79C145.199 11.79 143.673 13.134 143.673 15.374ZM145.773 14.674C145.773 14.142 146.151 13.61 147.397 13.61C148.643 13.61 149.035 14.142 149.035 14.674H145.773ZM158.955 17.054C158.955 15.584 157.695 15.234 156.323 14.786C155.203 14.422 154.503 14.212 154.503 13.876C154.503 13.596 154.797 13.47 155.329 13.47C156.099 13.47 156.477 13.848 156.477 14.352H158.717C158.717 12.98 157.737 11.79 155.343 11.79C153.397 11.79 152.263 12.518 152.263 13.778C152.263 15.36 153.873 15.71 155.189 16.144C156.323 16.522 156.715 16.62 156.715 16.984C156.715 17.32 156.337 17.46 155.735 17.46C154.559 17.46 154.181 16.984 154.181 16.438H151.941C151.941 18.09 153.061 19.14 155.665 19.14C158.101 19.14 158.955 18.244 158.955 17.054ZM162.69 11.23C163.516 11.23 164.034 10.838 164.034 10.11C164.034 9.396 163.516 8.99 162.69 8.99C161.864 8.99 161.374 9.396 161.374 10.11C161.374 10.838 161.864 11.23 162.69 11.23ZM159.792 19H165.952V17.04H163.95V12.966C163.95 12.182 163.516 11.748 162.732 11.79L160.072 11.93V13.89L161.794 13.806V17.04H159.792V19ZM174.239 11.93C173.609 11.93 172.881 12 172.461 12.546C171.719 12 170.739 11.79 169.661 11.79C167.435 11.79 165.671 12.686 165.671 14.548C165.671 16.872 168.401 17.25 170.991 16.326V16.886C169.703 17.194 168.247 17.362 166.637 17.53L166.875 18.79C169.045 18.426 171.579 17.964 171.579 19C171.579 19.77 170.711 19.84 166.133 19.84V21.8C171.383 21.8 173.833 21.562 173.833 19.476C173.833 17.978 172.335 17.558 170.725 17.656C172.671 16.998 173.917 16.158 173.917 14.828C173.917 14.45 173.805 14.128 173.721 14.016C173.917 13.89 174.169 13.89 174.379 13.89H174.855V11.93H174.239ZM169.801 15.626C168.457 15.626 167.911 15.29 167.911 14.688C167.911 14.1 168.457 13.75 169.801 13.75C171.145 13.75 171.677 14.1 171.677 14.688C171.677 15.29 171.145 15.626 169.801 15.626ZM180.092 13.75C181.17 13.75 181.548 14.24 181.548 15.528V19H183.788V15.178C183.788 12.994 182.696 11.79 180.89 11.79C179.378 11.79 178.496 12.784 178.216 14.044H177.656L178.076 12.784V11.93H175.836V19H178.076V16.382C178.076 14.394 178.874 13.75 180.092 13.75ZM185.464 14.38V16.06H193.024V14.38H185.464ZM109.747 23.13H106.205V33H108.445V30.06H109.747C112.239 30.06 114.143 29.584 114.143 26.588C114.143 23.606 112.239 23.13 109.747 23.13ZM109.887 28.1H108.445V25.09H109.887C111.217 25.09 111.903 25.23 111.903 26.588C111.903 27.96 111.217 28.1 109.887 28.1ZM115.119 33H117.359V27.806L120.957 27.89V25.93L116.323 25.818C115.553 25.804 115.119 26.224 115.119 26.994V33ZM121.525 29.374C121.525 31.376 122.771 33.14 125.487 33.14C127.937 33.14 129.099 31.53 129.239 30.508H126.999C126.859 31.04 126.271 31.32 125.487 31.32C124.213 31.32 123.625 30.746 123.625 29.934H128.987V29.234C128.987 27.092 127.447 25.79 125.249 25.79C123.051 25.79 121.525 27.134 121.525 29.374ZM123.625 28.674C123.625 28.142 124.003 27.61 125.249 27.61C126.495 27.61 126.887 28.142 126.887 28.674H123.625ZM130.076 25.93V35.66H132.316V32.566L131.896 31.306H132.456C132.82 32.244 133.492 33.14 135.242 33.14C137.286 33.14 138.308 31.474 138.308 29.472C138.308 27.47 137.286 25.79 135.242 25.79C133.492 25.79 132.82 26.686 132.456 27.624H131.896L132.316 26.364V25.93H130.076ZM132.316 29.472C132.316 28.268 132.988 27.75 134.192 27.75C135.396 27.75 136.068 28.268 136.068 29.472C136.068 30.676 135.396 31.18 134.192 31.18C132.988 31.18 132.316 30.676 132.316 29.472ZM139.011 31.068C139.011 31.796 139.389 33.14 141.587 33.14C143.561 33.14 144.247 32.146 144.513 30.97H145.073L144.723 31.81V31.95C144.723 32.622 145.101 33 145.773 33H147.327V31.04H146.305V29.052C146.305 26.728 144.597 25.79 142.651 25.79C140.677 25.79 139.151 26.84 139.151 28.632H141.251C141.251 27.988 141.755 27.61 142.651 27.61C143.617 27.61 144.065 27.96 144.065 28.534L141.839 28.842C139.739 29.136 139.011 29.85 139.011 31.068ZM141.251 30.648C141.251 30.242 141.587 30.144 142.259 30.046L144.065 29.794C144.065 30.662 143.253 31.18 142.021 31.18C141.643 31.18 141.251 31.054 141.251 30.648ZM148.164 33H150.404V27.806L154.002 27.89V25.93L149.368 25.818C148.598 25.804 148.164 26.224 148.164 26.994V33ZM154.433 31.068C154.433 31.796 154.811 33.14 157.009 33.14C158.983 33.14 159.669 32.146 159.935 30.97H160.495L160.145 31.81V31.95C160.145 32.622 160.523 33 161.195 33H162.749V31.04H161.727V29.052C161.727 26.728 160.019 25.79 158.073 25.79C156.099 25.79 154.573 26.84 154.573 28.632H156.673C156.673 27.988 157.177 27.61 158.073 27.61C159.039 27.61 159.487 27.96 159.487 28.534L157.261 28.842C155.161 29.136 154.433 29.85 154.433 31.068ZM156.673 30.648C156.673 30.242 157.009 30.144 157.681 30.046L159.487 29.794C159.487 30.662 158.675 31.18 157.443 31.18C157.065 31.18 156.673 31.054 156.673 30.648ZM166.382 31.18V27.89H168.706V25.93H166.382V23.9L164.142 24.6V25.93H162.462V27.89H164.142V31.95C164.142 32.72 164.562 33.168 165.332 33.14L168.986 33V31.04L166.382 31.18ZM172.726 25.23C173.552 25.23 174.07 24.838 174.07 24.11C174.07 23.396 173.552 22.99 172.726 22.99C171.9 22.99 171.41 23.396 171.41 24.11C171.41 24.838 171.9 25.23 172.726 25.23ZM169.828 33H175.988V31.04H173.986V26.966C173.986 26.182 173.552 25.748 172.768 25.79L170.108 25.93V27.89L171.83 27.806V31.04H169.828V33ZM176.404 29.458C176.404 31.936 178.168 33.14 180.394 33.14C182.606 33.14 184.37 31.936 184.37 29.458C184.37 26.994 182.606 25.79 180.394 25.79C178.168 25.79 176.404 26.994 176.404 29.458ZM178.644 29.458C178.644 28.282 179.33 27.75 180.394 27.75C181.444 27.75 182.13 28.282 182.13 29.458C182.13 30.648 181.444 31.18 180.394 31.18C179.33 31.18 178.644 30.648 178.644 29.458ZM189.608 27.75C190.686 27.75 191.064 28.24 191.064 29.528V33H193.304V29.178C193.304 26.994 192.212 25.79 190.406 25.79C188.894 25.79 188.012 26.784 187.732 28.044H187.172L187.592 26.784V25.93H185.352V33H187.592V30.382C187.592 28.394 188.39 27.75 189.608 27.75Z" fill="#03000F"/>
<path d="M4.67192 31.3181C4.32419 30.5662 4.65184 29.6747 5.40376 29.327L17.6569 23.6604C18.4088 23.3127 19.3002 23.6403 19.648 24.3922C19.9957 25.1441 19.6681 26.0356 18.9161 26.3833L8.02447 31.4203L13.0615 42.312C13.4092 43.0639 13.0816 43.9553 12.3296 44.3031C11.5777 44.6508 10.6863 44.3231 10.3386 43.5712L4.67192 31.3181ZM16.6733 34.2124L16.4685 35.6984L16.6733 34.2124ZM30.933 34.6043L30.955 36.1041L30.933 34.6043ZM43.884 32.1665L43.446 30.7319L43.884 32.1665ZM64.8971 23.1176L65.8118 24.3064L64.8971 23.1176ZM66.7083 21.7109L65.3395 21.0972L66.7083 21.7109ZM6.55087 29.2806C7.41408 29.5978 8.30321 29.9505 9.18596 30.3003C10.0751 30.6527 10.9606 31.0034 11.8452 31.3296C13.6244 31.9856 15.3206 32.5118 16.8781 32.7264L16.4685 35.6984C14.5846 35.4387 12.6454 34.8221 10.8073 34.1443C9.88332 33.8036 8.96464 33.4396 8.08065 33.0893C7.19027 32.7364 6.33729 32.3983 5.5159 32.0964L6.55087 29.2806ZM16.8781 32.7264C21.7022 33.3913 26.215 33.1734 30.911 33.1044L30.955 36.1041C26.3893 36.1712 21.5791 36.4027 16.4685 35.6984L16.8781 32.7264ZM30.911 33.1044C35.6051 33.0355 39.4674 31.9466 43.446 30.7319L44.3221 33.6011C40.3135 34.825 36.1038 36.0285 30.955 36.1041L30.911 33.1044ZM43.446 30.7319C45.1377 30.2153 47.1104 29.7552 48.7772 29.2959C50.5263 28.814 52.0799 28.3001 53.3108 27.6211L54.7598 30.2479C53.2029 31.1067 51.3627 31.6953 49.5741 32.1881C47.703 32.7037 45.994 33.0906 44.3221 33.6011L43.446 30.7319ZM53.3108 27.6211C55.1302 26.6175 57.1776 25.7025 59.0101 24.8134C60.8925 23.9001 62.6027 22.9903 63.9824 21.9288L65.8118 24.3064C64.1732 25.5671 62.2267 26.5872 60.3197 27.5125C58.3629 28.4619 56.4886 29.2943 54.7598 30.2479L53.3108 27.6211ZM63.9824 21.9288C64.1851 21.7728 64.4092 21.6318 64.5868 21.5222C64.7877 21.3982 64.9385 21.3086 65.0948 21.2067C65.2466 21.1078 65.3402 21.0371 65.3947 20.9881C65.4583 20.9309 65.3988 20.965 65.3395 21.0972L68.077 22.3246C67.8947 22.7311 67.6153 23.0258 67.401 23.2186C67.1776 23.4195 66.9355 23.5879 66.7331 23.7199C66.5352 23.8489 66.3132 23.9821 66.1621 24.0753C65.9876 24.1829 65.8804 24.2536 65.8118 24.3064L63.9824 21.9288ZM65.3395 21.0972C65.5123 20.712 65.7946 20.4747 65.9121 20.3805C66.0659 20.2571 66.2274 20.1567 66.3602 20.0809C66.6292 19.9274 66.9219 19.7954 67.14 19.7042C67.3248 19.627 67.5693 19.5317 67.7257 19.491C67.7449 19.486 67.7851 19.4759 67.836 19.4665C67.8613 19.4618 67.9049 19.4543 67.9594 19.4488C67.9994 19.4447 68.1174 19.4335 68.2675 19.4491C68.3423 19.4569 68.4856 19.477 68.6542 19.5422C68.8147 19.6044 69.1215 19.7554 69.3548 20.0999C69.9353 20.9565 69.3859 21.7418 69.3258 21.8244C69.1965 22.0022 69.0581 22.1075 69.0251 22.1328C68.9702 22.1749 68.9236 22.2045 68.8987 22.22C68.8148 22.2718 68.7401 22.3058 68.7301 22.3105C68.7024 22.3234 68.6765 22.3347 68.6566 22.3432C68.5806 22.3755 68.473 22.4177 68.3378 22.4687L67.2789 19.6618C67.405 19.6143 67.4647 19.59 67.4806 19.5832C67.5325 19.5611 67.4325 19.5995 67.3223 19.6675C67.2987 19.6821 67.2532 19.711 67.1991 19.7525C67.167 19.7771 67.0291 19.8819 66.9001 20.0592C66.8403 20.1414 66.291 20.9264 66.8713 21.7827C67.1046 22.127 67.4112 22.278 67.5715 22.3401C67.7399 22.4052 67.8829 22.4253 67.9574 22.433C68.1068 22.4486 68.224 22.4374 68.2628 22.4334C68.3162 22.428 68.3584 22.4207 68.3822 22.4163C68.4298 22.4075 68.4659 22.3983 68.4802 22.3946C68.5567 22.3747 68.4949 22.3895 68.2967 22.4723C68.132 22.5411 67.965 22.6192 67.8474 22.6863C67.7869 22.7209 67.7733 22.7334 67.7891 22.7208C67.7981 22.7135 67.8325 22.6854 67.8775 22.6354C67.9184 22.5899 68.0045 22.4863 68.077 22.3246L65.3395 21.0972Z" fill="#00ECAA"/>
</svg>
