<svg width="220" height="100" viewBox="0 0 220 100" fill="none" xmlns="http://www.w3.org/2000/svg">
<path d="M141.804 55.13H138.262V65H140.502V62.06H141.804C144.296 62.06 146.2 61.584 146.2 58.588C146.2 55.606 144.296 55.13 141.804 55.13ZM141.944 60.1H140.502V57.09H141.944C143.274 57.09 143.96 57.23 143.96 58.588C143.96 59.96 143.274 60.1 141.944 60.1ZM146.346 65H152.506V63.04H150.546V55.788C150.546 55.004 150.112 54.584 149.328 54.612L146.626 54.71V56.67L148.306 56.586V63.04H146.346V65ZM156.761 63.18C155.683 63.18 155.305 62.69 155.305 61.402V57.93H153.065V61.752C153.065 63.936 154.157 65.14 155.963 65.14C157.475 65.14 158.357 64.146 158.637 62.886H159.197L158.777 64.146V65H161.017V57.93H158.777V60.548C158.777 62.536 157.979 63.18 156.761 63.18ZM168.877 63.054C168.877 61.584 167.617 61.234 166.245 60.786C165.125 60.422 164.425 60.212 164.425 59.876C164.425 59.596 164.719 59.47 165.251 59.47C166.021 59.47 166.399 59.848 166.399 60.352H168.639C168.639 58.98 167.659 57.79 165.265 57.79C163.319 57.79 162.185 58.518 162.185 59.778C162.185 61.36 163.795 61.71 165.111 62.144C166.245 62.522 166.637 62.62 166.637 62.984C166.637 63.32 166.259 63.46 165.657 63.46C164.481 63.46 164.103 62.984 164.103 62.438H161.863C161.863 64.09 162.983 65.14 165.587 65.14C168.023 65.14 168.877 64.244 168.877 63.054ZM182.612 62.284C182.612 60.226 179.826 59.442 178.006 58.826C176.424 58.294 176.186 58.126 176.186 57.678C176.186 57.174 176.816 56.95 177.824 56.95C179.042 56.95 179.966 57.286 179.966 58.49H182.206C182.206 56.53 180.848 54.99 177.824 54.99C175.276 54.99 173.946 55.914 173.946 57.594C173.946 59.526 175.64 60.086 177.726 60.786C179.168 61.276 180.372 61.598 180.372 62.312C180.372 62.844 179.896 63.18 178.454 63.18C176.494 63.18 175.738 62.704 175.738 61.192H173.498C173.498 63.684 174.828 65.14 178.384 65.14C181.422 65.14 182.612 63.978 182.612 62.284ZM189.156 65H191.704L189.31 61.374L190.402 60.87C191.018 60.576 191.284 60.142 191.284 59.47V57.93H189.044L189.072 59.204L185.838 60.688V54.71H183.598V65H185.838V62.998L187.392 62.27L189.156 65ZM195.157 57.23C195.983 57.23 196.501 56.838 196.501 56.11C196.501 55.396 195.983 54.99 195.157 54.99C194.331 54.99 193.841 55.396 193.841 56.11C193.841 56.838 194.331 57.23 195.157 57.23ZM192.259 65H198.419V63.04H196.417V58.966C196.417 58.182 195.983 57.748 195.199 57.79L192.539 57.93V59.89L194.261 59.806V63.04H192.259V65ZM199.119 65H205.279V63.04H203.319V55.788C203.319 55.004 202.885 54.584 202.101 54.612L199.399 54.71V56.67L201.079 56.586V63.04H199.119V65ZM205.983 65H212.143V63.04H210.183V55.788C210.183 55.004 209.749 54.584 208.965 54.612L206.263 54.71V56.67L207.943 56.586V63.04H205.983V65ZM219.723 63.054C219.723 61.584 218.463 61.234 217.091 60.786C215.971 60.422 215.271 60.212 215.271 59.876C215.271 59.596 215.565 59.47 216.097 59.47C216.867 59.47 217.245 59.848 217.245 60.352H219.485C219.485 58.98 218.505 57.79 216.111 57.79C214.165 57.79 213.031 58.518 213.031 59.778C213.031 61.36 214.641 61.71 215.957 62.144C217.091 62.522 217.483 62.62 217.483 62.984C217.483 63.32 217.105 63.46 216.503 63.46C215.327 63.46 214.949 62.984 214.949 62.438H212.709C212.709 64.09 213.829 65.14 216.433 65.14C218.869 65.14 219.723 64.244 219.723 63.054Z" fill="#03000F"/>
<path d="M5.6296 54.4118C5.41518 55.212 5.89006 56.0345 6.69026 56.2489L19.7303 59.7429C20.5305 59.9574 21.353 59.4825 21.5674 58.6823C21.7818 57.8821 21.3069 57.0596 20.5067 56.8452L8.9156 53.7393L12.0214 42.1482C12.2358 41.348 11.761 40.5255 10.9608 40.3111C10.1606 40.0967 9.33807 40.5716 9.12365 41.3718L5.6296 54.4118ZM22.8031 46.4015L22.3539 44.9703L22.8031 46.4015ZM45.1163 42.0446L44.8921 40.5614L45.1163 42.0446ZM66.1811 42.5377L65.9799 44.0241L66.1811 42.5377ZM101.816 51.4513L102.526 50.1302L101.816 51.4513ZM105.067 53.2179L103.822 54.0544L105.067 53.2179ZM7.82848 56.099C9.08422 55.374 10.3722 54.5854 11.6623 53.7958C12.9584 53.0026 14.2593 52.2068 15.5676 51.4497C18.1934 49.93 20.7744 48.6105 23.2524 47.8326L22.3539 44.9703C19.5554 45.8488 16.7462 47.3013 14.0649 48.8532C12.7196 49.6318 11.3876 50.4467 10.0963 51.237C8.79901 52.0309 7.54487 52.7987 6.32848 53.501L7.82848 56.099ZM23.2524 47.8326C30.7281 45.4859 37.9729 44.6415 45.3405 43.5277L44.8921 40.5614C37.6556 41.6554 30.1101 42.5355 22.3539 44.9703L23.2524 47.8326ZM45.3405 43.5277C52.8735 42.3889 59.3655 43.1292 65.9799 44.0241L66.3822 41.0512C59.7381 40.1522 52.88 39.3539 44.8921 40.5614L45.3405 43.5277ZM65.9799 44.0241C68.7821 44.4033 71.9352 44.611 74.7504 44.913C77.6506 45.2241 80.3296 45.6442 82.5663 46.4416L83.5738 43.6158C80.9863 42.6934 78.0127 42.2457 75.0703 41.9301C72.043 41.6054 69.1637 41.4276 66.3822 41.0512L65.9799 44.0241ZM82.5663 46.4416C85.6849 47.5534 89.1105 48.4586 92.2871 49.4072C95.5162 50.3716 98.5431 51.3949 101.106 52.7725L102.526 50.1302C99.6777 48.5988 96.4016 47.5051 93.1455 46.5327C89.8368 45.5445 86.595 44.6929 83.5738 43.6158L82.5663 46.4416ZM101.106 52.7725C101.423 52.943 101.776 53.0934 102.086 53.2211C102.421 53.3591 102.707 53.472 102.996 53.5996C103.28 53.725 103.498 53.8355 103.658 53.9376C103.827 54.0459 103.847 54.0925 103.822 54.0544L106.312 52.3815C106.014 51.9388 105.614 51.6277 105.275 51.4106C104.926 51.1874 104.547 51.0049 104.208 50.8552C103.874 50.7076 103.51 50.5633 103.229 50.4475C102.923 50.3213 102.695 50.2212 102.526 50.1302L101.106 52.7725ZM103.822 54.0544C104.072 54.428 104.421 54.6418 104.6 54.7427C104.818 54.8658 105.051 54.9641 105.258 55.0413C105.675 55.1968 106.133 55.3203 106.485 55.4044C106.802 55.48 107.156 55.5528 107.342 55.57C107.363 55.572 107.406 55.5756 107.459 55.5767C107.486 55.5773 107.531 55.5776 107.586 55.5741C107.627 55.5716 107.748 55.5633 107.896 55.5223C107.969 55.5019 108.11 55.4573 108.268 55.3623C108.42 55.2711 108.699 55.0658 108.869 54.6807C109.282 53.7426 108.613 53.0701 108.546 53.0042C108.391 52.8525 108.24 52.772 108.203 52.7521C108.142 52.7196 108.091 52.6978 108.064 52.6864C107.929 52.6309 107.787 52.5985 107.778 52.5964C107.669 52.5694 107.502 52.5334 107.278 52.4881L106.685 55.4288C106.899 55.4721 107.015 55.4981 107.062 55.5095C107.131 55.5265 107.035 55.5073 106.919 55.4595C106.894 55.4492 106.845 55.4282 106.786 55.3965C106.75 55.3774 106.6 55.2976 106.446 55.1465C106.379 55.0812 105.71 54.4092 106.123 53.4717C106.293 53.0867 106.572 52.8816 106.723 52.7906C106.881 52.6958 107.022 52.6514 107.095 52.6311C107.242 52.5904 107.361 52.5823 107.4 52.5799C107.454 52.5765 107.497 52.5769 107.52 52.5773C107.568 52.5783 107.604 52.5815 107.618 52.5828C107.672 52.5878 107.513 52.5655 107.182 52.4864C106.886 52.4158 106.561 52.3252 106.306 52.2304C106.178 52.1824 106.103 52.1465 106.073 52.1293C106.003 52.09 106.161 52.1574 106.312 52.3815L103.822 54.0544Z" fill="#00ECAA"/>
</svg>
