<svg width="262" height="129" viewBox="0 0 262 129" fill="none" xmlns="http://www.w3.org/2000/svg">
<path d="M45.875 123H49.925L44.825 105.375H36.575L31.5 123H35.55L37.125 117.35H44.275L45.875 123ZM38.1 113.85L40.2 106.375H41.2L43.3 113.85H38.1ZM51.6895 123H55.6895V122.225L54.9395 119.975H55.9395C56.5895 121.65 57.7895 123.25 60.9145 123.25C64.5645 123.25 66.3895 120.25 66.3895 116.675C66.3895 113.1 64.5645 110.125 60.9145 110.125C57.7895 110.125 56.5895 111.725 55.9395 113.4H54.9395L55.6895 111.15V104.625H51.6895V123ZM55.6895 116.675C55.6895 114.55 56.8895 113.625 59.0395 113.625C61.1895 113.625 62.3895 114.55 62.3895 116.675C62.3895 118.8 61.1895 119.75 59.0395 119.75C56.8895 119.75 55.6895 118.8 55.6895 116.675ZM79.9195 119.525C79.9195 116.9 77.6695 116.275 75.2195 115.475C73.2195 114.825 71.9695 114.45 71.9695 113.85C71.9695 113.35 72.4945 113.125 73.4445 113.125C74.8195 113.125 75.4945 113.8 75.4945 114.7H79.4945C79.4945 112.25 77.7445 110.125 73.4695 110.125C69.9945 110.125 67.9695 111.425 67.9695 113.675C67.9695 116.5 70.8445 117.125 73.1945 117.9C75.2195 118.575 75.9195 118.75 75.9195 119.4C75.9195 120 75.2445 120.25 74.1695 120.25C72.0695 120.25 71.3945 119.4 71.3945 118.425H67.3945C67.3945 121.375 69.3945 123.25 74.0445 123.25C78.3945 123.25 79.9195 121.65 79.9195 119.525ZM81.1699 116.675C81.1699 120.9 84.0449 123.25 88.0699 123.25C91.5199 123.25 94.6699 121.375 94.8449 117.775H90.8449C90.6949 118.9 89.6699 119.75 88.0699 119.75C86.1699 119.75 85.1699 118.625 85.1699 116.675C85.1699 114.75 86.1699 113.625 88.0699 113.625C89.6699 113.625 90.6949 114.475 90.8449 115.6H94.8449C94.6699 112 91.5199 110.125 88.0699 110.125C84.0449 110.125 81.1699 112.475 81.1699 116.675ZM105.368 110.125C102.668 110.125 101.093 111.9 100.593 114.15H99.5928L100.343 111.9V104.625H96.3428V123H100.343V118.325C100.343 114.775 101.768 113.625 103.943 113.625C105.868 113.625 106.543 114.5 106.543 116.8V123H110.543V116.175C110.543 112.275 108.593 110.125 105.368 110.125ZM112.048 123H123.048V119.5H119.548V106.55C119.548 105.15 118.773 104.4 117.373 104.45L112.548 104.625V108.125L115.548 107.975V119.5H112.048V123ZM130.647 119.75C128.722 119.75 128.047 118.875 128.047 116.575V110.375H124.047V117.2C124.047 121.1 125.997 123.25 129.222 123.25C131.922 123.25 133.497 121.475 133.997 119.225H134.997L134.247 121.475V123H138.247V110.375H134.247V115.05C134.247 118.6 132.822 119.75 130.647 119.75ZM152.283 119.525C152.283 116.9 150.033 116.275 147.583 115.475C145.583 114.825 144.333 114.45 144.333 113.85C144.333 113.35 144.858 113.125 145.808 113.125C147.183 113.125 147.858 113.8 147.858 114.7H151.858C151.858 112.25 150.108 110.125 145.833 110.125C142.358 110.125 140.333 111.425 140.333 113.675C140.333 116.5 143.208 117.125 145.558 117.9C147.583 118.575 148.283 118.75 148.283 119.4C148.283 120 147.608 120.25 146.533 120.25C144.433 120.25 143.758 119.4 143.758 118.425H139.758C139.758 121.375 141.758 123.25 146.408 123.25C150.758 123.25 152.283 121.65 152.283 119.525ZM165.808 119.525C165.808 116.9 163.558 116.275 161.108 115.475C159.108 114.825 157.858 114.45 157.858 113.85C157.858 113.35 158.383 113.125 159.333 113.125C160.708 113.125 161.383 113.8 161.383 114.7H165.383C165.383 112.25 163.633 110.125 159.358 110.125C155.883 110.125 153.858 111.425 153.858 113.675C153.858 116.5 156.733 117.125 159.083 117.9C161.108 118.575 161.808 118.75 161.808 119.4C161.808 120 161.133 120.25 160.058 120.25C157.958 120.25 157.283 119.4 157.283 118.425H153.283C153.283 121.375 155.283 123.25 159.933 123.25C164.283 123.25 165.808 121.65 165.808 119.525ZM167.314 110.375V127.75H171.314V122.225L170.564 119.975H171.564C172.214 121.65 173.414 123.25 176.539 123.25C180.189 123.25 182.014 120.275 182.014 116.7C182.014 113.125 180.189 110.125 176.539 110.125C173.414 110.125 172.214 111.725 171.564 113.4H170.564L171.314 111.15V110.375H167.314ZM171.314 116.7C171.314 114.55 172.514 113.625 174.664 113.625C176.814 113.625 178.014 114.55 178.014 116.7C178.014 118.85 176.814 119.75 174.664 119.75C172.514 119.75 171.314 118.85 171.314 116.7ZM183.77 123H187.77V113.725L194.195 113.875V110.375L185.92 110.175C184.545 110.15 183.77 110.9 183.77 112.275V123ZM195.208 116.675C195.208 121.1 198.358 123.25 202.333 123.25C206.283 123.25 209.433 121.1 209.433 116.675C209.433 112.275 206.283 110.125 202.333 110.125C198.358 110.125 195.208 112.275 195.208 116.675ZM199.208 116.675C199.208 114.575 200.433 113.625 202.333 113.625C204.208 113.625 205.433 114.575 205.433 116.675C205.433 118.8 204.208 119.75 202.333 119.75C200.433 119.75 199.208 118.8 199.208 116.675ZM214.837 109.125C216.312 109.125 217.237 108.425 217.237 107.125C217.237 105.85 216.312 105.125 214.837 105.125C213.362 105.125 212.487 105.85 212.487 107.125C212.487 108.425 213.362 109.125 214.837 109.125ZM209.937 128H214.437L216.737 123.95C217.062 123.35 217.162 122.9 217.162 122.25V112.275C217.162 110.9 216.387 110.15 215.012 110.2L209.937 110.375V113.875L213.012 113.725V121.95C213.012 122.6 212.912 123.125 212.587 123.65L209.937 128ZM218.865 116.525C218.865 120.1 221.09 123.25 225.94 123.25C230.315 123.25 232.39 120.375 232.64 118.55H228.64C228.39 119.5 227.34 120 225.94 120C223.665 120 222.615 118.975 222.615 117.525H232.19V116.275C232.19 112.45 229.44 110.125 225.515 110.125C221.59 110.125 218.865 112.525 218.865 116.525ZM222.615 115.275C222.615 114.325 223.29 113.375 225.515 113.375C227.74 113.375 228.44 114.325 228.44 115.275H222.615ZM244.061 123H248.611L244.336 116.525L246.286 115.625C247.386 115.1 247.861 114.325 247.861 113.125V110.375H243.861L243.911 112.65L238.136 115.3V104.625H234.136V123H238.136V119.425L240.911 118.125L244.061 123ZM256.121 119.75V113.875H260.271V110.375H256.121V106.75L252.121 108V110.375H249.121V113.875H252.121V121.125C252.121 122.5 252.871 123.3 254.246 123.25L260.771 123V119.5L256.121 119.75Z" fill="#03000F"/>
<path d="M2.64926 28.6099C1.86752 28.3358 1.45601 27.4798 1.73014 26.698L6.19754 13.9586C6.47168 13.1769 7.32764 12.7654 8.1094 13.0395C8.89116 13.3137 9.30266 14.1696 9.02851 14.9514L5.0575 26.2753L16.3814 30.2463C17.1632 30.5205 17.5747 31.3764 17.3005 32.1582C17.0264 32.9399 16.1704 33.3514 15.3887 33.0773L2.64926 28.6099ZM145.498 77.7013C144.831 48.427 135.622 30.9798 122.48 21.0564C109.276 11.0865 91.8009 8.47675 74.152 9.55342C56.5257 10.6287 38.9384 15.3691 25.7262 19.8605C19.1273 22.1037 13.6361 24.2792 9.79738 25.8925C7.87834 26.6991 6.37314 27.3648 5.34995 27.8278C4.83836 28.0593 4.44736 28.2401 4.18544 28.3624C4.05448 28.4236 3.95579 28.4701 3.89046 28.5011C3.85778 28.5166 3.83346 28.5282 3.8176 28.5358C3.80967 28.5396 3.80385 28.5423 3.80016 28.5441C3.79833 28.545 3.79718 28.5455 3.79626 28.546C3.79564 28.5463 3.79555 28.5463 3.14564 27.1944C2.49573 25.8425 2.49673 25.842 2.49825 25.8413C2.49949 25.8407 2.50154 25.8397 2.50399 25.8386C2.5089 25.8362 2.51595 25.8328 2.52511 25.8285C2.54344 25.8197 2.57027 25.8069 2.60547 25.7903C2.67584 25.7569 2.77966 25.7079 2.91586 25.6443C3.18826 25.5171 3.5902 25.3313 4.11315 25.0946C5.15899 24.6214 6.68905 23.9447 8.63501 23.1269C12.5263 21.4914 18.0839 19.2898 24.7606 17.0201C38.0993 12.4858 55.9696 7.65705 73.9693 6.55898C91.9464 5.4623 110.266 8.07497 124.287 18.6623C138.37 29.2962 147.816 47.7411 148.498 77.6329L145.498 77.7013Z" fill="#3DD7AC"/>
</svg>
