<svg width="198" height="62" viewBox="0 0 198 62" fill="none" xmlns="http://www.w3.org/2000/svg">
<path d="M77.2402 18H79.5082L76.6522 8.13H72.0322L69.1902 18H71.4582L72.3402 14.836H76.3442L77.2402 18ZM72.8862 12.876L74.0622 8.69H74.6222L75.7982 12.876H72.8862ZM80.4963 18H82.7363V17.566L82.3163 16.306H82.8763C83.2403 17.244 83.9123 18.14 85.6623 18.14C87.7063 18.14 88.7283 16.46 88.7283 14.458C88.7283 12.456 87.7063 10.79 85.6623 10.79C83.9123 10.79 83.2403 11.686 82.8763 12.624H82.3163L82.7363 11.364V7.71H80.4963V18ZM82.7363 14.458C82.7363 13.268 83.4083 12.75 84.6123 12.75C85.8163 12.75 86.4883 13.268 86.4883 14.458C86.4883 15.648 85.8163 16.18 84.6123 16.18C83.4083 16.18 82.7363 15.648 82.7363 14.458ZM96.3051 16.054C96.3051 14.584 95.0451 14.234 93.6731 13.786C92.5531 13.422 91.8531 13.212 91.8531 12.876C91.8531 12.596 92.1471 12.47 92.6791 12.47C93.4491 12.47 93.8271 12.848 93.8271 13.352H96.0671C96.0671 11.98 95.0871 10.79 92.6931 10.79C90.7471 10.79 89.6131 11.518 89.6131 12.778C89.6131 14.36 91.2231 14.71 92.5391 15.144C93.6731 15.522 94.0651 15.62 94.0651 15.984C94.0651 16.32 93.6871 16.46 93.0851 16.46C91.9091 16.46 91.5311 15.984 91.5311 15.438H89.2911C89.2911 17.09 90.4111 18.14 93.0151 18.14C95.4511 18.14 96.3051 17.244 96.3051 16.054ZM97.0053 14.458C97.0053 16.824 98.6153 18.14 100.869 18.14C102.801 18.14 104.565 17.09 104.663 15.074H102.423C102.339 15.704 101.765 16.18 100.869 16.18C99.8053 16.18 99.2453 15.55 99.2453 14.458C99.2453 13.38 99.8053 12.75 100.869 12.75C101.765 12.75 102.339 13.226 102.423 13.856H104.663C104.565 11.84 102.801 10.79 100.869 10.79C98.6153 10.79 97.0053 12.106 97.0053 14.458ZM110.556 10.79C109.044 10.79 108.162 11.784 107.882 13.044H107.322L107.742 11.784V7.71H105.502V18H107.742V15.382C107.742 13.394 108.54 12.75 109.758 12.75C110.836 12.75 111.214 13.24 111.214 14.528V18H113.454V14.178C113.454 11.994 112.362 10.79 110.556 10.79ZM114.297 18H120.457V16.04H118.497V8.788C118.497 8.004 118.063 7.584 117.279 7.612L114.577 7.71V9.67L116.257 9.586V16.04H114.297V18ZM124.712 16.18C123.634 16.18 123.256 15.69 123.256 14.402V10.93H121.016V14.752C121.016 16.936 122.108 18.14 123.914 18.14C125.426 18.14 126.308 17.146 126.588 15.886H127.148L126.728 17.146V18H128.968V10.93H126.728V13.548C126.728 15.536 125.93 16.18 124.712 16.18ZM136.829 16.054C136.829 14.584 135.569 14.234 134.197 13.786C133.077 13.422 132.377 13.212 132.377 12.876C132.377 12.596 132.671 12.47 133.203 12.47C133.973 12.47 134.351 12.848 134.351 13.352H136.591C136.591 11.98 135.611 10.79 133.217 10.79C131.271 10.79 130.137 11.518 130.137 12.778C130.137 14.36 131.747 14.71 133.063 15.144C134.197 15.522 134.589 15.62 134.589 15.984C134.589 16.32 134.211 16.46 133.609 16.46C132.433 16.46 132.055 15.984 132.055 15.438H129.815C129.815 17.09 130.935 18.14 133.539 18.14C135.975 18.14 136.829 17.244 136.829 16.054ZM144.403 16.054C144.403 14.584 143.143 14.234 141.771 13.786C140.651 13.422 139.951 13.212 139.951 12.876C139.951 12.596 140.245 12.47 140.777 12.47C141.547 12.47 141.925 12.848 141.925 13.352H144.165C144.165 11.98 143.185 10.79 140.791 10.79C138.845 10.79 137.711 11.518 137.711 12.778C137.711 14.36 139.321 14.71 140.637 15.144C141.771 15.522 142.163 15.62 142.163 15.984C142.163 16.32 141.785 16.46 141.183 16.46C140.007 16.46 139.629 15.984 139.629 15.438H137.389C137.389 17.09 138.509 18.14 141.113 18.14C143.549 18.14 144.403 17.244 144.403 16.054ZM145.246 10.93V20.66H147.486V17.566L147.066 16.306H147.626C147.99 17.244 148.662 18.14 150.412 18.14C152.456 18.14 153.478 16.474 153.478 14.472C153.478 12.47 152.456 10.79 150.412 10.79C148.662 10.79 147.99 11.686 147.626 12.624H147.066L147.486 11.364V10.93H145.246ZM147.486 14.472C147.486 13.268 148.158 12.75 149.362 12.75C150.566 12.75 151.238 13.268 151.238 14.472C151.238 15.676 150.566 16.18 149.362 16.18C148.158 16.18 147.486 15.676 147.486 14.472ZM154.461 18H156.701V12.806L160.299 12.89V10.93L155.665 10.818C154.895 10.804 154.461 11.224 154.461 11.994V18ZM160.867 14.458C160.867 16.936 162.631 18.14 164.857 18.14C167.069 18.14 168.833 16.936 168.833 14.458C168.833 11.994 167.069 10.79 164.857 10.79C162.631 10.79 160.867 11.994 160.867 14.458ZM163.107 14.458C163.107 13.282 163.793 12.75 164.857 12.75C165.907 12.75 166.593 13.282 166.593 14.458C166.593 15.648 165.907 16.18 164.857 16.18C163.793 16.18 163.107 15.648 163.107 14.458ZM171.859 10.23C172.685 10.23 173.203 9.838 173.203 9.11C173.203 8.396 172.685 7.99 171.859 7.99C171.033 7.99 170.543 8.396 170.543 9.11C170.543 9.838 171.033 10.23 171.859 10.23ZM169.115 20.8H171.635L172.923 18.532C173.105 18.196 173.161 17.944 173.161 17.58V11.994C173.161 11.224 172.727 10.804 171.957 10.832L169.115 10.93V12.89L170.837 12.806V17.412C170.837 17.776 170.781 18.07 170.599 18.364L169.115 20.8ZM174.115 14.374C174.115 16.376 175.361 18.14 178.077 18.14C180.527 18.14 181.689 16.53 181.829 15.508H179.589C179.449 16.04 178.861 16.32 178.077 16.32C176.803 16.32 176.215 15.746 176.215 14.934H181.577V14.234C181.577 12.092 180.037 10.79 177.839 10.79C175.641 10.79 174.115 12.134 174.115 14.374ZM176.215 13.674C176.215 13.142 176.593 12.61 177.839 12.61C179.085 12.61 179.477 13.142 179.477 13.674H176.215ZM188.224 18H190.772L188.378 14.374L189.47 13.87C190.086 13.576 190.352 13.142 190.352 12.47V10.93H188.112L188.14 12.204L184.906 13.688V7.71H182.666V18H184.906V15.998L186.46 15.27L188.224 18ZM194.978 16.18V12.89H197.302V10.93H194.978V8.9L192.738 9.6V10.93H191.058V12.89H192.738V16.95C192.738 17.72 193.158 18.168 193.928 18.14L197.582 18V16.04L194.978 16.18Z" fill="#03000F"/>
<path d="M4.05858 30.5911C3.27083 30.3983 2.52013 30.9181 2.38183 31.7522L0.128235 45.3445C-0.0100586 46.1786 0.516431 47.0111 1.30418 47.204C2.09193 47.3969 2.84263 46.877 2.98092 46.043L4.98412 33.9609L16.3949 36.7546C17.1826 36.9475 17.9333 36.4277 18.0716 35.5936C18.2099 34.7595 17.6834 33.9269 16.8957 33.7341L4.05858 30.5911ZM59.133 22.467C53.292 37.6528 46.9608 45.5252 40.9341 49.0141C34.9862 52.4574 29.127 51.7475 23.836 49.1925C18.4924 46.6121 13.7845 42.1657 10.3762 38.2891C8.68144 36.3615 7.32896 34.5989 6.40201 33.3209C5.93889 32.6824 5.58296 32.1661 5.34462 31.8124C5.22548 31.6355 5.1358 31.4994 5.07688 31.409C5.04742 31.3639 5.02566 31.3301 5.01176 31.3085C5.00481 31.2977 4.99983 31.2899 4.99683 31.2851C4.99533 31.2828 4.99433 31.2812 4.99383 31.2804C4.99357 31.28 4.99357 31.28 4.99344 31.2798C4.99357 31.28 4.99382 31.2804 3.80818 32.1014C2.62254 32.9224 2.62304 32.9232 2.62367 32.9242C2.62404 32.9247 2.6248 32.9259 2.62555 32.9271C2.62706 32.9295 2.62908 32.9327 2.6316 32.9366C2.63664 32.9445 2.64369 32.9556 2.65274 32.9697C2.67083 32.9979 2.69689 33.0382 2.73076 33.0902C2.79849 33.1941 2.89749 33.3443 3.02646 33.5357C3.28434 33.9185 3.66234 34.4665 4.15006 35.1389C5.12478 36.4828 6.5416 38.329 8.3174 40.3488C11.8502 44.367 16.8883 49.1698 22.7644 52.0073C28.693 54.8702 35.5273 55.7467 42.4153 51.7592C49.2244 47.8173 55.8715 39.2416 61.8201 23.7761L59.133 22.467Z" fill="#3DD7AC"/>
</svg>
