<svg width="283" height="62" viewBox="0 0 283 62" fill="none" xmlns="http://www.w3.org/2000/svg">
<rect width="283" height="61.1148" rx="30.5574" fill="#121E28"/>
<path d="M68.7346 40.2695H80.1683V36.6315H76.5303V23.171C76.5303 21.7158 75.7247 20.9362 74.2695 20.9882L69.2543 21.1701V24.8081L72.3726 24.6521V36.6315H68.7346V40.2695ZM86.8588 25.8475C88.3919 25.8475 89.3534 25.1199 89.3534 23.7686C89.3534 22.4434 88.3919 21.6898 86.8588 21.6898C85.3256 21.6898 84.4161 22.4434 84.4161 23.7686C84.4161 25.1199 85.3256 25.8475 86.8588 25.8475ZM81.4797 40.2695H92.9134V36.6315H89.1975V29.0697C89.1975 27.6145 88.3919 26.809 86.9367 26.8869L81.9994 27.1468V30.7848L85.1957 30.6288V36.6315H81.4797V40.2695ZM103.293 27.1468L100.305 39.2301H99.2651L96.2508 27.1468H92.145L95.4972 40.2695H104.072L107.399 27.1468H103.293ZM107.922 33.5392C107.922 37.2552 110.235 40.5294 115.276 40.5294C119.824 40.5294 121.98 37.541 122.24 35.6441H118.083C117.823 36.6315 116.731 37.1512 115.276 37.1512C112.911 37.1512 111.82 36.0858 111.82 34.5787H121.773V33.2794C121.773 29.3036 118.914 26.8869 114.834 26.8869C110.755 26.8869 107.922 29.3815 107.922 33.5392ZM111.82 32.24C111.82 31.2525 112.522 30.265 114.834 30.265C117.147 30.265 117.875 31.2525 117.875 32.24H111.82ZM155.012 40.6333L151.426 36.3457C153.167 34.1889 154.128 31.3045 154.128 27.9263H149.97C149.97 29.9792 149.555 31.7462 148.775 33.1754L142.461 25.5876H150.932V21.9496H136.744V23.7426L140.901 29.0697V30.1091C140.07 29.1996 138.979 28.498 137.315 28.498C135.003 28.498 132.378 29.9792 132.378 33.5133C132.378 38.1387 136.12 40.5294 141.811 40.5294C144.436 40.5294 146.722 39.9317 148.567 38.8143L151.737 42.8681L155.012 40.6333ZM141.811 36.8914C138.355 36.8914 136.536 35.878 136.536 33.6692C136.536 31.9021 137.991 30.9926 139.81 30.9926C141.707 30.9926 143.084 31.7982 144.669 33.8251L146.229 35.826C145.033 36.5276 143.552 36.8914 141.811 36.8914ZM165.147 33.6952C165.147 38.2946 168.421 40.5294 172.552 40.5294C176.658 40.5294 179.932 38.2946 179.932 33.6952C179.932 29.1217 176.658 26.8869 172.552 26.8869C168.421 26.8869 165.147 29.1217 165.147 33.6952ZM169.304 33.6952C169.304 31.5124 170.578 30.5249 172.552 30.5249C174.501 30.5249 175.775 31.5124 175.775 33.6952C175.775 35.9039 174.501 36.8914 172.552 36.8914C170.578 36.8914 169.304 35.9039 169.304 33.6952ZM189.655 30.5249C191.656 30.5249 192.357 31.4344 192.357 33.8251V40.2695H196.515V33.1754C196.515 29.1217 194.488 26.8869 191.136 26.8869C188.329 26.8869 186.692 28.7319 186.173 31.0706H185.133L185.913 28.7319V27.1468H181.755V40.2695H185.913V35.4102C185.913 31.7202 187.394 30.5249 189.655 30.5249ZM198.079 40.2695H209.513V36.6315H205.875V23.171C205.875 21.7158 205.069 20.9362 203.614 20.9882L198.599 21.1701V24.8081L201.717 24.6521V36.6315H198.079V40.2695ZM216.203 25.8475C217.737 25.8475 218.698 25.1199 218.698 23.7686C218.698 22.4434 217.737 21.6898 216.203 21.6898C214.67 21.6898 213.761 22.4434 213.761 23.7686C213.761 25.1199 214.67 25.8475 216.203 25.8475ZM210.824 40.2695H222.258V36.6315H218.542V29.0697C218.542 27.6145 217.737 26.809 216.281 26.8869L211.344 27.1468V30.7848L214.54 30.6288V36.6315H210.824V40.2695ZM231.729 30.5249C233.73 30.5249 234.432 31.4344 234.432 33.8251V40.2695H238.589V33.1754C238.589 29.1217 236.562 26.8869 233.21 26.8869C230.404 26.8869 228.767 28.7319 228.247 31.0706H227.208L227.987 28.7319V27.1468H223.829V40.2695H227.987V35.4102C227.987 31.7202 229.468 30.5249 231.729 30.5249ZM240.134 33.5392C240.134 37.2552 242.447 40.5294 247.488 40.5294C252.036 40.5294 254.193 37.541 254.453 35.6441H250.295C250.035 36.6315 248.944 37.1512 247.488 37.1512C245.124 37.1512 244.032 36.0858 244.032 34.5787H253.985V33.2794C253.985 29.3036 251.126 26.8869 247.047 26.8869C242.967 26.8869 240.134 29.3815 240.134 33.5392ZM244.032 32.24C244.032 31.2525 244.734 30.265 247.047 30.265C249.359 30.265 250.087 31.2525 250.087 32.24H244.032Z" fill="#3DD7AC"/>
<circle cx="36.8896" cy="30.833" r="13.7646" fill="#F10606"/>
</svg>
