<svg width="744" height="744" viewBox="0 0 744 744" fill="none" xmlns="http://www.w3.org/2000/svg">
<path d="M608.716 371.954C608.716 502.233 502.733 607.99 371.817 607.99C240.9 607.99 134.917 502.233 134.917 371.954C134.917 241.675 240.9 135.917 371.817 135.917C502.733 135.917 608.716 241.675 608.716 371.954Z" stroke="white" stroke-width="51.8345"/>
<path d="M558.216 185.991C582.613 210.388 601.966 239.352 615.17 271.229C628.374 303.106 635.17 337.271 635.17 371.774C635.17 406.278 628.374 440.443 615.17 472.32C601.966 504.197 582.613 533.161 558.216 557.558L521.059 520.401C540.577 500.883 556.06 477.712 566.623 452.211C577.186 426.709 582.622 399.377 582.622 371.774C582.622 344.172 577.186 316.84 566.623 291.338C556.06 265.837 540.577 242.665 521.059 223.147L558.216 185.991Z" fill="#3DD7AC"/>
<path d="M185.784 557.351C161.386 532.954 142.033 503.99 128.829 472.113C115.625 440.236 108.83 406.071 108.83 371.567C108.83 337.064 115.625 302.899 128.829 271.022C142.033 239.145 161.386 210.181 185.784 185.784L222.94 222.94C203.422 242.458 187.94 265.63 177.377 291.131C166.814 316.632 161.377 343.965 161.377 371.567C161.377 399.17 166.814 426.502 177.377 452.004C187.94 477.505 203.422 500.676 222.94 520.194L185.784 557.351Z" fill="#3DD7AC"/>
</svg>
