<svg width="23" height="18" viewBox="0 0 23 18" fill="none" xmlns="http://www.w3.org/2000/svg">
<path fill-rule="evenodd" clip-rule="evenodd" d="M21 2.92893C20.4332 3.75804 19.7479 4.46446 18.9442 5.04822C18.9526 5.16667 18.9569 5.34433 18.9569 5.58122C18.9569 6.68105 18.7961 7.77876 18.4746 8.87437C18.1531 9.96997 17.6646 11.0211 17.0089 12.0279C16.3532 13.0347 15.5728 13.9251 14.6675 14.6992C13.7623 15.4734 12.6709 16.0909 11.3934 16.552C10.1159 17.0131 8.74958 17.2437 7.29442 17.2437C5.00168 17.2437 2.90356 16.6303 1 15.4036C1.29611 15.4374 1.62606 15.4543 1.98985 15.4543C3.89341 15.4543 5.58967 14.8706 7.07868 13.703C6.19035 13.6861 5.3951 13.4133 4.69289 12.8845C3.99069 12.3558 3.50846 11.6811 3.24619 10.8604C3.52538 10.9027 3.78342 10.9239 4.0203 10.9239C4.3841 10.9239 4.74365 10.8773 5.09898 10.7843C4.15143 10.5897 3.36675 10.118 2.74492 9.36929C2.12309 8.62055 1.81218 7.75127 1.81218 6.76142V6.71066C2.38748 7.03215 3.00507 7.20558 3.66497 7.23096C3.1066 6.85871 2.66244 6.37225 2.33249 5.77157C2.00254 5.17089 1.83756 4.51946 1.83756 3.81726C1.83756 3.07275 2.02369 2.38325 2.39594 1.74873C3.41963 3.00931 4.66539 4.01819 6.13325 4.77538C7.60111 5.53258 9.17258 5.95347 10.8477 6.03807C10.78 5.71658 10.7462 5.40355 10.7462 5.09898C10.7462 3.96531 11.1459 2.99873 11.9454 2.19924C12.7449 1.39974 13.7115 1 14.8452 1C16.0296 1 17.0279 1.43147 17.8401 2.29442C18.7623 2.11675 19.6294 1.7868 20.4416 1.30457C20.1286 2.2775 19.5279 3.03045 18.6396 3.56345C19.4264 3.47885 20.2132 3.26735 21 2.92893Z" stroke="#fff"/>
</svg>
