<svg fill="none" height="861" viewBox="0 0 861 861" width="861" xmlns="http://www.w3.org/2000/svg"><path d="m443 291c18.333 0 34.833 2.667 49.5 8s28.5 13.5 41.5 24.5l-34 47c-16.667-12.667-33.5-19-50.5-19-17.667 0-31 6.5-40 19.5s-13.5 34-13.5 63c0 28 4.5 47.833 13.5 59.5s22 17.5 39 17.5c9 0 17.167-1.333 24.5-4 7.333-3 16.167-7.667 26.5-14l34.5 49c-26.333 21-56.167 31.5-89.5 31.5-27 0-50.333-5.667-70-17-19.667-11.667-34.833-27.833-45.5-48.5-10.667-21-16-45.5-16-73.5s5.333-52.833 16-74.5 25.833-38.5 45.5-50.5c19.667-12.333 42.5-18.5 68.5-18.5z" fill="#fff"/></svg>