<svg width="251" height="251" viewBox="0 0 251 251" fill="none" xmlns="http://www.w3.org/2000/svg">
<path d="M108.069 244.675C107.159 244.535 106.402 244.283 105.797 243.92C105.19 243.57 104.626 243.077 104.103 242.444L105.308 241.456C105.759 241.944 106.22 242.319 106.692 242.581C107.149 242.854 107.661 243.034 108.228 243.122C108.939 243.232 109.551 243.157 110.063 242.899C110.575 242.641 110.88 242.196 110.978 241.563C111.039 241.168 111.012 240.82 110.897 240.519C110.779 240.231 110.527 239.942 110.14 239.653C109.74 239.362 109.151 239.028 108.372 238.651C107.557 238.255 106.889 237.862 106.369 237.471C105.849 237.081 105.46 236.589 105.201 235.996C104.926 235.413 104.852 234.714 104.979 233.897C105.101 233.106 105.407 232.439 105.896 231.894C106.371 231.346 107.005 230.959 107.796 230.73C108.573 230.5 109.463 230.462 110.464 230.616C112.349 230.908 113.8 231.732 114.817 233.09L113.612 234.078C113.128 233.544 112.621 233.115 112.091 232.79C111.559 232.479 110.944 232.269 110.246 232.161C109.402 232.031 108.672 232.127 108.056 232.45C107.437 232.786 107.067 233.35 106.945 234.14C106.875 234.588 106.904 234.97 107.031 235.287C107.155 235.616 107.41 235.932 107.795 236.235C108.167 236.535 108.729 236.865 109.483 237.224C110.815 237.862 111.758 238.527 112.312 239.22C112.866 239.912 113.064 240.766 112.908 241.781C112.802 242.466 112.529 243.051 112.09 243.536C111.637 244.02 111.065 244.363 110.372 244.566C109.667 244.767 108.899 244.804 108.069 244.675Z" fill="#5D3EDE"/>
<path d="M84.8948 228.688C85.2058 227.822 85.6627 227.122 86.2656 226.588C86.8513 226.062 87.5569 225.734 88.3823 225.606C89.1906 225.485 90.0716 225.596 91.0253 225.939C92.4683 226.457 93.4431 227.254 93.9496 228.328C94.4391 229.411 94.4449 230.617 93.967 231.947L90.8024 240.756L89.0143 240.114L92.1316 231.437C92.4922 230.433 92.5369 229.599 92.2654 228.935C91.994 228.27 91.4003 227.774 90.4843 227.445C89.5558 227.111 88.7777 227.108 88.1502 227.435C87.5181 227.775 87.0195 228.453 86.6543 229.469L83.537 238.146L81.7301 237.497L84.8948 228.688Z" fill="#5D3EDE"/>
<path d="M64.6433 229.168C63.1812 228.288 62.236 227.299 61.8078 226.2C61.3727 225.114 61.5196 223.965 62.2486 222.754C63.0257 221.463 64.0203 220.755 65.2325 220.629C66.4446 220.502 67.7417 220.855 69.1239 221.687L70.6146 222.585L73.2245 218.25L74.8522 219.23L67.7446 231.035L64.6433 229.168ZM68.4187 223.014C67.4706 222.443 66.641 222.192 65.9297 222.262C65.207 222.325 64.5603 222.831 63.9895 223.779C63.4806 224.624 63.3639 225.387 63.6396 226.066C63.9038 226.739 64.4986 227.354 65.4238 227.911L66.8802 228.787L69.8409 223.87L68.4187 223.014Z" fill="#5D3EDE"/>
<path d="M43.6936 213.625L44.8638 212.631L48.8695 216.162L51.8453 212.786L48.3647 209.718L49.3699 208.578L52.8505 211.646L55.9718 208.106L51.681 204.323L52.6862 203.183L58.4022 208.222L49.2896 218.559L43.6936 213.625Z" fill="#5D3EDE"/>
<path d="M37.879 195.7L39.1947 197.388L43.8005 193.797L44.9687 195.296L34.101 203.768L31.8753 200.913C30.8178 199.557 30.2761 198.33 30.2503 197.235C30.2163 196.128 30.7093 195.178 31.7293 194.383C32.4864 193.792 33.2532 193.507 34.0297 193.527C34.8062 193.548 35.6228 193.858 36.4795 194.458L39.0662 187.724L40.4558 189.507L37.879 195.7ZM36.8628 196.771C36.248 195.982 35.6271 195.511 35.0001 195.358C34.3626 195.212 33.6863 195.418 32.9713 195.976C32.2983 196.5 31.9744 197.082 31.9997 197.722C32.0063 198.359 32.358 199.125 33.0548 200.019L34.1 201.36L38.0433 198.285L36.8628 196.771Z" fill="#5D3EDE"/>
<path d="M17.0769 182.593C18.31 182.712 19.3826 182.759 20.2946 182.733C21.1885 182.703 22.1437 182.548 23.1603 182.268C24.1706 181.977 25.279 181.503 26.4855 180.847C27.6803 180.198 28.6746 179.528 29.4683 178.838C30.2556 178.137 30.9169 177.413 31.4521 176.667C31.9692 175.916 32.5073 174.993 33.0664 173.9L34.3233 174.537C33.6426 175.909 33.0654 176.997 32.5918 177.8C32.1002 178.599 31.442 179.412 30.6172 180.24C29.7744 181.062 28.7029 181.827 27.4026 182.534C26.1024 183.241 24.8838 183.721 23.747 183.975C22.5921 184.224 21.5518 184.334 20.626 184.306C19.6822 184.273 18.4496 184.169 16.9281 183.995L17.0769 182.593Z" fill="#5D3EDE"/>
<path d="M11.0905 162.575L12.6828 162.216L13.9737 165.811L25.4183 161.702L26.0604 163.49L14.6159 167.599L15.9407 171.289L14.416 171.836L11.0905 162.575Z" fill="#5D3EDE"/>
<path d="M6.49359 142.744L8.02891 142.704L8.93029 147.967L13.3657 147.208L12.5825 142.634L14.0807 142.378L14.8639 146.951L19.5162 146.155L18.5507 140.517L20.0489 140.26L21.3351 147.771L7.75282 150.097L6.49359 142.744Z" fill="#5D3EDE"/>
<path d="M19.1016 121.94L15.6303 122.942L15.5729 128.161L19.0213 129.239L19.0002 131.159L5.26962 126.588L5.29602 124.188L19.1236 119.94L19.1016 121.94ZM14.0381 127.685L14.0854 123.385L6.86228 125.445L14.0381 127.685Z" fill="#5D3EDE"/>
<path d="M22.7058 97.45L22.3061 99.2461L16.1304 98.3635C13.7052 98.0287 11.852 97.7324 10.5707 97.4745L19.9579 102.616L19.5712 104.354L8.8351 105.182C10.462 105.544 12.3238 106.047 14.4206 106.691L20.2555 108.461L19.8645 110.218L6.66118 106.112L7.21728 103.613L17.628 102.959L8.44678 98.0878L9.00722 95.5694L22.7058 97.45Z" fill="#5D3EDE"/>
<path d="M11.0691 79.443C12.5661 79.1199 13.78 78.9016 14.7108 78.7881C15.6345 78.6572 16.6806 78.6647 17.8492 78.8109C19.0106 78.9395 20.2731 79.2917 21.6365 79.8675C22.9999 80.4432 24.1388 81.1051 25.0531 81.8531C25.9604 82.5836 26.6953 83.3281 27.2579 84.0867C27.8133 84.8279 28.4971 85.8476 29.3094 87.1458L28.1211 87.9032C27.4574 86.8703 26.8286 86.0114 26.235 85.3265C25.6342 84.6241 24.9051 83.9688 24.0475 83.3606C23.195 82.7401 22.1424 82.1653 20.8895 81.6362C19.6244 81.1019 18.4722 80.7457 17.4331 80.5673C16.3991 80.3767 15.4332 80.3162 14.5354 80.3858C13.6306 80.4378 12.5704 80.5835 11.3548 80.8229L11.0691 79.443Z" fill="#5D3EDE"/>
<path d="M30.7204 51.1509C31.294 50.4316 31.8887 49.8997 32.5046 49.5552C33.11 49.2024 33.8176 48.9566 34.6274 48.818L34.8859 50.3543C34.2385 50.5032 33.6839 50.7174 33.222 50.9972C32.7581 51.2582 32.3473 51.6128 31.9899 52.061C31.5409 52.6239 31.3013 53.1917 31.2709 53.7644C31.2406 54.3371 31.4755 54.823 31.9759 55.222C32.2886 55.4714 32.6043 55.6209 32.923 55.6704C33.2312 55.7115 33.607 55.636 34.0502 55.4438C34.5018 55.2411 35.0843 54.8956 35.7978 54.4072C36.5467 53.8959 37.2197 53.5118 37.817 53.2548C38.4142 52.9977 39.0346 52.9041 39.6781 52.9739C40.3196 53.025 40.9634 53.3083 41.6097 53.8237C42.2352 54.3225 42.663 54.9195 42.8931 55.6147C43.1315 56.2994 43.1534 57.0417 42.9589 57.8416C42.7727 58.6311 42.3637 59.422 41.7318 60.2142C40.543 61.7048 39.1064 62.5545 37.4222 62.7632L37.1637 61.2269C37.8673 61.0717 38.4917 60.8448 39.0368 60.5462C39.5715 60.2393 40.0591 59.8096 40.4997 59.2571C41.0318 58.59 41.3108 57.9087 41.3369 57.2131C41.3525 56.5093 41.0475 55.9079 40.4221 55.4091C40.0677 55.1265 39.7217 54.9615 39.3843 54.9141C39.0365 54.8584 38.6358 54.9225 38.1821 55.1064C37.7367 55.2799 37.1708 55.6046 36.4844 56.0804C35.2696 56.9193 34.224 57.4071 33.3475 57.5438C32.4711 57.6805 31.6315 57.4287 30.8288 56.7886C30.2868 56.3563 29.9143 55.829 29.7114 55.2067C29.5168 54.574 29.5032 53.9066 29.6709 53.2046C29.8468 52.4922 30.1966 51.8076 30.7204 51.1509Z" fill="#5D3EDE"/>
<path d="M56.1083 38.9829C56.7052 39.683 57.0857 40.4274 57.25 41.216C57.4157 41.9858 57.3494 42.7608 57.0508 43.5409C56.7538 44.3023 56.2198 45.0117 55.4487 45.6692C54.2819 46.664 53.1064 47.1143 51.9222 47.0201C50.7395 46.9071 49.6896 46.3129 48.7727 45.2374L42.6998 38.1149L44.1457 36.8821L50.1276 43.8981C50.8197 44.7098 51.5214 45.1629 52.2327 45.2573C52.9439 45.3517 53.6699 45.0832 54.4106 44.4517C55.1614 43.8115 55.5507 43.1379 55.5786 42.4307C55.5978 41.7135 55.2571 40.9439 54.5564 40.1221L48.5744 33.1061L50.0354 31.8604L56.1083 38.9829Z" fill="#5D3EDE"/>
<path d="M65.754 21.1693C67.2443 20.3377 68.5724 20.0088 69.7383 20.1828C70.8977 20.345 71.8217 21.0433 72.5104 22.2774C73.2446 23.5931 73.3654 24.8083 72.8728 25.923C72.3802 27.0376 71.4295 27.9881 70.0207 28.7742L68.5012 29.6221L70.9669 34.0407L69.3078 34.9666L62.5929 22.9333L65.754 21.1693ZM69.2199 27.5034C70.1862 26.9641 70.8158 26.3685 71.1086 25.7165C71.4129 25.058 71.2955 24.2456 70.7562 23.2792C70.2754 22.4176 69.6717 21.9377 68.945 21.8393C68.2299 21.7345 67.4008 21.9452 66.4577 22.4715L64.9732 23.2999L67.7703 28.3123L69.2199 27.5034Z" fill="#5D3EDE"/>
<path d="M89.6488 10.7085L89.9307 12.2182L84.8761 13.9404L86.3273 18.2L90.7194 16.7035L91.2096 18.1423L86.8176 19.6388L88.3398 24.1066L93.7542 22.2618L94.2444 23.7006L87.0315 26.1581L82.5874 13.1144L89.6488 10.7085Z" fill="#5D3EDE"/>
<path d="M108.095 14.5669L105.977 14.8704L106.805 20.6514L104.924 20.9208L102.97 7.28009L106.553 6.76671C108.256 6.52278 109.589 6.66179 110.553 7.18372C111.53 7.70376 112.11 8.60391 112.294 9.88417C112.43 10.8345 112.296 11.6416 111.893 12.3055C111.49 12.9694 110.815 13.524 109.868 13.9694L114.427 19.5594L112.19 19.8799L108.095 14.5669ZM107.67 13.1529C108.66 13.011 109.378 12.7062 109.823 12.2384C110.265 11.7574 110.423 11.0681 110.294 10.1706C110.173 9.32593 109.829 8.75567 109.261 8.45985C108.705 8.14895 107.865 8.07386 106.744 8.23459L105.061 8.47568L105.77 13.4251L107.67 13.1529Z" fill="#5D3EDE"/>
<path d="M129.803 3.02364C129.087 4.03488 128.514 4.94255 128.083 5.74664C127.665 6.53769 127.325 7.4438 127.063 8.46497C126.814 9.48643 126.674 10.6837 126.644 12.0567C126.614 13.4163 126.702 14.6119 126.906 15.6433C127.123 16.6749 127.423 17.6084 127.805 18.4436C128.2 19.2658 128.733 20.191 129.404 21.2193L128.227 21.9937C127.375 20.7214 126.717 19.6801 126.255 18.8698C125.806 18.0464 125.427 17.0712 125.119 15.9442C124.824 14.8041 124.692 13.4943 124.725 12.0146C124.757 10.535 124.945 9.2388 125.29 8.12608C125.648 7.00031 126.069 6.04263 126.553 5.25304C127.051 4.45041 127.753 3.43221 128.66 2.19844L129.803 3.02364Z" fill="#5D3EDE"/>
<path d="M150.151 7.77414L149.671 9.33451L145.91 8.66891L143.791 20.6429L141.92 20.3118L144.039 8.33785L140.179 7.65483L140.461 6.05961L150.151 7.77414Z" fill="#5D3EDE"/>
<path d="M169.645 13.6356L168.917 14.9878L163.901 13.1554L162.357 17.3821L166.715 18.9744L166.194 20.4021L161.835 18.8098L160.216 23.2432L165.588 25.2061L165.067 26.6338L157.909 24.019L162.638 11.0757L169.645 13.6356Z" fill="#5D3EDE"/>
<path d="M181.44 34.9144L182.295 31.4041L177.793 28.7613L175.145 31.2185L173.489 30.2464L184.277 20.6009L186.347 21.816L183.165 35.927L181.44 34.9144ZM178.97 27.6661L182.678 29.8432L184.478 22.5507L178.97 27.6661Z" fill="#5D3EDE"/>
<path d="M200.903 50.2088L199.543 48.9697L203.377 44.0483C204.872 42.1099 206.05 40.6487 206.91 39.6648L197.784 45.2574L196.468 44.0587L201.084 34.3299C199.961 35.5619 198.6 36.9278 196.999 38.4276L192.564 42.6124L191.234 41.4002L201.356 31.9812L203.249 33.7052L198.645 43.0654L207.433 37.5168L209.34 39.2543L200.903 50.2088Z" fill="#5D3EDE"/>
<path d="M222.31 49.0526C221.847 50.5122 221.433 51.6742 221.069 52.5384C220.724 53.4051 220.198 54.3093 219.491 55.2508C218.802 56.1949 217.869 57.1156 216.692 58.0129C215.515 58.9101 214.375 59.5697 213.272 59.9917C212.187 60.4162 211.176 60.6842 210.238 60.7955C209.319 60.9094 208.094 60.9963 206.564 61.0563L206.497 59.6488C207.723 59.5859 208.781 59.4669 209.67 59.2919C210.578 59.1195 211.509 58.8122 212.463 58.37C213.425 57.9385 214.447 57.3104 215.528 56.4859C216.62 55.6534 217.502 54.8304 218.173 54.0171C218.852 53.2145 219.384 52.4063 219.77 51.5925C220.174 50.7814 220.575 49.7889 220.971 48.615L222.31 49.0526Z" fill="#5D3EDE"/>
<path d="M237.102 80.1625C237.441 81.0177 237.607 81.7981 237.6 82.5037C237.606 83.2044 237.467 83.9406 237.185 84.7123L235.724 84.1734C235.916 83.5376 236.006 82.9498 235.992 82.41C235.996 81.8777 235.893 81.3451 235.681 80.8122C235.416 80.1429 235.042 79.6529 234.56 79.342C234.078 79.0312 233.54 78.9938 232.945 79.2298C232.573 79.3773 232.286 79.577 232.085 79.829C231.896 80.0761 231.775 80.4397 231.722 80.9199C231.673 81.4124 231.684 82.0896 231.753 82.9515C231.825 83.8554 231.824 84.6304 231.75 85.2764C231.677 85.9224 231.45 86.5073 231.069 87.0311C230.706 87.5625 230.141 87.9805 229.372 88.2854C228.629 88.5804 227.898 88.6551 227.18 88.5095C226.468 88.3762 225.813 88.0265 225.215 87.4603C224.622 86.9065 224.139 86.1587 223.766 85.2167C223.062 83.4445 223.039 81.7756 223.694 80.2102L225.156 80.7491C224.941 81.4368 224.828 82.0914 224.816 82.7128C224.817 83.3293 224.948 83.966 225.208 84.6229C225.523 85.4161 225.976 85.9967 226.566 86.3648C227.169 86.728 227.843 86.7621 228.586 86.4671C229.008 86.2999 229.323 86.0816 229.532 85.8124C229.753 85.5382 229.896 85.1585 229.962 84.6734C230.033 84.2007 230.032 83.5483 229.96 82.7162C229.835 81.2451 229.931 80.0953 230.248 79.2667C230.565 78.4382 231.201 77.8346 232.155 77.456C232.799 77.2003 233.442 77.139 234.083 77.272C234.729 77.4174 235.315 77.7373 235.841 78.2315C236.372 78.738 236.792 79.3817 237.102 80.1625Z" fill="#5D3EDE"/>
<path d="M235.052 108.241C234.148 108.412 233.312 108.372 232.546 108.123C231.796 107.884 231.156 107.442 230.628 106.795C230.114 106.159 229.764 105.343 229.576 104.347C229.293 102.841 229.486 101.597 230.156 100.616C230.841 99.6454 231.879 99.0294 233.268 98.7679L242.466 97.0357L242.818 98.9029L233.757 100.609C232.709 100.807 231.967 101.19 231.532 101.761C231.096 102.331 230.969 103.095 231.149 104.051C231.331 105.021 231.723 105.693 232.322 106.069C232.935 106.442 233.773 106.528 234.834 106.329L243.895 104.622L244.25 106.509L235.052 108.241Z" fill="#5D3EDE"/>
<path d="M245.719 125.461C245.701 127.168 245.326 128.484 244.596 129.409C243.879 130.335 242.814 130.79 241.401 130.775C239.894 130.758 238.78 130.259 238.057 129.278C237.334 128.297 236.982 126.999 236.999 125.386L237.018 123.646L231.959 123.591L231.979 121.691L245.759 121.841L245.719 125.461ZM238.5 125.323C238.488 126.429 238.692 127.271 239.113 127.849C239.533 128.441 240.296 128.742 241.403 128.754C242.39 128.765 243.106 128.48 243.552 127.898C243.999 127.329 244.228 126.505 244.239 125.425L244.258 123.725L238.518 123.663L238.5 125.323Z" fill="#5D3EDE"/>
<path d="M242.927 151.395L241.477 150.89L242.493 145.647L238.076 144.791L237.193 149.346L235.7 149.057L236.583 144.502L231.95 143.603L230.861 149.219L229.369 148.929L230.819 141.449L244.347 144.071L242.927 151.395Z" fill="#5D3EDE"/>
<path d="M230.415 165.489L231.204 163.5L225.776 161.347L226.476 159.581L239.285 164.661L237.951 168.026C237.317 169.625 236.534 170.713 235.602 171.29C234.665 171.88 233.596 171.936 232.394 171.459C231.501 171.105 230.867 170.588 230.491 169.909C230.115 169.229 229.969 168.368 230.053 167.325L222.937 168.505L223.77 166.404L230.415 165.489ZM231.853 165.823C231.485 166.753 231.393 167.527 231.578 168.145C231.775 168.768 232.296 169.247 233.138 169.582C233.932 169.896 234.598 169.881 235.136 169.535C235.683 169.206 236.165 168.515 236.582 167.462L237.209 165.882L232.561 164.038L231.853 165.823Z" fill="#5D3EDE"/>
<path d="M229.65 190.063C229.128 188.939 228.625 187.991 228.141 187.217C227.662 186.462 227.044 185.717 226.288 184.982C225.526 184.258 224.556 183.542 223.379 182.834C222.214 182.133 221.133 181.615 220.137 181.279C219.133 180.956 218.174 180.752 217.26 180.668C216.35 180.603 215.282 180.606 214.056 180.678L213.969 179.271C215.496 179.164 216.727 179.11 217.66 179.112C218.597 179.131 219.632 179.287 220.763 179.579C221.899 179.889 223.101 180.426 224.369 181.189C225.637 181.952 226.669 182.76 227.463 183.611C228.263 184.481 228.885 185.322 229.329 186.135C229.779 186.966 230.313 188.081 230.933 189.481L229.65 190.063Z" fill="#5D3EDE"/>
<path d="M215.42 205.363L214.304 204.172L216.75 201.238L207.411 193.451L208.628 191.992L217.967 199.779L220.477 196.768L221.722 197.806L215.42 205.363Z" fill="#5D3EDE"/>
<path d="M200.647 219.37L199.835 218.067L203.918 214.624L201.016 211.184L197.469 214.175L196.489 213.013L200.036 210.022L196.993 206.414L192.621 210.102L191.641 208.94L197.466 204.027L206.35 214.561L200.647 219.37Z" fill="#5D3EDE"/>
<path d="M176.321 219.032L178.942 221.518L183.472 218.924L182.656 215.404L184.322 214.45L187.333 228.605L185.251 229.798L174.585 220.026L176.321 219.032ZM183.838 220.489L180.107 222.626L185.542 227.81L183.838 220.489Z" fill="#5D3EDE"/>
<path d="M153.379 228.33L155.13 227.765L157.497 233.537C158.436 235.798 159.119 237.546 159.546 238.781L159.226 228.083L160.92 227.536L167.07 236.375C166.559 234.789 166.05 232.929 165.543 230.794L164.114 224.867L165.827 224.314L168.973 237.778L166.537 238.564L160.7 229.919L161.15 240.302L158.695 241.094L153.379 228.33Z" fill="#5D3EDE"/>
<path d="M143.748 247.484C142.712 246.356 141.909 245.42 141.34 244.675C140.759 243.945 140.236 243.039 139.77 241.957C139.292 240.891 138.957 239.624 138.763 238.157C138.569 236.689 138.563 235.372 138.745 234.205C138.915 233.053 139.185 232.042 139.554 231.173C139.912 230.318 140.445 229.212 141.153 227.854L142.408 228.496C141.853 229.591 141.431 230.568 141.141 231.427C140.84 232.301 140.644 233.261 140.554 234.309C140.451 235.358 140.488 236.557 140.666 237.905C140.846 239.266 141.123 240.44 141.495 241.427C141.854 242.415 142.291 243.278 142.806 244.017C143.309 244.771 143.972 245.612 144.794 246.538L143.748 247.484Z" fill="#5D3EDE"/>
</svg>
