<svg width="364" height="882" viewBox="0 0 364 882" fill="none" xmlns="http://www.w3.org/2000/svg">
<rect x="2.5" y="2.5" width="359" height="877" fill="#070021" stroke="#3DD7AC" stroke-width="5"/>
<rect x="2.5" y="2.5" width="359" height="107" stroke="#3DD7AC" stroke-width="5"/>
<path d="M46.275 26.375H30.75V29.875H36.525V44H40.525V29.875H46.275V26.375ZM44.0127 40.55C44.0127 41.85 44.6877 44.25 48.6127 44.25C52.1377 44.25 53.3627 42.475 53.8377 40.375H54.8377L54.2127 41.875V42.125C54.2127 43.325 54.8877 44 56.0877 44H58.8627V40.5H57.0377V36.95C57.0377 32.8 53.9877 31.125 50.5127 31.125C46.9877 31.125 44.2627 33 44.2627 36.2H48.0127C48.0127 35.05 48.9127 34.375 50.5127 34.375C52.2377 34.375 53.0377 35 53.0377 36.025L49.0627 36.575C45.3127 37.1 44.0127 38.375 44.0127 40.55ZM48.0127 39.8C48.0127 39.075 48.6127 38.9 49.8127 38.725L53.0377 38.275C53.0377 39.825 51.5877 40.75 49.3877 40.75C48.7127 40.75 48.0127 40.525 48.0127 39.8ZM73.6438 31.375C72.5188 31.375 71.2188 31.5 70.4688 32.475C69.1438 31.5 67.3938 31.125 65.4688 31.125C61.4938 31.125 58.3438 32.725 58.3438 36.05C58.3438 40.2 63.2188 40.875 67.8438 39.225V40.225C65.5438 40.775 62.9438 41.075 60.0688 41.375L60.4938 43.625C64.3688 42.975 68.8938 42.15 68.8938 44C68.8938 45.375 67.3438 45.5 59.1688 45.5V49C68.5438 49 72.9188 48.575 72.9188 44.85C72.9188 42.175 70.2438 41.425 67.3688 41.6C70.8438 40.425 73.0688 38.925 73.0688 36.55C73.0688 35.875 72.8688 35.3 72.7188 35.1C73.0688 34.875 73.5188 34.875 73.8938 34.875H74.7438V31.375H73.6438ZM65.7188 37.975C63.3188 37.975 62.3438 37.375 62.3438 36.3C62.3438 35.25 63.3188 34.625 65.7188 34.625C68.1188 34.625 69.0688 35.25 69.0688 36.3C69.0688 37.375 68.1188 37.975 65.7188 37.975ZM75.5068 37.525C75.5068 41.1 77.7318 44.25 82.5818 44.25C86.9568 44.25 89.0318 41.375 89.2818 39.55H85.2818C85.0318 40.5 83.9818 41 82.5818 41C80.3068 41 79.2568 39.975 79.2568 38.525H88.8318V37.275C88.8318 33.45 86.0818 31.125 82.1568 31.125C78.2318 31.125 75.5068 33.525 75.5068 37.525ZM79.2568 36.275C79.2568 35.325 79.9318 34.375 82.1568 34.375C84.3818 34.375 85.0818 35.325 85.0818 36.275H79.2568ZM102.796 40.525C102.796 37.9 100.546 37.275 98.0965 36.475C96.0965 35.825 94.8465 35.45 94.8465 34.85C94.8465 34.35 95.3715 34.125 96.3215 34.125C97.6965 34.125 98.3715 34.8 98.3715 35.7H102.371C102.371 33.25 100.621 31.125 96.3465 31.125C92.8715 31.125 90.8465 32.425 90.8465 34.675C90.8465 37.5 93.7215 38.125 96.0715 38.9C98.0965 39.575 98.7965 39.75 98.7965 40.4C98.7965 41 98.1215 41.25 97.0465 41.25C94.9465 41.25 94.2715 40.4 94.2715 39.425H90.2715C90.2715 42.375 92.2715 44.25 96.9215 44.25C101.271 44.25 102.796 42.65 102.796 40.525ZM104.047 40.55C104.047 41.85 104.722 44.25 108.647 44.25C112.172 44.25 113.397 42.475 113.872 40.375H114.872L114.247 41.875V42.125C114.247 43.325 114.922 44 116.122 44H118.897V40.5H117.072V36.95C117.072 32.8 114.022 31.125 110.547 31.125C107.022 31.125 104.297 33 104.297 36.2H108.047C108.047 35.05 108.947 34.375 110.547 34.375C112.272 34.375 113.072 35 113.072 36.025L109.097 36.575C105.347 37.1 104.047 38.375 104.047 40.55ZM108.047 39.8C108.047 39.075 108.647 38.9 109.847 38.725L113.072 38.275C113.072 39.825 111.622 40.75 109.422 40.75C108.747 40.75 108.047 40.525 108.047 39.8ZM120.392 44H124.392V43.225L123.642 40.975H124.642C125.292 42.65 126.492 44.25 129.617 44.25C133.267 44.25 135.092 41.25 135.092 37.675C135.092 34.1 133.267 31.125 129.617 31.125C126.492 31.125 125.292 32.725 124.642 34.4H123.642L124.392 32.15V25.625H120.392V44ZM124.392 37.675C124.392 35.55 125.592 34.625 127.742 34.625C129.892 34.625 131.092 35.55 131.092 37.675C131.092 39.8 129.892 40.75 127.742 40.75C125.592 40.75 124.392 39.8 124.392 37.675ZM136.097 44H147.097V40.5H143.597V27.55C143.597 26.15 142.822 25.4 141.422 25.45L136.597 25.625V29.125L139.597 28.975V40.5H136.097V44ZM148.358 40.55C148.358 41.85 149.033 44.25 152.958 44.25C156.483 44.25 157.708 42.475 158.183 40.375H159.183L158.558 41.875V42.125C158.558 43.325 159.233 44 160.433 44H163.208V40.5H161.383V36.95C161.383 32.8 158.333 31.125 154.858 31.125C151.333 31.125 148.608 33 148.608 36.2H152.358C152.358 35.05 153.258 34.375 154.858 34.375C156.583 34.375 157.383 35 157.383 36.025L153.408 36.575C149.658 37.1 148.358 38.375 148.358 40.55ZM152.358 39.8C152.358 39.075 152.958 38.9 154.158 38.725L157.383 38.275C157.383 39.825 155.933 40.75 153.733 40.75C153.058 40.75 152.358 40.525 152.358 39.8ZM171.053 40.75C169.128 40.75 168.453 39.875 168.453 37.575V31.375H164.453V38.2C164.453 42.1 166.403 44.25 169.628 44.25C172.328 44.25 173.903 42.475 174.403 40.225H175.403L174.653 42.475V44H178.653V31.375H174.653V36.05C174.653 39.6 173.228 40.75 171.053 40.75ZM188.508 29.125H191.158V25.625H189.008C184.783 25.625 182.808 27.525 182.808 30.925V31.375H180.408V34.875H182.808V40.5H180.408V44H190.458V40.5H186.808V34.875H190.458V31.375H186.808V31.05C186.808 29.65 187.333 29.125 188.508 29.125Z" fill="white"/>
<path d="M31.5 73.275C31.5 78.15 34.225 80.25 38.75 80.25C42.975 80.25 45.35 78.275 45.35 75.125C45.35 72.425 43.95 71.45 41.7 71V70.425C43.95 70.075 45.1 68.95 45.1 66.8C45.1 64.1 42.975 62.125 38.75 62.125C34.225 62.125 31.75 64.225 31.75 68.15H33.8C33.8 65.275 35.2 63.875 38.75 63.875C41.95 63.875 43.05 65.175 43.05 67.075C43.05 68.975 42.025 69.85 39.9 69.85H37.45V71.6H39.9C42.025 71.6 43.3 72.5 43.3 74.825C43.3 77.2 41.95 78.5 38.75 78.5C35.2 78.5 33.55 77.1 33.55 73.275H31.5ZM47.9939 80H50.4189L54.1939 74.975L57.9689 80H60.3939L55.7189 74.075V73.475L60.3939 67.575H57.9689L54.1939 72.575L50.4189 67.575H47.9939L52.6689 73.475V74.075L47.9939 80ZM71.0955 76.55C71.0955 77.85 71.6455 80.25 75.2455 80.25C78.2455 80.25 79.5705 78.475 80.0455 76.575H80.6455L80.3205 77.875V78.55C80.3205 79.475 80.8455 80 81.7955 80H83.9955V78.25H82.1705V72.95C82.1705 69.625 80.0955 67.325 76.6205 67.325C73.0955 67.325 71.1455 69.625 71.1455 72.2H73.1455C73.1455 69.85 74.8205 69.05 76.6205 69.05C78.7705 69.05 79.9955 70.175 80.1205 72.45L75.1705 72.925C72.2705 73.225 71.0955 74.575 71.0955 76.55ZM73.1455 76.3C73.1455 75.075 73.9455 74.6 75.5205 74.45L80.1205 73.975C80.1205 76.55 78.3205 78.5 75.4955 78.5C74.0455 78.5 73.1455 77.725 73.1455 76.3ZM86.3416 80H88.3916V78.175L88.0666 76.775H88.6416C89.1666 78.7 90.8416 80.25 93.6916 80.25C97.2916 80.25 99.5916 77.475 99.5916 73.775C99.5916 70.1 97.2916 67.325 93.6916 67.325C90.8416 67.325 89.1666 68.875 88.6416 70.825H88.0666L88.3916 69.4V61.625H86.3416V80ZM88.3916 73.775C88.3916 70.475 90.5166 69.075 93.0666 69.075C95.6416 69.075 97.5416 70.475 97.5416 73.775C97.5416 77.1 95.6416 78.5 93.0666 78.5C90.5166 78.5 88.3916 77.1 88.3916 73.775ZM101.93 73.625C101.93 77.2 103.805 80.25 108.255 80.25C112.205 80.25 113.705 77.575 114.18 75.65H112.13C111.68 77.55 110.305 78.55 108.255 78.55C105.18 78.55 104.055 76.525 103.93 74.175H113.755V73.375C113.755 69.55 111.455 67.325 107.955 67.325C104.43 67.325 101.93 69.625 101.93 73.625ZM103.93 72.625C103.93 70.625 105.505 69.05 107.955 69.05C110.43 69.05 111.755 70.625 111.755 72.625H103.93ZM123.531 69.075C125.656 69.075 126.681 70.075 126.681 72.675V80H128.706V72.4C128.706 68.95 126.881 67.325 124.081 67.325C121.381 67.325 119.806 68.9 119.306 71.15H118.731L119.056 69.725V67.575H117.006V80H119.056V74.5C119.056 71.15 120.906 69.075 123.531 69.075ZM144.77 80V61.625H142.72V69.4L143.07 70.825H142.47C141.945 68.875 140.27 67.325 137.445 67.325C133.845 67.325 131.52 70.1 131.52 73.775C131.52 77.475 133.845 80.25 137.445 80.25C140.27 80.25 141.945 78.7 142.47 76.775H143.07L142.72 78.175V80H144.77ZM142.72 73.775C142.72 77.1 140.62 78.5 138.045 78.5C135.47 78.5 133.57 77.1 133.57 73.775C133.57 70.475 135.47 69.075 138.045 69.075C140.62 69.075 142.72 70.475 142.72 73.775ZM158.203 76.775C158.203 74.1 155.553 73.55 153.103 72.75C151.103 72.1 150.253 71.725 150.253 70.525C150.253 69.4 151.353 69 152.728 69C154.703 69 155.728 69.825 155.728 71.5H157.778C157.778 69.45 156.603 67.325 152.728 67.325C149.878 67.325 148.203 68.625 148.203 70.6C148.203 72.85 150.103 73.575 152.453 74.325C154.478 74.95 156.153 75.225 156.153 76.85C156.153 78.125 155.253 78.575 153.328 78.575C150.928 78.575 149.678 77.575 149.678 75.425H147.628C147.628 78.375 149.278 80.25 153.303 80.25C157.028 80.25 158.203 78.65 158.203 76.775Z" fill="white"/>
<path d="M45.425 176.325V173.325L32.7 168.375L31.75 171.225L41.925 174.825L31.75 178.15L32.7 181L45.425 176.325Z" fill="white"/>
<path d="M73.75 170.375L75.15 174C80.575 172.325 81.45 168.925 81.75 164.375H82.75L82 166.625V181H86V163.375H78.225C78.225 167.4 77 169.1 73.75 170.375ZM88.002 176.05C88.002 179.775 91.277 181.25 96.127 181.25C100.952 181.25 104.227 179.775 104.227 176.05C104.227 173.225 101.727 172.1 99.052 171.8V170.8C101.027 170.625 103.227 169.875 103.227 167.2C103.227 164 99.577 163.125 96.127 163.125C92.652 163.125 89.002 164 89.002 167.2C89.002 169.875 91.202 170.625 93.177 170.8V171.8C90.502 172.1 88.002 172.975 88.002 176.05ZM93.002 168.1C93.002 167.05 93.977 166.625 96.127 166.625C98.252 166.625 99.227 167.05 99.227 168.1C99.227 169.175 98.252 169.575 96.127 169.575C93.977 169.575 93.002 169.175 93.002 168.1ZM92.002 175.425C92.002 173.875 93.227 173.075 96.127 173.075C99.002 173.075 100.227 173.875 100.227 175.425C100.227 177 99.002 177.75 96.127 177.75C93.227 177.75 92.002 177 92.002 175.425ZM109.213 173.625C110.863 173.625 111.988 172.425 111.988 170.85C111.988 169.325 110.863 168.125 109.213 168.125C107.513 168.125 106.488 169.325 106.488 170.85C106.488 172.425 107.513 173.625 109.213 173.625ZM109.213 181.25C110.863 181.25 111.988 180.05 111.988 178.475C111.988 176.95 110.863 175.75 109.213 175.75C107.513 175.75 106.488 176.95 106.488 178.475C106.488 180.05 107.513 181.25 109.213 181.25ZM123.247 163.125C117.897 163.125 114.747 166.8 114.747 172.175C114.747 177.575 117.897 181.25 123.247 181.25C128.572 181.25 131.722 177.575 131.722 172.175C131.722 166.8 128.572 163.125 123.247 163.125ZM123.247 166.625C124.222 166.625 125.072 166.85 125.747 167.3L119.022 174.475C118.847 173.8 118.747 173.05 118.747 172.175C118.747 168.55 120.422 166.625 123.247 166.625ZM123.247 177.75C122.272 177.75 121.422 177.525 120.722 177.05L127.447 169.875C127.622 170.55 127.722 171.325 127.722 172.175C127.722 175.825 126.072 177.75 123.247 177.75ZM142.217 163.125C136.867 163.125 133.717 166.8 133.717 172.175C133.717 177.575 136.867 181.25 142.217 181.25C147.542 181.25 150.692 177.575 150.692 172.175C150.692 166.8 147.542 163.125 142.217 163.125ZM142.217 166.625C143.192 166.625 144.042 166.85 144.717 167.3L137.992 174.475C137.817 173.8 137.717 173.05 137.717 172.175C137.717 168.55 139.392 166.625 142.217 166.625ZM142.217 177.75C141.242 177.75 140.392 177.525 139.692 177.05L146.417 169.875C146.592 170.55 146.692 171.325 146.692 172.175C146.692 175.825 145.042 177.75 142.217 177.75ZM160.193 181H164.193V174.8H171.093V181H175.093V175.375C175.093 174 174.343 173.25 172.968 173.25H170.393V172.25C172.518 172 174.868 171.2 174.868 168.3C174.868 164.35 171.218 163.375 167.018 163.375H160.193V181ZM164.193 171.3V166.875H167.018C169.393 166.875 170.868 166.875 170.868 169.1C170.868 171.3 169.393 171.3 167.018 171.3H164.193ZM176.588 174.525C176.588 178.1 178.813 181.25 183.663 181.25C188.038 181.25 190.113 178.375 190.363 176.55H186.363C186.113 177.5 185.063 178 183.663 178C181.388 178 180.338 176.975 180.338 175.525H189.913V174.275C189.913 170.45 187.163 168.125 183.238 168.125C179.313 168.125 176.588 170.525 176.588 174.525ZM180.338 173.275C180.338 172.325 181.013 171.375 183.238 171.375C185.463 171.375 186.163 172.325 186.163 173.275H180.338ZM191.603 174.675C191.603 178.9 194.478 181.25 198.503 181.25C201.953 181.25 205.103 179.375 205.278 175.775H201.278C201.128 176.9 200.103 177.75 198.503 177.75C196.603 177.75 195.603 176.625 195.603 174.675C195.603 172.75 196.603 171.625 198.503 171.625C200.103 171.625 201.128 172.475 201.278 173.6H205.278C205.103 170 201.953 168.125 198.503 168.125C194.478 168.125 191.603 170.475 191.603 174.675ZM206.52 177.55C206.52 178.85 207.195 181.25 211.12 181.25C214.645 181.25 215.87 179.475 216.345 177.375H217.345L216.72 178.875V179.125C216.72 180.325 217.395 181 218.595 181H221.37V177.5H219.545V173.95C219.545 169.8 216.495 168.125 213.02 168.125C209.495 168.125 206.77 170 206.77 173.2H210.52C210.52 172.05 211.42 171.375 213.02 171.375C214.745 171.375 215.545 172 215.545 173.025L211.57 173.575C207.82 174.1 206.52 175.375 206.52 177.55ZM210.52 176.8C210.52 176.075 211.12 175.9 212.32 175.725L215.545 175.275C215.545 176.825 214.095 177.75 211.895 177.75C211.22 177.75 210.52 177.525 210.52 176.8ZM222.864 168.375V185.75H226.864V180.225L226.114 177.975H227.114C227.764 179.65 228.964 181.25 232.089 181.25C235.739 181.25 237.564 178.275 237.564 174.7C237.564 171.125 235.739 168.125 232.089 168.125C228.964 168.125 227.764 169.725 227.114 171.4H226.114L226.864 169.15V168.375H222.864ZM226.864 174.7C226.864 172.55 228.064 171.625 230.214 171.625C232.364 171.625 233.564 172.55 233.564 174.7C233.564 176.85 232.364 177.75 230.214 177.75C228.064 177.75 226.864 176.85 226.864 174.7Z" fill="white"/>
<path d="M88.925 199.375H85.975L76.875 206.875V199.375H74.825V217H76.875V209.5L85.975 217H88.925L78.175 208.175L88.925 199.375ZM95.3756 215.5C93.2256 215.5 92.2256 214.5 92.2256 211.9V204.575H90.1756V212.175C90.1756 215.625 92.0006 217.25 94.8256 217.25C97.5256 217.25 99.1006 215.675 99.6006 213.425H100.176L99.8506 214.85V217H101.876V204.575H99.8506V210.1C99.8506 213.425 98.0006 215.5 95.3756 215.5ZM105.172 217H107.222V206.1L113.797 206.325V204.575L106.897 204.35C105.722 204.3 105.172 204.875 105.172 206.05V217ZM115.707 217H127.107V215.25H117.707L116.307 215.575V215L127.107 208.325V204.575H115.707V206.325H125.107L126.507 206V206.575L115.707 213.25V217ZM129.452 210.625C129.452 214.2 131.327 217.25 135.777 217.25C139.727 217.25 141.227 214.575 141.702 212.65H139.652C139.202 214.55 137.827 215.55 135.777 215.55C132.702 215.55 131.577 213.525 131.452 211.175H141.277V210.375C141.277 206.55 138.977 204.325 135.477 204.325C131.952 204.325 129.452 206.625 129.452 210.625ZM131.452 209.625C131.452 207.625 133.027 206.05 135.477 206.05C137.952 206.05 139.277 207.625 139.277 209.625H131.452ZM74.575 233.175C74.575 238.375 77.125 242.25 82.3 242.25C86.85 242.25 89.225 239.325 89.25 233.175H89.825L89.5 235.425V242H91.55V233.975C91.55 233.05 91.075 232.6 90.05 232.6H81.35V234.25H87.375C87.45 238.475 85.8 240.5 82.325 240.5C78.2 240.5 76.625 237.5 76.625 233.175C76.625 228.875 78.775 225.875 82.9 225.875C86.375 225.875 87.85 227.775 88.25 230.675H90.3C89.775 226.825 87.325 224.125 82.9 224.125C77.8 224.125 74.575 228 74.575 233.175ZM94.8445 242H96.8945V231.1L103.47 231.325V229.575L96.5695 229.35C95.3945 229.3 94.8445 229.875 94.8445 231.05V242ZM110.83 240.5C108.68 240.5 107.68 239.5 107.68 236.9V229.575H105.63V237.175C105.63 240.625 107.455 242.25 110.28 242.25C112.98 242.25 114.555 240.675 115.055 238.425H115.63L115.305 239.85V242H117.33V229.575H115.305V235.1C115.305 238.425 113.455 240.5 110.83 240.5ZM120.626 229.575V246.55H122.676V240.175L122.351 238.775H122.926C123.451 240.7 125.101 242.25 127.951 242.25C131.551 242.25 133.876 239.475 133.876 235.8C133.876 232.1 131.551 229.325 127.951 229.325C125.101 229.325 123.451 230.875 122.926 232.825H122.351L122.676 231.4V229.575H120.626ZM122.676 235.8C122.676 232.475 124.801 231.075 127.351 231.075C129.926 231.075 131.826 232.525 131.826 235.8C131.826 239.05 129.926 240.5 127.351 240.5C124.801 240.5 122.676 239.1 122.676 235.8ZM136.861 229.575V246.55H138.911V240.175L138.586 238.775H139.161C139.686 240.7 141.336 242.25 144.186 242.25C147.786 242.25 150.111 239.475 150.111 235.8C150.111 232.1 147.786 229.325 144.186 229.325C141.336 229.325 139.686 230.875 139.161 232.825H138.586L138.911 231.4V229.575H136.861ZM138.911 235.8C138.911 232.475 141.036 231.075 143.586 231.075C146.161 231.075 148.061 232.525 148.061 235.8C148.061 239.05 146.161 240.5 143.586 240.5C141.036 240.5 138.911 239.1 138.911 235.8ZM152.45 235.625C152.45 239.2 154.325 242.25 158.775 242.25C162.725 242.25 164.225 239.575 164.7 237.65H162.65C162.2 239.55 160.825 240.55 158.775 240.55C155.7 240.55 154.575 238.525 154.45 236.175H164.275V235.375C164.275 231.55 161.975 229.325 158.475 229.325C154.95 229.325 152.45 231.625 152.45 235.625ZM154.45 234.625C154.45 232.625 156.025 231.05 158.475 231.05C160.95 231.05 162.275 232.625 162.275 234.625H154.45ZM174.05 231.075C176.175 231.075 177.2 232.075 177.2 234.675V242H179.225V234.4C179.225 230.95 177.4 229.325 174.6 229.325C171.9 229.325 170.325 230.9 169.825 233.15H169.25L169.575 231.725V229.575H167.525V242H169.575V236.5C169.575 233.15 171.425 231.075 174.05 231.075ZM182.589 242H184.639V231.1L191.214 231.325V229.575L184.314 229.35C183.139 229.3 182.589 229.875 182.589 231.05V242ZM198.574 240.5C196.424 240.5 195.424 239.5 195.424 236.9V229.575H193.374V237.175C193.374 240.625 195.199 242.25 198.024 242.25C200.724 242.25 202.299 240.675 202.799 238.425H203.374L203.049 239.85V242H205.074V229.575H203.049V235.1C203.049 238.425 201.199 240.5 198.574 240.5ZM214.895 231.075C217.02 231.075 218.045 232.075 218.045 234.675V242H220.07V234.4C220.07 230.95 218.245 229.325 215.445 229.325C212.745 229.325 211.17 230.9 210.67 233.15H210.095L210.42 231.725V229.575H208.37V242H210.42V236.5C210.42 233.15 212.27 231.075 214.895 231.075ZM236.135 242V223.625H234.085V231.4L234.435 232.825H233.835C233.31 230.875 231.635 229.325 228.81 229.325C225.21 229.325 222.885 232.1 222.885 235.775C222.885 239.475 225.21 242.25 228.81 242.25C231.635 242.25 233.31 240.7 233.835 238.775H234.435L234.085 240.175V242H236.135ZM234.085 235.775C234.085 239.1 231.985 240.5 229.41 240.5C226.835 240.5 224.935 239.1 224.935 235.775C224.935 232.475 226.835 231.075 229.41 231.075C231.985 231.075 234.085 232.475 234.085 235.775ZM239.144 235.625C239.144 239.2 241.019 242.25 245.469 242.25C249.419 242.25 250.919 239.575 251.394 237.65H249.344C248.894 239.55 247.519 240.55 245.469 240.55C242.394 240.55 241.269 238.525 241.144 236.175H250.969V235.375C250.969 231.55 248.669 229.325 245.169 229.325C241.644 229.325 239.144 231.625 239.144 235.625ZM241.144 234.625C241.144 232.625 242.719 231.05 245.169 231.05C247.644 231.05 248.969 232.625 248.969 234.625H241.144ZM255.053 237.925L253.103 245.15L254.928 245.65L256.878 238.4L255.053 237.925ZM267.838 229.575L270.988 242H275.188L277.713 230.175H278.313L280.838 242H285.013L288.163 229.575H286.238L283.213 241.425H282.638L280.113 229.575H275.888L273.388 241.425H272.788L269.788 229.575H267.838ZM289.535 235.775C289.535 239.4 292.135 242.25 296.11 242.25C300.06 242.25 302.635 239.4 302.635 235.775C302.635 232.175 300.06 229.325 296.11 229.325C292.135 229.325 289.535 232.175 289.535 235.775ZM291.585 235.775C291.585 233.2 293.16 231.075 296.11 231.075C299.035 231.075 300.61 233.2 300.61 235.775C300.61 238.375 299.035 240.5 296.11 240.5C293.16 240.5 291.585 238.375 291.585 235.775ZM87.575 267V248.625H85.525V256.4L85.875 257.825H85.275C84.75 255.875 83.075 254.325 80.25 254.325C76.65 254.325 74.325 257.1 74.325 260.775C74.325 264.475 76.65 267.25 80.25 267.25C83.075 267.25 84.75 265.7 85.275 263.775H85.875L85.525 265.175V267H87.575ZM85.525 260.775C85.525 264.1 83.425 265.5 80.85 265.5C78.275 265.5 76.375 264.1 76.375 260.775C76.375 257.475 78.275 256.075 80.85 256.075C83.425 256.075 85.525 257.475 85.525 260.775ZM96.0836 265.5C93.9336 265.5 92.9336 264.5 92.9336 261.9V254.575H90.8836V262.175C90.8836 265.625 92.7086 267.25 95.5336 267.25C98.2336 267.25 99.8086 265.675 100.309 263.425H100.884L100.559 264.85V267H102.584V254.575H100.559V260.1C100.559 263.425 98.7086 265.5 96.0836 265.5ZM124.128 263.775C124.128 261.1 121.478 260.55 119.028 259.75C117.028 259.1 116.178 258.725 116.178 257.525C116.178 256.4 117.278 256 118.653 256C120.628 256 121.653 256.825 121.653 258.5H123.703C123.703 256.45 122.528 254.325 118.653 254.325C115.803 254.325 114.128 255.625 114.128 257.6C114.128 259.85 116.028 260.575 118.378 261.325C120.403 261.95 122.078 262.225 122.078 263.85C122.078 265.125 121.178 265.575 119.253 265.575C116.853 265.575 115.603 264.575 115.603 262.425H113.553C113.553 265.375 115.203 267.25 119.228 267.25C122.953 267.25 124.128 265.65 124.128 263.775ZM130.254 265.525V256.325H134.129V254.575H130.254V250.75L128.229 251.375V254.575H125.479V256.325H128.229V265.55C128.229 266.7 128.754 267.325 129.929 267.25L134.629 267V265.25L130.254 265.525ZM136.288 260.625C136.288 264.2 138.163 267.25 142.613 267.25C146.563 267.25 148.063 264.575 148.538 262.65H146.488C146.038 264.55 144.663 265.55 142.613 265.55C139.538 265.55 138.413 263.525 138.288 261.175H148.113V260.375C148.113 256.55 145.813 254.325 142.313 254.325C138.788 254.325 136.288 256.625 136.288 260.625ZM138.288 259.625C138.288 257.625 139.863 256.05 142.313 256.05C144.788 256.05 146.113 257.625 146.113 259.625H138.288ZM158.585 254.325C155.885 254.325 154.31 255.9 153.81 258.15H153.235L153.56 256.725V248.625H151.51V267H153.56V261.5C153.56 258.15 155.41 256.075 158.035 256.075C160.16 256.075 161.185 257.075 161.185 259.675V267H163.21V259.4C163.21 255.95 161.385 254.325 158.585 254.325ZM176.349 263.775C176.349 261.1 173.699 260.55 171.249 259.75C169.249 259.1 168.399 258.725 168.399 257.525C168.399 256.4 169.499 256 170.874 256C172.849 256 173.874 256.825 173.874 258.5H175.924C175.924 256.45 174.749 254.325 170.874 254.325C168.024 254.325 166.349 255.625 166.349 257.6C166.349 259.85 168.249 260.575 170.599 261.325C172.624 261.95 174.299 262.225 174.299 263.85C174.299 265.125 173.399 265.575 171.474 265.575C169.074 265.575 167.824 264.575 167.824 262.425H165.774C165.774 265.375 167.424 267.25 171.449 267.25C175.174 267.25 176.349 265.65 176.349 263.775ZM182.476 265.525V256.325H186.351V254.575H182.476V250.75L180.451 251.375V254.575H177.701V256.325H180.451V265.55C180.451 266.7 180.976 267.325 182.151 267.25L186.851 267V265.25L182.476 265.525ZM203.017 265.5C200.867 265.5 199.867 264.5 199.867 261.9V254.575H197.817V262.175C197.817 265.625 199.642 267.25 202.467 267.25C205.167 267.25 206.742 265.675 207.242 263.425H207.817L207.492 264.85V267H209.517V254.575H207.492V260.1C207.492 263.425 205.642 265.5 203.017 265.5ZM219.338 256.075C221.463 256.075 222.488 257.075 222.488 259.675V267H224.513V259.4C224.513 255.95 222.688 254.325 219.888 254.325C217.188 254.325 215.613 255.9 215.113 258.15H214.538L214.863 256.725V254.575H212.813V267H214.863V261.5C214.863 258.15 216.713 256.075 219.338 256.075ZM240.578 267V248.625H238.528V256.4L238.878 257.825H238.278C237.753 255.875 236.078 254.325 233.253 254.325C229.653 254.325 227.328 257.1 227.328 260.775C227.328 264.475 229.653 267.25 233.253 267.25C236.078 267.25 237.753 265.7 238.278 263.775H238.878L238.528 265.175V267H240.578ZM238.528 260.775C238.528 264.1 236.428 265.5 233.853 265.5C231.278 265.5 229.378 264.1 229.378 260.775C229.378 257.475 231.278 256.075 233.853 256.075C236.428 256.075 238.528 257.475 238.528 260.775ZM251.309 254.575L254.459 267H258.659L261.184 255.175H261.784L264.309 267H268.484L271.634 254.575H269.709L266.684 266.425H266.109L263.584 254.575H259.359L256.859 266.425H256.259L253.259 254.575H251.309ZM273.007 260.775C273.007 264.4 275.607 267.25 279.582 267.25C283.532 267.25 286.107 264.4 286.107 260.775C286.107 257.175 283.532 254.325 279.582 254.325C275.607 254.325 273.007 257.175 273.007 260.775ZM275.057 260.775C275.057 258.2 276.632 256.075 279.582 256.075C282.507 256.075 284.082 258.2 284.082 260.775C284.082 263.375 282.507 265.5 279.582 265.5C276.632 265.5 275.057 263.375 275.057 260.775ZM310.329 267V248.625H308.279V256.4L308.629 257.825H308.029C307.504 255.875 305.829 254.325 303.004 254.325C299.404 254.325 297.079 257.1 297.079 260.775C297.079 264.475 299.404 267.25 303.004 267.25C305.829 267.25 307.504 265.7 308.029 263.775H308.629L308.279 265.175V267H310.329ZM308.279 260.775C308.279 264.1 306.179 265.5 303.604 265.5C301.029 265.5 299.129 264.1 299.129 260.775C299.129 257.475 301.029 256.075 303.604 256.075C306.179 256.075 308.279 257.475 308.279 260.775ZM318.838 265.5C316.688 265.5 315.688 264.5 315.688 261.9V254.575H313.638V262.175C313.638 265.625 315.463 267.25 318.288 267.25C320.988 267.25 322.563 265.675 323.063 263.425H323.638L323.313 264.85V267H325.338V254.575H323.313V260.1C323.313 263.425 321.463 265.5 318.838 265.5ZM87.275 274.375V282.425H76.875V274.375H74.825V292H76.875V284.175H87.275V292H89.3V274.375H87.275ZM96.2973 277.6C97.2973 277.6 98.0973 276.85 98.0973 275.85C98.0973 274.9 97.2973 274.125 96.2973 274.125C95.2723 274.125 94.4973 274.9 94.4973 275.85C94.4973 276.85 95.2723 277.6 96.2973 277.6ZM92.1473 292H101.072V290.25H97.5723V280.825C97.5723 279.875 97.1223 279.225 95.9473 279.325L93.0723 279.575V281.325L95.6473 281.1V290.25H92.1473V292ZM102.981 292H111.981V290.25H108.506V275.1C108.506 273.925 107.956 273.275 106.806 273.375L103.906 273.625V275.375L106.481 275.15V290.25H102.981V292ZM120.744 275.375H122.994V273.625H120.844C117.869 273.625 116.644 275.2 116.644 277.675V279.575H113.894V281.325H116.644V290.25H113.894V292H122.294V290.25H118.669V281.325H122.294V279.575H118.669V277.725C118.669 276.1 119.169 275.375 120.744 275.375ZM124.398 285.625C124.398 289.2 126.273 292.25 130.723 292.25C134.673 292.25 136.173 289.575 136.648 287.65H134.598C134.148 289.55 132.773 290.55 130.723 290.55C127.648 290.55 126.523 288.525 126.398 286.175H136.223V285.375C136.223 281.55 133.923 279.325 130.423 279.325C126.898 279.325 124.398 281.625 124.398 285.625ZM126.398 284.625C126.398 282.625 127.973 281.05 130.423 281.05C132.898 281.05 134.223 282.625 134.223 284.625H126.398ZM148.092 292H150.142V290.175L149.817 288.775H150.392C150.917 290.7 152.592 292.25 155.442 292.25C159.042 292.25 161.342 289.475 161.342 285.775C161.342 282.1 159.042 279.325 155.442 279.325C152.592 279.325 150.917 280.875 150.392 282.825H149.817L150.142 281.4V273.625H148.092V292ZM150.142 285.775C150.142 282.475 152.267 281.075 154.817 281.075C157.392 281.075 159.292 282.475 159.292 285.775C159.292 289.1 157.392 290.5 154.817 290.5C152.267 290.5 150.142 289.1 150.142 285.775ZM164.18 292H166.23V281.1L172.805 281.325V279.575L165.905 279.35C164.73 279.3 164.18 279.875 164.18 281.05V292ZM174.642 288.55C174.642 289.85 175.192 292.25 178.792 292.25C181.792 292.25 183.117 290.475 183.592 288.575H184.192L183.867 289.875V290.55C183.867 291.475 184.392 292 185.342 292H187.542V290.25H185.717V284.95C185.717 281.625 183.642 279.325 180.167 279.325C176.642 279.325 174.692 281.625 174.692 284.2H176.692C176.692 281.85 178.367 281.05 180.167 281.05C182.317 281.05 183.542 282.175 183.667 284.45L178.717 284.925C175.817 285.225 174.642 286.575 174.642 288.55ZM176.692 288.3C176.692 287.075 177.492 286.6 179.067 286.45L183.667 285.975C183.667 288.55 181.867 290.5 179.042 290.5C177.592 290.5 176.692 289.725 176.692 288.3ZM194.643 290.5C192.493 290.5 191.493 289.5 191.493 286.9V279.575H189.443V287.175C189.443 290.625 191.268 292.25 194.093 292.25C196.793 292.25 198.368 290.675 198.868 288.425H199.443L199.118 289.85V292H201.143V279.575H199.118V285.1C199.118 288.425 197.268 290.5 194.643 290.5ZM203.939 285.775C203.939 289.375 206.264 292.25 210.289 292.25C212.689 292.25 215.764 290.9 216.089 287.3H214.014C213.664 289.675 212.089 290.5 210.289 290.5C207.339 290.5 205.989 288.35 205.989 285.775C205.989 283.225 207.339 281.075 210.289 281.075C212.089 281.075 213.664 281.9 214.014 284.275H216.089C215.764 280.675 212.689 279.325 210.289 279.325C206.264 279.325 203.939 282.2 203.939 285.775ZM226.138 279.325C223.438 279.325 221.863 280.9 221.363 283.15H220.788L221.113 281.725V273.625H219.063V292H221.113V286.5C221.113 283.15 222.963 281.075 225.588 281.075C227.713 281.075 228.738 282.075 228.738 284.675V292H230.763V284.4C230.763 280.95 228.938 279.325 226.138 279.325ZM243.903 288.775C243.903 286.1 241.253 285.55 238.803 284.75C236.803 284.1 235.953 283.725 235.953 282.525C235.953 281.4 237.053 281 238.428 281C240.403 281 241.428 281.825 241.428 283.5H243.478C243.478 281.45 242.303 279.325 238.428 279.325C235.578 279.325 233.903 280.625 233.903 282.6C233.903 284.85 235.803 285.575 238.153 286.325C240.178 286.95 241.853 287.225 241.853 288.85C241.853 290.125 240.953 290.575 239.028 290.575C236.628 290.575 235.378 289.575 235.378 287.425H233.328C233.328 290.375 234.978 292.25 239.003 292.25C242.728 292.25 243.903 290.65 243.903 288.775ZM250.03 290.525V281.325H253.905V279.575H250.03V275.75L248.005 276.375V279.575H245.255V281.325H248.005V290.55C248.005 291.7 248.53 292.325 249.705 292.25L254.405 292V290.25L250.03 290.525ZM259.401 292.25C260.551 292.25 261.476 291.35 261.476 290.15C261.476 289 260.551 288.1 259.401 288.1C258.226 288.1 257.326 289 257.326 290.15C257.326 291.35 258.226 292.25 259.401 292.25Z" fill="white"/>
<path d="M45.425 357.325V354.325L32.7 349.375L31.75 352.225L41.925 355.825L31.75 359.15L32.7 362L45.425 357.325Z" fill="white"/>
<path d="M73.75 351.375L75.15 355C80.575 353.325 81.45 349.925 81.75 345.375H82.75L82 347.625V362H86V344.375H78.225C78.225 348.4 77 350.1 73.75 351.375ZM88.002 357.05C88.002 360.775 91.277 362.25 96.127 362.25C100.952 362.25 104.227 360.775 104.227 357.05C104.227 354.225 101.727 353.1 99.052 352.8V351.8C101.027 351.625 103.227 350.875 103.227 348.2C103.227 345 99.577 344.125 96.127 344.125C92.652 344.125 89.002 345 89.002 348.2C89.002 350.875 91.202 351.625 93.177 351.8V352.8C90.502 353.1 88.002 353.975 88.002 357.05ZM93.002 349.1C93.002 348.05 93.977 347.625 96.127 347.625C98.252 347.625 99.227 348.05 99.227 349.1C99.227 350.175 98.252 350.575 96.127 350.575C93.977 350.575 93.002 350.175 93.002 349.1ZM92.002 356.425C92.002 354.875 93.227 354.075 96.127 354.075C99.002 354.075 100.227 354.875 100.227 356.425C100.227 358 99.002 358.75 96.127 358.75C93.227 358.75 92.002 358 92.002 356.425ZM109.213 354.625C110.863 354.625 111.988 353.425 111.988 351.85C111.988 350.325 110.863 349.125 109.213 349.125C107.513 349.125 106.488 350.325 106.488 351.85C106.488 353.425 107.513 354.625 109.213 354.625ZM109.213 362.25C110.863 362.25 111.988 361.05 111.988 359.475C111.988 357.95 110.863 356.75 109.213 356.75C107.513 356.75 106.488 357.95 106.488 359.475C106.488 361.05 107.513 362.25 109.213 362.25ZM130.122 355.525H128.197V351.625H124.197V355.525H118.497L115.997 356.275V355.275C122.247 353.975 125.797 350.2 126.072 344.375H122.072C121.772 348.55 119.197 351.1 114.997 351.75V359.025H124.197V362H128.197V359.025H130.122V355.525ZM131.642 355.525C131.642 360.325 135.292 362.25 139.942 362.25C144.592 362.25 147.692 360.2 147.692 355.35C147.692 351.3 145.192 349.125 142.092 349.125C139.617 349.125 137.767 350.375 136.817 353.125L135.992 352.65L136.742 350.4V347.875H146.292V344.375H132.742V351.9L137.242 354.5C138.242 353.225 139.417 352.625 140.892 352.625C142.767 352.625 143.692 353.575 143.692 355.45C143.692 357.65 142.767 358.75 139.942 358.75C136.817 358.75 135.642 357.65 135.642 355.525H131.642ZM157.459 362H170.034V358.5H161.459V354.925H168.784V351.425H161.459V347.875H170.034V344.375H157.459V362ZM171.284 362H176.034L178.959 357.925L181.884 362H186.634L181.834 356.175V355.175L186.634 349.375H181.884L178.959 353.425L176.034 349.375H171.284L176.084 355.175V356.175L171.284 362ZM188.392 349.375V366.75H192.392V361.225L191.642 358.975H192.642C193.292 360.65 194.492 362.25 197.617 362.25C201.267 362.25 203.092 359.275 203.092 355.7C203.092 352.125 201.267 349.125 197.617 349.125C194.492 349.125 193.292 350.725 192.642 352.4H191.642L192.392 350.15V349.375H188.392ZM192.392 355.7C192.392 353.55 193.592 352.625 195.742 352.625C197.892 352.625 199.092 353.55 199.092 355.7C199.092 357.85 197.892 358.75 195.742 358.75C193.592 358.75 192.392 357.85 192.392 355.7ZM204.097 362H215.097V358.5H211.597V345.55C211.597 344.15 210.822 343.4 209.422 343.45L204.597 343.625V347.125L207.597 346.975V358.5H204.097V362ZM215.846 355.675C215.846 360.1 218.996 362.25 222.971 362.25C226.921 362.25 230.071 360.1 230.071 355.675C230.071 351.275 226.921 349.125 222.971 349.125C218.996 349.125 215.846 351.275 215.846 355.675ZM219.846 355.675C219.846 353.575 221.071 352.625 222.971 352.625C224.846 352.625 226.071 353.575 226.071 355.675C226.071 357.8 224.846 358.75 222.971 358.75C221.071 358.75 219.846 357.8 219.846 355.675ZM231.824 362H235.824V352.725L242.249 352.875V349.375L233.974 349.175C232.599 349.15 231.824 349.9 231.824 351.275V362ZM243.263 355.525C243.263 359.1 245.488 362.25 250.338 362.25C254.713 362.25 256.788 359.375 257.038 357.55H253.038C252.788 358.5 251.738 359 250.338 359C248.063 359 247.013 357.975 247.013 356.525H256.588V355.275C256.588 351.45 253.838 349.125 249.913 349.125C245.988 349.125 243.263 351.525 243.263 355.525ZM247.013 354.275C247.013 353.325 247.688 352.375 249.913 352.375C252.138 352.375 252.838 353.325 252.838 354.275H247.013ZM272.291 358.75V352.875H276.441V349.375H272.291V345.75L268.291 347V349.375H265.291V352.875H268.291V360.125C268.291 361.5 269.041 362.3 270.416 362.25L276.941 362V358.5L272.291 358.75ZM287.968 349.125C285.268 349.125 283.693 350.9 283.193 353.15H282.193L282.943 350.9V343.625H278.943V362H282.943V357.325C282.943 353.775 284.368 352.625 286.543 352.625C288.468 352.625 289.143 353.5 289.143 355.8V362H293.143V355.175C293.143 351.275 291.193 349.125 287.968 349.125ZM294.63 355.525C294.63 359.1 296.855 362.25 301.705 362.25C306.08 362.25 308.155 359.375 308.405 357.55H304.405C304.155 358.5 303.105 359 301.705 359C299.43 359 298.38 357.975 298.38 356.525H307.955V355.275C307.955 351.45 305.205 349.125 301.28 349.125C297.355 349.125 294.63 351.525 294.63 355.525ZM298.38 354.275C298.38 353.325 299.055 352.375 301.28 352.375C303.505 352.375 304.205 353.325 304.205 354.275H298.38ZM74 381.45C74 385.85 76.725 388.25 81.95 388.25C87.175 388.25 89.925 385.85 89.925 381.45V370.375H85.925V379.675C85.925 382.825 85.625 384.75 81.95 384.75C78.275 384.75 78 382.825 78 379.675V370.375H74V381.45ZM99.5316 378.625C101.457 378.625 102.132 379.5 102.132 381.8V388H106.132V381.175C106.132 377.275 104.182 375.125 100.957 375.125C98.2566 375.125 96.6816 376.9 96.1816 379.15H95.1816L95.9316 376.9V375.375H91.9316V388H95.9316V383.325C95.9316 379.775 97.3566 378.625 99.5316 378.625ZM118.043 388H122.593L118.318 381.525L120.268 380.625C121.368 380.1 121.843 379.325 121.843 378.125V375.375H117.843L117.893 377.65L112.118 380.3V369.625H108.118V388H112.118V384.425L114.893 383.125L118.043 388ZM131.685 378.625C133.61 378.625 134.285 379.5 134.285 381.8V388H138.285V381.175C138.285 377.275 136.335 375.125 133.11 375.125C130.41 375.125 128.835 376.9 128.335 379.15H127.335L128.085 376.9V375.375H124.085V388H128.085V383.325C128.085 379.775 129.51 378.625 131.685 378.625ZM139.771 381.675C139.771 386.1 142.921 388.25 146.896 388.25C150.846 388.25 153.996 386.1 153.996 381.675C153.996 377.275 150.846 375.125 146.896 375.125C142.921 375.125 139.771 377.275 139.771 381.675ZM143.771 381.675C143.771 379.575 144.996 378.625 146.896 378.625C148.771 378.625 149.996 379.575 149.996 381.675C149.996 383.8 148.771 384.75 146.896 384.75C144.996 384.75 143.771 383.8 143.771 381.675ZM154.5 375.375L156.275 388H164.625L165.6 376.375H166.6L167.575 388H175.925L177.7 375.375H173.9L172.25 387H171.25L170.275 375.375H161.925L160.95 387H159.95L158.325 375.375H154.5ZM186.568 378.625C188.493 378.625 189.168 379.5 189.168 381.8V388H193.168V381.175C193.168 377.275 191.218 375.125 187.993 375.125C185.293 375.125 183.718 376.9 183.218 379.15H182.218L182.968 376.9V375.375H178.968V388H182.968V383.325C182.968 379.775 184.393 378.625 186.568 378.625Z" fill="white"/>
<path d="M74.825 424H76.875V408.425L76.55 406.95H77.125L85.9 424H90.025V406.375H88V421.95L88.325 423.425H87.75L78.95 406.375H74.825V424ZM92.8309 417.625C92.8309 421.2 94.7059 424.25 99.1559 424.25C103.106 424.25 104.606 421.575 105.081 419.65H103.031C102.581 421.55 101.206 422.55 99.1559 422.55C96.0809 422.55 94.9559 420.525 94.8309 418.175H104.656V417.375C104.656 413.55 102.356 411.325 98.8559 411.325C95.3309 411.325 92.8309 413.625 92.8309 417.625ZM94.8309 416.625C94.8309 414.625 96.4059 413.05 98.8559 413.05C101.331 413.05 102.656 414.625 102.656 416.625H94.8309ZM112.856 422.5C110.706 422.5 109.706 421.5 109.706 418.9V411.575H107.656V419.175C107.656 422.625 109.481 424.25 112.306 424.25C115.006 424.25 116.581 422.675 117.081 420.425H117.656L117.331 421.85V424H119.356V411.575H117.331V417.1C117.331 420.425 115.481 422.5 112.856 422.5ZM122.152 417.625C122.152 421.2 124.027 424.25 128.477 424.25C132.427 424.25 133.927 421.575 134.402 419.65H132.352C131.902 421.55 130.527 422.55 128.477 422.55C125.402 422.55 124.277 420.525 124.152 418.175H133.977V417.375C133.977 413.55 131.677 411.325 128.177 411.325C124.652 411.325 122.152 413.625 122.152 417.625ZM124.152 416.625C124.152 414.625 125.727 413.05 128.177 413.05C130.652 413.05 131.977 414.625 131.977 416.625H124.152ZM138.061 419.925L136.111 427.15L137.936 427.65L139.886 420.4L138.061 419.925ZM161.921 420.775C161.921 418.1 159.271 417.55 156.821 416.75C154.821 416.1 153.971 415.725 153.971 414.525C153.971 413.4 155.071 413 156.446 413C158.421 413 159.446 413.825 159.446 415.5H161.496C161.496 413.45 160.321 411.325 156.446 411.325C153.596 411.325 151.921 412.625 151.921 414.6C151.921 416.85 153.821 417.575 156.171 418.325C158.196 418.95 159.871 419.225 159.871 420.85C159.871 422.125 158.971 422.575 157.046 422.575C154.646 422.575 153.396 421.575 153.396 419.425H151.346C151.346 422.375 152.996 424.25 157.021 424.25C160.746 424.25 161.921 422.65 161.921 420.775ZM164.498 411.575V428.55H166.548V422.175L166.223 420.775H166.798C167.323 422.7 168.973 424.25 171.823 424.25C175.423 424.25 177.748 421.475 177.748 417.8C177.748 414.1 175.423 411.325 171.823 411.325C168.973 411.325 167.323 412.875 166.798 414.825H166.223L166.548 413.4V411.575H164.498ZM166.548 417.8C166.548 414.475 168.673 413.075 171.223 413.075C173.798 413.075 175.698 414.525 175.698 417.8C175.698 421.05 173.798 422.5 171.223 422.5C168.673 422.5 166.548 421.1 166.548 417.8ZM180.282 420.55C180.282 421.85 180.832 424.25 184.432 424.25C187.432 424.25 188.757 422.475 189.232 420.575H189.832L189.507 421.875V422.55C189.507 423.475 190.032 424 190.982 424H193.182V422.25H191.357V416.95C191.357 413.625 189.282 411.325 185.807 411.325C182.282 411.325 180.332 413.625 180.332 416.2H182.332C182.332 413.85 184.007 413.05 185.807 413.05C187.957 413.05 189.182 414.175 189.307 416.45L184.357 416.925C181.457 417.225 180.282 418.575 180.282 420.55ZM182.332 420.3C182.332 419.075 183.132 418.6 184.707 418.45L189.307 417.975C189.307 420.55 187.507 422.5 184.682 422.5C183.232 422.5 182.332 421.725 182.332 420.3ZM202.053 413.075C204.178 413.075 205.203 414.075 205.203 416.675V424H207.228V416.4C207.228 412.95 205.403 411.325 202.603 411.325C199.903 411.325 198.328 412.9 197.828 415.15H197.253L197.578 413.725V411.575H195.528V424H197.578V418.5C197.578 415.15 199.428 413.075 202.053 413.075ZM217.117 413.075C219.242 413.075 220.267 414.075 220.267 416.675V424H222.292V416.4C222.292 412.95 220.467 411.325 217.667 411.325C214.967 411.325 213.392 412.9 212.892 415.15H212.317L212.642 413.725V411.575H210.592V424H212.642V418.5C212.642 415.15 214.492 413.075 217.117 413.075ZM225.106 417.625C225.106 421.2 226.981 424.25 231.431 424.25C235.381 424.25 236.881 421.575 237.356 419.65H235.306C234.856 421.55 233.481 422.55 231.431 422.55C228.356 422.55 227.231 420.525 227.106 418.175H236.931V417.375C236.931 413.55 234.631 411.325 231.131 411.325C227.606 411.325 225.106 413.625 225.106 417.625ZM227.106 416.625C227.106 414.625 228.681 413.05 231.131 413.05C233.606 413.05 234.931 414.625 234.931 416.625H227.106ZM246.706 413.075C248.831 413.075 249.856 414.075 249.856 416.675V424H251.881V416.4C251.881 412.95 250.056 411.325 247.256 411.325C244.556 411.325 242.981 412.9 242.481 415.15H241.906L242.231 413.725V411.575H240.181V424H242.231V418.5C242.231 415.15 244.081 413.075 246.706 413.075ZM267.946 424V405.625H265.896V413.4L266.246 414.825H265.646C265.121 412.875 263.446 411.325 260.621 411.325C257.021 411.325 254.696 414.1 254.696 417.775C254.696 421.475 257.021 424.25 260.621 424.25C263.446 424.25 265.121 422.7 265.646 420.775H266.246L265.896 422.175V424H267.946ZM265.896 417.775C265.896 421.1 263.796 422.5 261.221 422.5C258.646 422.5 256.746 421.1 256.746 417.775C256.746 414.475 258.646 413.075 261.221 413.075C263.796 413.075 265.896 414.475 265.896 417.775ZM270.956 417.625C270.956 421.2 272.831 424.25 277.281 424.25C281.231 424.25 282.731 421.575 283.206 419.65H281.156C280.706 421.55 279.331 422.55 277.281 422.55C274.206 422.55 273.081 420.525 272.956 418.175H282.781V417.375C282.781 413.55 280.481 411.325 276.981 411.325C273.456 411.325 270.956 413.625 270.956 417.625ZM272.956 416.625C272.956 414.625 274.531 413.05 276.981 413.05C279.456 413.05 280.781 414.625 280.781 416.625H272.956ZM88.35 431.375H74.075V433.125H80.225V449H82.25V433.125H88.35V431.375ZM98.1109 436.325C95.4109 436.325 93.8359 437.9 93.3359 440.15H92.7609L93.0859 438.725V430.625H91.0359V449H93.0859V443.5C93.0859 440.15 94.9359 438.075 97.5609 438.075C99.6859 438.075 100.711 439.075 100.711 441.675V449H102.736V441.4C102.736 437.95 100.911 436.325 98.1109 436.325ZM105.551 442.625C105.551 446.2 107.426 449.25 111.876 449.25C115.826 449.25 117.326 446.575 117.801 444.65H115.751C115.301 446.55 113.926 447.55 111.876 447.55C108.801 447.55 107.676 445.525 107.551 443.175H117.376V442.375C117.376 438.55 115.076 436.325 111.576 436.325C108.051 436.325 105.551 438.625 105.551 442.625ZM107.551 441.625C107.551 439.625 109.126 438.05 111.576 438.05C114.051 438.05 115.376 439.625 115.376 441.625H107.551ZM135.926 436.325C133.276 436.325 131.976 437.85 131.476 440.1H131.101C130.826 437.875 129.626 436.325 127.376 436.325C124.726 436.325 123.426 437.85 122.926 440.1H122.351L122.676 438.7V436.575H120.626V449H122.676V443.525C122.676 440.275 124.151 438.075 126.626 438.075C128.651 438.075 129.176 439.25 129.176 441.65V449H131.226V443.525C131.226 440.275 132.701 438.075 135.176 438.075C137.201 438.075 137.726 439.25 137.726 441.65V449H139.776V441.175C139.776 438.4 138.526 436.325 135.926 436.325ZM142.562 442.625C142.562 446.2 144.437 449.25 148.887 449.25C152.837 449.25 154.337 446.575 154.812 444.65H152.762C152.312 446.55 150.937 447.55 148.887 447.55C145.812 447.55 144.687 445.525 144.562 443.175H154.387V442.375C154.387 438.55 152.087 436.325 148.587 436.325C145.062 436.325 142.562 438.625 142.562 442.625ZM144.562 441.625C144.562 439.625 146.137 438.05 148.587 438.05C151.062 438.05 152.387 439.625 152.387 441.625H144.562ZM164.163 438.075C166.288 438.075 167.313 439.075 167.313 441.675V449H169.338V441.4C169.338 437.95 167.513 436.325 164.713 436.325C162.013 436.325 160.438 437.9 159.938 440.15H159.363L159.688 438.725V436.575H157.638V449H159.688V443.5C159.688 440.15 161.538 438.075 164.163 438.075ZM181.075 436.575V453.55H183.125V447.175L182.8 445.775H183.375C183.9 447.7 185.55 449.25 188.4 449.25C192 449.25 194.325 446.475 194.325 442.8C194.325 439.1 192 436.325 188.4 436.325C185.55 436.325 183.9 437.875 183.375 439.825H182.8L183.125 438.4V436.575H181.075ZM183.125 442.8C183.125 439.475 185.25 438.075 187.8 438.075C190.375 438.075 192.275 439.525 192.275 442.8C192.275 446.05 190.375 447.5 187.8 447.5C185.25 447.5 183.125 446.1 183.125 442.8ZM197.164 449H199.214V438.1L205.789 438.325V436.575L198.889 436.35C197.714 436.3 197.164 436.875 197.164 438.05V449ZM210.826 434.6C211.851 434.6 212.651 433.85 212.651 432.85C212.651 431.9 211.851 431.125 210.826 431.125C209.776 431.125 209.001 431.9 209.001 432.85C209.001 433.85 209.776 434.6 210.826 434.6ZM215.976 434.6C217.001 434.6 217.801 433.85 217.801 432.85C217.801 431.9 217.001 431.125 215.976 431.125C214.926 431.125 214.151 431.9 214.151 432.85C214.151 433.85 214.926 434.6 215.976 434.6ZM207.626 445.55C207.626 446.85 208.176 449.25 211.776 449.25C214.776 449.25 216.101 447.475 216.576 445.575H217.176L216.851 446.875V447.55C216.851 448.475 217.376 449 218.326 449H220.526V447.25H218.701V441.95C218.701 438.625 216.626 436.325 213.151 436.325C209.626 436.325 207.676 438.625 207.676 441.2H209.676C209.676 438.85 211.351 438.05 213.151 438.05C215.301 438.05 216.526 439.175 216.651 441.45L211.701 441.925C208.801 442.225 207.626 443.575 207.626 445.55ZM209.676 445.3C209.676 444.075 210.476 443.6 212.051 443.45L216.651 442.975C216.651 445.55 214.851 447.5 212.026 447.5C210.576 447.5 209.676 446.725 209.676 445.3ZM232.502 445.775C232.502 443.1 229.852 442.55 227.402 441.75C225.402 441.1 224.552 440.725 224.552 439.525C224.552 438.4 225.652 438 227.027 438C229.002 438 230.027 438.825 230.027 440.5H232.077C232.077 438.45 230.902 436.325 227.027 436.325C224.177 436.325 222.502 437.625 222.502 439.6C222.502 441.85 224.402 442.575 226.752 443.325C228.777 443.95 230.452 444.225 230.452 445.85C230.452 447.125 229.552 447.575 227.627 447.575C225.227 447.575 223.977 446.575 223.977 444.425H221.927C221.927 447.375 223.577 449.25 227.602 449.25C231.327 449.25 232.502 447.65 232.502 445.775ZM234.603 442.625C234.603 446.2 236.478 449.25 240.928 449.25C244.878 449.25 246.378 446.575 246.853 444.65H244.803C244.353 446.55 242.978 447.55 240.928 447.55C237.853 447.55 236.728 445.525 236.603 443.175H246.428V442.375C246.428 438.55 244.128 436.325 240.628 436.325C237.103 436.325 234.603 438.625 234.603 442.625ZM236.603 441.625C236.603 439.625 238.178 438.05 240.628 438.05C243.103 438.05 244.428 439.625 244.428 441.625H236.603ZM256.204 438.075C258.329 438.075 259.354 439.075 259.354 441.675V449H261.379V441.4C261.379 437.95 259.554 436.325 256.754 436.325C254.054 436.325 252.479 437.9 251.979 440.15H251.404L251.729 438.725V436.575H249.679V449H251.729V443.5C251.729 440.15 253.579 438.075 256.204 438.075ZM268.096 447.525V438.325H271.971V436.575H268.096V432.75L266.071 433.375V436.575H263.321V438.325H266.071V447.55C266.071 448.7 266.596 449.325 267.771 449.25L272.471 449V447.25L268.096 447.525ZM278.792 434.6C279.792 434.6 280.592 433.85 280.592 432.85C280.592 431.9 279.792 431.125 278.792 431.125C277.767 431.125 276.992 431.9 276.992 432.85C276.992 433.85 277.767 434.6 278.792 434.6ZM274.642 449H283.567V447.25H280.067V437.825C280.067 436.875 279.617 436.225 278.442 436.325L275.567 436.575V438.325L278.142 438.1V447.25H274.642V449ZM284.97 442.625C284.97 446.2 286.845 449.25 291.295 449.25C295.245 449.25 296.745 446.575 297.22 444.65H295.17C294.72 446.55 293.345 447.55 291.295 447.55C288.22 447.55 287.095 445.525 286.97 443.175H296.795V442.375C296.795 438.55 294.495 436.325 290.995 436.325C287.47 436.325 284.97 438.625 284.97 442.625ZM286.97 441.625C286.97 439.625 288.545 438.05 290.995 438.05C293.47 438.05 294.795 439.625 294.795 441.625H286.97ZM300.045 449H302.095V438.1L308.67 438.325V436.575L301.77 436.35C300.595 436.3 300.045 436.875 300.045 438.05V449ZM314.849 447.525V438.325H318.724V436.575H314.849V432.75L312.824 433.375V436.575H310.074V438.325H312.824V447.55C312.824 448.7 313.349 449.325 314.524 449.25L319.224 449V447.25L314.849 447.525ZM83.9 461.575L80.05 473.425H79.45L75.575 461.575H73.575L77.675 474H81.825L85.875 461.575H83.9ZM87.24 467.775C87.24 471.4 89.84 474.25 93.815 474.25C97.765 474.25 100.34 471.4 100.34 467.775C100.34 464.175 97.765 461.325 93.815 461.325C89.84 461.325 87.24 464.175 87.24 467.775ZM89.29 467.775C89.29 465.2 90.865 463.075 93.815 463.075C96.74 463.075 98.315 465.2 98.315 467.775C98.315 470.375 96.74 472.5 93.815 472.5C90.865 472.5 89.29 470.375 89.29 467.775ZM109.719 463.075C111.844 463.075 112.869 464.075 112.869 466.675V474H114.894V466.4C114.894 462.95 113.069 461.325 110.269 461.325C107.569 461.325 105.994 462.9 105.494 465.15H104.919L105.244 463.725V461.575H103.194V474H105.244V468.5C105.244 465.15 107.094 463.075 109.719 463.075ZM139.382 474V455.625H137.332V463.4L137.682 464.825H137.082C136.557 462.875 134.882 461.325 132.057 461.325C128.457 461.325 126.132 464.1 126.132 467.775C126.132 471.475 128.457 474.25 132.057 474.25C134.882 474.25 136.557 472.7 137.082 470.775H137.682L137.332 472.175V474H139.382ZM137.332 467.775C137.332 471.1 135.232 472.5 132.657 472.5C130.082 472.5 128.182 471.1 128.182 467.775C128.182 464.475 130.082 463.075 132.657 463.075C135.232 463.075 137.332 464.475 137.332 467.775ZM142.391 467.625C142.391 471.2 144.266 474.25 148.716 474.25C152.666 474.25 154.166 471.575 154.641 469.65H152.591C152.141 471.55 150.766 472.55 148.716 472.55C145.641 472.55 144.516 470.525 144.391 468.175H154.216V467.375C154.216 463.55 151.916 461.325 148.416 461.325C144.891 461.325 142.391 463.625 142.391 467.625ZM144.391 466.625C144.391 464.625 145.966 463.05 148.416 463.05C150.891 463.05 152.216 464.625 152.216 466.625H144.391ZM160.433 459.6C161.433 459.6 162.233 458.85 162.233 457.85C162.233 456.9 161.433 456.125 160.433 456.125C159.408 456.125 158.633 456.9 158.633 457.85C158.633 458.85 159.408 459.6 160.433 459.6ZM156.283 474H165.208V472.25H161.708V462.825C161.708 461.875 161.258 461.225 160.083 461.325L157.208 461.575V463.325L159.783 463.1V472.25H156.283V474ZM174.319 463.075C176.444 463.075 177.469 464.075 177.469 466.675V474H179.494V466.4C179.494 462.95 177.669 461.325 174.869 461.325C172.169 461.325 170.594 462.9 170.094 465.15H169.519L169.844 463.725V461.575H167.794V474H169.844V468.5C169.844 465.15 171.694 463.075 174.319 463.075ZM182.308 467.625C182.308 471.2 184.183 474.25 188.633 474.25C192.583 474.25 194.083 471.575 194.558 469.65H192.508C192.058 471.55 190.683 472.55 188.633 472.55C185.558 472.55 184.433 470.525 184.308 468.175H194.133V467.375C194.133 463.55 191.833 461.325 188.333 461.325C184.808 461.325 182.308 463.625 182.308 467.625ZM184.308 466.625C184.308 464.625 185.883 463.05 188.333 463.05C190.808 463.05 192.133 464.625 192.133 466.625H184.308ZM212.684 461.325C210.034 461.325 208.734 462.85 208.234 465.1H207.859C207.584 462.875 206.384 461.325 204.134 461.325C201.484 461.325 200.184 462.85 199.684 465.1H199.109L199.434 463.7V461.575H197.384V474H199.434V468.525C199.434 465.275 200.909 463.075 203.384 463.075C205.409 463.075 205.934 464.25 205.934 466.65V474H207.984V468.525C207.984 465.275 209.459 463.075 211.934 463.075C213.959 463.075 214.484 464.25 214.484 466.65V474H216.534V466.175C216.534 463.4 215.284 461.325 212.684 461.325ZM219.692 459.65L222.617 460.6L223.667 460.65L222.792 461.275L220.992 463.75L222.267 464.675L224.067 462.2L224.442 461.2L224.792 462.225L226.592 464.675L227.867 463.75L226.092 461.275L225.242 460.675L226.317 460.625L229.217 459.675L228.742 458.175L225.817 459.1L224.942 459.75L225.267 458.675V455.625H223.692V458.675L223.992 459.725L223.092 459.075L220.192 458.125L219.692 459.65ZM245.363 474V455.625H243.313V463.4L243.663 464.825H243.063C242.538 462.875 240.863 461.325 238.038 461.325C234.438 461.325 232.113 464.1 232.113 467.775C232.113 471.475 234.438 474.25 238.038 474.25C240.863 474.25 242.538 472.7 243.063 470.775H243.663L243.313 472.175V474H245.363ZM243.313 467.775C243.313 471.1 241.213 472.5 238.638 472.5C236.063 472.5 234.163 471.1 234.163 467.775C234.163 464.475 236.063 463.075 238.638 463.075C241.213 463.075 243.313 464.475 243.313 467.775ZM248.373 467.625C248.373 471.2 250.248 474.25 254.698 474.25C258.648 474.25 260.148 471.575 260.623 469.65H258.573C258.123 471.55 256.748 472.55 254.698 472.55C251.623 472.55 250.498 470.525 250.373 468.175H260.198V467.375C260.198 463.55 257.898 461.325 254.398 461.325C250.873 461.325 248.373 463.625 248.373 467.625ZM250.373 466.625C250.373 464.625 251.948 463.05 254.398 463.05C256.873 463.05 258.198 464.625 258.198 466.625H250.373ZM266.414 459.6C267.414 459.6 268.214 458.85 268.214 457.85C268.214 456.9 267.414 456.125 266.414 456.125C265.389 456.125 264.614 456.9 264.614 457.85C264.614 458.85 265.389 459.6 266.414 459.6ZM262.264 474H271.189V472.25H267.689V462.825C267.689 461.875 267.239 461.225 266.064 461.325L263.189 461.575V463.325L265.764 463.1V472.25H262.264V474ZM280.3 463.075C282.425 463.075 283.45 464.075 283.45 466.675V474H285.475V466.4C285.475 462.95 283.65 461.325 280.85 461.325C278.15 461.325 276.575 462.9 276.075 465.15H275.5L275.825 463.725V461.575H273.775V474H275.825V468.5C275.825 465.15 277.675 463.075 280.3 463.075ZM288.29 467.625C288.29 471.2 290.165 474.25 294.615 474.25C298.565 474.25 300.065 471.575 300.54 469.65H298.49C298.04 471.55 296.665 472.55 294.615 472.55C291.54 472.55 290.415 470.525 290.29 468.175H300.115V467.375C300.115 463.55 297.815 461.325 294.315 461.325C290.79 461.325 288.29 463.625 288.29 467.625ZM290.29 466.625C290.29 464.625 291.865 463.05 294.315 463.05C296.79 463.05 298.115 464.625 298.115 466.625H290.29ZM303.365 474H305.415V463.1L311.99 463.325V461.575L305.09 461.35C303.915 461.3 303.365 461.875 303.365 463.05V474ZM74.825 499H76.875V483.425L76.55 481.95H77.125L82.175 499H86.3L91.35 481.95H91.95L91.6 483.425V499H93.65V481.375H89.55L84.525 498.425H83.95L78.95 481.375H74.825V499ZM96.6883 495.55C96.6883 496.85 97.2383 499.25 100.838 499.25C103.838 499.25 105.163 497.475 105.638 495.575H106.238L105.913 496.875V497.55C105.913 498.475 106.438 499 107.388 499H109.588V497.25H107.763V491.95C107.763 488.625 105.688 486.325 102.213 486.325C98.6883 486.325 96.7383 488.625 96.7383 491.2H98.7383C98.7383 488.85 100.413 488.05 102.213 488.05C104.363 488.05 105.588 489.175 105.713 491.45L100.763 491.925C97.8633 492.225 96.6883 493.575 96.6883 495.55ZM98.7383 495.3C98.7383 494.075 99.5383 493.6 101.113 493.45L105.713 492.975C105.713 495.55 103.913 497.5 101.088 497.5C99.6383 497.5 98.7383 496.725 98.7383 495.3ZM115.633 484.6C116.633 484.6 117.433 483.85 117.433 482.85C117.433 481.9 116.633 481.125 115.633 481.125C114.608 481.125 113.833 481.9 113.833 482.85C113.833 483.85 114.608 484.6 115.633 484.6ZM111.483 499H120.408V497.25H116.908V487.825C116.908 486.875 116.458 486.225 115.283 486.325L112.408 486.575V488.325L114.983 488.1V497.25H111.483V499ZM129.519 488.075C131.644 488.075 132.669 489.075 132.669 491.675V499H134.694V491.4C134.694 487.95 132.869 486.325 130.069 486.325C127.369 486.325 125.794 487.9 125.294 490.15H124.719L125.044 488.725V486.575H122.994V499H125.044V493.5C125.044 490.15 126.894 488.075 129.519 488.075ZM138.381 491.875V493.55H150.306V491.875H138.381ZM167.72 481.375H153.445V483.125H159.595V499H161.62V483.125H167.72V481.375ZM167.403 499H169.453V488.1L176.028 488.325V486.575L169.128 486.35C167.953 486.3 167.403 486.875 167.403 488.05V499ZM177.865 495.55C177.865 496.85 178.415 499.25 182.015 499.25C185.015 499.25 186.34 497.475 186.815 495.575H187.415L187.09 496.875V497.55C187.09 498.475 187.615 499 188.565 499H190.765V497.25H188.94V491.95C188.94 488.625 186.865 486.325 183.39 486.325C179.865 486.325 177.915 488.625 177.915 491.2H179.915C179.915 488.85 181.59 488.05 183.39 488.05C185.54 488.05 186.765 489.175 186.89 491.45L181.94 491.925C179.04 492.225 177.865 493.575 177.865 495.55ZM179.915 495.3C179.915 494.075 180.715 493.6 182.29 493.45L186.89 492.975C186.89 495.55 185.09 497.5 182.265 497.5C180.815 497.5 179.915 496.725 179.915 495.3ZM196.81 484.6C197.81 484.6 198.61 483.85 198.61 482.85C198.61 481.9 197.81 481.125 196.81 481.125C195.785 481.125 195.01 481.9 195.01 482.85C195.01 483.85 195.785 484.6 196.81 484.6ZM192.66 499H201.585V497.25H198.085V487.825C198.085 486.875 197.635 486.225 196.46 486.325L193.585 486.575V488.325L196.16 488.1V497.25H192.66V499ZM210.696 488.075C212.821 488.075 213.846 489.075 213.846 491.675V499H215.871V491.4C215.871 487.95 214.046 486.325 211.246 486.325C208.546 486.325 206.971 487.9 206.471 490.15H205.896L206.221 488.725V486.575H204.171V499H206.221V493.5C206.221 490.15 208.071 488.075 210.696 488.075ZM218.685 492.625C218.685 496.2 220.56 499.25 225.01 499.25C228.96 499.25 230.46 496.575 230.935 494.65H228.885C228.435 496.55 227.06 497.55 225.01 497.55C221.935 497.55 220.81 495.525 220.685 493.175H230.51V492.375C230.51 488.55 228.21 486.325 224.71 486.325C221.185 486.325 218.685 488.625 218.685 492.625ZM220.685 491.625C220.685 489.625 222.26 488.05 224.71 488.05C227.185 488.05 228.51 489.625 228.51 491.625H220.685ZM233.761 499H235.811V488.1L242.386 488.325V486.575L235.486 486.35C234.311 486.3 233.761 486.875 233.761 488.05V499ZM244.546 484.65L247.471 485.6L248.521 485.65L247.646 486.275L245.846 488.75L247.121 489.675L248.921 487.2L249.296 486.2L249.646 487.225L251.446 489.675L252.721 488.75L250.946 486.275L250.096 485.675L251.171 485.625L254.071 484.675L253.596 483.175L250.671 484.1L249.796 484.75L250.121 483.675V480.625H248.546V483.675L248.846 484.725L247.946 484.075L245.046 483.125L244.546 484.65ZM261.117 484.6C262.117 484.6 262.917 483.85 262.917 482.85C262.917 481.9 262.117 481.125 261.117 481.125C260.092 481.125 259.317 481.9 259.317 482.85C259.317 483.85 260.092 484.6 261.117 484.6ZM256.967 499H265.892V497.25H262.392V487.825C262.392 486.875 261.942 486.225 260.767 486.325L257.892 486.575V488.325L260.467 488.1V497.25H256.967V499ZM275.002 488.075C277.127 488.075 278.152 489.075 278.152 491.675V499H280.177V491.4C280.177 487.95 278.352 486.325 275.552 486.325C272.852 486.325 271.277 487.9 270.777 490.15H270.202L270.527 488.725V486.575H268.477V499H270.527V493.5C270.527 490.15 272.377 488.075 275.002 488.075ZM285.89 499.25C287.04 499.25 287.965 498.35 287.965 497.15C287.965 496 287.04 495.1 285.89 495.1C284.715 495.1 283.815 496 283.815 497.15C283.815 498.35 284.715 499.25 285.89 499.25Z" fill="white"/>
<path d="M45.425 564.325V561.325L32.7 556.375L31.75 559.225L41.925 562.825L31.75 566.15L32.7 569L45.425 564.325Z" fill="white"/>
<path d="M74 559.45H78C78 556.075 79.35 554.625 82.375 554.625C84.65 554.625 85.4 555.75 85.4 556.875C85.4 560.775 76.05 561.75 74.25 562V569H89.4V565.5H77.75L75.25 566.25V565.25C83.5 563.725 89.4 562.975 89.4 557.05C89.4 553.2 86.5 551.125 82.325 551.125C77.7 551.125 74 553.525 74 559.45ZM99.9072 551.125C94.5572 551.125 91.4072 554.8 91.4072 560.175C91.4072 565.575 94.5572 569.25 99.9072 569.25C105.232 569.25 108.382 565.575 108.382 560.175C108.382 554.8 105.232 551.125 99.9072 551.125ZM99.9072 554.625C100.882 554.625 101.732 554.85 102.407 555.3L95.6822 562.475C95.5072 561.8 95.4072 561.05 95.4072 560.175C95.4072 556.55 97.0822 554.625 99.9072 554.625ZM99.9072 565.75C98.9322 565.75 98.0822 565.525 97.3822 565.05L104.107 557.875C104.282 558.55 104.382 559.325 104.382 560.175C104.382 563.825 102.732 565.75 99.9072 565.75ZM113.852 561.625C115.502 561.625 116.627 560.425 116.627 558.85C116.627 557.325 115.502 556.125 113.852 556.125C112.152 556.125 111.127 557.325 111.127 558.85C111.127 560.425 112.152 561.625 113.852 561.625ZM113.852 569.25C115.502 569.25 116.627 568.05 116.627 566.475C116.627 564.95 115.502 563.75 113.852 563.75C112.152 563.75 111.127 564.95 111.127 566.475C111.127 568.05 112.152 569.25 113.852 569.25ZM127.886 551.125C122.536 551.125 119.386 554.8 119.386 560.175C119.386 565.575 122.536 569.25 127.886 569.25C133.211 569.25 136.361 565.575 136.361 560.175C136.361 554.8 133.211 551.125 127.886 551.125ZM127.886 554.625C128.861 554.625 129.711 554.85 130.386 555.3L123.661 562.475C123.486 561.8 123.386 561.05 123.386 560.175C123.386 556.55 125.061 554.625 127.886 554.625ZM127.886 565.75C126.911 565.75 126.061 565.525 125.361 565.05L132.086 557.875C132.261 558.55 132.361 559.325 132.361 560.175C132.361 563.825 130.711 565.75 127.886 565.75ZM146.855 551.125C141.505 551.125 138.355 554.8 138.355 560.175C138.355 565.575 141.505 569.25 146.855 569.25C152.18 569.25 155.33 565.575 155.33 560.175C155.33 554.8 152.18 551.125 146.855 551.125ZM146.855 554.625C147.83 554.625 148.68 554.85 149.355 555.3L142.63 562.475C142.455 561.8 142.355 561.05 142.355 560.175C142.355 556.55 144.03 554.625 146.855 554.625ZM146.855 565.75C145.88 565.75 145.03 565.525 144.33 565.05L151.055 557.875C151.23 558.55 151.33 559.325 151.33 560.175C151.33 563.825 149.68 565.75 146.855 565.75ZM164.582 560.175C164.582 565.325 168.032 569.25 173.632 569.25C178.557 569.25 181.807 566.55 182.332 562.175H178.332C177.932 564.5 176.082 565.75 173.682 565.75C170.607 565.75 168.582 563.825 168.582 560.175C168.582 556.55 170.607 554.625 173.682 554.625C176.082 554.625 177.932 555.85 178.332 558.175H182.332C181.807 553.825 178.557 551.125 173.632 551.125C168.032 551.125 164.582 555.05 164.582 560.175ZM183.57 562.675C183.57 567.1 186.72 569.25 190.695 569.25C194.645 569.25 197.795 567.1 197.795 562.675C197.795 558.275 194.645 556.125 190.695 556.125C186.72 556.125 183.57 558.275 183.57 562.675ZM187.57 562.675C187.57 560.575 188.795 559.625 190.695 559.625C192.57 559.625 193.795 560.575 193.795 562.675C193.795 564.8 192.57 565.75 190.695 565.75C188.795 565.75 187.57 564.8 187.57 562.675ZM213.749 569V550.625H209.749V557.15L210.499 559.4H209.499C208.849 557.725 207.649 556.125 204.524 556.125C200.874 556.125 199.049 559.1 199.049 562.675C199.049 566.25 200.874 569.25 204.524 569.25C207.649 569.25 208.849 567.65 209.499 565.975H210.499L209.749 568.225V569H213.749ZM209.749 562.675C209.749 564.8 208.549 565.75 206.399 565.75C204.249 565.75 203.049 564.8 203.049 562.675C203.049 560.55 204.249 559.625 206.399 559.625C208.549 559.625 209.749 560.55 209.749 562.675ZM215.26 562.525C215.26 566.1 217.485 569.25 222.335 569.25C226.71 569.25 228.785 566.375 229.035 564.55H225.035C224.785 565.5 223.735 566 222.335 566C220.06 566 219.01 564.975 219.01 563.525H228.585V562.275C228.585 558.45 225.835 556.125 221.91 556.125C217.985 556.125 215.26 558.525 215.26 562.525ZM219.01 561.275C219.01 560.325 219.685 559.375 221.91 559.375C224.135 559.375 224.835 560.325 224.835 561.275H219.01ZM238.393 554.125H241.043V550.625H238.893C234.668 550.625 232.693 552.525 232.693 555.925V556.375H230.293V559.875H232.693V565.5H230.293V569H240.343V565.5H236.693V559.875H240.343V556.375H236.693V556.05C236.693 554.65 237.218 554.125 238.393 554.125ZM242.036 569H253.036V565.5H249.536V552.55C249.536 551.15 248.761 550.4 247.361 550.45L242.536 550.625V554.125L245.536 553.975V565.5H242.036V569ZM253.785 562.675C253.785 567.1 256.935 569.25 260.91 569.25C264.86 569.25 268.01 567.1 268.01 562.675C268.01 558.275 264.86 556.125 260.91 556.125C256.935 556.125 253.785 558.275 253.785 562.675ZM257.785 562.675C257.785 560.575 259.01 559.625 260.91 559.625C262.785 559.625 264.01 560.575 264.01 562.675C264.01 564.8 262.785 565.75 260.91 565.75C259.01 565.75 257.785 564.8 257.785 562.675ZM268.514 556.375L270.289 569H278.639L279.614 557.375H280.614L281.589 569H289.939L291.714 556.375H287.914L286.264 568H285.264L284.289 556.375H275.939L274.964 568H273.964L272.339 556.375H268.514Z" fill="white"/>
<path d="M79.775 587.375H74.825V605H76.875V598.925H79.775C84.225 598.925 87.05 597.75 87.05 593.125C87.05 588.525 84.225 587.375 79.775 587.375ZM79.8 597.175H76.875V589.125H79.8C82.8 589.125 85 589.675 85 593.125C85 596.625 82.8 597.175 79.8 597.175ZM89.8885 605H91.9385V594.1L98.5135 594.325V592.575L91.6135 592.35C90.4385 592.3 89.8885 592.875 89.8885 594.05V605ZM100.35 601.55C100.35 602.85 100.9 605.25 104.5 605.25C107.5 605.25 108.825 603.475 109.3 601.575H109.9L109.575 602.875V603.55C109.575 604.475 110.1 605 111.05 605H113.25V603.25H111.425V597.95C111.425 594.625 109.35 592.325 105.875 592.325C102.35 592.325 100.4 594.625 100.4 597.2H102.4C102.4 594.85 104.075 594.05 105.875 594.05C108.025 594.05 109.25 595.175 109.375 597.45L104.425 597.925C101.525 598.225 100.35 599.575 100.35 601.55ZM102.4 601.3C102.4 600.075 103.2 599.6 104.775 599.45L109.375 598.975C109.375 601.55 107.575 603.5 104.75 603.5C103.3 603.5 102.4 602.725 102.4 601.3ZM124.396 605H126.721L121.921 598.325L124.971 596.65C125.671 596.275 126.046 595.675 125.971 594.85L125.771 592.575H123.721L123.971 595.05L117.646 598.5V586.625H115.596V605H117.646V600.65L120.246 599.225L124.396 605ZM133.086 603.525V594.325H136.961V592.575H133.086V588.75L131.061 589.375V592.575H128.311V594.325H131.061V603.55C131.061 604.7 131.586 605.325 132.761 605.25L137.461 605V603.25L133.086 603.525ZM143.783 590.6C144.783 590.6 145.583 589.85 145.583 588.85C145.583 587.9 144.783 587.125 143.783 587.125C142.758 587.125 141.983 587.9 141.983 588.85C141.983 589.85 142.758 590.6 143.783 590.6ZM139.633 605H148.558V603.25H145.058V593.825C145.058 592.875 144.608 592.225 143.433 592.325L140.558 592.575V594.325L143.133 594.1V603.25H139.633V605ZM160.602 601.775C160.602 599.1 157.952 598.55 155.502 597.75C153.502 597.1 152.652 596.725 152.652 595.525C152.652 594.4 153.752 594 155.127 594C157.102 594 158.127 594.825 158.127 596.5H160.177C160.177 594.45 159.002 592.325 155.127 592.325C152.277 592.325 150.602 593.625 150.602 595.6C150.602 597.85 152.502 598.575 154.852 599.325C156.877 599.95 158.552 600.225 158.552 601.85C158.552 603.125 157.652 603.575 155.727 603.575C153.327 603.575 152.077 602.575 152.077 600.425H150.027C150.027 603.375 151.677 605.25 155.702 605.25C159.427 605.25 160.602 603.65 160.602 601.775ZM162.704 598.775C162.704 602.375 165.029 605.25 169.054 605.25C171.454 605.25 174.529 603.9 174.854 600.3H172.779C172.429 602.675 170.854 603.5 169.054 603.5C166.104 603.5 164.754 601.35 164.754 598.775C164.754 596.225 166.104 594.075 169.054 594.075C170.854 594.075 172.429 594.9 172.779 597.275H174.854C174.529 593.675 171.454 592.325 169.054 592.325C165.029 592.325 162.704 595.2 162.704 598.775ZM184.903 592.325C182.203 592.325 180.628 593.9 180.128 596.15H179.553L179.878 594.725V586.625H177.828V605H179.878V599.5C179.878 596.15 181.728 594.075 184.353 594.075C186.478 594.075 187.503 595.075 187.503 597.675V605H189.528V597.4C189.528 593.95 187.703 592.325 184.903 592.325ZM192.343 598.625C192.343 602.2 194.218 605.25 198.668 605.25C202.618 605.25 204.118 602.575 204.593 600.65H202.543C202.093 602.55 200.718 603.55 198.668 603.55C195.593 603.55 194.468 601.525 194.343 599.175H204.168V598.375C204.168 594.55 201.868 592.325 198.368 592.325C194.843 592.325 192.343 594.625 192.343 598.625ZM194.343 597.625C194.343 595.625 195.918 594.05 198.368 594.05C200.843 594.05 202.168 595.625 202.168 597.625H194.343ZM79.775 612.375H74.825V630H76.875V623.925H79.775C84.225 623.925 87.05 622.75 87.05 618.125C87.05 613.525 84.225 612.375 79.775 612.375ZM79.8 622.175H76.875V614.125H79.8C82.8 614.125 85 614.675 85 618.125C85 621.625 82.8 622.175 79.8 622.175ZM89.8885 630H91.9385V619.1L98.5135 619.325V617.575L91.6135 617.35C90.4385 617.3 89.8885 617.875 89.8885 619.05V630ZM99.5447 623.775C99.5447 627.4 102.145 630.25 106.12 630.25C110.07 630.25 112.645 627.4 112.645 623.775C112.645 620.175 110.07 617.325 106.12 617.325C102.145 617.325 99.5447 620.175 99.5447 623.775ZM101.595 623.775C101.595 621.2 103.17 619.075 106.12 619.075C109.045 619.075 110.62 621.2 110.62 623.775C110.62 626.375 109.045 628.5 106.12 628.5C103.17 628.5 101.595 626.375 101.595 623.775ZM117.355 615.6C118.38 615.6 119.18 614.85 119.18 613.85C119.18 612.9 118.38 612.125 117.355 612.125C116.33 612.125 115.555 612.9 115.555 613.85C115.555 614.85 116.33 615.6 117.355 615.6ZM114.005 634.575H116.255L118.305 630.95C118.63 630.375 118.73 629.9 118.73 629.25V618.825C118.73 617.875 118.205 617.25 117.03 617.35L114.005 617.575V619.325L116.68 619.1V628.95C116.68 629.6 116.58 630.075 116.255 630.65L114.005 634.575ZM121.81 623.625C121.81 627.2 123.685 630.25 128.135 630.25C132.085 630.25 133.585 627.575 134.06 625.65H132.01C131.56 627.55 130.185 628.55 128.135 628.55C125.06 628.55 123.935 626.525 123.81 624.175H133.635V623.375C133.635 619.55 131.335 617.325 127.835 617.325C124.31 617.325 121.81 619.625 121.81 623.625ZM123.81 622.625C123.81 620.625 125.385 619.05 127.835 619.05C130.31 619.05 131.635 620.625 131.635 622.625H123.81ZM145.832 630H148.157L143.357 623.325L146.407 621.65C147.107 621.275 147.482 620.675 147.407 619.85L147.207 617.575H145.157L145.407 620.05L139.082 623.5V611.625H137.032V630H139.082V625.65L141.682 624.225L145.832 630ZM154.522 628.525V619.325H158.397V617.575H154.522V613.75L152.497 614.375V617.575H149.747V619.325H152.497V628.55C152.497 629.7 153.022 630.325 154.197 630.25L158.897 630V628.25L154.522 628.525ZM161.263 626.55C161.263 627.85 161.813 630.25 165.413 630.25C168.413 630.25 169.738 628.475 170.213 626.575H170.813L170.488 627.875V628.55C170.488 629.475 171.013 630 171.963 630H174.163V628.25H172.338V622.95C172.338 619.625 170.263 617.325 166.788 617.325C163.263 617.325 161.313 619.625 161.313 622.2H163.313C163.313 619.85 164.988 619.05 166.788 619.05C168.938 619.05 170.163 620.175 170.288 622.45L165.338 622.925C162.438 623.225 161.263 624.575 161.263 626.55ZM163.313 626.3C163.313 625.075 164.113 624.6 165.688 624.45L170.288 623.975C170.288 626.55 168.488 628.5 165.663 628.5C164.213 628.5 163.313 627.725 163.313 626.3ZM176.51 630H178.56V619.1L185.135 619.325V617.575L178.235 617.35C177.06 617.3 176.51 617.875 176.51 619.05V630ZM187.545 630H189.595V628.175L189.27 626.775H189.845C190.37 628.7 192.045 630.25 194.895 630.25C198.495 630.25 200.795 627.475 200.795 623.775C200.795 620.1 198.495 617.325 194.895 617.325C192.045 617.325 190.37 618.875 189.845 620.825H189.27L189.595 619.4V611.625H187.545V630ZM189.595 623.775C189.595 620.475 191.72 619.075 194.27 619.075C196.845 619.075 198.745 620.475 198.745 623.775C198.745 627.1 196.845 628.5 194.27 628.5C191.72 628.5 189.595 627.1 189.595 623.775ZM203.134 623.625C203.134 627.2 205.009 630.25 209.459 630.25C213.409 630.25 214.909 627.575 215.384 625.65H213.334C212.884 627.55 211.509 628.55 209.459 628.55C206.384 628.55 205.259 626.525 205.134 624.175H214.959V623.375C214.959 619.55 212.659 617.325 209.159 617.325C205.634 617.325 203.134 619.625 203.134 623.625ZM205.134 622.625C205.134 620.625 206.709 619.05 209.159 619.05C211.634 619.05 212.959 620.625 212.959 622.625H205.134ZM221.175 615.6C222.175 615.6 222.975 614.85 222.975 613.85C222.975 612.9 222.175 612.125 221.175 612.125C220.15 612.125 219.375 612.9 219.375 613.85C219.375 614.85 220.15 615.6 221.175 615.6ZM217.025 630H225.95V628.25H222.45V618.825C222.45 617.875 222 617.225 220.825 617.325L217.95 617.575V619.325L220.525 619.1V628.25H217.025V630ZM230.816 628.525V619.325H234.691V617.575H230.816V613.75L228.791 614.375V617.575H226.041V619.325H228.791V628.55C228.791 629.7 229.316 630.325 230.491 630.25L235.191 630V628.25L230.816 628.525ZM74.325 651.55C74.325 652.85 74.875 655.25 78.475 655.25C81.475 655.25 82.8 653.475 83.275 651.575H83.875L83.55 652.875V653.55C83.55 654.475 84.075 655 85.025 655H87.225V653.25H85.4V647.95C85.4 644.625 83.325 642.325 79.85 642.325C76.325 642.325 74.375 644.625 74.375 647.2H76.375C76.375 644.85 78.05 644.05 79.85 644.05C82 644.05 83.225 645.175 83.35 647.45L78.4 647.925C75.5 648.225 74.325 649.575 74.325 651.55ZM76.375 651.3C76.375 650.075 77.175 649.6 78.75 649.45L83.35 648.975C83.35 651.55 81.55 653.5 78.725 653.5C77.275 653.5 76.375 652.725 76.375 651.3ZM88.8699 655H97.8699V653.25H94.3949V638.1C94.3949 636.925 93.8449 636.275 92.6949 636.375L89.7949 636.625V638.375L92.3699 638.15V653.25H88.8699V655ZM99.783 655H108.783V653.25H105.308V638.1C105.308 636.925 104.758 636.275 103.608 636.375L100.708 636.625V638.375L103.283 638.15V653.25H99.783V655ZM110.189 648.625C110.189 652.2 112.064 655.25 116.514 655.25C120.464 655.25 121.964 652.575 122.439 650.65H120.389C119.939 652.55 118.564 653.55 116.514 653.55C113.439 653.55 112.314 651.525 112.189 649.175H122.014V648.375C122.014 644.55 119.714 642.325 116.214 642.325C112.689 642.325 110.189 644.625 110.189 648.625ZM112.189 647.625C112.189 645.625 113.764 644.05 116.214 644.05C118.689 644.05 120.014 645.625 120.014 647.625H112.189ZM128.231 640.6C129.231 640.6 130.031 639.85 130.031 638.85C130.031 637.9 129.231 637.125 128.231 637.125C127.206 637.125 126.431 637.9 126.431 638.85C126.431 639.85 127.206 640.6 128.231 640.6ZM124.081 655H133.006V653.25H129.506V643.825C129.506 642.875 129.056 642.225 127.881 642.325L125.006 642.575V644.325L127.581 644.1V653.25H124.081V655ZM142.117 644.075C144.242 644.075 145.267 645.075 145.267 647.675V655H147.292V647.4C147.292 643.95 145.467 642.325 142.667 642.325C139.967 642.325 138.392 643.9 137.892 646.15H137.317L137.642 644.725V642.575H135.592V655H137.642V649.5C137.642 646.15 139.492 644.075 142.117 644.075ZM150.106 648.625C150.106 652.2 151.981 655.25 156.431 655.25C160.381 655.25 161.881 652.575 162.356 650.65H160.306C159.856 652.55 158.481 653.55 156.431 653.55C153.356 653.55 152.231 651.525 152.106 649.175H161.931V648.375C161.931 644.55 159.631 642.325 156.131 642.325C152.606 642.325 150.106 644.625 150.106 648.625ZM152.106 647.625C152.106 645.625 153.681 644.05 156.131 644.05C158.606 644.05 159.931 645.625 159.931 647.625H152.106ZM173.3 648.775C173.3 652.4 175.9 655.25 179.875 655.25C183.825 655.25 186.4 652.4 186.4 648.775C186.4 645.175 183.825 642.325 179.875 642.325C175.9 642.325 173.3 645.175 173.3 648.775ZM175.35 648.775C175.35 646.2 176.925 644.075 179.875 644.075C182.8 644.075 184.375 646.2 184.375 648.775C184.375 651.375 182.8 653.5 179.875 653.5C176.925 653.5 175.35 651.375 175.35 648.775ZM202.004 655V636.625H199.954V644.4L200.304 645.825H199.704C199.179 643.875 197.504 642.325 194.679 642.325C191.079 642.325 188.754 645.1 188.754 648.775C188.754 652.475 191.079 655.25 194.679 655.25C197.504 655.25 199.179 653.7 199.704 651.775H200.304L199.954 653.175V655H202.004ZM199.954 648.775C199.954 652.1 197.854 653.5 195.279 653.5C192.704 653.5 190.804 652.1 190.804 648.775C190.804 645.475 192.704 644.075 195.279 644.075C197.854 644.075 199.954 645.475 199.954 648.775ZM205.013 648.625C205.013 652.2 206.888 655.25 211.338 655.25C215.288 655.25 216.788 652.575 217.263 650.65H215.213C214.763 652.55 213.388 653.55 211.338 653.55C208.263 653.55 207.138 651.525 207.013 649.175H216.838V648.375C216.838 644.55 214.538 642.325 211.038 642.325C207.513 642.325 205.013 644.625 205.013 648.625ZM207.013 647.625C207.013 645.625 208.588 644.05 211.038 644.05C213.513 644.05 214.838 645.625 214.838 647.625H207.013ZM220.089 655H222.139V644.1L228.714 644.325V642.575L221.814 642.35C220.639 642.3 220.089 642.875 220.089 644.05V655ZM243.075 640.6C244.075 640.6 244.875 639.85 244.875 638.85C244.875 637.9 244.075 637.125 243.075 637.125C242.05 637.125 241.275 637.9 241.275 638.85C241.275 639.85 242.05 640.6 243.075 640.6ZM238.925 655H247.85V653.25H244.35V643.825C244.35 642.875 243.9 642.225 242.725 642.325L239.85 642.575V644.325L242.425 644.1V653.25H238.925V655ZM256.96 644.075C259.085 644.075 260.11 645.075 260.11 647.675V655H262.135V647.4C262.135 643.95 260.31 642.325 257.51 642.325C254.81 642.325 253.235 643.9 252.735 646.15H252.16L252.485 644.725V642.575H250.435V655H252.485V649.5C252.485 646.15 254.335 644.075 256.96 644.075ZM88.35 662.375H74.075V664.125H80.225V680H82.25V664.125H88.35V662.375ZM86.1658 673.625C86.1658 677.2 88.0408 680.25 92.4908 680.25C96.4408 680.25 97.9408 677.575 98.4158 675.65H96.3658C95.9158 677.55 94.5408 678.55 92.4908 678.55C89.4158 678.55 88.2908 676.525 88.1658 674.175H97.9908V673.375C97.9908 669.55 95.6908 667.325 92.1908 667.325C88.6658 667.325 86.1658 669.625 86.1658 673.625ZM88.1658 672.625C88.1658 670.625 89.7408 669.05 92.1908 669.05C94.6658 669.05 95.9908 670.625 95.9908 672.625H88.1658ZM100.936 676.55C100.936 677.85 101.486 680.25 105.086 680.25C108.086 680.25 109.411 678.475 109.886 676.575H110.486L110.161 677.875V678.55C110.161 679.475 110.686 680 111.636 680H113.836V678.25H112.011V672.95C112.011 669.625 109.936 667.325 106.461 667.325C102.936 667.325 100.986 669.625 100.986 672.2H102.986C102.986 669.85 104.661 669.05 106.461 669.05C108.611 669.05 109.836 670.175 109.961 672.45L105.011 672.925C102.111 673.225 100.936 674.575 100.936 676.55ZM102.986 676.3C102.986 675.075 103.786 674.6 105.361 674.45L109.961 673.975C109.961 676.55 108.161 678.5 105.336 678.5C103.886 678.5 102.986 677.725 102.986 676.3ZM131.482 667.325C128.832 667.325 127.532 668.85 127.032 671.1H126.657C126.382 668.875 125.182 667.325 122.932 667.325C120.282 667.325 118.982 668.85 118.482 671.1H117.907L118.232 669.7V667.575H116.182V680H118.232V674.525C118.232 671.275 119.707 669.075 122.182 669.075C124.207 669.075 124.732 670.25 124.732 672.65V680H126.782V674.525C126.782 671.275 128.257 669.075 130.732 669.075C132.757 669.075 133.282 670.25 133.282 672.65V680H135.332V672.175C135.332 669.4 134.082 667.325 131.482 667.325ZM148.444 676.775C148.444 674.1 145.794 673.55 143.344 672.75C141.344 672.1 140.494 671.725 140.494 670.525C140.494 669.4 141.594 669 142.969 669C144.944 669 145.969 669.825 145.969 671.5H148.019C148.019 669.45 146.844 667.325 142.969 667.325C140.119 667.325 138.444 668.625 138.444 670.6C138.444 672.85 140.344 673.575 142.694 674.325C144.719 674.95 146.394 675.225 146.394 676.85C146.394 678.125 145.494 678.575 143.569 678.575C141.169 678.575 139.919 677.575 139.919 675.425H137.869C137.869 678.375 139.519 680.25 143.544 680.25C147.269 680.25 148.444 678.65 148.444 676.775ZM174.695 667.325C172.045 667.325 170.745 668.85 170.245 671.1H169.87C169.595 668.875 168.395 667.325 166.145 667.325C163.495 667.325 162.195 668.85 161.695 671.1H161.12L161.445 669.7V667.575H159.395V680H161.445V674.525C161.445 671.275 162.92 669.075 165.395 669.075C167.42 669.075 167.945 670.25 167.945 672.65V680H169.995V674.525C169.995 671.275 171.47 669.075 173.945 669.075C175.97 669.075 176.495 670.25 176.495 672.65V680H178.545V672.175C178.545 669.4 177.295 667.325 174.695 667.325ZM185.287 665.6C186.287 665.6 187.087 664.85 187.087 663.85C187.087 662.9 186.287 662.125 185.287 662.125C184.262 662.125 183.487 662.9 183.487 663.85C183.487 664.85 184.262 665.6 185.287 665.6ZM181.137 680H190.062V678.25H186.562V668.825C186.562 667.875 186.112 667.225 184.937 667.325L182.062 667.575V669.325L184.637 669.1V678.25H181.137V680ZM194.927 678.525V669.325H198.802V667.575H194.927V663.75L192.902 664.375V667.575H190.152V669.325H192.902V678.55C192.902 679.7 193.427 680.325 194.602 680.25L199.302 680V678.25L194.927 678.525ZM223.268 680V661.625H221.218V669.4L221.568 670.825H220.968C220.443 668.875 218.768 667.325 215.943 667.325C212.343 667.325 210.018 670.1 210.018 673.775C210.018 677.475 212.343 680.25 215.943 680.25C218.768 680.25 220.443 678.7 220.968 676.775H221.568L221.218 678.175V680H223.268ZM221.218 673.775C221.218 677.1 219.118 678.5 216.543 678.5C213.968 678.5 212.068 677.1 212.068 673.775C212.068 670.475 213.968 669.075 216.543 669.075C219.118 669.075 221.218 670.475 221.218 673.775ZM230.306 665.6C231.306 665.6 232.106 664.85 232.106 663.85C232.106 662.9 231.306 662.125 230.306 662.125C229.281 662.125 228.506 662.9 228.506 663.85C228.506 664.85 229.281 665.6 230.306 665.6ZM226.156 680H235.081V678.25H231.581V668.825C231.581 667.875 231.131 667.225 229.956 667.325L227.081 667.575V669.325L229.656 669.1V678.25H226.156V680ZM237.667 680H239.717V669.1L246.292 669.325V667.575L239.392 667.35C238.217 667.3 237.667 667.875 237.667 669.05V680ZM247.323 673.625C247.323 677.2 249.198 680.25 253.648 680.25C257.598 680.25 259.098 677.575 259.573 675.65H257.523C257.073 677.55 255.698 678.55 253.648 678.55C250.573 678.55 249.448 676.525 249.323 674.175H259.148V673.375C259.148 669.55 256.848 667.325 253.348 667.325C249.823 667.325 247.323 669.625 247.323 673.625ZM249.323 672.625C249.323 670.625 250.898 669.05 253.348 669.05C255.823 669.05 257.148 670.625 257.148 672.625H249.323ZM271.345 680H273.67L268.87 673.325L271.92 671.65C272.62 671.275 272.995 670.675 272.92 669.85L272.72 667.575H270.67L270.92 670.05L264.595 673.5V661.625H262.545V680H264.595V675.65L267.195 674.225L271.345 680ZM280.035 678.525V669.325H283.91V667.575H280.035V663.75L278.01 664.375V667.575H275.26V669.325H278.01V678.55C278.01 679.7 278.535 680.325 279.71 680.25L284.41 680V678.25L280.035 678.525ZM286.068 673.625C286.068 677.2 287.943 680.25 292.393 680.25C296.343 680.25 297.843 677.575 298.318 675.65H296.268C295.818 677.55 294.443 678.55 292.393 678.55C289.318 678.55 288.193 676.525 288.068 674.175H297.893V673.375C297.893 669.55 295.593 667.325 292.093 667.325C288.568 667.325 286.068 669.625 286.068 673.625ZM288.068 672.625C288.068 670.625 289.643 669.05 292.093 669.05C294.568 669.05 295.893 670.625 295.893 672.625H288.068ZM301.143 680H303.193V669.1L309.768 669.325V667.575L302.868 667.35C301.693 667.3 301.143 667.875 301.143 669.05V680ZM87.275 687.375V695.425H76.875V687.375H74.825V705H76.875V697.175H87.275V705H89.3V687.375H87.275ZM96.2973 690.6C97.2973 690.6 98.0973 689.85 98.0973 688.85C98.0973 687.9 97.2973 687.125 96.2973 687.125C95.2723 687.125 94.4973 687.9 94.4973 688.85C94.4973 689.85 95.2723 690.6 96.2973 690.6ZM92.1473 705H101.072V703.25H97.5723V693.825C97.5723 692.875 97.1223 692.225 95.9473 692.325L93.0723 692.575V694.325L95.6473 694.1V703.25H92.1473V705ZM102.981 705H111.981V703.25H108.506V688.1C108.506 686.925 107.956 686.275 106.806 686.375L103.906 686.625V688.375L106.481 688.15V703.25H102.981V705ZM120.744 688.375H122.994V686.625H120.844C117.869 686.625 116.644 688.2 116.644 690.675V692.575H113.894V694.325H116.644V703.25H113.894V705H122.294V703.25H118.669V694.325H122.294V692.575H118.669V690.725C118.669 689.1 119.169 688.375 120.744 688.375ZM124.398 698.625C124.398 702.2 126.273 705.25 130.723 705.25C134.673 705.25 136.173 702.575 136.648 700.65H134.598C134.148 702.55 132.773 703.55 130.723 703.55C127.648 703.55 126.523 701.525 126.398 699.175H136.223V698.375C136.223 694.55 133.923 692.325 130.423 692.325C126.898 692.325 124.398 694.625 124.398 698.625ZM126.398 697.625C126.398 695.625 127.973 694.05 130.423 694.05C132.898 694.05 134.223 695.625 134.223 697.625H126.398ZM149.298 701.775C149.298 699.1 146.648 698.55 144.198 697.75C142.198 697.1 141.348 696.725 141.348 695.525C141.348 694.4 142.448 694 143.823 694C145.798 694 146.823 694.825 146.823 696.5H148.873C148.873 694.45 147.698 692.325 143.823 692.325C140.973 692.325 139.298 693.625 139.298 695.6C139.298 697.85 141.198 698.575 143.548 699.325C145.573 699.95 147.248 700.225 147.248 701.85C147.248 703.125 146.348 703.575 144.423 703.575C142.023 703.575 140.773 702.575 140.773 700.425H138.723C138.723 703.375 140.373 705.25 144.398 705.25C148.123 705.25 149.298 703.65 149.298 701.775ZM155.425 703.525V694.325H159.3V692.575H155.425V688.75L153.4 689.375V692.575H150.65V694.325H153.4V703.55C153.4 704.7 153.925 705.325 155.1 705.25L159.8 705V703.25L155.425 703.525ZM161.459 698.625C161.459 702.2 163.334 705.25 167.784 705.25C171.734 705.25 173.234 702.575 173.709 700.65H171.659C171.209 702.55 169.834 703.55 167.784 703.55C164.709 703.55 163.584 701.525 163.459 699.175H173.284V698.375C173.284 694.55 170.984 692.325 167.484 692.325C163.959 692.325 161.459 694.625 161.459 698.625ZM163.459 697.625C163.459 695.625 165.034 694.05 167.484 694.05C169.959 694.05 171.284 695.625 171.284 697.625H163.459ZM174.929 705H183.929V703.25H180.454V688.1C180.454 686.925 179.904 686.275 178.754 686.375L175.854 686.625V688.375L178.429 688.15V703.25H174.929V705ZM185.843 705H194.843V703.25H191.368V688.1C191.368 686.925 190.818 686.275 189.668 686.375L186.768 686.625V688.375L189.343 688.15V703.25H185.843V705ZM202.138 703.5C199.988 703.5 198.988 702.5 198.988 699.9V692.575H196.938V700.175C196.938 703.625 198.763 705.25 201.588 705.25C204.288 705.25 205.863 703.675 206.363 701.425H206.938L206.613 702.85V705H208.638V692.575H206.613V698.1C206.613 701.425 204.763 703.5 202.138 703.5ZM218.459 694.075C220.584 694.075 221.609 695.075 221.609 697.675V705H223.634V697.4C223.634 693.95 221.809 692.325 219.009 692.325C216.309 692.325 214.734 693.9 214.234 696.15H213.659L213.984 694.725V692.575H211.934V705H213.984V699.5C213.984 696.15 215.834 694.075 218.459 694.075ZM239.705 692.575C238.58 692.575 238.105 692.7 236.805 693.525C235.63 692.7 234.08 692.325 232.58 692.325C229.005 692.325 226.205 693.925 226.205 697.35C226.205 701.2 229.705 702.5 233.705 701.475V702.05C231.78 702.65 229.805 703.225 227.805 703.775L228.23 705.2C231.305 704.275 236.78 702.95 236.78 705.7C236.78 707.65 234.23 707.825 227.105 707.825V709.575C235.43 709.575 238.83 709.15 238.83 705.85C238.83 703.1 236.03 702.7 233.13 703.175C236.88 701.8 238.98 700.125 238.98 697.45C238.98 696.375 238.655 695.475 238.13 694.825C238.605 694.475 239.055 694.325 239.755 694.325H240.805V692.575H239.705ZM232.605 700.75C230.005 700.75 228.255 699.825 228.255 697.4C228.255 695 230.005 694.075 232.605 694.075C235.23 694.075 236.93 695 236.93 697.4C236.93 699.825 235.23 700.75 232.605 700.75ZM264.26 705V686.625H262.21V694.4L262.56 695.825H261.96C261.435 693.875 259.76 692.325 256.935 692.325C253.335 692.325 251.01 695.1 251.01 698.775C251.01 702.475 253.335 705.25 256.935 705.25C259.76 705.25 261.435 703.7 261.96 701.775H262.56L262.21 703.175V705H264.26ZM262.21 698.775C262.21 702.1 260.11 703.5 257.535 703.5C254.96 703.5 253.06 702.1 253.06 698.775C253.06 695.475 254.96 694.075 257.535 694.075C260.11 694.075 262.21 695.475 262.21 698.775ZM267.269 698.625C267.269 702.2 269.144 705.25 273.594 705.25C277.544 705.25 279.044 702.575 279.519 700.65H277.469C277.019 702.55 275.644 703.55 273.594 703.55C270.519 703.55 269.394 701.525 269.269 699.175H279.094V698.375C279.094 694.55 276.794 692.325 273.294 692.325C269.769 692.325 267.269 694.625 267.269 698.625ZM269.269 697.625C269.269 695.625 270.844 694.05 273.294 694.05C275.769 694.05 277.094 695.625 277.094 697.625H269.269ZM285.311 690.6C286.311 690.6 287.111 689.85 287.111 688.85C287.111 687.9 286.311 687.125 285.311 687.125C284.286 687.125 283.511 687.9 283.511 688.85C283.511 689.85 284.286 690.6 285.311 690.6ZM281.161 705H290.086V703.25H286.586V693.825C286.586 692.875 286.136 692.225 284.961 692.325L282.086 692.575V694.325L284.661 694.1V703.25H281.161V705ZM299.197 694.075C301.322 694.075 302.347 695.075 302.347 697.675V705H304.372V697.4C304.372 693.95 302.547 692.325 299.747 692.325C297.047 692.325 295.472 693.9 294.972 696.15H294.397L294.722 694.725V692.575H292.672V705H294.722V699.5C294.722 696.15 296.572 694.075 299.197 694.075ZM307.186 698.625C307.186 702.2 309.061 705.25 313.511 705.25C317.461 705.25 318.961 702.575 319.436 700.65H317.386C316.936 702.55 315.561 703.55 313.511 703.55C310.436 703.55 309.311 701.525 309.186 699.175H319.011V698.375C319.011 694.55 316.711 692.325 313.211 692.325C309.686 692.325 307.186 694.625 307.186 698.625ZM309.186 697.625C309.186 695.625 310.761 694.05 313.211 694.05C315.686 694.05 317.011 695.625 317.011 697.625H309.186ZM322.262 705H324.312V694.1L330.887 694.325V692.575L323.987 692.35C322.812 692.3 322.262 692.875 322.262 694.05V705ZM88.35 712.375H74.075V714.125H80.225V730H82.25V714.125H88.35V712.375ZM88.033 730H90.083V719.1L96.658 719.325V717.575L89.758 717.35C88.583 717.3 88.033 717.875 88.033 719.05V730ZM98.4949 726.55C98.4949 727.85 99.0449 730.25 102.645 730.25C105.645 730.25 106.97 728.475 107.445 726.575H108.045L107.72 727.875V728.55C107.72 729.475 108.245 730 109.195 730H111.395V728.25H109.57V722.95C109.57 719.625 107.495 717.325 104.02 717.325C100.495 717.325 98.5449 719.625 98.5449 722.2H100.545C100.545 719.85 102.22 719.05 104.02 719.05C106.17 719.05 107.395 720.175 107.52 722.45L102.57 722.925C99.6699 723.225 98.4949 724.575 98.4949 726.55ZM100.545 726.3C100.545 725.075 101.345 724.6 102.92 724.45L107.52 723.975C107.52 726.55 105.72 728.5 102.895 728.5C101.445 728.5 100.545 727.725 100.545 726.3ZM117.44 715.6C118.44 715.6 119.24 714.85 119.24 713.85C119.24 712.9 118.44 712.125 117.44 712.125C116.415 712.125 115.64 712.9 115.64 713.85C115.64 714.85 116.415 715.6 117.44 715.6ZM113.29 730H122.215V728.25H118.715V718.825C118.715 717.875 118.265 717.225 117.09 717.325L114.215 717.575V719.325L116.79 719.1V728.25H113.29V730ZM131.326 719.075C133.451 719.075 134.476 720.075 134.476 722.675V730H136.501V722.4C136.501 718.95 134.676 717.325 131.876 717.325C129.176 717.325 127.601 718.9 127.101 721.15H126.526L126.851 719.725V717.575H124.801V730H126.851V724.5C126.851 721.15 128.701 719.075 131.326 719.075ZM139.315 723.625C139.315 727.2 141.19 730.25 145.64 730.25C149.59 730.25 151.09 727.575 151.565 725.65H149.515C149.065 727.55 147.69 728.55 145.64 728.55C142.565 728.55 141.44 726.525 141.315 724.175H151.14V723.375C151.14 719.55 148.84 717.325 145.34 717.325C141.815 717.325 139.315 719.625 139.315 723.625ZM141.315 722.625C141.315 720.625 142.89 719.05 145.34 719.05C147.815 719.05 149.14 720.625 149.14 722.625H141.315ZM154.39 730H156.44V719.1L163.015 719.325V717.575L156.115 717.35C154.94 717.3 154.39 717.875 154.39 719.05V730ZM165.176 715.65L168.101 716.6L169.151 716.65L168.276 717.275L166.476 719.75L167.751 720.675L169.551 718.2L169.926 717.2L170.276 718.225L172.076 720.675L173.351 719.75L171.576 717.275L170.726 716.675L171.801 716.625L174.701 715.675L174.226 714.175L171.301 715.1L170.426 715.75L170.751 714.675V711.625H169.176V714.675L169.476 715.725L168.576 715.075L165.676 714.125L165.176 715.65ZM181.746 715.6C182.746 715.6 183.546 714.85 183.546 713.85C183.546 712.9 182.746 712.125 181.746 712.125C180.721 712.125 179.946 712.9 179.946 713.85C179.946 714.85 180.721 715.6 181.746 715.6ZM177.596 730H186.521V728.25H183.021V718.825C183.021 717.875 182.571 717.225 181.396 717.325L178.521 717.575V719.325L181.096 719.1V728.25H177.596V730ZM195.632 719.075C197.757 719.075 198.782 720.075 198.782 722.675V730H200.807V722.4C200.807 718.95 198.982 717.325 196.182 717.325C193.482 717.325 191.907 718.9 191.407 721.15H190.832L191.157 719.725V717.575H189.107V730H191.157V724.5C191.157 721.15 193.007 719.075 195.632 719.075ZM210.696 719.075C212.821 719.075 213.846 720.075 213.846 722.675V730H215.871V722.4C215.871 718.95 214.046 717.325 211.246 717.325C208.546 717.325 206.971 718.9 206.471 721.15H205.896L206.221 719.725V717.575H204.171V730H206.221V724.5C206.221 721.15 208.071 719.075 210.696 719.075ZM218.685 723.625C218.685 727.2 220.56 730.25 225.01 730.25C228.96 730.25 230.46 727.575 230.935 725.65H228.885C228.435 727.55 227.06 728.55 225.01 728.55C221.935 728.55 220.81 726.525 220.685 724.175H230.51V723.375C230.51 719.55 228.21 717.325 224.71 717.325C221.185 717.325 218.685 719.625 218.685 723.625ZM220.685 722.625C220.685 720.625 222.26 719.05 224.71 719.05C227.185 719.05 228.51 720.625 228.51 722.625H220.685ZM240.286 719.075C242.411 719.075 243.436 720.075 243.436 722.675V730H245.461V722.4C245.461 718.95 243.636 717.325 240.836 717.325C238.136 717.325 236.561 718.9 236.061 721.15H235.486L235.811 719.725V717.575H233.761V730H235.811V724.5C235.811 721.15 237.661 719.075 240.286 719.075ZM251.173 730.25C252.323 730.25 253.248 729.35 253.248 728.15C253.248 727 252.323 726.1 251.173 726.1C249.998 726.1 249.098 727 249.098 728.15C249.098 729.35 249.998 730.25 251.173 730.25Z" fill="white"/>
<path d="M45.425 795.325V792.325L32.7 787.375L31.75 790.225L41.925 793.825L31.75 797.15L32.7 800L45.425 795.325Z" fill="white"/>
<path d="M74 790.45H78C78 787.075 79.35 785.625 82.375 785.625C84.65 785.625 85.4 786.75 85.4 787.875C85.4 791.775 76.05 792.75 74.25 793V800H89.4V796.5H77.75L75.25 797.25V796.25C83.5 794.725 89.4 793.975 89.4 788.05C89.4 784.2 86.5 782.125 82.325 782.125C77.7 782.125 74 784.525 74 790.45ZM91.1572 789.375L92.5572 793C97.9822 791.325 98.8572 787.925 99.1572 783.375H100.157L99.4072 785.625V800H103.407V782.375H95.6322C95.6322 786.4 94.4072 788.1 91.1572 789.375ZM109.384 792.625C111.034 792.625 112.159 791.425 112.159 789.85C112.159 788.325 111.034 787.125 109.384 787.125C107.684 787.125 106.659 788.325 106.659 789.85C106.659 791.425 107.684 792.625 109.384 792.625ZM109.384 800.25C111.034 800.25 112.159 799.05 112.159 797.475C112.159 795.95 111.034 794.75 109.384 794.75C107.684 794.75 106.659 795.95 106.659 797.475C106.659 799.05 107.684 800.25 109.384 800.25ZM123.418 782.125C118.068 782.125 114.918 785.8 114.918 791.175C114.918 796.575 118.068 800.25 123.418 800.25C128.743 800.25 131.893 796.575 131.893 791.175C131.893 785.8 128.743 782.125 123.418 782.125ZM123.418 785.625C124.393 785.625 125.243 785.85 125.918 786.3L119.193 793.475C119.018 792.8 118.918 792.05 118.918 791.175C118.918 787.55 120.593 785.625 123.418 785.625ZM123.418 796.75C122.443 796.75 121.593 796.525 120.893 796.05L127.618 788.875C127.793 789.55 127.893 790.325 127.893 791.175C127.893 794.825 126.243 796.75 123.418 796.75ZM142.388 782.125C137.038 782.125 133.888 785.8 133.888 791.175C133.888 796.575 137.038 800.25 142.388 800.25C147.713 800.25 150.863 796.575 150.863 791.175C150.863 785.8 147.713 782.125 142.388 782.125ZM142.388 785.625C143.363 785.625 144.213 785.85 144.888 786.3L138.163 793.475C137.988 792.8 137.888 792.05 137.888 791.175C137.888 787.55 139.563 785.625 142.388 785.625ZM142.388 796.75C141.413 796.75 140.563 796.525 139.863 796.05L146.588 788.875C146.763 789.55 146.863 790.325 146.863 791.175C146.863 794.825 145.213 796.75 142.388 796.75ZM160.364 800H164.364V794.5L172.364 794V790.45L164.364 790.95V785.875H172.939V782.375H160.364V800ZM173.927 793.525C173.927 797.1 176.152 800.25 181.002 800.25C185.377 800.25 187.452 797.375 187.702 795.55H183.702C183.452 796.5 182.402 797 181.002 797C178.727 797 177.677 795.975 177.677 794.525H187.252V793.275C187.252 789.45 184.502 787.125 180.577 787.125C176.652 787.125 173.927 789.525 173.927 793.525ZM177.677 792.275C177.677 791.325 178.352 790.375 180.577 790.375C182.802 790.375 183.502 791.325 183.502 792.275H177.677ZM193.872 786.125C195.347 786.125 196.272 785.425 196.272 784.125C196.272 782.85 195.347 782.125 193.872 782.125C192.397 782.125 191.522 782.85 191.522 784.125C191.522 785.425 192.397 786.125 193.872 786.125ZM188.697 800H199.697V796.5H196.122V789.225C196.122 787.825 195.347 787.05 193.947 787.125L189.197 787.375V790.875L192.272 790.725V796.5H188.697V800ZM200.44 793.525C200.44 797.1 202.665 800.25 207.515 800.25C211.89 800.25 213.965 797.375 214.215 795.55H210.215C209.965 796.5 208.915 797 207.515 797C205.24 797 204.19 795.975 204.19 794.525H213.765V793.275C213.765 789.45 211.015 787.125 207.09 787.125C203.165 787.125 200.44 789.525 200.44 793.525ZM204.19 792.275C204.19 791.325 204.865 790.375 207.09 790.375C209.315 790.375 210.015 791.325 210.015 792.275H204.19ZM215.955 800H219.955V790.725L226.38 790.875V787.375L218.105 787.175C216.73 787.15 215.955 787.9 215.955 789.275V800ZM227.149 796.55C227.149 797.85 227.824 800.25 231.749 800.25C235.274 800.25 236.499 798.475 236.974 796.375H237.974L237.349 797.875V798.125C237.349 799.325 238.024 800 239.224 800H241.999V796.5H240.174V792.95C240.174 788.8 237.124 787.125 233.649 787.125C230.124 787.125 227.399 789 227.399 792.2H231.149C231.149 791.05 232.049 790.375 233.649 790.375C235.374 790.375 236.174 791 236.174 792.025L232.199 792.575C228.449 793.1 227.149 794.375 227.149 796.55ZM231.149 795.8C231.149 795.075 231.749 794.9 232.949 794.725L236.174 794.275C236.174 795.825 234.724 796.75 232.524 796.75C231.849 796.75 231.149 796.525 231.149 795.8ZM243.494 800H247.494V799.225L246.744 796.975H247.744C248.394 798.65 249.594 800.25 252.719 800.25C256.369 800.25 258.194 797.25 258.194 793.675C258.194 790.1 256.369 787.125 252.719 787.125C249.594 787.125 248.394 788.725 247.744 790.4H246.744L247.494 788.15V781.625H243.494V800ZM247.494 793.675C247.494 791.55 248.694 790.625 250.844 790.625C252.994 790.625 254.194 791.55 254.194 793.675C254.194 795.8 252.994 796.75 250.844 796.75C248.694 796.75 247.494 795.8 247.494 793.675ZM259.449 793.525C259.449 797.1 261.674 800.25 266.524 800.25C270.899 800.25 272.974 797.375 273.224 795.55H269.224C268.974 796.5 267.924 797 266.524 797C264.249 797 263.199 795.975 263.199 794.525H272.774V793.275C272.774 789.45 270.024 787.125 266.099 787.125C262.174 787.125 259.449 789.525 259.449 793.525ZM263.199 792.275C263.199 791.325 263.874 790.375 266.099 790.375C268.324 790.375 269.024 791.325 269.024 792.275H263.199ZM282.564 790.625C284.489 790.625 285.164 791.5 285.164 793.8V800H289.164V793.175C289.164 789.275 287.214 787.125 283.989 787.125C281.289 787.125 279.714 788.9 279.214 791.15H278.214L278.964 788.9V787.375H274.964V800H278.964V795.325C278.964 791.775 280.389 790.625 282.564 790.625ZM305.35 800V781.625H301.35V788.15L302.1 790.4H301.1C300.45 788.725 299.25 787.125 296.125 787.125C292.475 787.125 290.65 790.1 290.65 793.675C290.65 797.25 292.475 800.25 296.125 800.25C299.25 800.25 300.45 798.65 301.1 796.975H302.1L301.35 799.225V800H305.35ZM301.35 793.675C301.35 795.8 300.15 796.75 298 796.75C295.85 796.75 294.65 795.8 294.65 793.675C294.65 791.55 295.85 790.625 298 790.625C300.15 790.625 301.35 791.55 301.35 793.675Z" fill="white"/>
<circle cx="329" cy="35" r="8.5" stroke="#3DD7AC" stroke-width="3"/>
<circle cx="299" cy="35" r="8.5" stroke="#3DD7AC" stroke-width="3"/>
<circle cx="269" cy="35" r="8.5" stroke="#3DD7AC" stroke-width="3"/>
</svg>
