<svg width="810" height="620" viewBox="0 0 810 620" fill="none" xmlns="http://www.w3.org/2000/svg">
<rect x="2.5" y="2.5" width="805" height="615" fill="#070021" stroke="#5D3EDE" stroke-width="5"/>
<rect x="2.5" y="2.5" width="805" height="71" stroke="#5D3EDE" stroke-width="5"/>
<path d="M46.275 26.375H30.75V29.875H36.525V44H40.525V29.875H46.275V26.375ZM44.0127 40.55C44.0127 41.85 44.6877 44.25 48.6127 44.25C52.1377 44.25 53.3627 42.475 53.8377 40.375H54.8377L54.2127 41.875V42.125C54.2127 43.325 54.8877 44 56.0877 44H58.8627V40.5H57.0377V36.95C57.0377 32.8 53.9877 31.125 50.5127 31.125C46.9877 31.125 44.2627 33 44.2627 36.2H48.0127C48.0127 35.05 48.9127 34.375 50.5127 34.375C52.2377 34.375 53.0377 35 53.0377 36.025L49.0627 36.575C45.3127 37.1 44.0127 38.375 44.0127 40.55ZM48.0127 39.8C48.0127 39.075 48.6127 38.9 49.8127 38.725L53.0377 38.275C53.0377 39.825 51.5877 40.75 49.3877 40.75C48.7127 40.75 48.0127 40.525 48.0127 39.8ZM73.6438 31.375C72.5188 31.375 71.2188 31.5 70.4688 32.475C69.1438 31.5 67.3938 31.125 65.4688 31.125C61.4938 31.125 58.3438 32.725 58.3438 36.05C58.3438 40.2 63.2188 40.875 67.8438 39.225V40.225C65.5438 40.775 62.9438 41.075 60.0688 41.375L60.4938 43.625C64.3688 42.975 68.8938 42.15 68.8938 44C68.8938 45.375 67.3438 45.5 59.1688 45.5V49C68.5438 49 72.9188 48.575 72.9188 44.85C72.9188 42.175 70.2438 41.425 67.3688 41.6C70.8438 40.425 73.0688 38.925 73.0688 36.55C73.0688 35.875 72.8688 35.3 72.7188 35.1C73.0688 34.875 73.5188 34.875 73.8938 34.875H74.7438V31.375H73.6438ZM65.7188 37.975C63.3188 37.975 62.3438 37.375 62.3438 36.3C62.3438 35.25 63.3188 34.625 65.7188 34.625C68.1188 34.625 69.0688 35.25 69.0688 36.3C69.0688 37.375 68.1188 37.975 65.7188 37.975ZM75.5068 37.525C75.5068 41.1 77.7318 44.25 82.5818 44.25C86.9568 44.25 89.0318 41.375 89.2818 39.55H85.2818C85.0318 40.5 83.9818 41 82.5818 41C80.3068 41 79.2568 39.975 79.2568 38.525H88.8318V37.275C88.8318 33.45 86.0818 31.125 82.1568 31.125C78.2318 31.125 75.5068 33.525 75.5068 37.525ZM79.2568 36.275C79.2568 35.325 79.9318 34.375 82.1568 34.375C84.3818 34.375 85.0818 35.325 85.0818 36.275H79.2568ZM102.796 40.525C102.796 37.9 100.546 37.275 98.0965 36.475C96.0965 35.825 94.8465 35.45 94.8465 34.85C94.8465 34.35 95.3715 34.125 96.3215 34.125C97.6965 34.125 98.3715 34.8 98.3715 35.7H102.371C102.371 33.25 100.621 31.125 96.3465 31.125C92.8715 31.125 90.8465 32.425 90.8465 34.675C90.8465 37.5 93.7215 38.125 96.0715 38.9C98.0965 39.575 98.7965 39.75 98.7965 40.4C98.7965 41 98.1215 41.25 97.0465 41.25C94.9465 41.25 94.2715 40.4 94.2715 39.425H90.2715C90.2715 42.375 92.2715 44.25 96.9215 44.25C101.271 44.25 102.796 42.65 102.796 40.525ZM104.047 40.55C104.047 41.85 104.722 44.25 108.647 44.25C112.172 44.25 113.397 42.475 113.872 40.375H114.872L114.247 41.875V42.125C114.247 43.325 114.922 44 116.122 44H118.897V40.5H117.072V36.95C117.072 32.8 114.022 31.125 110.547 31.125C107.022 31.125 104.297 33 104.297 36.2H108.047C108.047 35.05 108.947 34.375 110.547 34.375C112.272 34.375 113.072 35 113.072 36.025L109.097 36.575C105.347 37.1 104.047 38.375 104.047 40.55ZM108.047 39.8C108.047 39.075 108.647 38.9 109.847 38.725L113.072 38.275C113.072 39.825 111.622 40.75 109.422 40.75C108.747 40.75 108.047 40.525 108.047 39.8ZM120.392 44H124.392V43.225L123.642 40.975H124.642C125.292 42.65 126.492 44.25 129.617 44.25C133.267 44.25 135.092 41.25 135.092 37.675C135.092 34.1 133.267 31.125 129.617 31.125C126.492 31.125 125.292 32.725 124.642 34.4H123.642L124.392 32.15V25.625H120.392V44ZM124.392 37.675C124.392 35.55 125.592 34.625 127.742 34.625C129.892 34.625 131.092 35.55 131.092 37.675C131.092 39.8 129.892 40.75 127.742 40.75C125.592 40.75 124.392 39.8 124.392 37.675ZM136.097 44H147.097V40.5H143.597V27.55C143.597 26.15 142.822 25.4 141.422 25.45L136.597 25.625V29.125L139.597 28.975V40.5H136.097V44ZM148.358 40.55C148.358 41.85 149.033 44.25 152.958 44.25C156.483 44.25 157.708 42.475 158.183 40.375H159.183L158.558 41.875V42.125C158.558 43.325 159.233 44 160.433 44H163.208V40.5H161.383V36.95C161.383 32.8 158.333 31.125 154.858 31.125C151.333 31.125 148.608 33 148.608 36.2H152.358C152.358 35.05 153.258 34.375 154.858 34.375C156.583 34.375 157.383 35 157.383 36.025L153.408 36.575C149.658 37.1 148.358 38.375 148.358 40.55ZM152.358 39.8C152.358 39.075 152.958 38.9 154.158 38.725L157.383 38.275C157.383 39.825 155.933 40.75 153.733 40.75C153.058 40.75 152.358 40.525 152.358 39.8ZM171.053 40.75C169.128 40.75 168.453 39.875 168.453 37.575V31.375H164.453V38.2C164.453 42.1 166.403 44.25 169.628 44.25C172.328 44.25 173.903 42.475 174.403 40.225H175.403L174.653 42.475V44H178.653V31.375H174.653V36.05C174.653 39.6 173.228 40.75 171.053 40.75ZM188.508 29.125H191.158V25.625H189.008C184.783 25.625 182.808 27.525 182.808 30.925V31.375H180.408V34.875H182.808V40.5H180.408V44H190.458V40.5H186.808V34.875H190.458V31.375H186.808V31.05C186.808 29.65 187.333 29.125 188.508 29.125Z" fill="white"/>
<path d="M218.5 37.275C218.5 42.15 221.225 44.25 225.75 44.25C229.975 44.25 232.35 42.275 232.35 39.125C232.35 36.425 230.95 35.45 228.7 35V34.425C230.95 34.075 232.1 32.95 232.1 30.8C232.1 28.1 229.975 26.125 225.75 26.125C221.225 26.125 218.75 28.225 218.75 32.15H220.8C220.8 29.275 222.2 27.875 225.75 27.875C228.95 27.875 230.05 29.175 230.05 31.075C230.05 32.975 229.025 33.85 226.9 33.85H224.45V35.6H226.9C229.025 35.6 230.3 36.5 230.3 38.825C230.3 41.2 228.95 42.5 225.75 42.5C222.2 42.5 220.55 41.1 220.55 37.275H218.5ZM234.994 44H237.419L241.194 38.975L244.969 44H247.394L242.719 38.075V37.475L247.394 31.575H244.969L241.194 36.575L237.419 31.575H234.994L239.669 37.475V38.075L234.994 44ZM258.096 40.55C258.096 41.85 258.646 44.25 262.246 44.25C265.246 44.25 266.571 42.475 267.046 40.575H267.646L267.321 41.875V42.55C267.321 43.475 267.846 44 268.796 44H270.996V42.25H269.171V36.95C269.171 33.625 267.096 31.325 263.621 31.325C260.096 31.325 258.146 33.625 258.146 36.2H260.146C260.146 33.85 261.821 33.05 263.621 33.05C265.771 33.05 266.996 34.175 267.121 36.45L262.171 36.925C259.271 37.225 258.096 38.575 258.096 40.55ZM260.146 40.3C260.146 39.075 260.946 38.6 262.521 38.45L267.121 37.975C267.121 40.55 265.321 42.5 262.496 42.5C261.046 42.5 260.146 41.725 260.146 40.3ZM273.342 44H275.392V42.175L275.067 40.775H275.642C276.167 42.7 277.842 44.25 280.692 44.25C284.292 44.25 286.592 41.475 286.592 37.775C286.592 34.1 284.292 31.325 280.692 31.325C277.842 31.325 276.167 32.875 275.642 34.825H275.067L275.392 33.4V25.625H273.342V44ZM275.392 37.775C275.392 34.475 277.517 33.075 280.067 33.075C282.642 33.075 284.542 34.475 284.542 37.775C284.542 41.1 282.642 42.5 280.067 42.5C277.517 42.5 275.392 41.1 275.392 37.775ZM288.93 37.625C288.93 41.2 290.805 44.25 295.255 44.25C299.205 44.25 300.705 41.575 301.18 39.65H299.13C298.68 41.55 297.305 42.55 295.255 42.55C292.18 42.55 291.055 40.525 290.93 38.175H300.755V37.375C300.755 33.55 298.455 31.325 294.955 31.325C291.43 31.325 288.93 33.625 288.93 37.625ZM290.93 36.625C290.93 34.625 292.505 33.05 294.955 33.05C297.43 33.05 298.755 34.625 298.755 36.625H290.93ZM310.531 33.075C312.656 33.075 313.681 34.075 313.681 36.675V44H315.706V36.4C315.706 32.95 313.881 31.325 311.081 31.325C308.381 31.325 306.806 32.9 306.306 35.15H305.731L306.056 33.725V31.575H304.006V44H306.056V38.5C306.056 35.15 307.906 33.075 310.531 33.075ZM331.77 44V25.625H329.72V33.4L330.07 34.825H329.47C328.945 32.875 327.27 31.325 324.445 31.325C320.845 31.325 318.52 34.1 318.52 37.775C318.52 41.475 320.845 44.25 324.445 44.25C327.27 44.25 328.945 42.7 329.47 40.775H330.07L329.72 42.175V44H331.77ZM329.72 37.775C329.72 41.1 327.62 42.5 325.045 42.5C322.47 42.5 320.57 41.1 320.57 37.775C320.57 34.475 322.47 33.075 325.045 33.075C327.62 33.075 329.72 34.475 329.72 37.775ZM345.203 40.775C345.203 38.1 342.553 37.55 340.103 36.75C338.103 36.1 337.253 35.725 337.253 34.525C337.253 33.4 338.353 33 339.728 33C341.703 33 342.728 33.825 342.728 35.5H344.778C344.778 33.45 343.603 31.325 339.728 31.325C336.878 31.325 335.203 32.625 335.203 34.6C335.203 36.85 337.103 37.575 339.453 38.325C341.478 38.95 343.153 39.225 343.153 40.85C343.153 42.125 342.253 42.575 340.328 42.575C337.928 42.575 336.678 41.575 336.678 39.425H334.628C334.628 42.375 336.278 44.25 340.303 44.25C344.028 44.25 345.203 42.65 345.203 40.775Z" fill="white"/>
<path d="M45.425 140.325V137.325L32.7 132.375L31.75 135.225L41.925 138.825L31.75 142.15L32.7 145L45.425 140.325Z" fill="white"/>
<path d="M73.75 134.375L75.15 138C80.575 136.325 81.45 132.925 81.75 128.375H82.75L82 130.625V145H86V127.375H78.225C78.225 131.4 77 133.1 73.75 134.375ZM88.002 140.05C88.002 143.775 91.277 145.25 96.127 145.25C100.952 145.25 104.227 143.775 104.227 140.05C104.227 137.225 101.727 136.1 99.052 135.8V134.8C101.027 134.625 103.227 133.875 103.227 131.2C103.227 128 99.577 127.125 96.127 127.125C92.652 127.125 89.002 128 89.002 131.2C89.002 133.875 91.202 134.625 93.177 134.8V135.8C90.502 136.1 88.002 136.975 88.002 140.05ZM93.002 132.1C93.002 131.05 93.977 130.625 96.127 130.625C98.252 130.625 99.227 131.05 99.227 132.1C99.227 133.175 98.252 133.575 96.127 133.575C93.977 133.575 93.002 133.175 93.002 132.1ZM92.002 139.425C92.002 137.875 93.227 137.075 96.127 137.075C99.002 137.075 100.227 137.875 100.227 139.425C100.227 141 99.002 141.75 96.127 141.75C93.227 141.75 92.002 141 92.002 139.425ZM109.213 137.625C110.863 137.625 111.988 136.425 111.988 134.85C111.988 133.325 110.863 132.125 109.213 132.125C107.513 132.125 106.488 133.325 106.488 134.85C106.488 136.425 107.513 137.625 109.213 137.625ZM109.213 145.25C110.863 145.25 111.988 144.05 111.988 142.475C111.988 140.95 110.863 139.75 109.213 139.75C107.513 139.75 106.488 140.95 106.488 142.475C106.488 144.05 107.513 145.25 109.213 145.25ZM123.247 127.125C117.897 127.125 114.747 130.8 114.747 136.175C114.747 141.575 117.897 145.25 123.247 145.25C128.572 145.25 131.722 141.575 131.722 136.175C131.722 130.8 128.572 127.125 123.247 127.125ZM123.247 130.625C124.222 130.625 125.072 130.85 125.747 131.3L119.022 138.475C118.847 137.8 118.747 137.05 118.747 136.175C118.747 132.55 120.422 130.625 123.247 130.625ZM123.247 141.75C122.272 141.75 121.422 141.525 120.722 141.05L127.447 133.875C127.622 134.55 127.722 135.325 127.722 136.175C127.722 139.825 126.072 141.75 123.247 141.75ZM142.217 127.125C136.867 127.125 133.717 130.8 133.717 136.175C133.717 141.575 136.867 145.25 142.217 145.25C147.542 145.25 150.692 141.575 150.692 136.175C150.692 130.8 147.542 127.125 142.217 127.125ZM142.217 130.625C143.192 130.625 144.042 130.85 144.717 131.3L137.992 138.475C137.817 137.8 137.717 137.05 137.717 136.175C137.717 132.55 139.392 130.625 142.217 130.625ZM142.217 141.75C141.242 141.75 140.392 141.525 139.692 141.05L146.417 133.875C146.592 134.55 146.692 135.325 146.692 136.175C146.692 139.825 145.042 141.75 142.217 141.75ZM160.193 145H164.193V138.8H171.093V145H175.093V139.375C175.093 138 174.343 137.25 172.968 137.25H170.393V136.25C172.518 136 174.868 135.2 174.868 132.3C174.868 128.35 171.218 127.375 167.018 127.375H160.193V145ZM164.193 135.3V130.875H167.018C169.393 130.875 170.868 130.875 170.868 133.1C170.868 135.3 169.393 135.3 167.018 135.3H164.193ZM176.588 138.525C176.588 142.1 178.813 145.25 183.663 145.25C188.038 145.25 190.113 142.375 190.363 140.55H186.363C186.113 141.5 185.063 142 183.663 142C181.388 142 180.338 140.975 180.338 139.525H189.913V138.275C189.913 134.45 187.163 132.125 183.238 132.125C179.313 132.125 176.588 134.525 176.588 138.525ZM180.338 137.275C180.338 136.325 181.013 135.375 183.238 135.375C185.463 135.375 186.163 136.325 186.163 137.275H180.338ZM191.603 138.675C191.603 142.9 194.478 145.25 198.503 145.25C201.953 145.25 205.103 143.375 205.278 139.775H201.278C201.128 140.9 200.103 141.75 198.503 141.75C196.603 141.75 195.603 140.625 195.603 138.675C195.603 136.75 196.603 135.625 198.503 135.625C200.103 135.625 201.128 136.475 201.278 137.6H205.278C205.103 134 201.953 132.125 198.503 132.125C194.478 132.125 191.603 134.475 191.603 138.675ZM206.52 141.55C206.52 142.85 207.195 145.25 211.12 145.25C214.645 145.25 215.87 143.475 216.345 141.375H217.345L216.72 142.875V143.125C216.72 144.325 217.395 145 218.595 145H221.37V141.5H219.545V137.95C219.545 133.8 216.495 132.125 213.02 132.125C209.495 132.125 206.77 134 206.77 137.2H210.52C210.52 136.05 211.42 135.375 213.02 135.375C214.745 135.375 215.545 136 215.545 137.025L211.57 137.575C207.82 138.1 206.52 139.375 206.52 141.55ZM210.52 140.8C210.52 140.075 211.12 139.9 212.32 139.725L215.545 139.275C215.545 140.825 214.095 141.75 211.895 141.75C211.22 141.75 210.52 141.525 210.52 140.8ZM222.864 132.375V149.75H226.864V144.225L226.114 141.975H227.114C227.764 143.65 228.964 145.25 232.089 145.25C235.739 145.25 237.564 142.275 237.564 138.7C237.564 135.125 235.739 132.125 232.089 132.125C228.964 132.125 227.764 133.725 227.114 135.4H226.114L226.864 133.15V132.375H222.864ZM226.864 138.7C226.864 136.55 228.064 135.625 230.214 135.625C232.364 135.625 233.564 136.55 233.564 138.7C233.564 140.85 232.364 141.75 230.214 141.75C228.064 141.75 226.864 140.85 226.864 138.7Z" fill="white"/>
<path d="M88.925 163.375H85.975L76.875 170.875V163.375H74.825V181H76.875V173.5L85.975 181H88.925L78.175 172.175L88.925 163.375ZM95.3756 179.5C93.2256 179.5 92.2256 178.5 92.2256 175.9V168.575H90.1756V176.175C90.1756 179.625 92.0006 181.25 94.8256 181.25C97.5256 181.25 99.1006 179.675 99.6006 177.425H100.176L99.8506 178.85V181H101.876V168.575H99.8506V174.1C99.8506 177.425 98.0006 179.5 95.3756 179.5ZM105.172 181H107.222V170.1L113.797 170.325V168.575L106.897 168.35C105.722 168.3 105.172 168.875 105.172 170.05V181ZM115.707 181H127.107V179.25H117.707L116.307 179.575V179L127.107 172.325V168.575H115.707V170.325H125.107L126.507 170V170.575L115.707 177.25V181ZM129.452 174.625C129.452 178.2 131.327 181.25 135.777 181.25C139.727 181.25 141.227 178.575 141.702 176.65H139.652C139.202 178.55 137.827 179.55 135.777 179.55C132.702 179.55 131.577 177.525 131.452 175.175H141.277V174.375C141.277 170.55 138.977 168.325 135.477 168.325C131.952 168.325 129.452 170.625 129.452 174.625ZM131.452 173.625C131.452 171.625 133.027 170.05 135.477 170.05C137.952 170.05 139.277 171.625 139.277 173.625H131.452ZM152.895 172.175C152.895 177.375 155.445 181.25 160.62 181.25C165.17 181.25 167.545 178.325 167.57 172.175H168.145L167.82 174.425V181H169.87V172.975C169.87 172.05 169.395 171.6 168.37 171.6H159.67V173.25H165.695C165.77 177.475 164.12 179.5 160.645 179.5C156.52 179.5 154.945 176.5 154.945 172.175C154.945 167.875 157.095 164.875 161.22 164.875C164.695 164.875 166.17 166.775 166.57 169.675H168.62C168.095 165.825 165.645 163.125 161.22 163.125C156.12 163.125 152.895 167 152.895 172.175ZM173.165 181H175.215V170.1L181.79 170.325V168.575L174.89 168.35C173.715 168.3 173.165 168.875 173.165 170.05V181ZM189.15 179.5C187 179.5 186 178.5 186 175.9V168.575H183.95V176.175C183.95 179.625 185.775 181.25 188.6 181.25C191.3 181.25 192.875 179.675 193.375 177.425H193.95L193.625 178.85V181H195.65V168.575H193.625V174.1C193.625 177.425 191.775 179.5 189.15 179.5ZM198.946 168.575V185.55H200.996V179.175L200.671 177.775H201.246C201.771 179.7 203.421 181.25 206.271 181.25C209.871 181.25 212.196 178.475 212.196 174.8C212.196 171.1 209.871 168.325 206.271 168.325C203.421 168.325 201.771 169.875 201.246 171.825H200.671L200.996 170.4V168.575H198.946ZM200.996 174.8C200.996 171.475 203.121 170.075 205.671 170.075C208.246 170.075 210.146 171.525 210.146 174.8C210.146 178.05 208.246 179.5 205.671 179.5C203.121 179.5 200.996 178.1 200.996 174.8ZM215.181 168.575V185.55H217.231V179.175L216.906 177.775H217.481C218.006 179.7 219.656 181.25 222.506 181.25C226.106 181.25 228.431 178.475 228.431 174.8C228.431 171.1 226.106 168.325 222.506 168.325C219.656 168.325 218.006 169.875 217.481 171.825H216.906L217.231 170.4V168.575H215.181ZM217.231 174.8C217.231 171.475 219.356 170.075 221.906 170.075C224.481 170.075 226.381 171.525 226.381 174.8C226.381 178.05 224.481 179.5 221.906 179.5C219.356 179.5 217.231 178.1 217.231 174.8ZM230.77 174.625C230.77 178.2 232.645 181.25 237.095 181.25C241.045 181.25 242.545 178.575 243.02 176.65H240.97C240.52 178.55 239.145 179.55 237.095 179.55C234.02 179.55 232.895 177.525 232.77 175.175H242.595V174.375C242.595 170.55 240.295 168.325 236.795 168.325C233.27 168.325 230.77 170.625 230.77 174.625ZM232.77 173.625C232.77 171.625 234.345 170.05 236.795 170.05C239.27 170.05 240.595 171.625 240.595 173.625H232.77ZM252.371 170.075C254.496 170.075 255.521 171.075 255.521 173.675V181H257.546V173.4C257.546 169.95 255.721 168.325 252.921 168.325C250.221 168.325 248.646 169.9 248.146 172.15H247.571L247.896 170.725V168.575H245.846V181H247.896V175.5C247.896 172.15 249.746 170.075 252.371 170.075ZM260.909 181H262.959V170.1L269.534 170.325V168.575L262.634 168.35C261.459 168.3 260.909 168.875 260.909 170.05V181ZM276.894 179.5C274.744 179.5 273.744 178.5 273.744 175.9V168.575H271.694V176.175C271.694 179.625 273.519 181.25 276.344 181.25C279.044 181.25 280.619 179.675 281.119 177.425H281.694L281.369 178.85V181H283.394V168.575H281.369V174.1C281.369 177.425 279.519 179.5 276.894 179.5ZM293.215 170.075C295.34 170.075 296.365 171.075 296.365 173.675V181H298.39V173.4C298.39 169.95 296.565 168.325 293.765 168.325C291.065 168.325 289.49 169.9 288.99 172.15H288.415L288.74 170.725V168.575H286.69V181H288.74V175.5C288.74 172.15 290.59 170.075 293.215 170.075ZM314.455 181V162.625H312.405V170.4L312.755 171.825H312.155C311.63 169.875 309.955 168.325 307.13 168.325C303.53 168.325 301.205 171.1 301.205 174.775C301.205 178.475 303.53 181.25 307.13 181.25C309.955 181.25 311.63 179.7 312.155 177.775H312.755L312.405 179.175V181H314.455ZM312.405 174.775C312.405 178.1 310.305 179.5 307.73 179.5C305.155 179.5 303.255 178.1 303.255 174.775C303.255 171.475 305.155 170.075 307.73 170.075C310.305 170.075 312.405 171.475 312.405 174.775ZM317.465 174.625C317.465 178.2 319.34 181.25 323.79 181.25C327.74 181.25 329.24 178.575 329.715 176.65H327.665C327.215 178.55 325.84 179.55 323.79 179.55C320.715 179.55 319.59 177.525 319.465 175.175H329.29V174.375C329.29 170.55 326.99 168.325 323.49 168.325C319.965 168.325 317.465 170.625 317.465 174.625ZM319.465 173.625C319.465 171.625 321.04 170.05 323.49 170.05C325.965 170.05 327.29 171.625 327.29 173.625H319.465ZM333.374 176.925L331.424 184.15L333.249 184.65L335.199 177.4L333.374 176.925ZM346.158 168.575L349.308 181H353.508L356.033 169.175H356.633L359.158 181H363.333L366.483 168.575H364.558L361.533 180.425H360.958L358.433 168.575H354.208L351.708 180.425H351.108L348.108 168.575H346.158ZM367.855 174.775C367.855 178.4 370.455 181.25 374.43 181.25C378.38 181.25 380.955 178.4 380.955 174.775C380.955 171.175 378.38 168.325 374.43 168.325C370.455 168.325 367.855 171.175 367.855 174.775ZM369.905 174.775C369.905 172.2 371.48 170.075 374.43 170.075C377.355 170.075 378.93 172.2 378.93 174.775C378.93 177.375 377.355 179.5 374.43 179.5C371.48 179.5 369.905 177.375 369.905 174.775ZM405.178 181V162.625H403.128V170.4L403.478 171.825H402.878C402.353 169.875 400.678 168.325 397.853 168.325C394.253 168.325 391.928 171.1 391.928 174.775C391.928 178.475 394.253 181.25 397.853 181.25C400.678 181.25 402.353 179.7 402.878 177.775H403.478L403.128 179.175V181H405.178ZM403.128 174.775C403.128 178.1 401.028 179.5 398.453 179.5C395.878 179.5 393.978 178.1 393.978 174.775C393.978 171.475 395.878 170.075 398.453 170.075C401.028 170.075 403.128 171.475 403.128 174.775ZM413.686 179.5C411.536 179.5 410.536 178.5 410.536 175.9V168.575H408.486V176.175C408.486 179.625 410.311 181.25 413.136 181.25C415.836 181.25 417.411 179.675 417.911 177.425H418.486L418.161 178.85V181H420.186V168.575H418.161V174.1C418.161 177.425 416.311 179.5 413.686 179.5ZM441.73 177.775C441.73 175.1 439.08 174.55 436.63 173.75C434.63 173.1 433.78 172.725 433.78 171.525C433.78 170.4 434.88 170 436.255 170C438.23 170 439.255 170.825 439.255 172.5H441.305C441.305 170.45 440.13 168.325 436.255 168.325C433.405 168.325 431.73 169.625 431.73 171.6C431.73 173.85 433.63 174.575 435.98 175.325C438.005 175.95 439.68 176.225 439.68 177.85C439.68 179.125 438.78 179.575 436.855 179.575C434.455 179.575 433.205 178.575 433.205 176.425H431.155C431.155 179.375 432.805 181.25 436.83 181.25C440.555 181.25 441.73 179.65 441.73 177.775ZM447.857 179.525V170.325H451.732V168.575H447.857V164.75L445.832 165.375V168.575H443.082V170.325H445.832V179.55C445.832 180.7 446.357 181.325 447.532 181.25L452.232 181V179.25L447.857 179.525ZM453.89 174.625C453.89 178.2 455.765 181.25 460.215 181.25C464.165 181.25 465.665 178.575 466.14 176.65H464.09C463.64 178.55 462.265 179.55 460.215 179.55C457.14 179.55 456.015 177.525 455.89 175.175H465.715V174.375C465.715 170.55 463.415 168.325 459.915 168.325C456.39 168.325 453.89 170.625 453.89 174.625ZM455.89 173.625C455.89 171.625 457.465 170.05 459.915 170.05C462.39 170.05 463.715 171.625 463.715 173.625H455.89ZM476.187 168.325C473.487 168.325 471.912 169.9 471.412 172.15H470.837L471.162 170.725V162.625H469.112V181H471.162V175.5C471.162 172.15 473.012 170.075 475.637 170.075C477.762 170.075 478.787 171.075 478.787 173.675V181H480.812V173.4C480.812 169.95 478.987 168.325 476.187 168.325ZM493.952 177.775C493.952 175.1 491.302 174.55 488.852 173.75C486.852 173.1 486.002 172.725 486.002 171.525C486.002 170.4 487.102 170 488.477 170C490.452 170 491.477 170.825 491.477 172.5H493.527C493.527 170.45 492.352 168.325 488.477 168.325C485.627 168.325 483.952 169.625 483.952 171.6C483.952 173.85 485.852 174.575 488.202 175.325C490.227 175.95 491.902 176.225 491.902 177.85C491.902 179.125 491.002 179.575 489.077 179.575C486.677 179.575 485.427 178.575 485.427 176.425H483.377C483.377 179.375 485.027 181.25 489.052 181.25C492.777 181.25 493.952 179.65 493.952 177.775ZM500.079 179.525V170.325H503.954V168.575H500.079V164.75L498.054 165.375V168.575H495.304V170.325H498.054V179.55C498.054 180.7 498.579 181.325 499.754 181.25L504.454 181V179.25L500.079 179.525ZM520.62 179.5C518.47 179.5 517.47 178.5 517.47 175.9V168.575H515.42V176.175C515.42 179.625 517.245 181.25 520.07 181.25C522.77 181.25 524.345 179.675 524.845 177.425H525.42L525.095 178.85V181H527.12V168.575H525.095V174.1C525.095 177.425 523.245 179.5 520.62 179.5ZM536.941 170.075C539.066 170.075 540.091 171.075 540.091 173.675V181H542.116V173.4C542.116 169.95 540.291 168.325 537.491 168.325C534.791 168.325 533.216 169.9 532.716 172.15H532.141L532.466 170.725V168.575H530.416V181H532.466V175.5C532.466 172.15 534.316 170.075 536.941 170.075ZM558.18 181V162.625H556.13V170.4L556.48 171.825H555.88C555.355 169.875 553.68 168.325 550.855 168.325C547.255 168.325 544.93 171.1 544.93 174.775C544.93 178.475 547.255 181.25 550.855 181.25C553.68 181.25 555.355 179.7 555.88 177.775H556.48L556.13 179.175V181H558.18ZM556.13 174.775C556.13 178.1 554.03 179.5 551.455 179.5C548.88 179.5 546.98 178.1 546.98 174.775C546.98 171.475 548.88 170.075 551.455 170.075C554.03 170.075 556.13 171.475 556.13 174.775ZM568.912 168.575L572.062 181H576.262L578.787 169.175H579.387L581.912 181H586.087L589.237 168.575H587.312L584.287 180.425H583.712L581.187 168.575H576.962L574.462 180.425H573.862L570.862 168.575H568.912ZM590.609 174.775C590.609 178.4 593.209 181.25 597.184 181.25C601.134 181.25 603.709 178.4 603.709 174.775C603.709 171.175 601.134 168.325 597.184 168.325C593.209 168.325 590.609 171.175 590.609 174.775ZM592.659 174.775C592.659 172.2 594.234 170.075 597.184 170.075C600.109 170.075 601.684 172.2 601.684 174.775C601.684 177.375 600.109 179.5 597.184 179.5C594.234 179.5 592.659 177.375 592.659 174.775ZM627.931 181V162.625H625.881V170.4L626.231 171.825H625.631C625.106 169.875 623.431 168.325 620.606 168.325C617.006 168.325 614.681 171.1 614.681 174.775C614.681 178.475 617.006 181.25 620.606 181.25C623.431 181.25 625.106 179.7 625.631 177.775H626.231L625.881 179.175V181H627.931ZM625.881 174.775C625.881 178.1 623.781 179.5 621.206 179.5C618.631 179.5 616.731 178.1 616.731 174.775C616.731 171.475 618.631 170.075 621.206 170.075C623.781 170.075 625.881 171.475 625.881 174.775ZM636.44 179.5C634.29 179.5 633.29 178.5 633.29 175.9V168.575H631.24V176.175C631.24 179.625 633.065 181.25 635.89 181.25C638.59 181.25 640.165 179.675 640.665 177.425H641.24L640.915 178.85V181H642.94V168.575H640.915V174.1C640.915 177.425 639.065 179.5 636.44 179.5ZM667.109 163.375V171.425H656.709V163.375H654.659V181H656.709V173.175H667.109V181H669.134V163.375H667.109ZM676.131 166.6C677.131 166.6 677.931 165.85 677.931 164.85C677.931 163.9 677.131 163.125 676.131 163.125C675.106 163.125 674.331 163.9 674.331 164.85C674.331 165.85 675.106 166.6 676.131 166.6ZM671.981 181H680.906V179.25H677.406V169.825C677.406 168.875 676.956 168.225 675.781 168.325L672.906 168.575V170.325L675.481 170.1V179.25H671.981V181ZM682.815 181H691.815V179.25H688.34V164.1C688.34 162.925 687.79 162.275 686.64 162.375L683.74 162.625V164.375L686.315 164.15V179.25H682.815V181ZM700.578 164.375H702.828V162.625H700.678C697.703 162.625 696.478 164.2 696.478 166.675V168.575H693.728V170.325H696.478V179.25H693.728V181H702.128V179.25H698.503V170.325H702.128V168.575H698.503V166.725C698.503 165.1 699.003 164.375 700.578 164.375ZM704.232 174.625C704.232 178.2 706.107 181.25 710.557 181.25C714.507 181.25 716.007 178.575 716.482 176.65H714.432C713.982 178.55 712.607 179.55 710.557 179.55C707.482 179.55 706.357 177.525 706.232 175.175H716.057V174.375C716.057 170.55 713.757 168.325 710.257 168.325C706.732 168.325 704.232 170.625 704.232 174.625ZM706.232 173.625C706.232 171.625 707.807 170.05 710.257 170.05C712.732 170.05 714.057 171.625 714.057 173.625H706.232ZM74.825 206H76.875V204.175L76.55 202.775H77.125C77.65 204.7 79.325 206.25 82.175 206.25C85.775 206.25 88.075 203.475 88.075 199.775C88.075 196.1 85.775 193.325 82.175 193.325C79.325 193.325 77.65 194.875 77.125 196.825H76.55L76.875 195.4V187.625H74.825V206ZM76.875 199.775C76.875 196.475 79 195.075 81.55 195.075C84.125 195.075 86.025 196.475 86.025 199.775C86.025 203.1 84.125 204.5 81.55 204.5C79 204.5 76.875 203.1 76.875 199.775ZM90.9139 206H92.9639V195.1L99.5389 195.325V193.575L92.6389 193.35C91.4639 193.3 90.9139 193.875 90.9139 195.05V206ZM101.376 202.55C101.376 203.85 101.926 206.25 105.526 206.25C108.526 206.25 109.851 204.475 110.326 202.575H110.926L110.601 203.875V204.55C110.601 205.475 111.126 206 112.076 206H114.276V204.25H112.451V198.95C112.451 195.625 110.376 193.325 106.901 193.325C103.376 193.325 101.426 195.625 101.426 198.2H103.426C103.426 195.85 105.101 195.05 106.901 195.05C109.051 195.05 110.276 196.175 110.401 198.45L105.451 198.925C102.551 199.225 101.376 200.575 101.376 202.55ZM103.426 202.3C103.426 201.075 104.226 200.6 105.801 200.45L110.401 199.975C110.401 202.55 108.601 204.5 105.776 204.5C104.326 204.5 103.426 203.725 103.426 202.3ZM121.377 204.5C119.227 204.5 118.227 203.5 118.227 200.9V193.575H116.177V201.175C116.177 204.625 118.002 206.25 120.827 206.25C123.527 206.25 125.102 204.675 125.602 202.425H126.177L125.852 203.85V206H127.877V193.575H125.852V199.1C125.852 202.425 124.002 204.5 121.377 204.5ZM130.673 199.775C130.673 203.375 132.998 206.25 137.023 206.25C139.423 206.25 142.498 204.9 142.823 201.3H140.748C140.398 203.675 138.823 204.5 137.023 204.5C134.073 204.5 132.723 202.35 132.723 199.775C132.723 197.225 134.073 195.075 137.023 195.075C138.823 195.075 140.398 195.9 140.748 198.275H142.823C142.498 194.675 139.423 193.325 137.023 193.325C132.998 193.325 130.673 196.2 130.673 199.775ZM152.872 193.325C150.172 193.325 148.597 194.9 148.097 197.15H147.522L147.847 195.725V187.625H145.797V206H147.847V200.5C147.847 197.15 149.697 195.075 152.322 195.075C154.447 195.075 155.472 196.075 155.472 198.675V206H157.497V198.4C157.497 194.95 155.672 193.325 152.872 193.325ZM170.636 202.775C170.636 200.1 167.986 199.55 165.536 198.75C163.536 198.1 162.686 197.725 162.686 196.525C162.686 195.4 163.786 195 165.161 195C167.136 195 168.161 195.825 168.161 197.5H170.211C170.211 195.45 169.036 193.325 165.161 193.325C162.311 193.325 160.636 194.625 160.636 196.6C160.636 198.85 162.536 199.575 164.886 200.325C166.911 200.95 168.586 201.225 168.586 202.85C168.586 204.125 167.686 204.575 165.761 204.575C163.361 204.575 162.111 203.575 162.111 201.425H160.061C160.061 204.375 161.711 206.25 165.736 206.25C169.461 206.25 170.636 204.65 170.636 202.775ZM176.763 204.525V195.325H180.638V193.575H176.763V189.75L174.738 190.375V193.575H171.988V195.325H174.738V204.55C174.738 205.7 175.263 206.325 176.438 206.25L181.138 206V204.25L176.763 204.525ZM186.134 206.25C187.284 206.25 188.209 205.35 188.209 204.15C188.209 203 187.284 202.1 186.134 202.1C184.959 202.1 184.059 203 184.059 204.15C184.059 205.35 184.959 206.25 186.134 206.25Z" fill="white"/>
<path d="M45.425 271.325V268.325L32.7 263.375L31.75 266.225L41.925 269.825L31.75 273.15L32.7 276L45.425 271.325Z" fill="white"/>
<path d="M73.75 265.375L75.15 269C80.575 267.325 81.45 263.925 81.75 259.375H82.75L82 261.625V276H86V258.375H78.225C78.225 262.4 77 264.1 73.75 265.375ZM88.002 271.05C88.002 274.775 91.277 276.25 96.127 276.25C100.952 276.25 104.227 274.775 104.227 271.05C104.227 268.225 101.727 267.1 99.052 266.8V265.8C101.027 265.625 103.227 264.875 103.227 262.2C103.227 259 99.577 258.125 96.127 258.125C92.652 258.125 89.002 259 89.002 262.2C89.002 264.875 91.202 265.625 93.177 265.8V266.8C90.502 267.1 88.002 267.975 88.002 271.05ZM93.002 263.1C93.002 262.05 93.977 261.625 96.127 261.625C98.252 261.625 99.227 262.05 99.227 263.1C99.227 264.175 98.252 264.575 96.127 264.575C93.977 264.575 93.002 264.175 93.002 263.1ZM92.002 270.425C92.002 268.875 93.227 268.075 96.127 268.075C99.002 268.075 100.227 268.875 100.227 270.425C100.227 272 99.002 272.75 96.127 272.75C93.227 272.75 92.002 272 92.002 270.425ZM109.213 268.625C110.863 268.625 111.988 267.425 111.988 265.85C111.988 264.325 110.863 263.125 109.213 263.125C107.513 263.125 106.488 264.325 106.488 265.85C106.488 267.425 107.513 268.625 109.213 268.625ZM109.213 276.25C110.863 276.25 111.988 275.05 111.988 273.475C111.988 271.95 110.863 270.75 109.213 270.75C107.513 270.75 106.488 271.95 106.488 273.475C106.488 275.05 107.513 276.25 109.213 276.25ZM130.122 269.525H128.197V265.625H124.197V269.525H118.497L115.997 270.275V269.275C122.247 267.975 125.797 264.2 126.072 258.375H122.072C121.772 262.55 119.197 265.1 114.997 265.75V273.025H124.197V276H128.197V273.025H130.122V269.525ZM131.642 269.525C131.642 274.325 135.292 276.25 139.942 276.25C144.592 276.25 147.692 274.2 147.692 269.35C147.692 265.3 145.192 263.125 142.092 263.125C139.617 263.125 137.767 264.375 136.817 267.125L135.992 266.65L136.742 264.4V261.875H146.292V258.375H132.742V265.9L137.242 268.5C138.242 267.225 139.417 266.625 140.892 266.625C142.767 266.625 143.692 267.575 143.692 269.45C143.692 271.65 142.767 272.75 139.942 272.75C136.817 272.75 135.642 271.65 135.642 269.525H131.642ZM157.459 276H170.034V272.5H161.459V268.925H168.784V265.425H161.459V261.875H170.034V258.375H157.459V276ZM171.284 276H176.034L178.959 271.925L181.884 276H186.634L181.834 270.175V269.175L186.634 263.375H181.884L178.959 267.425L176.034 263.375H171.284L176.084 269.175V270.175L171.284 276ZM188.392 263.375V280.75H192.392V275.225L191.642 272.975H192.642C193.292 274.65 194.492 276.25 197.617 276.25C201.267 276.25 203.092 273.275 203.092 269.7C203.092 266.125 201.267 263.125 197.617 263.125C194.492 263.125 193.292 264.725 192.642 266.4H191.642L192.392 264.15V263.375H188.392ZM192.392 269.7C192.392 267.55 193.592 266.625 195.742 266.625C197.892 266.625 199.092 267.55 199.092 269.7C199.092 271.85 197.892 272.75 195.742 272.75C193.592 272.75 192.392 271.85 192.392 269.7ZM204.097 276H215.097V272.5H211.597V259.55C211.597 258.15 210.822 257.4 209.422 257.45L204.597 257.625V261.125L207.597 260.975V272.5H204.097V276ZM215.846 269.675C215.846 274.1 218.996 276.25 222.971 276.25C226.921 276.25 230.071 274.1 230.071 269.675C230.071 265.275 226.921 263.125 222.971 263.125C218.996 263.125 215.846 265.275 215.846 269.675ZM219.846 269.675C219.846 267.575 221.071 266.625 222.971 266.625C224.846 266.625 226.071 267.575 226.071 269.675C226.071 271.8 224.846 272.75 222.971 272.75C221.071 272.75 219.846 271.8 219.846 269.675ZM231.824 276H235.824V266.725L242.249 266.875V263.375L233.974 263.175C232.599 263.15 231.824 263.9 231.824 265.275V276ZM243.263 269.525C243.263 273.1 245.488 276.25 250.338 276.25C254.713 276.25 256.788 273.375 257.038 271.55H253.038C252.788 272.5 251.738 273 250.338 273C248.063 273 247.013 271.975 247.013 270.525H256.588V269.275C256.588 265.45 253.838 263.125 249.913 263.125C245.988 263.125 243.263 265.525 243.263 269.525ZM247.013 268.275C247.013 267.325 247.688 266.375 249.913 266.375C252.138 266.375 252.838 267.325 252.838 268.275H247.013ZM272.291 272.75V266.875H276.441V263.375H272.291V259.75L268.291 261V263.375H265.291V266.875H268.291V274.125C268.291 275.5 269.041 276.3 270.416 276.25L276.941 276V272.5L272.291 272.75ZM287.968 263.125C285.268 263.125 283.693 264.9 283.193 267.15H282.193L282.943 264.9V257.625H278.943V276H282.943V271.325C282.943 267.775 284.368 266.625 286.543 266.625C288.468 266.625 289.143 267.5 289.143 269.8V276H293.143V269.175C293.143 265.275 291.193 263.125 287.968 263.125ZM294.63 269.525C294.63 273.1 296.855 276.25 301.705 276.25C306.08 276.25 308.155 273.375 308.405 271.55H304.405C304.155 272.5 303.105 273 301.705 273C299.43 273 298.38 271.975 298.38 270.525H307.955V269.275C307.955 265.45 305.205 263.125 301.28 263.125C297.355 263.125 294.63 265.525 294.63 269.525ZM298.38 268.275C298.38 267.325 299.055 266.375 301.28 266.375C303.505 266.375 304.205 267.325 304.205 268.275H298.38ZM317.408 269.45C317.408 273.85 320.133 276.25 325.358 276.25C330.583 276.25 333.333 273.85 333.333 269.45V258.375H329.333V267.675C329.333 270.825 329.033 272.75 325.358 272.75C321.683 272.75 321.408 270.825 321.408 267.675V258.375H317.408V269.45ZM342.94 266.625C344.865 266.625 345.54 267.5 345.54 269.8V276H349.54V269.175C349.54 265.275 347.59 263.125 344.365 263.125C341.665 263.125 340.09 264.9 339.59 267.15H338.59L339.34 264.9V263.375H335.34V276H339.34V271.325C339.34 267.775 340.765 266.625 342.94 266.625ZM361.451 276H366.001L361.726 269.525L363.676 268.625C364.776 268.1 365.251 267.325 365.251 266.125V263.375H361.251L361.301 265.65L355.526 268.3V257.625H351.526V276H355.526V272.425L358.301 271.125L361.451 276ZM375.093 266.625C377.018 266.625 377.693 267.5 377.693 269.8V276H381.693V269.175C381.693 265.275 379.743 263.125 376.518 263.125C373.818 263.125 372.243 264.9 371.743 267.15H370.743L371.493 264.9V263.375H367.493V276H371.493V271.325C371.493 267.775 372.918 266.625 375.093 266.625ZM383.18 269.675C383.18 274.1 386.33 276.25 390.305 276.25C394.255 276.25 397.405 274.1 397.405 269.675C397.405 265.275 394.255 263.125 390.305 263.125C386.33 263.125 383.18 265.275 383.18 269.675ZM387.18 269.675C387.18 267.575 388.405 266.625 390.305 266.625C392.18 266.625 393.405 267.575 393.405 269.675C393.405 271.8 392.18 272.75 390.305 272.75C388.405 272.75 387.18 271.8 387.18 269.675ZM397.908 263.375L399.683 276H408.033L409.008 264.375H410.008L410.983 276H419.333L421.108 263.375H417.308L415.658 275H414.658L413.683 263.375H405.333L404.358 275H403.358L401.733 263.375H397.908ZM429.976 266.625C431.901 266.625 432.576 267.5 432.576 269.8V276H436.576V269.175C436.576 265.275 434.626 263.125 431.401 263.125C428.701 263.125 427.126 264.9 426.626 267.15H425.626L426.376 264.9V263.375H422.376V276H426.376V271.325C426.376 267.775 427.801 266.625 429.976 266.625Z" fill="white"/>
<path d="M74.825 312H76.875V296.425L76.55 294.95H77.125L85.9 312H90.025V294.375H88V309.95L88.325 311.425H87.75L78.95 294.375H74.825V312ZM92.8309 305.625C92.8309 309.2 94.7059 312.25 99.1559 312.25C103.106 312.25 104.606 309.575 105.081 307.65H103.031C102.581 309.55 101.206 310.55 99.1559 310.55C96.0809 310.55 94.9559 308.525 94.8309 306.175H104.656V305.375C104.656 301.55 102.356 299.325 98.8559 299.325C95.3309 299.325 92.8309 301.625 92.8309 305.625ZM94.8309 304.625C94.8309 302.625 96.4059 301.05 98.8559 301.05C101.331 301.05 102.656 302.625 102.656 304.625H94.8309ZM112.856 310.5C110.706 310.5 109.706 309.5 109.706 306.9V299.575H107.656V307.175C107.656 310.625 109.481 312.25 112.306 312.25C115.006 312.25 116.581 310.675 117.081 308.425H117.656L117.331 309.85V312H119.356V299.575H117.331V305.1C117.331 308.425 115.481 310.5 112.856 310.5ZM122.152 305.625C122.152 309.2 124.027 312.25 128.477 312.25C132.427 312.25 133.927 309.575 134.402 307.65H132.352C131.902 309.55 130.527 310.55 128.477 310.55C125.402 310.55 124.277 308.525 124.152 306.175H133.977V305.375C133.977 301.55 131.677 299.325 128.177 299.325C124.652 299.325 122.152 301.625 122.152 305.625ZM124.152 304.625C124.152 302.625 125.727 301.05 128.177 301.05C130.652 301.05 131.977 302.625 131.977 304.625H124.152ZM138.061 307.925L136.111 315.15L137.936 315.65L139.886 308.4L138.061 307.925ZM161.921 308.775C161.921 306.1 159.271 305.55 156.821 304.75C154.821 304.1 153.971 303.725 153.971 302.525C153.971 301.4 155.071 301 156.446 301C158.421 301 159.446 301.825 159.446 303.5H161.496C161.496 301.45 160.321 299.325 156.446 299.325C153.596 299.325 151.921 300.625 151.921 302.6C151.921 304.85 153.821 305.575 156.171 306.325C158.196 306.95 159.871 307.225 159.871 308.85C159.871 310.125 158.971 310.575 157.046 310.575C154.646 310.575 153.396 309.575 153.396 307.425H151.346C151.346 310.375 152.996 312.25 157.021 312.25C160.746 312.25 161.921 310.65 161.921 308.775ZM164.498 299.575V316.55H166.548V310.175L166.223 308.775H166.798C167.323 310.7 168.973 312.25 171.823 312.25C175.423 312.25 177.748 309.475 177.748 305.8C177.748 302.1 175.423 299.325 171.823 299.325C168.973 299.325 167.323 300.875 166.798 302.825H166.223L166.548 301.4V299.575H164.498ZM166.548 305.8C166.548 302.475 168.673 301.075 171.223 301.075C173.798 301.075 175.698 302.525 175.698 305.8C175.698 309.05 173.798 310.5 171.223 310.5C168.673 310.5 166.548 309.1 166.548 305.8ZM180.282 308.55C180.282 309.85 180.832 312.25 184.432 312.25C187.432 312.25 188.757 310.475 189.232 308.575H189.832L189.507 309.875V310.55C189.507 311.475 190.032 312 190.982 312H193.182V310.25H191.357V304.95C191.357 301.625 189.282 299.325 185.807 299.325C182.282 299.325 180.332 301.625 180.332 304.2H182.332C182.332 301.85 184.007 301.05 185.807 301.05C187.957 301.05 189.182 302.175 189.307 304.45L184.357 304.925C181.457 305.225 180.282 306.575 180.282 308.55ZM182.332 308.3C182.332 307.075 183.132 306.6 184.707 306.45L189.307 305.975C189.307 308.55 187.507 310.5 184.682 310.5C183.232 310.5 182.332 309.725 182.332 308.3ZM202.053 301.075C204.178 301.075 205.203 302.075 205.203 304.675V312H207.228V304.4C207.228 300.95 205.403 299.325 202.603 299.325C199.903 299.325 198.328 300.9 197.828 303.15H197.253L197.578 301.725V299.575H195.528V312H197.578V306.5C197.578 303.15 199.428 301.075 202.053 301.075ZM217.117 301.075C219.242 301.075 220.267 302.075 220.267 304.675V312H222.292V304.4C222.292 300.95 220.467 299.325 217.667 299.325C214.967 299.325 213.392 300.9 212.892 303.15H212.317L212.642 301.725V299.575H210.592V312H212.642V306.5C212.642 303.15 214.492 301.075 217.117 301.075ZM225.106 305.625C225.106 309.2 226.981 312.25 231.431 312.25C235.381 312.25 236.881 309.575 237.356 307.65H235.306C234.856 309.55 233.481 310.55 231.431 310.55C228.356 310.55 227.231 308.525 227.106 306.175H236.931V305.375C236.931 301.55 234.631 299.325 231.131 299.325C227.606 299.325 225.106 301.625 225.106 305.625ZM227.106 304.625C227.106 302.625 228.681 301.05 231.131 301.05C233.606 301.05 234.931 302.625 234.931 304.625H227.106ZM246.706 301.075C248.831 301.075 249.856 302.075 249.856 304.675V312H251.881V304.4C251.881 300.95 250.056 299.325 247.256 299.325C244.556 299.325 242.981 300.9 242.481 303.15H241.906L242.231 301.725V299.575H240.181V312H242.231V306.5C242.231 303.15 244.081 301.075 246.706 301.075ZM267.946 312V293.625H265.896V301.4L266.246 302.825H265.646C265.121 300.875 263.446 299.325 260.621 299.325C257.021 299.325 254.696 302.1 254.696 305.775C254.696 309.475 257.021 312.25 260.621 312.25C263.446 312.25 265.121 310.7 265.646 308.775H266.246L265.896 310.175V312H267.946ZM265.896 305.775C265.896 309.1 263.796 310.5 261.221 310.5C258.646 310.5 256.746 309.1 256.746 305.775C256.746 302.475 258.646 301.075 261.221 301.075C263.796 301.075 265.896 302.475 265.896 305.775ZM270.956 305.625C270.956 309.2 272.831 312.25 277.281 312.25C281.231 312.25 282.731 309.575 283.206 307.65H281.156C280.706 309.55 279.331 310.55 277.281 310.55C274.206 310.55 273.081 308.525 272.956 306.175H282.781V305.375C282.781 301.55 280.481 299.325 276.981 299.325C273.456 299.325 270.956 301.625 270.956 305.625ZM272.956 304.625C272.956 302.625 274.531 301.05 276.981 301.05C279.456 301.05 280.781 302.625 280.781 304.625H272.956ZM308.174 294.375H293.899V296.125H300.049V312H302.074V296.125H308.174V294.375ZM317.935 299.325C315.235 299.325 313.66 300.9 313.16 303.15H312.585L312.91 301.725V293.625H310.86V312H312.91V306.5C312.91 303.15 314.76 301.075 317.385 301.075C319.51 301.075 320.535 302.075 320.535 304.675V312H322.56V304.4C322.56 300.95 320.735 299.325 317.935 299.325ZM325.375 305.625C325.375 309.2 327.25 312.25 331.7 312.25C335.65 312.25 337.15 309.575 337.625 307.65H335.575C335.125 309.55 333.75 310.55 331.7 310.55C328.625 310.55 327.5 308.525 327.375 306.175H337.2V305.375C337.2 301.55 334.9 299.325 331.4 299.325C327.875 299.325 325.375 301.625 325.375 305.625ZM327.375 304.625C327.375 302.625 328.95 301.05 331.4 301.05C333.875 301.05 335.2 302.625 335.2 304.625H327.375ZM355.75 299.325C353.1 299.325 351.8 300.85 351.3 303.1H350.925C350.65 300.875 349.45 299.325 347.2 299.325C344.55 299.325 343.25 300.85 342.75 303.1H342.175L342.5 301.7V299.575H340.45V312H342.5V306.525C342.5 303.275 343.975 301.075 346.45 301.075C348.475 301.075 349 302.25 349 304.65V312H351.05V306.525C351.05 303.275 352.525 301.075 355 301.075C357.025 301.075 357.55 302.25 357.55 304.65V312H359.6V304.175C359.6 301.4 358.35 299.325 355.75 299.325ZM362.387 305.625C362.387 309.2 364.262 312.25 368.712 312.25C372.662 312.25 374.162 309.575 374.637 307.65H372.587C372.137 309.55 370.762 310.55 368.712 310.55C365.637 310.55 364.512 308.525 364.387 306.175H374.212V305.375C374.212 301.55 371.912 299.325 368.412 299.325C364.887 299.325 362.387 301.625 362.387 305.625ZM364.387 304.625C364.387 302.625 365.962 301.05 368.412 301.05C370.887 301.05 372.212 302.625 372.212 304.625H364.387ZM383.987 301.075C386.112 301.075 387.137 302.075 387.137 304.675V312H389.162V304.4C389.162 300.95 387.337 299.325 384.537 299.325C381.837 299.325 380.262 300.9 379.762 303.15H379.187L379.512 301.725V299.575H377.462V312H379.512V306.5C379.512 303.15 381.362 301.075 383.987 301.075ZM400.899 299.575V316.55H402.949V310.175L402.624 308.775H403.199C403.724 310.7 405.374 312.25 408.224 312.25C411.824 312.25 414.149 309.475 414.149 305.8C414.149 302.1 411.824 299.325 408.224 299.325C405.374 299.325 403.724 300.875 403.199 302.825H402.624L402.949 301.4V299.575H400.899ZM402.949 305.8C402.949 302.475 405.074 301.075 407.624 301.075C410.199 301.075 412.099 302.525 412.099 305.8C412.099 309.05 410.199 310.5 407.624 310.5C405.074 310.5 402.949 309.1 402.949 305.8ZM416.988 312H419.038V301.1L425.613 301.325V299.575L418.713 299.35C417.538 299.3 416.988 299.875 416.988 301.05V312ZM430.65 297.6C431.675 297.6 432.475 296.85 432.475 295.85C432.475 294.9 431.675 294.125 430.65 294.125C429.6 294.125 428.825 294.9 428.825 295.85C428.825 296.85 429.6 297.6 430.65 297.6ZM435.8 297.6C436.825 297.6 437.625 296.85 437.625 295.85C437.625 294.9 436.825 294.125 435.8 294.125C434.75 294.125 433.975 294.9 433.975 295.85C433.975 296.85 434.75 297.6 435.8 297.6ZM427.45 308.55C427.45 309.85 428 312.25 431.6 312.25C434.6 312.25 435.925 310.475 436.4 308.575H437L436.675 309.875V310.55C436.675 311.475 437.2 312 438.15 312H440.35V310.25H438.525V304.95C438.525 301.625 436.45 299.325 432.975 299.325C429.45 299.325 427.5 301.625 427.5 304.2H429.5C429.5 301.85 431.175 301.05 432.975 301.05C435.125 301.05 436.35 302.175 436.475 304.45L431.525 304.925C428.625 305.225 427.45 306.575 427.45 308.55ZM429.5 308.3C429.5 307.075 430.3 306.6 431.875 306.45L436.475 305.975C436.475 308.55 434.675 310.5 431.85 310.5C430.4 310.5 429.5 309.725 429.5 308.3ZM452.326 308.775C452.326 306.1 449.676 305.55 447.226 304.75C445.226 304.1 444.376 303.725 444.376 302.525C444.376 301.4 445.476 301 446.851 301C448.826 301 449.851 301.825 449.851 303.5H451.901C451.901 301.45 450.726 299.325 446.851 299.325C444.001 299.325 442.326 300.625 442.326 302.6C442.326 304.85 444.226 305.575 446.576 306.325C448.601 306.95 450.276 307.225 450.276 308.85C450.276 310.125 449.376 310.575 447.451 310.575C445.051 310.575 443.801 309.575 443.801 307.425H441.751C441.751 310.375 443.401 312.25 447.426 312.25C451.151 312.25 452.326 310.65 452.326 308.775ZM454.428 305.625C454.428 309.2 456.303 312.25 460.753 312.25C464.703 312.25 466.203 309.575 466.678 307.65H464.628C464.178 309.55 462.803 310.55 460.753 310.55C457.678 310.55 456.553 308.525 456.428 306.175H466.253V305.375C466.253 301.55 463.953 299.325 460.453 299.325C456.928 299.325 454.428 301.625 454.428 305.625ZM456.428 304.625C456.428 302.625 458.003 301.05 460.453 301.05C462.928 301.05 464.253 302.625 464.253 304.625H456.428ZM476.028 301.075C478.153 301.075 479.178 302.075 479.178 304.675V312H481.203V304.4C481.203 300.95 479.378 299.325 476.578 299.325C473.878 299.325 472.303 300.9 471.803 303.15H471.228L471.553 301.725V299.575H469.503V312H471.553V306.5C471.553 303.15 473.403 301.075 476.028 301.075ZM487.92 310.525V301.325H491.795V299.575H487.92V295.75L485.895 296.375V299.575H483.145V301.325H485.895V310.55C485.895 311.7 486.42 312.325 487.595 312.25L492.295 312V310.25L487.92 310.525ZM498.617 297.6C499.617 297.6 500.417 296.85 500.417 295.85C500.417 294.9 499.617 294.125 498.617 294.125C497.592 294.125 496.817 294.9 496.817 295.85C496.817 296.85 497.592 297.6 498.617 297.6ZM494.467 312H503.392V310.25H499.892V300.825C499.892 299.875 499.442 299.225 498.267 299.325L495.392 299.575V301.325L497.967 301.1V310.25H494.467V312ZM504.794 305.625C504.794 309.2 506.669 312.25 511.119 312.25C515.069 312.25 516.569 309.575 517.044 307.65H514.994C514.544 309.55 513.169 310.55 511.119 310.55C508.044 310.55 506.919 308.525 506.794 306.175H516.619V305.375C516.619 301.55 514.319 299.325 510.819 299.325C507.294 299.325 504.794 301.625 504.794 305.625ZM506.794 304.625C506.794 302.625 508.369 301.05 510.819 301.05C513.294 301.05 514.619 302.625 514.619 304.625H506.794ZM519.869 312H521.919V301.1L528.494 301.325V299.575L521.594 299.35C520.419 299.3 519.869 299.875 519.869 301.05V312ZM534.673 310.525V301.325H538.548V299.575H534.673V295.75L532.648 296.375V299.575H529.898V301.325H532.648V310.55C532.648 311.7 533.173 312.325 534.348 312.25L539.048 312V310.25L534.673 310.525ZM559.339 299.575L555.489 311.425H554.889L551.014 299.575H549.014L553.114 312H557.264L561.314 299.575H559.339ZM562.679 305.775C562.679 309.4 565.279 312.25 569.254 312.25C573.204 312.25 575.779 309.4 575.779 305.775C575.779 302.175 573.204 299.325 569.254 299.325C565.279 299.325 562.679 302.175 562.679 305.775ZM564.729 305.775C564.729 303.2 566.304 301.075 569.254 301.075C572.179 301.075 573.754 303.2 573.754 305.775C573.754 308.375 572.179 310.5 569.254 310.5C566.304 310.5 564.729 308.375 564.729 305.775ZM585.159 301.075C587.284 301.075 588.309 302.075 588.309 304.675V312H590.334V304.4C590.334 300.95 588.509 299.325 585.709 299.325C583.009 299.325 581.434 300.9 580.934 303.15H580.359L580.684 301.725V299.575H578.634V312H580.684V306.5C580.684 303.15 582.534 301.075 585.159 301.075ZM87.575 337V318.625H85.525V326.4L85.875 327.825H85.275C84.75 325.875 83.075 324.325 80.25 324.325C76.65 324.325 74.325 327.1 74.325 330.775C74.325 334.475 76.65 337.25 80.25 337.25C83.075 337.25 84.75 335.7 85.275 333.775H85.875L85.525 335.175V337H87.575ZM85.525 330.775C85.525 334.1 83.425 335.5 80.85 335.5C78.275 335.5 76.375 334.1 76.375 330.775C76.375 327.475 78.275 326.075 80.85 326.075C83.425 326.075 85.525 327.475 85.525 330.775ZM90.5848 330.625C90.5848 334.2 92.4598 337.25 96.9098 337.25C100.86 337.25 102.36 334.575 102.835 332.65H100.785C100.335 334.55 98.9598 335.55 96.9098 335.55C93.8348 335.55 92.7098 333.525 92.5848 331.175H102.41V330.375C102.41 326.55 100.11 324.325 96.6098 324.325C93.0848 324.325 90.5848 326.625 90.5848 330.625ZM92.5848 329.625C92.5848 327.625 94.1598 326.05 96.6098 326.05C99.0848 326.05 100.41 327.625 100.41 329.625H92.5848ZM108.626 322.6C109.626 322.6 110.426 321.85 110.426 320.85C110.426 319.9 109.626 319.125 108.626 319.125C107.601 319.125 106.826 319.9 106.826 320.85C106.826 321.85 107.601 322.6 108.626 322.6ZM104.476 337H113.401V335.25H109.901V325.825C109.901 324.875 109.451 324.225 108.276 324.325L105.401 324.575V326.325L107.976 326.1V335.25H104.476V337ZM122.512 326.075C124.637 326.075 125.662 327.075 125.662 329.675V337H127.687V329.4C127.687 325.95 125.862 324.325 123.062 324.325C120.362 324.325 118.787 325.9 118.287 328.15H117.712L118.037 326.725V324.575H115.987V337H118.037V331.5C118.037 328.15 119.887 326.075 122.512 326.075ZM130.502 330.625C130.502 334.2 132.377 337.25 136.827 337.25C140.777 337.25 142.277 334.575 142.752 332.65H140.702C140.252 334.55 138.877 335.55 136.827 335.55C133.752 335.55 132.627 333.525 132.502 331.175H142.327V330.375C142.327 326.55 140.027 324.325 136.527 324.325C133.002 324.325 130.502 326.625 130.502 330.625ZM132.502 329.625C132.502 327.625 134.077 326.05 136.527 326.05C139.002 326.05 140.327 327.625 140.327 329.625H132.502ZM160.877 324.325C158.227 324.325 156.927 325.85 156.427 328.1H156.052C155.777 325.875 154.577 324.325 152.327 324.325C149.677 324.325 148.377 325.85 147.877 328.1H147.302L147.627 326.7V324.575H145.577V337H147.627V331.525C147.627 328.275 149.102 326.075 151.577 326.075C153.602 326.075 154.127 327.25 154.127 329.65V337H156.177V331.525C156.177 328.275 157.652 326.075 160.127 326.075C162.152 326.075 162.677 327.25 162.677 329.65V337H164.727V329.175C164.727 326.4 163.477 324.325 160.877 324.325ZM167.886 322.65L170.811 323.6L171.861 323.65L170.986 324.275L169.186 326.75L170.461 327.675L172.261 325.2L172.636 324.2L172.986 325.225L174.786 327.675L176.061 326.75L174.286 324.275L173.436 323.675L174.511 323.625L177.411 322.675L176.936 321.175L174.011 322.1L173.136 322.75L173.461 321.675V318.625H171.886V321.675L172.186 322.725L171.286 322.075L168.386 321.125L167.886 322.65ZM193.556 337V318.625H191.506V326.4L191.856 327.825H191.256C190.731 325.875 189.056 324.325 186.231 324.325C182.631 324.325 180.306 327.1 180.306 330.775C180.306 334.475 182.631 337.25 186.231 337.25C189.056 337.25 190.731 335.7 191.256 333.775H191.856L191.506 335.175V337H193.556ZM191.506 330.775C191.506 334.1 189.406 335.5 186.831 335.5C184.256 335.5 182.356 334.1 182.356 330.775C182.356 327.475 184.256 326.075 186.831 326.075C189.406 326.075 191.506 327.475 191.506 330.775ZM196.566 330.625C196.566 334.2 198.441 337.25 202.891 337.25C206.841 337.25 208.341 334.575 208.816 332.65H206.766C206.316 334.55 204.941 335.55 202.891 335.55C199.816 335.55 198.691 333.525 198.566 331.175H208.391V330.375C208.391 326.55 206.091 324.325 202.591 324.325C199.066 324.325 196.566 326.625 196.566 330.625ZM198.566 329.625C198.566 327.625 200.141 326.05 202.591 326.05C205.066 326.05 206.391 327.625 206.391 329.625H198.566ZM214.608 322.6C215.608 322.6 216.408 321.85 216.408 320.85C216.408 319.9 215.608 319.125 214.608 319.125C213.583 319.125 212.808 319.9 212.808 320.85C212.808 321.85 213.583 322.6 214.608 322.6ZM210.458 337H219.383V335.25H215.883V325.825C215.883 324.875 215.433 324.225 214.258 324.325L211.383 324.575V326.325L213.958 326.1V335.25H210.458V337ZM228.494 326.075C230.619 326.075 231.644 327.075 231.644 329.675V337H233.669V329.4C233.669 325.95 231.844 324.325 229.044 324.325C226.344 324.325 224.769 325.9 224.269 328.15H223.694L224.019 326.725V324.575H221.969V337H224.019V331.5C224.019 328.15 225.869 326.075 228.494 326.075ZM236.483 330.625C236.483 334.2 238.358 337.25 242.808 337.25C246.758 337.25 248.258 334.575 248.733 332.65H246.683C246.233 334.55 244.858 335.55 242.808 335.55C239.733 335.55 238.608 333.525 238.483 331.175H248.308V330.375C248.308 326.55 246.008 324.325 242.508 324.325C238.983 324.325 236.483 326.625 236.483 330.625ZM238.483 329.625C238.483 327.625 240.058 326.05 242.508 326.05C244.983 326.05 246.308 327.625 246.308 329.625H238.483ZM251.558 337H253.608V326.1L260.183 326.325V324.575L253.283 324.35C252.108 324.3 251.558 324.875 251.558 326.05V337ZM270.894 337H272.944V321.425L272.619 319.95H273.194L278.244 337H282.369L287.419 319.95H288.019L287.669 321.425V337H289.719V319.375H285.619L280.594 336.425H280.019L275.019 319.375H270.894V337ZM292.758 333.55C292.758 334.85 293.308 337.25 296.908 337.25C299.908 337.25 301.233 335.475 301.708 333.575H302.308L301.983 334.875V335.55C301.983 336.475 302.508 337 303.458 337H305.658V335.25H303.833V329.95C303.833 326.625 301.758 324.325 298.283 324.325C294.758 324.325 292.808 326.625 292.808 329.2H294.808C294.808 326.85 296.483 326.05 298.283 326.05C300.433 326.05 301.658 327.175 301.783 329.45L296.833 329.925C293.933 330.225 292.758 331.575 292.758 333.55ZM294.808 333.3C294.808 332.075 295.608 331.6 297.183 331.45L301.783 330.975C301.783 333.55 299.983 335.5 297.158 335.5C295.708 335.5 294.808 334.725 294.808 333.3ZM311.703 322.6C312.703 322.6 313.503 321.85 313.503 320.85C313.503 319.9 312.703 319.125 311.703 319.125C310.678 319.125 309.903 319.9 309.903 320.85C309.903 321.85 310.678 322.6 311.703 322.6ZM307.553 337H316.478V335.25H312.978V325.825C312.978 324.875 312.528 324.225 311.353 324.325L308.478 324.575V326.325L311.053 326.1V335.25H307.553V337ZM325.588 326.075C327.713 326.075 328.738 327.075 328.738 329.675V337H330.763V329.4C330.763 325.95 328.938 324.325 326.138 324.325C323.438 324.325 321.863 325.9 321.363 328.15H320.788L321.113 326.725V324.575H319.063V337H321.113V331.5C321.113 328.15 322.963 326.075 325.588 326.075ZM334.45 329.875V331.55H346.375V329.875H334.45ZM363.789 319.375H349.514V321.125H355.664V337H357.689V321.125H363.789V319.375ZM363.472 337H365.522V326.1L372.097 326.325V324.575L365.197 324.35C364.022 324.3 363.472 324.875 363.472 326.05V337ZM373.934 333.55C373.934 334.85 374.484 337.25 378.084 337.25C381.084 337.25 382.409 335.475 382.884 333.575H383.484L383.159 334.875V335.55C383.159 336.475 383.684 337 384.634 337H386.834V335.25H385.009V329.95C385.009 326.625 382.934 324.325 379.459 324.325C375.934 324.325 373.984 326.625 373.984 329.2H375.984C375.984 326.85 377.659 326.05 379.459 326.05C381.609 326.05 382.834 327.175 382.959 329.45L378.009 329.925C375.109 330.225 373.934 331.575 373.934 333.55ZM375.984 333.3C375.984 332.075 376.784 331.6 378.359 331.45L382.959 330.975C382.959 333.55 381.159 335.5 378.334 335.5C376.884 335.5 375.984 334.725 375.984 333.3ZM392.879 322.6C393.879 322.6 394.679 321.85 394.679 320.85C394.679 319.9 393.879 319.125 392.879 319.125C391.854 319.125 391.079 319.9 391.079 320.85C391.079 321.85 391.854 322.6 392.879 322.6ZM388.729 337H397.654V335.25H394.154V325.825C394.154 324.875 393.704 324.225 392.529 324.325L389.654 324.575V326.325L392.229 326.1V335.25H388.729V337ZM406.765 326.075C408.89 326.075 409.915 327.075 409.915 329.675V337H411.94V329.4C411.94 325.95 410.115 324.325 407.315 324.325C404.615 324.325 403.04 325.9 402.54 328.15H401.965L402.29 326.725V324.575H400.24V337H402.29V331.5C402.29 328.15 404.14 326.075 406.765 326.075ZM414.755 330.625C414.755 334.2 416.63 337.25 421.08 337.25C425.03 337.25 426.53 334.575 427.005 332.65H424.955C424.505 334.55 423.13 335.55 421.08 335.55C418.005 335.55 416.88 333.525 416.755 331.175H426.58V330.375C426.58 326.55 424.28 324.325 420.78 324.325C417.255 324.325 414.755 326.625 414.755 330.625ZM416.755 329.625C416.755 327.625 418.33 326.05 420.78 326.05C423.255 326.05 424.58 327.625 424.58 329.625H416.755ZM429.83 337H431.88V326.1L438.455 326.325V324.575L431.555 324.35C430.38 324.3 429.83 324.875 429.83 326.05V337ZM440.615 322.65L443.54 323.6L444.59 323.65L443.715 324.275L441.915 326.75L443.19 327.675L444.99 325.2L445.365 324.2L445.715 325.225L447.515 327.675L448.79 326.75L447.015 324.275L446.165 323.675L447.24 323.625L450.14 322.675L449.665 321.175L446.74 322.1L445.865 322.75L446.19 321.675V318.625H444.615V321.675L444.915 322.725L444.015 322.075L441.115 321.125L440.615 322.65ZM457.186 322.6C458.186 322.6 458.986 321.85 458.986 320.85C458.986 319.9 458.186 319.125 457.186 319.125C456.161 319.125 455.386 319.9 455.386 320.85C455.386 321.85 456.161 322.6 457.186 322.6ZM453.036 337H461.961V335.25H458.461V325.825C458.461 324.875 458.011 324.225 456.836 324.325L453.961 324.575V326.325L456.536 326.1V335.25H453.036V337ZM471.072 326.075C473.197 326.075 474.222 327.075 474.222 329.675V337H476.247V329.4C476.247 325.95 474.422 324.325 471.622 324.325C468.922 324.325 467.347 325.9 466.847 328.15H466.272L466.597 326.725V324.575H464.547V337H466.597V331.5C466.597 328.15 468.447 326.075 471.072 326.075ZM481.96 337.25C483.11 337.25 484.035 336.35 484.035 335.15C484.035 334 483.11 333.1 481.96 333.1C480.785 333.1 479.885 334 479.885 335.15C479.885 336.35 480.785 337.25 481.96 337.25Z" fill="white"/>
<path d="M45.425 402.325V399.325L32.7 394.375L31.75 397.225L41.925 400.825L31.75 404.15L32.7 407L45.425 402.325Z" fill="white"/>
<path d="M74 397.45H78C78 394.075 79.35 392.625 82.375 392.625C84.65 392.625 85.4 393.75 85.4 394.875C85.4 398.775 76.05 399.75 74.25 400V407H89.4V403.5H77.75L75.25 404.25V403.25C83.5 401.725 89.4 400.975 89.4 395.05C89.4 391.2 86.5 389.125 82.325 389.125C77.7 389.125 74 391.525 74 397.45ZM99.9072 389.125C94.5572 389.125 91.4072 392.8 91.4072 398.175C91.4072 403.575 94.5572 407.25 99.9072 407.25C105.232 407.25 108.382 403.575 108.382 398.175C108.382 392.8 105.232 389.125 99.9072 389.125ZM99.9072 392.625C100.882 392.625 101.732 392.85 102.407 393.3L95.6822 400.475C95.5072 399.8 95.4072 399.05 95.4072 398.175C95.4072 394.55 97.0822 392.625 99.9072 392.625ZM99.9072 403.75C98.9322 403.75 98.0822 403.525 97.3822 403.05L104.107 395.875C104.282 396.55 104.382 397.325 104.382 398.175C104.382 401.825 102.732 403.75 99.9072 403.75ZM113.852 399.625C115.502 399.625 116.627 398.425 116.627 396.85C116.627 395.325 115.502 394.125 113.852 394.125C112.152 394.125 111.127 395.325 111.127 396.85C111.127 398.425 112.152 399.625 113.852 399.625ZM113.852 407.25C115.502 407.25 116.627 406.05 116.627 404.475C116.627 402.95 115.502 401.75 113.852 401.75C112.152 401.75 111.127 402.95 111.127 404.475C111.127 406.05 112.152 407.25 113.852 407.25ZM127.886 389.125C122.536 389.125 119.386 392.8 119.386 398.175C119.386 403.575 122.536 407.25 127.886 407.25C133.211 407.25 136.361 403.575 136.361 398.175C136.361 392.8 133.211 389.125 127.886 389.125ZM127.886 392.625C128.861 392.625 129.711 392.85 130.386 393.3L123.661 400.475C123.486 399.8 123.386 399.05 123.386 398.175C123.386 394.55 125.061 392.625 127.886 392.625ZM127.886 403.75C126.911 403.75 126.061 403.525 125.361 403.05L132.086 395.875C132.261 396.55 132.361 397.325 132.361 398.175C132.361 401.825 130.711 403.75 127.886 403.75ZM146.855 389.125C141.505 389.125 138.355 392.8 138.355 398.175C138.355 403.575 141.505 407.25 146.855 407.25C152.18 407.25 155.33 403.575 155.33 398.175C155.33 392.8 152.18 389.125 146.855 389.125ZM146.855 392.625C147.83 392.625 148.68 392.85 149.355 393.3L142.63 400.475C142.455 399.8 142.355 399.05 142.355 398.175C142.355 394.55 144.03 392.625 146.855 392.625ZM146.855 403.75C145.88 403.75 145.03 403.525 144.33 403.05L151.055 395.875C151.23 396.55 151.33 397.325 151.33 398.175C151.33 401.825 149.68 403.75 146.855 403.75ZM171.332 389.375H164.832V407H171.332C176.032 407 180.932 405.775 180.932 398.175C180.932 390.6 176.032 389.375 171.332 389.375ZM171.332 403.5H168.832V392.875H171.332C174.457 392.875 176.932 393.125 176.932 398.175C176.932 403.25 174.457 403.5 171.332 403.5ZM182.179 400.525C182.179 404.1 184.404 407.25 189.254 407.25C193.629 407.25 195.704 404.375 195.954 402.55H191.954C191.704 403.5 190.654 404 189.254 404C186.979 404 185.929 402.975 185.929 401.525H195.504V400.275C195.504 396.45 192.754 394.125 188.829 394.125C184.904 394.125 182.179 396.525 182.179 400.525ZM185.929 399.275C185.929 398.325 186.604 397.375 188.829 397.375C191.054 397.375 191.754 398.325 191.754 399.275H185.929ZM209.468 403.525C209.468 400.9 207.218 400.275 204.768 399.475C202.768 398.825 201.518 398.45 201.518 397.85C201.518 397.35 202.043 397.125 202.993 397.125C204.368 397.125 205.043 397.8 205.043 398.7H209.043C209.043 396.25 207.293 394.125 203.018 394.125C199.543 394.125 197.518 395.425 197.518 397.675C197.518 400.5 200.393 401.125 202.743 401.9C204.768 402.575 205.468 402.75 205.468 403.4C205.468 404 204.793 404.25 203.718 404.25C201.618 404.25 200.943 403.4 200.943 402.425H196.943C196.943 405.375 198.943 407.25 203.593 407.25C207.943 407.25 209.468 405.65 209.468 403.525ZM216.138 393.125C217.613 393.125 218.538 392.425 218.538 391.125C218.538 389.85 217.613 389.125 216.138 389.125C214.663 389.125 213.788 389.85 213.788 391.125C213.788 392.425 214.663 393.125 216.138 393.125ZM210.963 407H221.963V403.5H218.388V396.225C218.388 394.825 217.613 394.05 216.213 394.125L211.463 394.375V397.875L214.538 397.725V403.5H210.963V407ZM236.761 394.375C235.636 394.375 234.336 394.5 233.586 395.475C232.261 394.5 230.511 394.125 228.586 394.125C224.611 394.125 221.461 395.725 221.461 399.05C221.461 403.2 226.336 403.875 230.961 402.225V403.225C228.661 403.775 226.061 404.075 223.186 404.375L223.611 406.625C227.486 405.975 232.011 405.15 232.011 407C232.011 408.375 230.461 408.5 222.286 408.5V412C231.661 412 236.036 411.575 236.036 407.85C236.036 405.175 233.361 404.425 230.486 404.6C233.961 403.425 236.186 401.925 236.186 399.55C236.186 398.875 235.986 398.3 235.836 398.1C236.186 397.875 236.636 397.875 237.011 397.875H237.861V394.375H236.761ZM228.836 400.975C226.436 400.975 225.461 400.375 225.461 399.3C225.461 398.25 226.436 397.625 228.836 397.625C231.236 397.625 232.186 398.25 232.186 399.3C232.186 400.375 231.236 400.975 228.836 400.975ZM247.212 397.625C249.137 397.625 249.812 398.5 249.812 400.8V407H253.812V400.175C253.812 396.275 251.862 394.125 248.637 394.125C245.937 394.125 244.362 395.9 243.862 398.15H242.862L243.612 395.9V394.375H239.612V407H243.612V402.325C243.612 398.775 245.037 397.625 247.212 397.625ZM263.563 407H267.563V401.5L275.563 401V397.45L267.563 397.95V392.875H276.138V389.375H263.563V407ZM277.388 407H288.388V403.5H284.888V390.55C284.888 389.15 284.113 388.4 282.713 388.45L277.888 388.625V392.125L280.888 391.975V403.5H277.388V407ZM289.137 400.675C289.137 405.1 292.287 407.25 296.262 407.25C300.212 407.25 303.362 405.1 303.362 400.675C303.362 396.275 300.212 394.125 296.262 394.125C292.287 394.125 289.137 396.275 289.137 400.675ZM293.137 400.675C293.137 398.575 294.362 397.625 296.262 397.625C298.137 397.625 299.362 398.575 299.362 400.675C299.362 402.8 298.137 403.75 296.262 403.75C294.362 403.75 293.137 402.8 293.137 400.675ZM303.865 394.375L305.64 407H313.99L314.965 395.375H315.965L316.94 407H325.29L327.065 394.375H323.265L321.615 406H320.615L319.64 394.375H311.29L310.315 406H309.315L307.69 394.375H303.865Z" fill="white"/>
<path d="M79.775 425.375H74.825V443H76.875V436.925H79.775C84.225 436.925 87.05 435.75 87.05 431.125C87.05 426.525 84.225 425.375 79.775 425.375ZM79.8 435.175H76.875V427.125H79.8C82.8 427.125 85 427.675 85 431.125C85 434.625 82.8 435.175 79.8 435.175ZM89.8885 443H91.9385V432.1L98.5135 432.325V430.575L91.6135 430.35C90.4385 430.3 89.8885 430.875 89.8885 432.05V443ZM100.35 439.55C100.35 440.85 100.9 443.25 104.5 443.25C107.5 443.25 108.825 441.475 109.3 439.575H109.9L109.575 440.875V441.55C109.575 442.475 110.1 443 111.05 443H113.25V441.25H111.425V435.95C111.425 432.625 109.35 430.325 105.875 430.325C102.35 430.325 100.4 432.625 100.4 435.2H102.4C102.4 432.85 104.075 432.05 105.875 432.05C108.025 432.05 109.25 433.175 109.375 435.45L104.425 435.925C101.525 436.225 100.35 437.575 100.35 439.55ZM102.4 439.3C102.4 438.075 103.2 437.6 104.775 437.45L109.375 436.975C109.375 439.55 107.575 441.5 104.75 441.5C103.3 441.5 102.4 440.725 102.4 439.3ZM124.396 443H126.721L121.921 436.325L124.971 434.65C125.671 434.275 126.046 433.675 125.971 432.85L125.771 430.575H123.721L123.971 433.05L117.646 436.5V424.625H115.596V443H117.646V438.65L120.246 437.225L124.396 443ZM133.086 441.525V432.325H136.961V430.575H133.086V426.75L131.061 427.375V430.575H128.311V432.325H131.061V441.55C131.061 442.7 131.586 443.325 132.761 443.25L137.461 443V441.25L133.086 441.525ZM143.783 428.6C144.783 428.6 145.583 427.85 145.583 426.85C145.583 425.9 144.783 425.125 143.783 425.125C142.758 425.125 141.983 425.9 141.983 426.85C141.983 427.85 142.758 428.6 143.783 428.6ZM139.633 443H148.558V441.25H145.058V431.825C145.058 430.875 144.608 430.225 143.433 430.325L140.558 430.575V432.325L143.133 432.1V441.25H139.633V443ZM160.602 439.775C160.602 437.1 157.952 436.55 155.502 435.75C153.502 435.1 152.652 434.725 152.652 433.525C152.652 432.4 153.752 432 155.127 432C157.102 432 158.127 432.825 158.127 434.5H160.177C160.177 432.45 159.002 430.325 155.127 430.325C152.277 430.325 150.602 431.625 150.602 433.6C150.602 435.85 152.502 436.575 154.852 437.325C156.877 437.95 158.552 438.225 158.552 439.85C158.552 441.125 157.652 441.575 155.727 441.575C153.327 441.575 152.077 440.575 152.077 438.425H150.027C150.027 441.375 151.677 443.25 155.702 443.25C159.427 443.25 160.602 441.65 160.602 439.775ZM162.704 436.775C162.704 440.375 165.029 443.25 169.054 443.25C171.454 443.25 174.529 441.9 174.854 438.3H172.779C172.429 440.675 170.854 441.5 169.054 441.5C166.104 441.5 164.754 439.35 164.754 436.775C164.754 434.225 166.104 432.075 169.054 432.075C170.854 432.075 172.429 432.9 172.779 435.275H174.854C174.529 431.675 171.454 430.325 169.054 430.325C165.029 430.325 162.704 433.2 162.704 436.775ZM184.903 430.325C182.203 430.325 180.628 431.9 180.128 434.15H179.553L179.878 432.725V424.625H177.828V443H179.878V437.5C179.878 434.15 181.728 432.075 184.353 432.075C186.478 432.075 187.503 433.075 187.503 435.675V443H189.528V435.4C189.528 431.95 187.703 430.325 184.903 430.325ZM192.343 436.625C192.343 440.2 194.218 443.25 198.668 443.25C202.618 443.25 204.118 440.575 204.593 438.65H202.543C202.093 440.55 200.718 441.55 198.668 441.55C195.593 441.55 194.468 439.525 194.343 437.175H204.168V436.375C204.168 432.55 201.868 430.325 198.368 430.325C194.843 430.325 192.343 432.625 192.343 436.625ZM194.343 435.625C194.343 433.625 195.918 432.05 198.368 432.05C200.843 432.05 202.168 433.625 202.168 435.625H194.343ZM220.986 425.375H216.036V443H218.086V436.925H220.986C225.436 436.925 228.261 435.75 228.261 431.125C228.261 426.525 225.436 425.375 220.986 425.375ZM221.011 435.175H218.086V427.125H221.011C224.011 427.125 226.211 427.675 226.211 431.125C226.211 434.625 224.011 435.175 221.011 435.175ZM231.099 443H233.149V432.1L239.724 432.325V430.575L232.824 430.35C231.649 430.3 231.099 430.875 231.099 432.05V443ZM240.756 436.775C240.756 440.4 243.356 443.25 247.331 443.25C251.281 443.25 253.856 440.4 253.856 436.775C253.856 433.175 251.281 430.325 247.331 430.325C243.356 430.325 240.756 433.175 240.756 436.775ZM242.806 436.775C242.806 434.2 244.381 432.075 247.331 432.075C250.256 432.075 251.831 434.2 251.831 436.775C251.831 439.375 250.256 441.5 247.331 441.5C244.381 441.5 242.806 439.375 242.806 436.775ZM258.566 428.6C259.591 428.6 260.391 427.85 260.391 426.85C260.391 425.9 259.591 425.125 258.566 425.125C257.541 425.125 256.766 425.9 256.766 426.85C256.766 427.85 257.541 428.6 258.566 428.6ZM255.216 447.575H257.466L259.516 443.95C259.841 443.375 259.941 442.9 259.941 442.25V431.825C259.941 430.875 259.416 430.25 258.241 430.35L255.216 430.575V432.325L257.891 432.1V441.95C257.891 442.6 257.791 443.075 257.466 443.65L255.216 447.575ZM263.021 436.625C263.021 440.2 264.896 443.25 269.346 443.25C273.296 443.25 274.796 440.575 275.271 438.65H273.221C272.771 440.55 271.396 441.55 269.346 441.55C266.271 441.55 265.146 439.525 265.021 437.175H274.846V436.375C274.846 432.55 272.546 430.325 269.046 430.325C265.521 430.325 263.021 432.625 263.021 436.625ZM265.021 435.625C265.021 433.625 266.596 432.05 269.046 432.05C271.521 432.05 272.846 433.625 272.846 435.625H265.021ZM287.043 443H289.368L284.568 436.325L287.618 434.65C288.318 434.275 288.693 433.675 288.618 432.85L288.418 430.575H286.368L286.618 433.05L280.293 436.5V424.625H278.243V443H280.293V438.65L282.893 437.225L287.043 443ZM295.733 441.525V432.325H299.608V430.575H295.733V426.75L293.708 427.375V430.575H290.958V432.325H293.708V441.55C293.708 442.7 294.233 443.325 295.408 443.25L300.108 443V441.25L295.733 441.525ZM302.474 439.55C302.474 440.85 303.024 443.25 306.624 443.25C309.624 443.25 310.949 441.475 311.424 439.575H312.024L311.699 440.875V441.55C311.699 442.475 312.224 443 313.174 443H315.374V441.25H313.549V435.95C313.549 432.625 311.474 430.325 307.999 430.325C304.474 430.325 302.524 432.625 302.524 435.2H304.524C304.524 432.85 306.199 432.05 307.999 432.05C310.149 432.05 311.374 433.175 311.499 435.45L306.549 435.925C303.649 436.225 302.474 437.575 302.474 439.55ZM304.524 439.3C304.524 438.075 305.324 437.6 306.899 437.45L311.499 436.975C311.499 439.55 309.699 441.5 306.874 441.5C305.424 441.5 304.524 440.725 304.524 439.3ZM317.721 443H319.771V432.1L326.346 432.325V430.575L319.446 430.35C318.271 430.3 317.721 430.875 317.721 432.05V443ZM328.756 443H330.806V441.175L330.481 439.775H331.056C331.581 441.7 333.256 443.25 336.106 443.25C339.706 443.25 342.006 440.475 342.006 436.775C342.006 433.1 339.706 430.325 336.106 430.325C333.256 430.325 331.581 431.875 331.056 433.825H330.481L330.806 432.4V424.625H328.756V443ZM330.806 436.775C330.806 433.475 332.931 432.075 335.481 432.075C338.056 432.075 339.956 433.475 339.956 436.775C339.956 440.1 338.056 441.5 335.481 441.5C332.931 441.5 330.806 440.1 330.806 436.775ZM344.345 436.625C344.345 440.2 346.22 443.25 350.67 443.25C354.62 443.25 356.12 440.575 356.595 438.65H354.545C354.095 440.55 352.72 441.55 350.67 441.55C347.595 441.55 346.47 439.525 346.345 437.175H356.17V436.375C356.17 432.55 353.87 430.325 350.37 430.325C346.845 430.325 344.345 432.625 344.345 436.625ZM346.345 435.625C346.345 433.625 347.92 432.05 350.37 432.05C352.845 432.05 354.17 433.625 354.17 435.625H346.345ZM362.386 428.6C363.386 428.6 364.186 427.85 364.186 426.85C364.186 425.9 363.386 425.125 362.386 425.125C361.361 425.125 360.586 425.9 360.586 426.85C360.586 427.85 361.361 428.6 362.386 428.6ZM358.236 443H367.161V441.25H363.661V431.825C363.661 430.875 363.211 430.225 362.036 430.325L359.161 430.575V432.325L361.736 432.1V441.25H358.236V443ZM372.027 441.525V432.325H375.902V430.575H372.027V426.75L370.002 427.375V430.575H367.252V432.325H370.002V441.55C370.002 442.7 370.527 443.325 371.702 443.25L376.402 443V441.25L372.027 441.525ZM387.118 439.55C387.118 440.85 387.668 443.25 391.268 443.25C394.268 443.25 395.593 441.475 396.068 439.575H396.668L396.343 440.875V441.55C396.343 442.475 396.868 443 397.818 443H400.018V441.25H398.193V435.95C398.193 432.625 396.118 430.325 392.643 430.325C389.118 430.325 387.168 432.625 387.168 435.2H389.168C389.168 432.85 390.843 432.05 392.643 432.05C394.793 432.05 396.018 433.175 396.143 435.45L391.193 435.925C388.293 436.225 387.118 437.575 387.118 439.55ZM389.168 439.3C389.168 438.075 389.968 437.6 391.543 437.45L396.143 436.975C396.143 439.55 394.343 441.5 391.518 441.5C390.068 441.5 389.168 440.725 389.168 439.3ZM401.663 443H410.663V441.25H407.188V426.1C407.188 424.925 406.638 424.275 405.488 424.375L402.588 424.625V426.375L405.163 426.15V441.25H401.663V443ZM412.576 443H421.576V441.25H418.101V426.1C418.101 424.925 417.551 424.275 416.401 424.375L413.501 424.625V426.375L416.076 426.15V441.25H412.576V443ZM422.982 436.625C422.982 440.2 424.857 443.25 429.307 443.25C433.257 443.25 434.757 440.575 435.232 438.65H433.182C432.732 440.55 431.357 441.55 429.307 441.55C426.232 441.55 425.107 439.525 424.982 437.175H434.807V436.375C434.807 432.55 432.507 430.325 429.007 430.325C425.482 430.325 422.982 432.625 422.982 436.625ZM424.982 435.625C424.982 433.625 426.557 432.05 429.007 432.05C431.482 432.05 432.807 433.625 432.807 435.625H424.982ZM441.024 428.6C442.024 428.6 442.824 427.85 442.824 426.85C442.824 425.9 442.024 425.125 441.024 425.125C439.999 425.125 439.224 425.9 439.224 426.85C439.224 427.85 439.999 428.6 441.024 428.6ZM436.874 443H445.799V441.25H442.299V431.825C442.299 430.875 441.849 430.225 440.674 430.325L437.799 430.575V432.325L440.374 432.1V441.25H436.874V443ZM454.91 432.075C457.035 432.075 458.06 433.075 458.06 435.675V443H460.085V435.4C460.085 431.95 458.26 430.325 455.46 430.325C452.76 430.325 451.185 431.9 450.685 434.15H450.11L450.435 432.725V430.575H448.385V443H450.435V437.5C450.435 434.15 452.285 432.075 454.91 432.075ZM462.899 436.625C462.899 440.2 464.774 443.25 469.224 443.25C473.174 443.25 474.674 440.575 475.149 438.65H473.099C472.649 440.55 471.274 441.55 469.224 441.55C466.149 441.55 465.024 439.525 464.899 437.175H474.724V436.375C474.724 432.55 472.424 430.325 468.924 430.325C465.399 430.325 462.899 432.625 462.899 436.625ZM464.899 435.625C464.899 433.625 466.474 432.05 468.924 432.05C471.399 432.05 472.724 433.625 472.724 435.625H464.899ZM486.093 436.775C486.093 440.4 488.693 443.25 492.668 443.25C496.618 443.25 499.193 440.4 499.193 436.775C499.193 433.175 496.618 430.325 492.668 430.325C488.693 430.325 486.093 433.175 486.093 436.775ZM488.143 436.775C488.143 434.2 489.718 432.075 492.668 432.075C495.593 432.075 497.168 434.2 497.168 436.775C497.168 439.375 495.593 441.5 492.668 441.5C489.718 441.5 488.143 439.375 488.143 436.775ZM514.797 443V424.625H512.747V432.4L513.097 433.825H512.497C511.972 431.875 510.297 430.325 507.472 430.325C503.872 430.325 501.547 433.1 501.547 436.775C501.547 440.475 503.872 443.25 507.472 443.25C510.297 443.25 511.972 441.7 512.497 439.775H513.097L512.747 441.175V443H514.797ZM512.747 436.775C512.747 440.1 510.647 441.5 508.072 441.5C505.497 441.5 503.597 440.1 503.597 436.775C503.597 433.475 505.497 432.075 508.072 432.075C510.647 432.075 512.747 433.475 512.747 436.775ZM517.806 436.625C517.806 440.2 519.681 443.25 524.131 443.25C528.081 443.25 529.581 440.575 530.056 438.65H528.006C527.556 440.55 526.181 441.55 524.131 441.55C521.056 441.55 519.931 439.525 519.806 437.175H529.631V436.375C529.631 432.55 527.331 430.325 523.831 430.325C520.306 430.325 517.806 432.625 517.806 436.625ZM519.806 435.625C519.806 433.625 521.381 432.05 523.831 432.05C526.306 432.05 527.631 433.625 527.631 435.625H519.806ZM532.882 443H534.932V432.1L541.507 432.325V430.575L534.607 430.35C533.432 430.3 532.882 430.875 532.882 432.05V443ZM555.868 428.6C556.868 428.6 557.668 427.85 557.668 426.85C557.668 425.9 556.868 425.125 555.868 425.125C554.843 425.125 554.068 425.9 554.068 426.85C554.068 427.85 554.843 428.6 555.868 428.6ZM551.718 443H560.643V441.25H557.143V431.825C557.143 430.875 556.693 430.225 555.518 430.325L552.643 430.575V432.325L555.218 432.1V441.25H551.718V443ZM569.753 432.075C571.878 432.075 572.903 433.075 572.903 435.675V443H574.928V435.4C574.928 431.95 573.103 430.325 570.303 430.325C567.603 430.325 566.028 431.9 565.528 434.15H564.953L565.278 432.725V430.575H563.228V443H565.278V437.5C565.278 434.15 567.128 432.075 569.753 432.075ZM600.191 425.375H585.916V427.125H592.066V443H594.091V427.125H600.191V425.375ZM598.007 436.625C598.007 440.2 599.882 443.25 604.332 443.25C608.282 443.25 609.782 440.575 610.257 438.65H608.207C607.757 440.55 606.382 441.55 604.332 441.55C601.257 441.55 600.132 439.525 600.007 437.175H609.832V436.375C609.832 432.55 607.532 430.325 604.032 430.325C600.507 430.325 598.007 432.625 598.007 436.625ZM600.007 435.625C600.007 433.625 601.582 432.05 604.032 432.05C606.507 432.05 607.832 433.625 607.832 435.625H600.007ZM612.777 439.55C612.777 440.85 613.327 443.25 616.927 443.25C619.927 443.25 621.252 441.475 621.727 439.575H622.327L622.002 440.875V441.55C622.002 442.475 622.527 443 623.477 443H625.677V441.25H623.852V435.95C623.852 432.625 621.777 430.325 618.302 430.325C614.777 430.325 612.827 432.625 612.827 435.2H614.827C614.827 432.85 616.502 432.05 618.302 432.05C620.452 432.05 621.677 433.175 621.802 435.45L616.852 435.925C613.952 436.225 612.777 437.575 612.777 439.55ZM614.827 439.3C614.827 438.075 615.627 437.6 617.202 437.45L621.802 436.975C621.802 439.55 620.002 441.5 617.177 441.5C615.727 441.5 614.827 440.725 614.827 439.3ZM643.323 430.325C640.673 430.325 639.373 431.85 638.873 434.1H638.498C638.223 431.875 637.023 430.325 634.773 430.325C632.123 430.325 630.823 431.85 630.323 434.1H629.748L630.073 432.7V430.575H628.023V443H630.073V437.525C630.073 434.275 631.548 432.075 634.023 432.075C636.048 432.075 636.573 433.25 636.573 435.65V443H638.623V437.525C638.623 434.275 640.098 432.075 642.573 432.075C644.598 432.075 645.123 433.25 645.123 435.65V443H647.173V435.175C647.173 432.4 645.923 430.325 643.323 430.325ZM660.285 439.775C660.285 437.1 657.635 436.55 655.185 435.75C653.185 435.1 652.335 434.725 652.335 433.525C652.335 432.4 653.435 432 654.81 432C656.785 432 657.81 432.825 657.81 434.5H659.86C659.86 432.45 658.685 430.325 654.81 430.325C651.96 430.325 650.285 431.625 650.285 433.6C650.285 435.85 652.185 436.575 654.535 437.325C656.56 437.95 658.235 438.225 658.235 439.85C658.235 441.125 657.335 441.575 655.41 441.575C653.01 441.575 651.76 440.575 651.76 438.425H649.71C649.71 441.375 651.36 443.25 655.385 443.25C659.11 443.25 660.285 441.65 660.285 439.775ZM686.536 430.325C683.886 430.325 682.586 431.85 682.086 434.1H681.711C681.436 431.875 680.236 430.325 677.986 430.325C675.336 430.325 674.036 431.85 673.536 434.1H672.961L673.286 432.7V430.575H671.236V443H673.286V437.525C673.286 434.275 674.761 432.075 677.236 432.075C679.261 432.075 679.786 433.25 679.786 435.65V443H681.836V437.525C681.836 434.275 683.311 432.075 685.786 432.075C687.811 432.075 688.336 433.25 688.336 435.65V443H690.386V435.175C690.386 432.4 689.136 430.325 686.536 430.325ZM697.127 428.6C698.127 428.6 698.927 427.85 698.927 426.85C698.927 425.9 698.127 425.125 697.127 425.125C696.102 425.125 695.327 425.9 695.327 426.85C695.327 427.85 696.102 428.6 697.127 428.6ZM692.977 443H701.902V441.25H698.402V431.825C698.402 430.875 697.952 430.225 696.777 430.325L693.902 430.575V432.325L696.477 432.1V441.25H692.977V443ZM706.768 441.525V432.325H710.643V430.575H706.768V426.75L704.743 427.375V430.575H701.993V432.325H704.743V441.55C704.743 442.7 705.268 443.325 706.443 443.25L711.143 443V441.25L706.768 441.525ZM87.575 468V449.625H85.525V457.4L85.875 458.825H85.275C84.75 456.875 83.075 455.325 80.25 455.325C76.65 455.325 74.325 458.1 74.325 461.775C74.325 465.475 76.65 468.25 80.25 468.25C83.075 468.25 84.75 466.7 85.275 464.775H85.875L85.525 466.175V468H87.575ZM85.525 461.775C85.525 465.1 83.425 466.5 80.85 466.5C78.275 466.5 76.375 465.1 76.375 461.775C76.375 458.475 78.275 457.075 80.85 457.075C83.425 457.075 85.525 458.475 85.525 461.775ZM94.6127 453.6C95.6127 453.6 96.4127 452.85 96.4127 451.85C96.4127 450.9 95.6127 450.125 94.6127 450.125C93.5877 450.125 92.8127 450.9 92.8127 451.85C92.8127 452.85 93.5877 453.6 94.6127 453.6ZM90.4627 468H99.3877V466.25H95.8877V456.825C95.8877 455.875 95.4377 455.225 94.2627 455.325L91.3877 455.575V457.325L93.9627 457.1V466.25H90.4627V468ZM101.973 468H104.023V457.1L110.598 457.325V455.575L103.698 455.35C102.523 455.3 101.973 455.875 101.973 457.05V468ZM111.63 461.625C111.63 465.2 113.505 468.25 117.955 468.25C121.905 468.25 123.405 465.575 123.88 463.65H121.83C121.38 465.55 120.005 466.55 117.955 466.55C114.88 466.55 113.755 464.525 113.63 462.175H123.455V461.375C123.455 457.55 121.155 455.325 117.655 455.325C114.13 455.325 111.63 457.625 111.63 461.625ZM113.63 460.625C113.63 458.625 115.205 457.05 117.655 457.05C120.13 457.05 121.455 458.625 121.455 460.625H113.63ZM135.651 468H137.976L133.176 461.325L136.226 459.65C136.926 459.275 137.301 458.675 137.226 457.85L137.026 455.575H134.976L135.226 458.05L128.901 461.5V449.625H126.851V468H128.901V463.65L131.501 462.225L135.651 468ZM144.341 466.525V457.325H148.216V455.575H144.341V451.75L142.316 452.375V455.575H139.566V457.325H142.316V466.55C142.316 467.7 142.841 468.325 144.016 468.25L148.716 468V466.25L144.341 466.525ZM150.375 461.625C150.375 465.2 152.25 468.25 156.7 468.25C160.65 468.25 162.15 465.575 162.625 463.65H160.575C160.125 465.55 158.75 466.55 156.7 466.55C153.625 466.55 152.5 464.525 152.375 462.175H162.2V461.375C162.2 457.55 159.9 455.325 156.4 455.325C152.875 455.325 150.375 457.625 150.375 461.625ZM152.375 460.625C152.375 458.625 153.95 457.05 156.4 457.05C158.875 457.05 160.2 458.625 160.2 460.625H152.375ZM165.45 468H167.5V457.1L174.075 457.325V455.575L167.175 455.35C166 455.3 165.45 455.875 165.45 457.05V468ZM197.236 450.375V458.425H186.836V450.375H184.786V468H186.836V460.175H197.236V468H199.261V450.375H197.236ZM206.258 453.6C207.258 453.6 208.058 452.85 208.058 451.85C208.058 450.9 207.258 450.125 206.258 450.125C205.233 450.125 204.458 450.9 204.458 451.85C204.458 452.85 205.233 453.6 206.258 453.6ZM202.108 468H211.033V466.25H207.533V456.825C207.533 455.875 207.083 455.225 205.908 455.325L203.033 455.575V457.325L205.608 457.1V466.25H202.108V468ZM212.942 468H221.942V466.25H218.467V451.1C218.467 449.925 217.917 449.275 216.767 449.375L213.867 449.625V451.375L216.442 451.15V466.25H212.942V468ZM230.705 451.375H232.955V449.625H230.805C227.83 449.625 226.605 451.2 226.605 453.675V455.575H223.855V457.325H226.605V466.25H223.855V468H232.255V466.25H228.63V457.325H232.255V455.575H228.63V453.725C228.63 452.1 229.13 451.375 230.705 451.375ZM234.359 461.625C234.359 465.2 236.234 468.25 240.684 468.25C244.634 468.25 246.134 465.575 246.609 463.65H244.559C244.109 465.55 242.734 466.55 240.684 466.55C237.609 466.55 236.484 464.525 236.359 462.175H246.184V461.375C246.184 457.55 243.884 455.325 240.384 455.325C236.859 455.325 234.359 457.625 234.359 461.625ZM236.359 460.625C236.359 458.625 237.934 457.05 240.384 457.05C242.859 457.05 244.184 458.625 244.184 460.625H236.359ZM259.259 464.775C259.259 462.1 256.609 461.55 254.159 460.75C252.159 460.1 251.309 459.725 251.309 458.525C251.309 457.4 252.409 457 253.784 457C255.759 457 256.784 457.825 256.784 459.5H258.834C258.834 457.45 257.659 455.325 253.784 455.325C250.934 455.325 249.259 456.625 249.259 458.6C249.259 460.85 251.159 461.575 253.509 462.325C255.534 462.95 257.209 463.225 257.209 464.85C257.209 466.125 256.309 466.575 254.384 466.575C251.984 466.575 250.734 465.575 250.734 463.425H248.684C248.684 466.375 250.334 468.25 254.359 468.25C258.084 468.25 259.259 466.65 259.259 464.775ZM265.386 466.525V457.325H269.261V455.575H265.386V451.75L263.361 452.375V455.575H260.611V457.325H263.361V466.55C263.361 467.7 263.886 468.325 265.061 468.25L269.761 468V466.25L265.386 466.525ZM271.42 461.625C271.42 465.2 273.295 468.25 277.745 468.25C281.695 468.25 283.195 465.575 283.67 463.65H281.62C281.17 465.55 279.795 466.55 277.745 466.55C274.67 466.55 273.545 464.525 273.42 462.175H283.245V461.375C283.245 457.55 280.945 455.325 277.445 455.325C273.92 455.325 271.42 457.625 271.42 461.625ZM273.42 460.625C273.42 458.625 274.995 457.05 277.445 457.05C279.92 457.05 281.245 458.625 281.245 460.625H273.42ZM284.89 468H293.89V466.25H290.415V451.1C290.415 449.925 289.865 449.275 288.715 449.375L285.815 449.625V451.375L288.39 451.15V466.25H284.89V468ZM295.804 468H304.804V466.25H301.329V451.1C301.329 449.925 300.779 449.275 299.629 449.375L296.729 449.625V451.375L299.304 451.15V466.25H295.804V468ZM312.099 466.5C309.949 466.5 308.949 465.5 308.949 462.9V455.575H306.899V463.175C306.899 466.625 308.724 468.25 311.549 468.25C314.249 468.25 315.824 466.675 316.324 464.425H316.899L316.574 465.85V468H318.599V455.575H316.574V461.1C316.574 464.425 314.724 466.5 312.099 466.5ZM328.42 457.075C330.545 457.075 331.57 458.075 331.57 460.675V468H333.595V460.4C333.595 456.95 331.77 455.325 328.97 455.325C326.27 455.325 324.695 456.9 324.195 459.15H323.62L323.945 457.725V455.575H321.895V468H323.945V462.5C323.945 459.15 325.795 457.075 328.42 457.075ZM349.666 455.575C348.541 455.575 348.066 455.7 346.766 456.525C345.591 455.7 344.041 455.325 342.541 455.325C338.966 455.325 336.166 456.925 336.166 460.35C336.166 464.2 339.666 465.5 343.666 464.475V465.05C341.741 465.65 339.766 466.225 337.766 466.775L338.191 468.2C341.266 467.275 346.741 465.95 346.741 468.7C346.741 470.65 344.191 470.825 337.066 470.825V472.575C345.391 472.575 348.791 472.15 348.791 468.85C348.791 466.1 345.991 465.7 343.091 466.175C346.841 464.8 348.941 463.125 348.941 460.45C348.941 459.375 348.616 458.475 348.091 457.825C348.566 457.475 349.016 457.325 349.716 457.325H350.766V455.575H349.666ZM342.566 463.75C339.966 463.75 338.216 462.825 338.216 460.4C338.216 458 339.966 457.075 342.566 457.075C345.191 457.075 346.891 458 346.891 460.4C346.891 462.825 345.191 463.75 342.566 463.75ZM374.221 468V449.625H372.171V457.4L372.521 458.825H371.921C371.396 456.875 369.721 455.325 366.896 455.325C363.296 455.325 360.971 458.1 360.971 461.775C360.971 465.475 363.296 468.25 366.896 468.25C369.721 468.25 371.396 466.7 371.921 464.775H372.521L372.171 466.175V468H374.221ZM372.171 461.775C372.171 465.1 370.071 466.5 367.496 466.5C364.921 466.5 363.021 465.1 363.021 461.775C363.021 458.475 364.921 457.075 367.496 457.075C370.071 457.075 372.171 458.475 372.171 461.775ZM377.23 461.625C377.23 465.2 379.105 468.25 383.555 468.25C387.505 468.25 389.005 465.575 389.48 463.65H387.43C386.98 465.55 385.605 466.55 383.555 466.55C380.48 466.55 379.355 464.525 379.23 462.175H389.055V461.375C389.055 457.55 386.755 455.325 383.255 455.325C379.73 455.325 377.23 457.625 377.23 461.625ZM379.23 460.625C379.23 458.625 380.805 457.05 383.255 457.05C385.73 457.05 387.055 458.625 387.055 460.625H379.23ZM395.272 453.6C396.272 453.6 397.072 452.85 397.072 451.85C397.072 450.9 396.272 450.125 395.272 450.125C394.247 450.125 393.472 450.9 393.472 451.85C393.472 452.85 394.247 453.6 395.272 453.6ZM391.122 468H400.047V466.25H396.547V456.825C396.547 455.875 396.097 455.225 394.922 455.325L392.047 455.575V457.325L394.622 457.1V466.25H391.122V468ZM409.158 457.075C411.283 457.075 412.308 458.075 412.308 460.675V468H414.333V460.4C414.333 456.95 412.508 455.325 409.708 455.325C407.008 455.325 405.433 456.9 404.933 459.15H404.358L404.683 457.725V455.575H402.633V468H404.683V462.5C404.683 459.15 406.533 457.075 409.158 457.075ZM417.147 461.625C417.147 465.2 419.022 468.25 423.472 468.25C427.422 468.25 428.922 465.575 429.397 463.65H427.347C426.897 465.55 425.522 466.55 423.472 466.55C420.397 466.55 419.272 464.525 419.147 462.175H428.972V461.375C428.972 457.55 426.672 455.325 423.172 455.325C419.647 455.325 417.147 457.625 417.147 461.625ZM419.147 460.625C419.147 458.625 420.722 457.05 423.172 457.05C425.647 457.05 426.972 458.625 426.972 460.625H419.147ZM432.222 468H434.272V457.1L440.847 457.325V455.575L433.947 455.35C432.772 455.3 432.222 455.875 432.222 457.05V468ZM465.083 450.375H450.808V452.125H456.958V468H458.983V452.125H465.083V450.375ZM464.766 468H466.816V457.1L473.391 457.325V455.575L466.491 455.35C465.316 455.3 464.766 455.875 464.766 457.05V468ZM475.228 464.55C475.228 465.85 475.778 468.25 479.378 468.25C482.378 468.25 483.703 466.475 484.178 464.575H484.778L484.453 465.875V466.55C484.453 467.475 484.978 468 485.928 468H488.128V466.25H486.303V460.95C486.303 457.625 484.228 455.325 480.753 455.325C477.228 455.325 475.278 457.625 475.278 460.2H477.278C477.278 457.85 478.953 457.05 480.753 457.05C482.903 457.05 484.128 458.175 484.253 460.45L479.303 460.925C476.403 461.225 475.228 462.575 475.228 464.55ZM477.278 464.3C477.278 463.075 478.078 462.6 479.653 462.45L484.253 461.975C484.253 464.55 482.453 466.5 479.628 466.5C478.178 466.5 477.278 465.725 477.278 464.3ZM494.173 453.6C495.173 453.6 495.973 452.85 495.973 451.85C495.973 450.9 495.173 450.125 494.173 450.125C493.148 450.125 492.373 450.9 492.373 451.85C492.373 452.85 493.148 453.6 494.173 453.6ZM490.023 468H498.948V466.25H495.448V456.825C495.448 455.875 494.998 455.225 493.823 455.325L490.948 455.575V457.325L493.523 457.1V466.25H490.023V468ZM508.059 457.075C510.184 457.075 511.209 458.075 511.209 460.675V468H513.234V460.4C513.234 456.95 511.409 455.325 508.609 455.325C505.909 455.325 504.334 456.9 503.834 459.15H503.259L503.584 457.725V455.575H501.534V468H503.584V462.5C503.584 459.15 505.434 457.075 508.059 457.075ZM516.049 461.625C516.049 465.2 517.924 468.25 522.374 468.25C526.324 468.25 527.824 465.575 528.299 463.65H526.249C525.799 465.55 524.424 466.55 522.374 466.55C519.299 466.55 518.174 464.525 518.049 462.175H527.874V461.375C527.874 457.55 525.574 455.325 522.074 455.325C518.549 455.325 516.049 457.625 516.049 461.625ZM518.049 460.625C518.049 458.625 519.624 457.05 522.074 457.05C524.549 457.05 525.874 458.625 525.874 460.625H518.049ZM531.124 468H533.174V457.1L539.749 457.325V455.575L532.849 455.35C531.674 455.3 531.124 455.875 531.124 457.05V468ZM541.909 453.65L544.834 454.6L545.884 454.65L545.009 455.275L543.209 457.75L544.484 458.675L546.284 456.2L546.659 455.2L547.009 456.225L548.809 458.675L550.084 457.75L548.309 455.275L547.459 454.675L548.534 454.625L551.434 453.675L550.959 452.175L548.034 453.1L547.159 453.75L547.484 452.675V449.625H545.909V452.675L546.209 453.725L545.309 453.075L542.409 452.125L541.909 453.65ZM558.48 453.6C559.48 453.6 560.28 452.85 560.28 451.85C560.28 450.9 559.48 450.125 558.48 450.125C557.455 450.125 556.68 450.9 556.68 451.85C556.68 452.85 557.455 453.6 558.48 453.6ZM554.33 468H563.255V466.25H559.755V456.825C559.755 455.875 559.305 455.225 558.13 455.325L555.255 455.575V457.325L557.83 457.1V466.25H554.33V468ZM572.366 457.075C574.491 457.075 575.516 458.075 575.516 460.675V468H577.541V460.4C577.541 456.95 575.716 455.325 572.916 455.325C570.216 455.325 568.641 456.9 568.141 459.15H567.566L567.891 457.725V455.575H565.841V468H567.891V462.5C567.891 459.15 569.741 457.075 572.366 457.075ZM587.429 457.075C589.554 457.075 590.579 458.075 590.579 460.675V468H592.604V460.4C592.604 456.95 590.779 455.325 587.979 455.325C585.279 455.325 583.704 456.9 583.204 459.15H582.629L582.954 457.725V455.575H580.904V468H582.954V462.5C582.954 459.15 584.804 457.075 587.429 457.075ZM595.419 461.625C595.419 465.2 597.294 468.25 601.744 468.25C605.694 468.25 607.194 465.575 607.669 463.65H605.619C605.169 465.55 603.794 466.55 601.744 466.55C598.669 466.55 597.544 464.525 597.419 462.175H607.244V461.375C607.244 457.55 604.944 455.325 601.444 455.325C597.919 455.325 595.419 457.625 595.419 461.625ZM597.419 460.625C597.419 458.625 598.994 457.05 601.444 457.05C603.919 457.05 605.244 458.625 605.244 460.625H597.419ZM617.019 457.075C619.144 457.075 620.169 458.075 620.169 460.675V468H622.194V460.4C622.194 456.95 620.369 455.325 617.569 455.325C614.869 455.325 613.294 456.9 612.794 459.15H612.219L612.544 457.725V455.575H610.494V468H612.544V462.5C612.544 459.15 614.394 457.075 617.019 457.075ZM627.907 468.25C629.057 468.25 629.982 467.35 629.982 466.15C629.982 465 629.057 464.1 627.907 464.1C626.732 464.1 625.832 465 625.832 466.15C625.832 467.35 626.732 468.25 627.907 468.25Z" fill="white"/>
<path d="M45.425 533.325V530.325L32.7 525.375L31.75 528.225L41.925 531.825L31.75 535.15L32.7 538L45.425 533.325Z" fill="white"/>
<path d="M74 528.45H78C78 525.075 79.35 523.625 82.375 523.625C84.65 523.625 85.4 524.75 85.4 525.875C85.4 529.775 76.05 530.75 74.25 531V538H89.4V534.5H77.75L75.25 535.25V534.25C83.5 532.725 89.4 531.975 89.4 526.05C89.4 522.2 86.5 520.125 82.325 520.125C77.7 520.125 74 522.525 74 528.45ZM91.1572 527.375L92.5572 531C97.9822 529.325 98.8572 525.925 99.1572 521.375H100.157L99.4072 523.625V538H103.407V520.375H95.6322C95.6322 524.4 94.4072 526.1 91.1572 527.375ZM109.384 530.625C111.034 530.625 112.159 529.425 112.159 527.85C112.159 526.325 111.034 525.125 109.384 525.125C107.684 525.125 106.659 526.325 106.659 527.85C106.659 529.425 107.684 530.625 109.384 530.625ZM109.384 538.25C111.034 538.25 112.159 537.05 112.159 535.475C112.159 533.95 111.034 532.75 109.384 532.75C107.684 532.75 106.659 533.95 106.659 535.475C106.659 537.05 107.684 538.25 109.384 538.25ZM123.418 520.125C118.068 520.125 114.918 523.8 114.918 529.175C114.918 534.575 118.068 538.25 123.418 538.25C128.743 538.25 131.893 534.575 131.893 529.175C131.893 523.8 128.743 520.125 123.418 520.125ZM123.418 523.625C124.393 523.625 125.243 523.85 125.918 524.3L119.193 531.475C119.018 530.8 118.918 530.05 118.918 529.175C118.918 525.55 120.593 523.625 123.418 523.625ZM123.418 534.75C122.443 534.75 121.593 534.525 120.893 534.05L127.618 526.875C127.793 527.55 127.893 528.325 127.893 529.175C127.893 532.825 126.243 534.75 123.418 534.75ZM142.388 520.125C137.038 520.125 133.888 523.8 133.888 529.175C133.888 534.575 137.038 538.25 142.388 538.25C147.713 538.25 150.863 534.575 150.863 529.175C150.863 523.8 147.713 520.125 142.388 520.125ZM142.388 523.625C143.363 523.625 144.213 523.85 144.888 524.3L138.163 531.475C137.988 530.8 137.888 530.05 137.888 529.175C137.888 525.55 139.563 523.625 142.388 523.625ZM142.388 534.75C141.413 534.75 140.563 534.525 139.863 534.05L146.588 526.875C146.763 527.55 146.863 528.325 146.863 529.175C146.863 532.825 145.213 534.75 142.388 534.75ZM160.364 538H164.364V532.5L172.364 532V528.45L164.364 528.95V523.875H172.939V520.375H160.364V538ZM173.927 531.525C173.927 535.1 176.152 538.25 181.002 538.25C185.377 538.25 187.452 535.375 187.702 533.55H183.702C183.452 534.5 182.402 535 181.002 535C178.727 535 177.677 533.975 177.677 532.525H187.252V531.275C187.252 527.45 184.502 525.125 180.577 525.125C176.652 525.125 173.927 527.525 173.927 531.525ZM177.677 530.275C177.677 529.325 178.352 528.375 180.577 528.375C182.802 528.375 183.502 529.325 183.502 530.275H177.677ZM193.872 524.125C195.347 524.125 196.272 523.425 196.272 522.125C196.272 520.85 195.347 520.125 193.872 520.125C192.397 520.125 191.522 520.85 191.522 522.125C191.522 523.425 192.397 524.125 193.872 524.125ZM188.697 538H199.697V534.5H196.122V527.225C196.122 525.825 195.347 525.05 193.947 525.125L189.197 525.375V528.875L192.272 528.725V534.5H188.697V538ZM200.44 531.525C200.44 535.1 202.665 538.25 207.515 538.25C211.89 538.25 213.965 535.375 214.215 533.55H210.215C209.965 534.5 208.915 535 207.515 535C205.24 535 204.19 533.975 204.19 532.525H213.765V531.275C213.765 527.45 211.015 525.125 207.09 525.125C203.165 525.125 200.44 527.525 200.44 531.525ZM204.19 530.275C204.19 529.325 204.865 528.375 207.09 528.375C209.315 528.375 210.015 529.325 210.015 530.275H204.19ZM215.955 538H219.955V528.725L226.38 528.875V525.375L218.105 525.175C216.73 525.15 215.955 525.9 215.955 527.275V538ZM227.149 534.55C227.149 535.85 227.824 538.25 231.749 538.25C235.274 538.25 236.499 536.475 236.974 534.375H237.974L237.349 535.875V536.125C237.349 537.325 238.024 538 239.224 538H241.999V534.5H240.174V530.95C240.174 526.8 237.124 525.125 233.649 525.125C230.124 525.125 227.399 527 227.399 530.2H231.149C231.149 529.05 232.049 528.375 233.649 528.375C235.374 528.375 236.174 529 236.174 530.025L232.199 530.575C228.449 531.1 227.149 532.375 227.149 534.55ZM231.149 533.8C231.149 533.075 231.749 532.9 232.949 532.725L236.174 532.275C236.174 533.825 234.724 534.75 232.524 534.75C231.849 534.75 231.149 534.525 231.149 533.8ZM243.494 538H247.494V537.225L246.744 534.975H247.744C248.394 536.65 249.594 538.25 252.719 538.25C256.369 538.25 258.194 535.25 258.194 531.675C258.194 528.1 256.369 525.125 252.719 525.125C249.594 525.125 248.394 526.725 247.744 528.4H246.744L247.494 526.15V519.625H243.494V538ZM247.494 531.675C247.494 529.55 248.694 528.625 250.844 528.625C252.994 528.625 254.194 529.55 254.194 531.675C254.194 533.8 252.994 534.75 250.844 534.75C248.694 534.75 247.494 533.8 247.494 531.675ZM259.449 531.525C259.449 535.1 261.674 538.25 266.524 538.25C270.899 538.25 272.974 535.375 273.224 533.55H269.224C268.974 534.5 267.924 535 266.524 535C264.249 535 263.199 533.975 263.199 532.525H272.774V531.275C272.774 527.45 270.024 525.125 266.099 525.125C262.174 525.125 259.449 527.525 259.449 531.525ZM263.199 530.275C263.199 529.325 263.874 528.375 266.099 528.375C268.324 528.375 269.024 529.325 269.024 530.275H263.199ZM282.564 528.625C284.489 528.625 285.164 529.5 285.164 531.8V538H289.164V531.175C289.164 527.275 287.214 525.125 283.989 525.125C281.289 525.125 279.714 526.9 279.214 529.15H278.214L278.964 526.9V525.375H274.964V538H278.964V533.325C278.964 529.775 280.389 528.625 282.564 528.625ZM305.35 538V519.625H301.35V526.15L302.1 528.4H301.1C300.45 526.725 299.25 525.125 296.125 525.125C292.475 525.125 290.65 528.1 290.65 531.675C290.65 535.25 292.475 538.25 296.125 538.25C299.25 538.25 300.45 536.65 301.1 534.975H302.1L301.35 537.225V538H305.35ZM301.35 531.675C301.35 533.8 300.15 534.75 298 534.75C295.85 534.75 294.65 533.8 294.65 531.675C294.65 529.55 295.85 528.625 298 528.625C300.15 528.625 301.35 529.55 301.35 531.675Z" fill="white"/>
<circle cx="770" cy="38" r="8.5" stroke="#5D3EDE" stroke-width="3"/>
<circle cx="740" cy="38" r="8.5" stroke="#5D3EDE" stroke-width="3"/>
<circle cx="710" cy="38" r="8.5" stroke="#5D3EDE" stroke-width="3"/>
</svg>
