<svg width="314" height="312" viewBox="0 0 314 312" fill="none" xmlns="http://www.w3.org/2000/svg">
<path d="M138.298 303.43L136.681 303.156C135.979 307.297 133.912 308.367 131.348 307.932C129.238 307.575 128.226 306.247 128.59 304.098C129.452 299.01 137.389 298.976 138.843 299.019L139.32 296.2L128.574 294.378L128.34 295.759L137.47 297.306L138.657 297.243L138.58 297.697C132.688 297.632 127.742 299.288 126.976 303.804C126.462 306.841 128.196 308.818 131.154 309.319C134.486 309.884 137.449 308.439 138.298 303.43Z" fill="#00ECAA"/>
<path d="M94.0625 297.98L104.646 302.269L105.172 300.971L100.612 299.123L105.382 287.353L103.881 286.745L99.1111 298.515L94.5883 296.682L94.0625 297.98Z" fill="#00ECAA"/>
<path d="M92.1838 281.453L90.7591 280.641L87.956 285.558L81.8052 282.051L84.6084 277.134L83.1836 276.322L80.5588 280.926C80.1923 281.569 80.3118 282.006 81.0068 282.402L82.4663 283.234L82.2286 283.651C80.7793 283.124 79.3582 283.396 78.3082 285.238C76.7432 287.983 78.216 289.72 81.135 291.384L85.2008 293.702L92.1838 281.453ZM87.2626 286.774L84.4694 291.674L81.8284 290.168C79.7434 288.979 78.584 288.065 79.8716 285.807C81.1494 283.565 82.5366 284.08 84.6216 285.268L87.2626 286.774Z" fill="#00ECAA"/>
<path d="M68.1491 265.626L66.8607 264.644L61.9246 278.611L64.597 280.647L76.7706 272.197L75.4663 271.203L70.7204 274.526L66.2188 271.096L68.1491 265.626ZM69.506 275.361L63.7305 279.409L63.3647 279.13L65.7201 272.476L69.506 275.361Z" fill="#00ECAA"/>
<path d="M47.1287 263.554L46.1503 264.556L51.8293 270.105L52.8078 269.103L50.5476 266.895L58.4448 258.813L60.705 261.021L61.6834 260.02L56.0043 254.471L55.0259 255.472L57.2718 257.666L49.3746 265.749L47.1287 263.554Z" fill="#00ECAA"/>
<path d="M50.5016 248.59L49.482 247.305L39.7225 255.051L38.9598 255.989L38.6739 255.628L44.9935 241.65L42.942 239.065L31.8978 247.831L32.9049 249.1L42.6645 241.354L43.4271 240.416L43.7131 240.777L37.4059 254.771L39.4574 257.356L50.5016 248.59Z" fill="#00ECAA"/>
<path d="M38.6796 232.739L34.1764 225.248L32.9765 225.97L36.6348 232.055L32.3838 234.61L29.2408 229.382L28.041 230.104L31.1839 235.332L26.9501 237.877L23.2919 231.792L22.0921 232.513L26.5953 240.004L38.6796 232.739Z" fill="#00ECAA"/>
<path d="M30.3964 218.137L29.7349 216.636L24.5558 218.919L21.7 212.441L26.8791 210.158L26.2175 208.657L21.3678 210.795C20.6907 211.094 20.527 211.515 20.8497 212.247L21.5273 213.785L21.0881 213.978C20.2371 212.692 18.9332 212.065 16.9934 212.92C14.1018 214.195 14.2513 216.468 15.6066 219.542L17.4944 223.824L30.3964 218.137ZM23.2747 219.484L18.1139 221.759L16.8877 218.977C15.9196 216.781 15.532 215.357 17.9111 214.308C20.2719 213.267 21.0804 214.506 22.0485 216.702L23.2747 219.484Z" fill="#00ECAA"/>
<path d="M12.4034 204.227L12.4562 201.768L12.2522 200.952L12.9328 201.478L15.244 202.286L15.6584 201.095L13.3472 200.288L12.4946 200.231L13.199 199.727L14.6604 197.783L13.6576 197.019L12.1713 198.95L11.9079 199.74L11.6215 198.928L10.2246 196.926L9.18525 197.636L10.5688 199.663L11.2686 200.183L10.3701 200.182L8.03383 200.886L8.39727 202.092L10.7336 201.388L11.4686 200.916L11.1784 201.756L11.1199 204.196L12.4034 204.227Z" fill="#00ECAA"/>
<path d="M5.31009 180.138L3.93284 180.389L5.35838 188.2L6.73563 187.949L6.16829 184.84L17.2847 182.812L17.852 185.92L19.2293 185.669L17.8037 177.858L16.4265 178.109L16.9902 181.198L5.87384 183.227L5.31009 180.138Z" fill="#00ECAA"/>
<path d="M16.7148 169.875L16.6256 168.237L4.18402 168.915L3.01991 169.239L2.99489 168.779L16.2328 161.028L16.0533 157.733L1.9742 158.5L2.06232 160.117L14.5039 159.439L15.668 159.116L15.693 159.575L2.45615 167.347L2.63566 170.642L16.7148 169.875Z" fill="#00ECAA"/>
<path d="M16.1773 150.118L16.3177 148.484L3.90339 147.418L2.70547 147.576L2.74484 147.118L16.9356 141.291L17.218 138.003L3.16969 136.796L3.03105 138.41L15.4453 139.476L16.6433 139.318L16.6039 139.777L2.41147 145.624L2.12906 148.911L16.1773 150.118Z" fill="#00ECAA"/>
<path d="M18.4637 130.477L20.3307 121.939L18.963 121.64L17.4463 128.576L12.6008 127.516L13.9039 121.557L12.5362 121.258L11.2331 127.217L6.40718 126.162L7.92389 119.226L6.5562 118.927L4.68916 127.465L18.4637 130.477Z" fill="#00ECAA"/>
<path d="M22.4404 114.17L22.9949 112.626L11.2686 108.414L10.0701 108.26L10.2257 107.827L25.4358 105.832L26.5515 102.726L13.2817 97.9589L12.7341 99.4835L24.4604 103.696L25.6588 103.85L25.5033 104.283L10.2863 106.297L9.17068 109.403L22.4404 114.17Z" fill="#00ECAA"/>
<path d="M25.3687 74.4051L23.2584 77.7559L35.1894 85.27L36.0633 83.8823L31.9509 81.2923L33.1873 79.3292C35.0845 76.3169 35.4935 73.9036 32.3626 71.9318C29.2487 69.9707 27.2659 71.3927 25.3687 74.4051ZM32.0133 78.5662L30.7663 80.5463L25.317 77.1143L26.564 75.1343C27.843 73.1034 29.1532 71.8487 31.4887 73.3195C33.8579 74.8117 33.2923 76.5354 32.0133 78.5662Z" fill="#00ECAA"/>
<path d="M45.0565 70.4776L46.1025 69.2145L41.7431 65.6046L46.2588 60.1515L50.6181 63.7615L51.6641 62.4983L47.582 59.118C47.0121 58.646 46.5615 58.6884 46.0513 59.3046L44.9798 60.5985L44.6101 60.2924C45.3793 58.9558 45.3569 57.5091 43.724 56.1569C41.2902 54.1415 39.3245 55.2922 37.1815 57.8801L34.1966 61.4847L45.0565 70.4776ZM40.6649 64.7116L36.3209 61.1145L38.2598 58.773C39.7905 56.9246 40.8912 55.9404 42.8937 57.5987C44.8808 59.2442 44.1345 60.5217 42.6038 62.3702L40.6649 64.7116Z" fill="#00ECAA"/>
<path d="M52.4807 51.2424C55.2559 54.2876 59.1744 54.9648 62.2491 52.1627C65.2942 49.3875 64.9826 45.4231 62.2074 42.378C59.4457 39.3477 55.5272 38.6704 52.4821 41.4456C49.4074 44.2477 49.719 48.2121 52.4807 51.2424ZM53.6929 50.1377C51.4296 47.6544 50.9565 44.7302 53.4251 42.4804C55.8789 40.2441 58.732 40.9993 60.9952 43.4827C63.272 45.9809 63.7599 48.8916 61.3061 51.1279C58.8375 53.3777 55.9696 52.6359 53.6929 50.1377Z" fill="#00ECAA"/>
<path d="M85.4201 18.537L75.4808 24.1606L76.1702 25.3791L80.4523 22.9563L86.7062 34.0097L88.1162 33.212L81.8622 22.1586L86.1095 19.7555L85.4201 18.537Z" fill="#00ECAA"/>
<path d="M108.851 23.6002L110.354 22.9966L100.887 11.6033L97.7693 12.8552L98.791 27.639L100.313 27.0279L99.8896 21.2496L105.142 19.1408L108.851 23.6002ZM99.7948 19.779L99.277 12.7455L99.7039 12.5742L104.212 18.0056L99.7948 19.779Z" fill="#00ECAA"/>
<path d="M115.235 13.978C116.231 18.0171 118.953 20.5387 122.973 19.5479C126.507 18.6767 127.792 15.95 126.634 11.1682L127.08 11.0581L127.259 12.868L128.518 17.9751L130.11 17.5826L128.574 11.3492C128.396 10.6307 127.941 10.3721 127.145 10.5684L120.387 12.2342L120.703 13.5158L125.383 12.3622C126.25 15.6296 125.357 17.5184 122.657 18.1838C119.453 18.9736 117.655 16.9449 116.827 13.5855C116.004 10.2455 117.1 7.50355 120.304 6.71374C123.003 6.04839 124.512 7.2418 125.378 9.41779L126.971 9.02528C125.826 6.13531 123.406 4.50718 119.969 5.35443C116.007 6.33092 114.244 9.95831 115.235 13.978Z" fill="#00ECAA"/>
<path d="M136.742 2.37672L138.085 11.5406L139.335 11.3821L138.369 2.17047L136.742 2.37672ZM139.334 16.4626C140.247 16.3469 140.89 15.5395 140.77 14.5872C140.654 13.6745 139.829 13.0532 138.917 13.1689C137.984 13.2872 137.36 14.092 137.476 15.0047C137.597 15.9571 138.402 16.5808 139.334 16.4626Z" fill="#00ECAA"/>
<path d="M161.165 7.75345L162.801 7.86251C163.08 3.6718 165.029 2.39859 167.624 2.5715C169.759 2.71381 170.9 3.93242 170.755 6.10759C170.412 11.2562 162.519 12.0931 161.069 12.1969L160.879 15.0506L171.755 15.7754L171.848 14.3785L162.608 13.7627L161.434 13.945L161.464 13.486C167.332 12.9551 172.086 10.8065 172.39 6.23661C172.595 3.16343 170.67 1.37144 167.677 1.17194C164.304 0.947163 161.503 2.68469 161.165 7.75345Z" fill="#00ECAA"/>
<path d="M205.727 8.70381L194.763 5.5071L194.371 6.85113L199.095 8.22834L195.54 20.4206L197.095 20.8741L200.65 8.68182L205.335 10.0478L205.727 8.70381Z" fill="#00ECAA"/>
<path d="M209.264 24.9553L210.764 25.6192L213.055 20.4438L219.529 23.3101L217.238 28.4856L218.737 29.1495L220.883 24.3033C221.183 23.6266 221.019 23.2045 220.288 22.8806L218.752 22.2004L218.946 21.7615C220.441 22.1392 221.828 21.725 222.686 19.7865C223.965 16.897 222.324 15.3174 219.252 13.9571L214.973 12.0625L209.264 24.9553ZM213.622 19.1637L215.905 14.0065L218.685 15.2373C220.88 16.2089 222.126 17.0012 221.073 19.3786C220.028 21.7377 218.596 21.366 216.402 20.3944L213.622 19.1637Z" fill="#00ECAA"/>
<path d="M234.778 38.2673L236.159 39.114L239.657 24.7201L236.793 22.9641L225.536 32.6022L226.934 33.4593L231.32 29.6729L236.145 32.6309L234.778 38.2673ZM232.443 28.7197L237.78 24.1088L238.172 24.3492L236.502 31.2074L232.443 28.7197Z" fill="#00ECAA"/>
<path d="M255.899 38.2022L256.771 37.107L250.56 32.1608L249.688 33.256L252.16 35.2245L245.12 44.0641L242.648 42.0956L241.776 43.1907L247.987 48.1369L248.86 47.0418L246.403 45.0857L253.443 36.2461L255.899 38.2022Z" fill="#00ECAA"/>
<path d="M254.058 53.4335L255.202 54.6083L264.128 45.9148L264.792 44.9053L265.113 45.2348L260.24 59.7806L262.542 62.1446L272.643 52.3069L271.513 51.1464L262.587 59.8398L261.923 60.8494L261.602 60.5199L266.462 45.9598L264.159 43.5957L254.058 53.4335Z" fill="#00ECAA"/>
<path d="M267.422 68.0095L272.659 75.0063L273.78 74.1673L269.525 68.4834L273.496 65.511L277.151 70.3943L278.272 69.5553L274.617 64.672L278.571 61.7116L282.826 67.3954L283.947 66.5564L278.709 59.5597L267.422 68.0095Z" fill="#00ECAA"/>
<path d="M277.141 81.6967L277.951 83.1228L282.872 80.3276L286.369 86.4841L281.447 89.2792L282.257 90.7053L286.865 88.0879C287.509 87.7225 287.629 87.2862 287.234 86.5905L286.404 85.1297L286.822 84.8926C287.799 86.086 289.159 86.5783 291.003 85.5313C293.75 83.9708 293.372 81.7247 291.713 78.803L289.401 74.7335L277.141 81.6967ZM284.09 79.6363L288.994 76.851L290.495 79.4944C291.68 81.5813 292.21 82.9595 289.949 84.2435C287.706 85.5176 286.776 84.3666 285.591 82.2797L284.09 79.6363Z" fill="#00ECAA"/>
<path d="M296.448 93.7137L296.644 96.1662L296.93 96.9572L296.199 96.5027L293.818 95.9329L293.527 97.1588L295.908 97.7286L296.761 97.6986L296.112 98.2719L294.855 100.354L295.929 101.012L297.213 98.9405L297.395 98.1284L297.762 98.9072L299.354 100.758L300.316 99.9463L298.735 98.0696L297.986 97.6228L298.88 97.5328L301.133 96.5963L300.65 95.4328L298.396 96.3693L297.713 96.9133L297.917 96.0489L297.728 93.6148L296.448 93.7137Z" fill="#00ECAA"/>
<path d="M305.941 116.965L307.286 116.576L305.078 108.949L303.733 109.338L304.612 112.374L293.758 115.516L292.879 112.481L291.534 112.87L293.742 120.497L295.087 120.108L294.214 117.092L305.068 113.949L305.941 116.965Z" fill="#00ECAA"/>
<path d="M295.633 128.328L295.887 129.948L308.196 128.015L309.322 127.575L309.393 128.03L297.007 137.08L297.519 140.34L311.448 138.153L311.197 136.553L298.888 138.486L297.762 138.925L297.691 138.471L310.074 129.401L309.562 126.141L295.633 128.328Z" fill="#00ECAA"/>
<path d="M298.165 147.929L298.191 149.568L310.649 149.374L311.825 149.095L311.832 149.555L298.304 156.788L298.355 160.087L312.454 159.867L312.428 158.247L299.97 158.442L298.794 158.72L298.787 158.26L312.315 151.008L312.264 147.708L298.165 147.929Z" fill="#00ECAA"/>
<path d="M297.879 167.702L296.885 176.385L298.276 176.544L299.083 169.49L304.011 170.054L303.317 176.115L304.708 176.274L305.402 170.214L310.31 170.775L309.502 177.829L310.893 177.989L311.887 169.305L297.879 167.702Z" fill="#00ECAA"/>
<path d="M295.571 184.327L295.176 185.918L307.268 188.923L308.476 188.956L308.365 189.402L293.434 192.925L292.639 196.128L306.322 199.528L306.713 197.956L294.621 194.951L293.413 194.919L293.524 194.473L308.459 190.93L309.255 187.727L295.571 184.327Z" fill="#00ECAA"/>
<path d="M296.679 224.185L298.439 220.638L285.809 214.369L285.08 215.838L289.434 217.999L288.402 220.077C286.819 223.266 286.657 225.708 289.971 227.353C293.267 228.989 295.096 227.374 296.679 224.185ZM289.647 220.717L290.688 218.621L296.456 221.485L295.416 223.581C294.349 225.73 293.172 227.111 290.7 225.884C288.192 224.639 288.58 222.867 289.647 220.717Z" fill="#00ECAA"/>
<path d="M277.49 230.082L276.577 231.445L281.279 234.595L277.338 240.477L272.636 237.326L271.723 238.689L276.126 241.639C276.741 242.051 277.185 241.963 277.63 241.299L278.565 239.903L278.964 240.17C278.334 241.578 278.502 243.015 280.264 244.195C282.889 245.954 284.728 244.61 286.598 241.819L289.203 237.931L277.49 230.082ZM282.442 235.374L287.127 238.514L285.435 241.039C284.099 243.033 283.104 244.124 280.944 242.676C278.801 241.24 279.414 239.894 280.75 237.9L282.442 235.374Z" fill="#00ECAA"/>
<path d="M272.05 249.969C268.981 247.22 265.014 246.943 262.238 250.042C259.489 253.111 260.2 257.023 263.269 259.772C266.323 262.507 270.29 262.785 273.039 259.716C275.815 256.617 275.104 252.705 272.05 249.969ZM270.955 251.191C273.458 253.433 274.225 256.294 271.996 258.782C269.781 261.255 266.866 260.792 264.364 258.55C261.846 256.295 261.066 253.449 263.281 250.976C265.51 248.488 268.438 248.936 270.955 251.191Z" fill="#00ECAA"/>
<path d="M242.585 285.839L251.905 279.239L251.096 278.097L247.081 280.94L239.741 270.576L238.419 271.512L245.759 281.876L241.776 284.697L242.585 285.839Z" fill="#00ECAA"/>
<path d="M218.764 283.172L217.33 283.924L227.9 294.302L230.875 292.741L228.364 278.136L226.911 278.898L227.917 284.604L222.905 287.233L218.764 283.172ZM228.16 286.058L229.386 293.003L228.979 293.216L223.945 288.269L228.16 286.058Z" fill="#00ECAA"/>
<path d="M213.385 293.388C211.986 289.47 209.023 287.237 205.124 288.629C201.696 289.853 200.693 292.696 202.329 297.336L201.896 297.491L201.535 295.708L199.766 290.754L198.222 291.306L200.381 297.352C200.63 298.049 201.109 298.26 201.881 297.984L208.436 295.644L207.992 294.401L203.453 296.022C202.259 292.859 202.958 290.889 205.576 289.954C208.683 288.844 210.677 290.681 211.841 293.939C212.998 297.179 212.185 300.017 209.077 301.127C206.459 302.062 204.837 301.028 203.755 298.95L202.211 299.502C203.642 302.261 206.214 303.636 209.548 302.446C213.39 301.074 214.778 297.286 213.385 293.388Z" fill="#00ECAA"/>
<path d="M193.16 307.105L190.897 298.124L189.67 298.408L191.563 307.475L193.16 307.105ZM189.157 293.354C188.261 293.561 187.702 294.43 187.918 295.365C188.126 296.261 189.009 296.796 189.905 296.588C190.821 296.376 191.36 295.513 191.153 294.616C190.937 293.681 190.073 293.142 189.157 293.354Z" fill="#00ECAA"/>
</svg>
