<svg width="286" height="46" viewBox="0 0 286 46" fill="none" xmlns="http://www.w3.org/2000/svg">
<path d="M0.334961 12.175C0.334961 17.575 3.23496 21.25 8.50996 21.25C13.36 21.25 15.535 17.7 15.56 12.175H16.56L15.81 14.925V21H19.81V13.3C19.81 11.925 19.06 11.175 17.685 11.175H8.48496V14.175H12.56C12.56 16.55 11.06 17.75 8.65996 17.75C5.75996 17.75 4.33496 16.075 4.33496 12.175C4.33496 8.3 6.13496 6.625 9.20996 6.625C11.86 6.625 13.185 7.6 13.585 9.675H17.585C17.06 5.825 13.635 3.125 9.20996 3.125C4.10996 3.125 0.334961 6.8 0.334961 12.175ZM21.3008 14.525C21.3008 18.1 23.5258 21.25 28.3758 21.25C32.7508 21.25 34.8258 18.375 35.0758 16.55H31.0758C30.8258 17.5 29.7758 18 28.3758 18C26.1008 18 25.0508 16.975 25.0508 15.525H34.6258V14.275C34.6258 10.45 31.8758 8.125 27.9508 8.125C24.0258 8.125 21.3008 10.525 21.3008 14.525ZM25.0508 13.275C25.0508 12.325 25.7258 11.375 27.9508 11.375C30.1758 11.375 30.8758 12.325 30.8758 13.275H25.0508ZM42.5654 17.75V11.875H46.7154V8.375H42.5654V4.75L38.5654 6V8.375H35.5654V11.875H38.5654V19.125C38.5654 20.5 39.3154 21.3 40.6904 21.25L47.2154 21V17.5L42.5654 17.75ZM61.1438 7.125C62.6188 7.125 63.5438 6.425 63.5438 5.125C63.5438 3.85 62.6188 3.125 61.1438 3.125C59.6688 3.125 58.7938 3.85 58.7938 5.125C58.7938 6.425 59.6688 7.125 61.1438 7.125ZM55.9688 21H66.9688V17.5H63.3938V10.225C63.3938 8.825 62.6188 8.05 61.2188 8.125L56.4688 8.375V11.875L59.5438 11.725V17.5H55.9688V21ZM76.0805 11.625C78.0055 11.625 78.6805 12.5 78.6805 14.8V21H82.6805V14.175C82.6805 10.275 80.7305 8.125 77.5055 8.125C74.8055 8.125 73.2305 9.9 72.7305 12.15H71.7305L72.4805 9.9V8.375H68.4805V21H72.4805V16.325C72.4805 12.775 73.9055 11.625 76.0805 11.625ZM95.9057 21.25C101.556 21.575 103.056 19.225 103.056 14.25V5.25C103.056 3.875 102.306 3.075 100.931 3.125L93.7557 3.375V6.875L99.0557 6.625V12.9C99.0557 15.925 98.8307 17.925 95.9057 17.75L91.4307 17.5V21L95.9057 21.25ZM105.065 14.675C105.065 19.1 108.215 21.25 112.19 21.25C116.14 21.25 119.29 19.1 119.29 14.675C119.29 10.275 116.14 8.125 112.19 8.125C108.215 8.125 105.065 10.275 105.065 14.675ZM109.065 14.675C109.065 12.575 110.29 11.625 112.19 11.625C114.065 11.625 115.29 12.575 115.29 14.675C115.29 16.8 114.065 17.75 112.19 17.75C110.29 17.75 109.065 16.8 109.065 14.675ZM120.8 21H124.8V20.225L124.05 17.975H125.05C125.7 19.65 126.9 21.25 130.025 21.25C133.675 21.25 135.5 18.25 135.5 14.675C135.5 11.1 133.675 8.125 130.025 8.125C126.9 8.125 125.7 9.725 125.05 11.4H124.05L124.8 9.15V2.625H120.8V21ZM124.8 14.675C124.8 12.55 126 11.625 128.15 11.625C130.3 11.625 131.5 12.55 131.5 14.675C131.5 16.8 130.3 17.75 128.15 17.75C126 17.75 124.8 16.8 124.8 14.675ZM153.219 0.65L144.769 22.625L147.594 23.725L156.044 1.75L153.219 0.65ZM172.12 3.375H165.795V21H169.795V15.75H172.12C176.57 15.75 179.97 14.9 179.97 9.55C179.97 4.225 176.57 3.375 172.12 3.375ZM172.37 12.25H169.795V6.875H172.37C174.745 6.875 175.97 7.125 175.97 9.55C175.97 12 174.745 12.25 172.37 12.25ZM180.725 14.675C180.725 19.1 183.875 21.25 187.85 21.25C191.8 21.25 194.95 19.1 194.95 14.675C194.95 10.275 191.8 8.125 187.85 8.125C183.875 8.125 180.725 10.275 180.725 14.675ZM184.725 14.675C184.725 12.575 185.95 11.625 187.85 11.625C189.725 11.625 190.95 12.575 190.95 14.675C190.95 16.8 189.725 17.75 187.85 17.75C185.95 17.75 184.725 16.8 184.725 14.675ZM196.703 21H200.703V11.725L207.128 11.875V8.375L198.853 8.175C197.478 8.15 196.703 8.9 196.703 10.275V21ZM214.88 17.75V11.875H219.03V8.375H214.88V4.75L210.88 6V8.375H207.88V11.875H210.88V19.125C210.88 20.5 211.63 21.3 213.005 21.25L219.53 21V17.5L214.88 17.75ZM229.126 6.125H231.776V2.625H229.626C225.401 2.625 223.426 4.525 223.426 7.925V8.375H221.026V11.875H223.426V17.5H221.026V21H231.076V17.5H227.426V11.875H231.076V8.375H227.426V8.05C227.426 6.65 227.951 6.125 229.126 6.125ZM232.531 14.675C232.531 19.1 235.681 21.25 239.656 21.25C243.606 21.25 246.756 19.1 246.756 14.675C246.756 10.275 243.606 8.125 239.656 8.125C235.681 8.125 232.531 10.275 232.531 14.675ZM236.531 14.675C236.531 12.575 237.756 11.625 239.656 11.625C241.531 11.625 242.756 12.575 242.756 14.675C242.756 16.8 241.531 17.75 239.656 17.75C237.756 17.75 236.531 16.8 236.531 14.675ZM247.76 21H258.76V17.5H255.26V4.55C255.26 3.15 254.485 2.4 253.085 2.45L248.26 2.625V6.125L251.26 5.975V17.5H247.76V21ZM265.196 7.125C266.671 7.125 267.596 6.425 267.596 5.125C267.596 3.85 266.671 3.125 265.196 3.125C263.721 3.125 262.846 3.85 262.846 5.125C262.846 6.425 263.721 7.125 265.196 7.125ZM260.021 21H271.021V17.5H267.446V10.225C267.446 8.825 266.671 8.05 265.271 8.125L260.521 8.375V11.875L263.596 11.725V17.5H260.021V21ZM271.765 14.675C271.765 19.1 274.915 21.25 278.89 21.25C282.84 21.25 285.99 19.1 285.99 14.675C285.99 10.275 282.84 8.125 278.89 8.125C274.915 8.125 271.765 10.275 271.765 14.675ZM275.765 14.675C275.765 12.575 276.99 11.625 278.89 11.625C280.765 11.625 281.99 12.575 281.99 14.675C281.99 16.8 280.765 17.75 278.89 17.75C276.99 17.75 275.765 16.8 275.765 14.675ZM169.257 35.2L169.907 36.95C174.282 35.525 175.407 31.85 175.657 27.95H176.257L175.907 29.375V45H177.957V27.375H173.807C173.757 30.85 172.607 33.85 169.257 35.2ZM189.143 27.375L192.918 45H197.093L200.693 27.95H201.268L204.893 45H209.068L212.818 27.375H210.868L207.268 44.425H206.668L203.093 27.375H198.868L195.293 44.425H194.693L191.093 27.375H189.143ZM213.52 38.775C213.52 42.4 216.12 45.25 220.095 45.25C224.045 45.25 226.62 42.4 226.62 38.775C226.62 35.175 224.045 32.325 220.095 32.325C216.12 32.325 213.52 35.175 213.52 38.775ZM215.57 38.775C215.57 36.2 217.145 34.075 220.095 34.075C223.02 34.075 224.595 36.2 224.595 38.775C224.595 41.375 223.02 43.5 220.095 43.5C217.145 43.5 215.57 41.375 215.57 38.775ZM228.974 38.775C228.974 42.375 231.299 45.25 235.324 45.25C237.724 45.25 240.799 43.9 241.124 40.3H239.049C238.699 42.675 237.124 43.5 235.324 43.5C232.374 43.5 231.024 41.35 231.024 38.775C231.024 36.225 232.374 34.075 235.324 34.075C237.124 34.075 238.699 34.9 239.049 37.275H241.124C240.799 33.675 237.724 32.325 235.324 32.325C231.299 32.325 228.974 35.2 228.974 38.775ZM251.173 32.325C248.473 32.325 246.898 33.9 246.398 36.15H245.823L246.148 34.725V26.625H244.098V45H246.148V39.5C246.148 36.15 247.998 34.075 250.623 34.075C252.748 34.075 253.773 35.075 253.773 37.675V45H255.798V37.4C255.798 33.95 253.973 32.325 251.173 32.325ZM258.613 38.625C258.613 42.2 260.488 45.25 264.938 45.25C268.888 45.25 270.388 42.575 270.863 40.65H268.813C268.363 42.55 266.988 43.55 264.938 43.55C261.863 43.55 260.738 41.525 260.613 39.175H270.438V38.375C270.438 34.55 268.138 32.325 264.638 32.325C261.113 32.325 258.613 34.625 258.613 38.625ZM260.613 37.625C260.613 35.625 262.188 34.05 264.638 34.05C267.113 34.05 268.438 35.625 268.438 37.625H260.613ZM280.213 34.075C282.338 34.075 283.363 35.075 283.363 37.675V45H285.388V37.4C285.388 33.95 283.563 32.325 280.763 32.325C278.063 32.325 276.488 33.9 275.988 36.15H275.413L275.738 34.725V32.575H273.688V45H275.738V39.5C275.738 36.15 277.588 34.075 280.213 34.075Z" fill="white"/>
</svg>
