<svg width="129" height="43" viewBox="0 0 129 43" fill="none" xmlns="http://www.w3.org/2000/svg">
<path d="M0.335938 11.45C0.335938 15.85 3.06094 18.25 8.28594 18.25C13.5109 18.25 16.2609 15.85 16.2609 11.45V0.374999H12.2609V9.675C12.2609 12.825 11.9609 14.75 8.28594 14.75C4.61094 14.75 4.33594 12.825 4.33594 9.675V0.374999H0.335938V11.45ZM30.0176 3.875V0.374999H18.0176V3.875H22.0176V14.5H18.0176V18H30.0176V14.5H26.0176V3.875H30.0176ZM46.2764 0.374999H39.7764V18H46.2764C50.9764 18 55.8764 16.775 55.8764 9.175C55.8764 1.6 50.9764 0.374999 46.2764 0.374999ZM46.2764 14.5H43.7764V3.875H46.2764C49.4014 3.875 51.8764 4.125 51.8764 9.175C51.8764 14.25 49.4014 14.5 46.2764 14.5ZM57.123 11.525C57.123 15.1 59.348 18.25 64.198 18.25C68.573 18.25 70.648 15.375 70.898 13.55H66.898C66.648 14.5 65.598 15 64.198 15C61.923 15 60.873 13.975 60.873 12.525H70.448V11.275C70.448 7.45 67.698 5.125 63.773 5.125C59.848 5.125 57.123 7.525 57.123 11.525ZM60.873 10.275C60.873 9.325 61.548 8.375 63.773 8.375C65.998 8.375 66.698 9.325 66.698 10.275H60.873ZM84.4127 14.525C84.4127 11.9 82.1627 11.275 79.7127 10.475C77.7127 9.825 76.4627 9.45 76.4627 8.85C76.4627 8.35 76.9877 8.125 77.9377 8.125C79.3127 8.125 79.9877 8.8 79.9877 9.7H83.9877C83.9877 7.25 82.2377 5.125 77.9627 5.125C74.4877 5.125 72.4627 6.425 72.4627 8.675C72.4627 11.5 75.3377 12.125 77.6877 12.9C79.7127 13.575 80.4127 13.75 80.4127 14.4C80.4127 15 79.7377 15.25 78.6627 15.25C76.5627 15.25 75.8877 14.4 75.8877 13.425H71.8877C71.8877 16.375 73.8877 18.25 78.5377 18.25C82.8877 18.25 84.4127 16.65 84.4127 14.525ZM91.0822 4.125C92.5572 4.125 93.4822 3.425 93.4822 2.125C93.4822 0.849999 92.5572 0.124999 91.0822 0.124999C89.6072 0.124999 88.7322 0.849999 88.7322 2.125C88.7322 3.425 89.6072 4.125 91.0822 4.125ZM85.9072 18H96.9072V14.5H93.3322V7.225C93.3322 5.825 92.5572 5.05 91.1572 5.125L86.4072 5.375V8.875L89.4822 8.725V14.5H85.9072V18ZM111.705 5.375C110.58 5.375 109.28 5.5 108.53 6.475C107.205 5.5 105.455 5.125 103.53 5.125C99.5553 5.125 96.4053 6.725 96.4053 10.05C96.4053 14.2 101.28 14.875 105.905 13.225V14.225C103.605 14.775 101.005 15.075 98.1303 15.375L98.5553 17.625C102.43 16.975 106.955 16.15 106.955 18C106.955 19.375 105.405 19.5 97.2303 19.5V23C106.605 23 110.98 22.575 110.98 18.85C110.98 16.175 108.305 15.425 105.43 15.6C108.905 14.425 111.13 12.925 111.13 10.55C111.13 9.875 110.93 9.3 110.78 9.1C111.13 8.875 111.58 8.875 111.955 8.875H112.805V5.375H111.705ZM103.78 11.975C101.38 11.975 100.405 11.375 100.405 10.3C100.405 9.25 101.38 8.625 103.78 8.625C106.18 8.625 107.13 9.25 107.13 10.3C107.13 11.375 106.18 11.975 103.78 11.975ZM122.157 8.625C124.082 8.625 124.757 9.5 124.757 11.8V18H128.757V11.175C128.757 7.275 126.807 5.125 123.582 5.125C120.882 5.125 119.307 6.9 118.807 9.15H117.807L118.557 6.9V5.375H114.557V18H118.557V13.325C118.557 9.775 119.982 8.625 122.157 8.625ZM6.94063 35.725C6.94063 39.9 9.74063 42.25 14.2656 42.25C18.5656 42.25 21.4406 39.775 21.4406 35.55C21.4406 31.725 19.2906 29.325 15.8156 29.325C13.3156 29.325 11.4656 30.575 10.5156 32.1L10.0156 31.825L10.3406 30.4V26.125H20.1906V24.375H8.31563V32.1L10.9406 33.45C11.7906 32.175 13.1656 31.075 15.4156 31.075C18.1156 31.075 19.3906 32.75 19.3906 35.45C19.3906 38.7 17.5156 40.5 14.2656 40.5C10.7406 40.5 8.96563 38.825 8.96563 35.725H6.94063ZM32.1434 24.375L35.9184 42H40.0934L43.6934 24.95H44.2684L47.8934 42H52.0684L55.8184 24.375H53.8684L50.2684 41.425H49.6684L46.0934 24.375H41.8684L38.2934 41.425H37.6934L34.0934 24.375H32.1434ZM56.5203 35.775C56.5203 39.4 59.1203 42.25 63.0953 42.25C67.0453 42.25 69.6203 39.4 69.6203 35.775C69.6203 32.175 67.0453 29.325 63.0953 29.325C59.1203 29.325 56.5203 32.175 56.5203 35.775ZM58.5703 35.775C58.5703 33.2 60.1453 31.075 63.0953 31.075C66.0203 31.075 67.5953 33.2 67.5953 35.775C67.5953 38.375 66.0203 40.5 63.0953 40.5C60.1453 40.5 58.5703 38.375 58.5703 35.775ZM71.9744 35.775C71.9744 39.375 74.2994 42.25 78.3244 42.25C80.7244 42.25 83.7994 40.9 84.1244 37.3H82.0494C81.6994 39.675 80.1244 40.5 78.3244 40.5C75.3744 40.5 74.0244 38.35 74.0244 35.775C74.0244 33.225 75.3744 31.075 78.3244 31.075C80.1244 31.075 81.6994 31.9 82.0494 34.275H84.1244C83.7994 30.675 80.7244 29.325 78.3244 29.325C74.2994 29.325 71.9744 32.2 71.9744 35.775ZM94.1734 29.325C91.4734 29.325 89.8984 30.9 89.3984 33.15H88.8234L89.1484 31.725V23.625H87.0984V42H89.1484V36.5C89.1484 33.15 90.9984 31.075 93.6234 31.075C95.7484 31.075 96.7734 32.075 96.7734 34.675V42H98.7984V34.4C98.7984 30.95 96.9734 29.325 94.1734 29.325ZM101.613 35.625C101.613 39.2 103.488 42.25 107.938 42.25C111.888 42.25 113.388 39.575 113.863 37.65H111.813C111.363 39.55 109.988 40.55 107.938 40.55C104.863 40.55 103.738 38.525 103.613 36.175H113.438V35.375C113.438 31.55 111.138 29.325 107.638 29.325C104.113 29.325 101.613 31.625 101.613 35.625ZM103.613 34.625C103.613 32.625 105.188 31.05 107.638 31.05C110.113 31.05 111.438 32.625 111.438 34.625H103.613ZM123.213 31.075C125.338 31.075 126.363 32.075 126.363 34.675V42H128.388V34.4C128.388 30.95 126.563 29.325 123.763 29.325C121.063 29.325 119.488 30.9 118.988 33.15H118.413L118.738 31.725V29.575H116.688V42H118.738V36.5C118.738 33.15 120.588 31.075 123.213 31.075Z" fill="#03000F"/>
</svg>
