<svg width="261" height="151" viewBox="0 0 261 151" fill="none" xmlns="http://www.w3.org/2000/svg">
<path d="M45.3574 121H49.4074L44.3074 103.375H36.0574L30.9824 121H35.0324L36.6074 115.35H43.7574L45.3574 121ZM37.5824 111.85L39.6824 104.375H40.6824L42.7824 111.85H37.5824ZM51.1719 121H55.1719V120.225L54.4219 117.975H55.4219C56.0719 119.65 57.2719 121.25 60.3969 121.25C64.0469 121.25 65.8719 118.25 65.8719 114.675C65.8719 111.1 64.0469 108.125 60.3969 108.125C57.2719 108.125 56.0719 109.725 55.4219 111.4H54.4219L55.1719 109.15V102.625H51.1719V121ZM55.1719 114.675C55.1719 112.55 56.3719 111.625 58.5219 111.625C60.6719 111.625 61.8719 112.55 61.8719 114.675C61.8719 116.8 60.6719 117.75 58.5219 117.75C56.3719 117.75 55.1719 116.8 55.1719 114.675ZM79.402 117.525C79.402 114.9 77.152 114.275 74.702 113.475C72.702 112.825 71.452 112.45 71.452 111.85C71.452 111.35 71.977 111.125 72.927 111.125C74.302 111.125 74.977 111.8 74.977 112.7H78.977C78.977 110.25 77.227 108.125 72.952 108.125C69.477 108.125 67.452 109.425 67.452 111.675C67.452 114.5 70.327 115.125 72.677 115.9C74.702 116.575 75.402 116.75 75.402 117.4C75.402 118 74.727 118.25 73.652 118.25C71.552 118.25 70.877 117.4 70.877 116.425H66.877C66.877 119.375 68.877 121.25 73.527 121.25C77.877 121.25 79.402 119.65 79.402 117.525ZM80.6523 114.675C80.6523 118.9 83.5273 121.25 87.5523 121.25C91.0023 121.25 94.1523 119.375 94.3273 115.775H90.3273C90.1773 116.9 89.1523 117.75 87.5523 117.75C85.6523 117.75 84.6523 116.625 84.6523 114.675C84.6523 112.75 85.6523 111.625 87.5523 111.625C89.1523 111.625 90.1773 112.475 90.3273 113.6H94.3273C94.1523 110 91.0023 108.125 87.5523 108.125C83.5273 108.125 80.6523 110.475 80.6523 114.675ZM104.85 108.125C102.15 108.125 100.575 109.9 100.075 112.15H99.0752L99.8252 109.9V102.625H95.8252V121H99.8252V116.325C99.8252 112.775 101.25 111.625 103.425 111.625C105.35 111.625 106.025 112.5 106.025 114.8V121H110.025V114.175C110.025 110.275 108.075 108.125 104.85 108.125ZM111.53 121H122.53V117.5H119.03V104.55C119.03 103.15 118.255 102.4 116.855 102.45L112.03 102.625V106.125L115.03 105.975V117.5H111.53V121ZM130.129 117.75C128.204 117.75 127.529 116.875 127.529 114.575V108.375H123.529V115.2C123.529 119.1 125.479 121.25 128.704 121.25C131.404 121.25 132.979 119.475 133.479 117.225H134.479L133.729 119.475V121H137.729V108.375H133.729V113.05C133.729 116.6 132.304 117.75 130.129 117.75ZM151.765 117.525C151.765 114.9 149.515 114.275 147.065 113.475C145.065 112.825 143.815 112.45 143.815 111.85C143.815 111.35 144.34 111.125 145.29 111.125C146.665 111.125 147.34 111.8 147.34 112.7H151.34C151.34 110.25 149.59 108.125 145.315 108.125C141.84 108.125 139.815 109.425 139.815 111.675C139.815 114.5 142.69 115.125 145.04 115.9C147.065 116.575 147.765 116.75 147.765 117.4C147.765 118 147.09 118.25 146.015 118.25C143.915 118.25 143.24 117.4 143.24 116.425H139.24C139.24 119.375 141.24 121.25 145.89 121.25C150.24 121.25 151.765 119.65 151.765 117.525ZM165.291 117.525C165.291 114.9 163.041 114.275 160.591 113.475C158.591 112.825 157.341 112.45 157.341 111.85C157.341 111.35 157.866 111.125 158.816 111.125C160.191 111.125 160.866 111.8 160.866 112.7H164.866C164.866 110.25 163.116 108.125 158.841 108.125C155.366 108.125 153.341 109.425 153.341 111.675C153.341 114.5 156.216 115.125 158.566 115.9C160.591 116.575 161.291 116.75 161.291 117.4C161.291 118 160.616 118.25 159.541 118.25C157.441 118.25 156.766 117.4 156.766 116.425H152.766C152.766 119.375 154.766 121.25 159.416 121.25C163.766 121.25 165.291 119.65 165.291 117.525ZM166.797 108.375V125.75H170.797V120.225L170.047 117.975H171.047C171.697 119.65 172.897 121.25 176.022 121.25C179.672 121.25 181.497 118.275 181.497 114.7C181.497 111.125 179.672 108.125 176.022 108.125C172.897 108.125 171.697 109.725 171.047 111.4H170.047L170.797 109.15V108.375H166.797ZM170.797 114.7C170.797 112.55 171.997 111.625 174.147 111.625C176.297 111.625 177.497 112.55 177.497 114.7C177.497 116.85 176.297 117.75 174.147 117.75C171.997 117.75 170.797 116.85 170.797 114.7ZM183.252 121H187.252V111.725L193.677 111.875V108.375L185.402 108.175C184.027 108.15 183.252 108.9 183.252 110.275V121ZM194.69 114.675C194.69 119.1 197.84 121.25 201.815 121.25C205.765 121.25 208.915 119.1 208.915 114.675C208.915 110.275 205.765 108.125 201.815 108.125C197.84 108.125 194.69 110.275 194.69 114.675ZM198.69 114.675C198.69 112.575 199.915 111.625 201.815 111.625C203.69 111.625 204.915 112.575 204.915 114.675C204.915 116.8 203.69 117.75 201.815 117.75C199.915 117.75 198.69 116.8 198.69 114.675ZM214.319 107.125C215.794 107.125 216.719 106.425 216.719 105.125C216.719 103.85 215.794 103.125 214.319 103.125C212.844 103.125 211.969 103.85 211.969 105.125C211.969 106.425 212.844 107.125 214.319 107.125ZM209.419 126H213.919L216.219 121.95C216.544 121.35 216.644 120.9 216.644 120.25V110.275C216.644 108.9 215.869 108.15 214.494 108.2L209.419 108.375V111.875L212.494 111.725V119.95C212.494 120.6 212.394 121.125 212.069 121.65L209.419 126ZM218.348 114.525C218.348 118.1 220.573 121.25 225.423 121.25C229.798 121.25 231.873 118.375 232.123 116.55H228.123C227.873 117.5 226.823 118 225.423 118C223.148 118 222.098 116.975 222.098 115.525H231.673V114.275C231.673 110.45 228.923 108.125 224.998 108.125C221.073 108.125 218.348 110.525 218.348 114.525ZM222.098 113.275C222.098 112.325 222.773 111.375 224.998 111.375C227.223 111.375 227.923 112.325 227.923 113.275H222.098ZM243.543 121H248.093L243.818 114.525L245.768 113.625C246.868 113.1 247.343 112.325 247.343 111.125V108.375H243.343L243.393 110.65L237.618 113.3V102.625H233.618V121H237.618V117.425L240.393 116.125L243.543 121ZM255.604 117.75V111.875H259.754V108.375H255.604V104.75L251.604 106V108.375H248.604V111.875H251.604V119.125C251.604 120.5 252.354 121.3 253.729 121.25L260.254 121V117.5L255.604 117.75ZM138.619 135.875H140.669C140.669 130.625 142.994 128.875 146.244 128.875C148.919 128.875 150.444 130.3 150.444 133.025C150.444 139.475 140.669 141.175 138.869 141.425V145H152.494V143.25H140.919L139.469 143.575V143C146.744 141.85 152.494 138.775 152.494 133.05C152.494 129.2 149.944 127.125 146.194 127.125C141.969 127.125 138.619 129.525 138.619 135.875ZM163.143 127.375L166.918 145H171.093L174.693 127.95H175.268L178.893 145H183.068L186.818 127.375H184.868L181.268 144.425H180.668L177.093 127.375H172.868L169.293 144.425H168.693L165.093 127.375H163.143ZM187.52 138.775C187.52 142.4 190.12 145.25 194.095 145.25C198.045 145.25 200.62 142.4 200.62 138.775C200.62 135.175 198.045 132.325 194.095 132.325C190.12 132.325 187.52 135.175 187.52 138.775ZM189.57 138.775C189.57 136.2 191.145 134.075 194.095 134.075C197.02 134.075 198.595 136.2 198.595 138.775C198.595 141.375 197.02 143.5 194.095 143.5C191.145 143.5 189.57 141.375 189.57 138.775ZM202.974 138.775C202.974 142.375 205.299 145.25 209.324 145.25C211.724 145.25 214.799 143.9 215.124 140.3H213.049C212.699 142.675 211.124 143.5 209.324 143.5C206.374 143.5 205.024 141.35 205.024 138.775C205.024 136.225 206.374 134.075 209.324 134.075C211.124 134.075 212.699 134.9 213.049 137.275H215.124C214.799 133.675 211.724 132.325 209.324 132.325C205.299 132.325 202.974 135.2 202.974 138.775ZM225.173 132.325C222.473 132.325 220.898 133.9 220.398 136.15H219.823L220.148 134.725V126.625H218.098V145H220.148V139.5C220.148 136.15 221.998 134.075 224.623 134.075C226.748 134.075 227.773 135.075 227.773 137.675V145H229.798V137.4C229.798 133.95 227.973 132.325 225.173 132.325ZM232.613 138.625C232.613 142.2 234.488 145.25 238.938 145.25C242.888 145.25 244.388 142.575 244.863 140.65H242.813C242.363 142.55 240.988 143.55 238.938 143.55C235.863 143.55 234.738 141.525 234.613 139.175H244.438V138.375C244.438 134.55 242.138 132.325 238.638 132.325C235.113 132.325 232.613 134.625 232.613 138.625ZM234.613 137.625C234.613 135.625 236.188 134.05 238.638 134.05C241.113 134.05 242.438 135.625 242.438 137.625H234.613ZM254.213 134.075C256.338 134.075 257.363 135.075 257.363 137.675V145H259.388V137.4C259.388 133.95 257.563 132.325 254.763 132.325C252.063 132.325 250.488 133.9 249.988 136.15H249.413L249.738 134.725V132.575H247.688V145H249.738V139.5C249.738 136.15 251.588 134.075 254.213 134.075Z" fill="#03000F"/>
<path d="M1.64926 26.6099C0.86751 26.3358 0.456009 25.4798 0.73015 24.698L5.19754 11.9586C5.47168 11.1769 6.32765 10.7654 7.1094 11.0395C7.89116 11.3137 8.30266 12.1696 8.02852 12.9514L4.05751 24.2753L15.3814 28.2463C16.1632 28.5205 16.5747 29.3764 16.3005 30.1582C16.0264 30.9399 15.1704 31.3514 14.3887 31.0773L1.64926 26.6099ZM144.498 75.7013C143.831 46.427 134.622 28.9798 121.48 19.0564C108.276 9.0865 90.8009 6.47675 73.152 7.55342C55.5256 8.6287 37.9384 13.3691 24.7262 17.8605C18.1273 20.1037 12.6361 22.2792 8.79739 23.8925C6.87834 24.6991 5.37313 25.3648 4.34994 25.8278C3.83837 26.0593 3.44736 26.2401 3.18543 26.3624C3.05448 26.4236 2.95579 26.4701 2.89046 26.5011C2.85779 26.5166 2.83346 26.5282 2.81759 26.5358C2.80966 26.5396 2.80385 26.5423 2.80017 26.5441C2.79833 26.545 2.79718 26.5455 2.79625 26.546C2.79563 26.5463 2.79555 26.5463 2.14564 25.1944C1.49573 23.8425 1.49672 23.842 1.49825 23.8413C1.49948 23.8407 1.50155 23.8397 1.504 23.8386C1.5089 23.8362 1.51595 23.8328 1.52511 23.8285C1.54345 23.8197 1.57027 23.8069 1.60546 23.7903C1.67584 23.7569 1.77966 23.7079 1.91586 23.6443C2.18826 23.5171 2.59021 23.3313 3.11315 23.0946C4.15898 22.6214 5.68906 21.9447 7.63501 21.1269C11.5263 19.4914 17.0839 17.2898 23.7606 15.0201C37.0993 10.4858 54.9696 5.65704 72.9693 4.55898C90.9464 3.4623 109.266 6.07497 123.287 16.6623C137.37 27.2962 146.816 45.7411 147.498 75.6329L144.498 75.7013Z" fill="#5D3EDE"/>
</svg>
