<svg width="134" height="43" viewBox="0 0 134 43" fill="none" xmlns="http://www.w3.org/2000/svg">
<path d="M0.868164 11.45C0.868164 15.85 3.59316 18.25 8.81816 18.25C14.0432 18.25 16.7932 15.85 16.7932 11.45V0.374999H12.7932V9.675C12.7932 12.825 12.4932 14.75 8.81816 14.75C5.14316 14.75 4.86816 12.825 4.86816 9.675V0.374999H0.868164V11.45ZM17.043 18H21.643L26.393 11.225L31.168 18H35.768L29.793 9.675V8.675L35.768 0.374999H31.168L26.393 7.125L21.643 0.374999H17.043L22.993 8.675V9.675L17.043 18ZM51.2764 0.374999H44.7764V18H51.2764C55.9764 18 60.8764 16.775 60.8764 9.175C60.8764 1.6 55.9764 0.374999 51.2764 0.374999ZM51.2764 14.5H48.7764V3.875H51.2764C54.4014 3.875 56.8764 4.125 56.8764 9.175C56.8764 14.25 54.4014 14.5 51.2764 14.5ZM62.123 11.525C62.123 15.1 64.348 18.25 69.198 18.25C73.573 18.25 75.648 15.375 75.898 13.55H71.898C71.648 14.5 70.598 15 69.198 15C66.923 15 65.873 13.975 65.873 12.525H75.448V11.275C75.448 7.45 72.698 5.125 68.773 5.125C64.848 5.125 62.123 7.525 62.123 11.525ZM65.873 10.275C65.873 9.325 66.548 8.375 68.773 8.375C70.998 8.375 71.698 9.325 71.698 10.275H65.873ZM89.4127 14.525C89.4127 11.9 87.1627 11.275 84.7127 10.475C82.7127 9.825 81.4627 9.45 81.4627 8.85C81.4627 8.35 81.9877 8.125 82.9377 8.125C84.3127 8.125 84.9877 8.8 84.9877 9.7H88.9877C88.9877 7.25 87.2377 5.125 82.9627 5.125C79.4877 5.125 77.4627 6.425 77.4627 8.675C77.4627 11.5 80.3377 12.125 82.6877 12.9C84.7127 13.575 85.4127 13.75 85.4127 14.4C85.4127 15 84.7377 15.25 83.6627 15.25C81.5627 15.25 80.8877 14.4 80.8877 13.425H76.8877C76.8877 16.375 78.8877 18.25 83.5377 18.25C87.8877 18.25 89.4127 16.65 89.4127 14.525ZM96.0822 4.125C97.5572 4.125 98.4822 3.425 98.4822 2.125C98.4822 0.849999 97.5572 0.124999 96.0822 0.124999C94.6072 0.124999 93.7322 0.849999 93.7322 2.125C93.7322 3.425 94.6072 4.125 96.0822 4.125ZM90.9072 18H101.907V14.5H98.3322V7.225C98.3322 5.825 97.5572 5.05 96.1572 5.125L91.4072 5.375V8.875L94.4822 8.725V14.5H90.9072V18ZM116.705 5.375C115.58 5.375 114.28 5.5 113.53 6.475C112.205 5.5 110.455 5.125 108.53 5.125C104.555 5.125 101.405 6.725 101.405 10.05C101.405 14.2 106.28 14.875 110.905 13.225V14.225C108.605 14.775 106.005 15.075 103.13 15.375L103.555 17.625C107.43 16.975 111.955 16.15 111.955 18C111.955 19.375 110.405 19.5 102.23 19.5V23C111.605 23 115.98 22.575 115.98 18.85C115.98 16.175 113.305 15.425 110.43 15.6C113.905 14.425 116.13 12.925 116.13 10.55C116.13 9.875 115.93 9.3 115.78 9.1C116.13 8.875 116.58 8.875 116.955 8.875H117.805V5.375H116.705ZM108.78 11.975C106.38 11.975 105.405 11.375 105.405 10.3C105.405 9.25 106.38 8.625 108.78 8.625C111.18 8.625 112.13 9.25 112.13 10.3C112.13 11.375 111.18 11.975 108.78 11.975ZM127.157 8.625C129.082 8.625 129.757 9.5 129.757 11.8V18H133.757V11.175C133.757 7.275 131.807 5.125 128.582 5.125C125.882 5.125 124.307 6.9 123.807 9.15H122.807L123.557 6.9V5.375H119.557V18H123.557V13.325C123.557 9.775 124.982 8.625 127.157 8.625ZM13.9937 33.825C13.9937 39.425 16.7688 42.25 20.8688 42.25C25.1188 42.25 27.7188 39.5 27.7188 35.7C27.7188 32.05 25.4188 29.375 21.5438 29.375C18.4438 29.375 15.9438 31.125 15.3938 33.575H14.8938L15.3938 32.325C15.8188 28.775 17.0938 25.075 21.5438 25.525L26.4687 26.025V24.625L21.5438 24.125C15.9938 23.55 13.9937 28.075 13.9937 33.825ZM15.6437 35.95C15.6437 32.75 18.2438 30.775 21.4188 30.775C24.3688 30.775 26.0688 32.775 26.0688 35.7C26.0688 38.925 24.1188 40.85 20.8688 40.85C17.5688 40.85 15.6437 38.35 15.6437 35.95ZM38.8053 24.375L42.7053 42H46.0553L49.9303 24.875H50.4303L54.3053 42H57.6553L61.5553 24.375H60.0053L56.2303 41.5H55.7303L51.8553 24.375H48.5053L44.6303 41.5H44.1303L40.3553 24.375H38.8053ZM62.3766 35.8C62.3766 39.275 64.8516 42.25 68.8266 42.25C72.7766 42.25 75.2516 39.275 75.2516 35.8C75.2516 32.35 72.7766 29.375 68.8266 29.375C64.8516 29.375 62.3766 32.35 62.3766 35.8ZM64.0266 35.8C64.0266 33.125 65.6766 30.775 68.8266 30.775C71.9516 30.775 73.6016 33.125 73.6016 35.8C73.6016 38.5 71.9516 40.85 68.8266 40.85C65.6766 40.85 64.0266 38.5 64.0266 35.8ZM77.8063 35.8C77.8063 39.275 80.0063 42.25 84.0313 42.25C86.2313 42.25 89.2813 41 89.6313 37.4H87.9563C87.5563 40.025 85.8813 40.85 84.0313 40.85C80.8813 40.85 79.4563 38.5 79.4563 35.8C79.4563 33.125 80.8813 30.775 84.0313 30.775C85.8813 30.775 87.5563 31.6 87.9563 34.225H89.6313C89.2813 30.625 86.2313 29.375 84.0313 29.375C80.0063 29.375 77.8063 32.35 77.8063 35.8ZM99.6053 29.375C96.9053 29.375 95.3303 30.9 94.8303 33.15H94.3303L94.5803 31.9V23.625H92.9303V42H94.5803V36.325C94.5803 33.025 96.5053 30.775 99.2303 30.775C101.405 30.775 102.48 31.8 102.48 34.45V42H104.13V34.25C104.13 30.9 102.33 29.375 99.6053 29.375ZM107.176 35.65C107.176 39.225 108.976 42.25 113.326 42.25C117.201 42.25 118.601 39.625 119.101 37.675H117.451C116.951 39.75 115.526 40.85 113.326 40.85C110.101 40.85 108.976 38.625 108.826 36.1H118.676V35.4C118.676 31.575 116.476 29.375 113.051 29.375C109.626 29.375 107.176 31.65 107.176 35.65ZM108.826 34.7C108.826 32.5 110.576 30.775 113.051 30.775C115.601 30.775 117.026 32.5 117.026 34.7H108.826ZM128.454 30.775C130.629 30.775 131.704 31.8 131.704 34.45V42H133.354V34.25C133.354 30.9 131.554 29.375 128.829 29.375C126.129 29.375 124.554 30.9 124.054 33.15H123.554L123.804 31.9V29.625H122.154V42H123.804V36.325C123.804 33.025 125.729 30.775 128.454 30.775Z" fill="#03000F"/>
</svg>
