<svg width="322" height="73" viewBox="0 0 322 73" fill="none" xmlns="http://www.w3.org/2000/svg">
<path d="M165.291 10.175C165.291 15.575 168.191 19.25 173.466 19.25C178.316 19.25 180.491 15.7 180.516 10.175H181.516L180.766 12.925V19H184.766V11.3C184.766 9.925 184.016 9.175 182.641 9.175H173.441V12.175H177.516C177.516 14.55 176.016 15.75 173.616 15.75C170.716 15.75 169.291 14.075 169.291 10.175C169.291 6.3 171.091 4.625 174.166 4.625C176.816 4.625 178.141 5.6 178.541 7.675H182.541C182.016 3.825 178.591 1.125 174.166 1.125C169.066 1.125 165.291 4.8 165.291 10.175ZM186.757 19H190.757V9.725L197.182 9.875V6.375L188.907 6.175C187.532 6.15 186.757 6.9 186.757 8.275V19ZM205.289 15.75C203.364 15.75 202.689 14.875 202.689 12.575V6.375H198.689V13.2C198.689 17.1 200.639 19.25 203.864 19.25C206.564 19.25 208.139 17.475 208.639 15.225H209.639L208.889 17.475V19H212.889V6.375H208.889V11.05C208.889 14.6 207.464 15.75 205.289 15.75ZM222.482 9.625C224.407 9.625 225.082 10.5 225.082 12.8V19H229.082V12.175C229.082 8.275 227.132 6.125 223.907 6.125C221.207 6.125 219.632 7.9 219.132 10.15H218.132L218.882 7.9V6.375H214.882V19H218.882V14.325C218.882 10.775 220.307 9.625 222.482 9.625ZM245.268 19V0.625H241.268V7.15L242.018 9.4H241.018C240.368 7.725 239.168 6.125 236.043 6.125C232.393 6.125 230.568 9.1 230.568 12.675C230.568 16.25 232.393 19.25 236.043 19.25C239.168 19.25 240.368 17.65 241.018 15.975H242.018L241.268 18.225V19H245.268ZM241.268 12.675C241.268 14.8 240.068 15.75 237.918 15.75C235.768 15.75 234.568 14.8 234.568 12.675C234.568 10.55 235.768 9.625 237.918 9.625C240.068 9.625 241.268 10.55 241.268 12.675ZM247.286 19H258.286V15.5H254.786V2.55C254.786 1.15 254.011 0.4 252.611 0.449999L247.786 0.625V4.125L250.786 3.975V15.5H247.286V19ZM259.548 15.55C259.548 16.85 260.223 19.25 264.148 19.25C267.673 19.25 268.898 17.475 269.373 15.375H270.373L269.748 16.875V17.125C269.748 18.325 270.423 19 271.623 19H274.398V15.5H272.573V11.95C272.573 7.8 269.523 6.125 266.048 6.125C262.523 6.125 259.798 8 259.798 11.2H263.548C263.548 10.05 264.448 9.375 266.048 9.375C267.773 9.375 268.573 10 268.573 11.025L264.598 11.575C260.848 12.1 259.548 13.375 259.548 15.55ZM263.548 14.8C263.548 14.075 264.148 13.9 265.348 13.725L268.573 13.275C268.573 14.825 267.123 15.75 264.923 15.75C264.248 15.75 263.548 15.525 263.548 14.8ZM289.179 6.375C288.054 6.375 286.754 6.5 286.004 7.475C284.679 6.5 282.929 6.125 281.004 6.125C277.029 6.125 273.879 7.725 273.879 11.05C273.879 15.2 278.754 15.875 283.379 14.225V15.225C281.079 15.775 278.479 16.075 275.604 16.375L276.029 18.625C279.904 17.975 284.429 17.15 284.429 19C284.429 20.375 282.879 20.5 274.704 20.5V24C284.079 24 288.454 23.575 288.454 19.85C288.454 17.175 285.779 16.425 282.904 16.6C286.379 15.425 288.604 13.925 288.604 11.55C288.604 10.875 288.404 10.3 288.254 10.1C288.604 9.875 289.054 9.875 289.429 9.875H290.279V6.375H289.179ZM281.254 12.975C278.854 12.975 277.879 12.375 277.879 11.3C277.879 10.25 278.854 9.625 281.254 9.625C283.654 9.625 284.604 10.25 284.604 11.3C284.604 12.375 283.654 12.975 281.254 12.975ZM291.042 12.525C291.042 16.1 293.267 19.25 298.117 19.25C302.492 19.25 304.567 16.375 304.817 14.55H300.817C300.567 15.5 299.517 16 298.117 16C295.842 16 294.792 14.975 294.792 13.525H304.367V12.275C304.367 8.45 301.617 6.125 297.692 6.125C293.767 6.125 291.042 8.525 291.042 12.525ZM294.792 11.275C294.792 10.325 295.467 9.375 297.692 9.375C299.917 9.375 300.617 10.325 300.617 11.275H294.792ZM314.157 9.625C316.082 9.625 316.757 10.5 316.757 12.8V19H320.757V12.175C320.757 8.275 318.807 6.125 315.582 6.125C312.882 6.125 311.307 7.9 310.807 10.15H309.807L310.557 7.9V6.375H306.557V19H310.557V14.325C310.557 10.775 311.982 9.625 314.157 9.625ZM97.0605 25.375L102.136 43H110.386L115.486 25.375H111.436L106.761 42H105.761L101.111 25.375H97.0605ZM120.167 29.125C121.642 29.125 122.567 28.425 122.567 27.125C122.567 25.85 121.642 25.125 120.167 25.125C118.692 25.125 117.817 25.85 117.817 27.125C117.817 28.425 118.692 29.125 120.167 29.125ZM114.992 43H125.992V39.5H122.417V32.225C122.417 30.825 121.642 30.05 120.242 30.125L115.492 30.375V33.875L118.567 33.725V39.5H114.992V43ZM139.523 39.525C139.523 36.9 137.273 36.275 134.823 35.475C132.823 34.825 131.573 34.45 131.573 33.85C131.573 33.35 132.098 33.125 133.048 33.125C134.423 33.125 135.098 33.8 135.098 34.7H139.098C139.098 32.25 137.348 30.125 133.073 30.125C129.598 30.125 127.573 31.425 127.573 33.675C127.573 36.5 130.448 37.125 132.798 37.9C134.823 38.575 135.523 38.75 135.523 39.4C135.523 40 134.848 40.25 133.773 40.25C131.673 40.25 130.998 39.4 130.998 38.425H126.998C126.998 41.375 128.998 43.25 133.648 43.25C137.998 43.25 139.523 41.65 139.523 39.525ZM147.623 39.75C145.698 39.75 145.023 38.875 145.023 36.575V30.375H141.023V37.2C141.023 41.1 142.973 43.25 146.198 43.25C148.898 43.25 150.473 41.475 150.973 39.225H151.973L151.223 41.475V43H155.223V30.375H151.223V35.05C151.223 38.6 149.798 39.75 147.623 39.75ZM156.716 36.525C156.716 40.1 158.941 43.25 163.791 43.25C168.166 43.25 170.241 40.375 170.491 38.55H166.491C166.241 39.5 165.191 40 163.791 40C161.516 40 160.466 38.975 160.466 37.525H170.041V36.275C170.041 32.45 167.291 30.125 163.366 30.125C159.441 30.125 156.716 32.525 156.716 36.525ZM160.466 35.275C160.466 34.325 161.141 33.375 163.366 33.375C165.591 33.375 166.291 34.325 166.291 35.275H160.466ZM171.48 43H182.48V39.5H178.98V26.55C178.98 25.15 178.205 24.4 176.805 24.45L171.98 24.625V28.125L174.98 27.975V39.5H171.48V43ZM183.736 43H194.736V39.5H191.236V26.55C191.236 25.15 190.461 24.4 189.061 24.45L184.236 24.625V28.125L187.236 27.975V39.5H183.736V43ZM195.485 36.525C195.485 40.1 197.71 43.25 202.56 43.25C206.935 43.25 209.01 40.375 209.26 38.55H205.26C205.01 39.5 203.96 40 202.56 40C200.285 40 199.235 38.975 199.235 37.525H208.81V36.275C208.81 32.45 206.06 30.125 202.135 30.125C198.21 30.125 195.485 32.525 195.485 36.525ZM199.235 35.275C199.235 34.325 199.91 33.375 202.135 33.375C204.36 33.375 205.06 34.325 205.06 35.275H199.235ZM222.775 39.525C222.775 36.9 220.525 36.275 218.075 35.475C216.075 34.825 214.825 34.45 214.825 33.85C214.825 33.35 215.35 33.125 216.3 33.125C217.675 33.125 218.35 33.8 218.35 34.7H222.35C222.35 32.25 220.6 30.125 216.325 30.125C212.85 30.125 210.825 31.425 210.825 33.675C210.825 36.5 213.7 37.125 216.05 37.9C218.075 38.575 218.775 38.75 218.775 39.4C218.775 40 218.1 40.25 217.025 40.25C214.925 40.25 214.25 39.4 214.25 38.425H210.25C210.25 41.375 212.25 43.25 216.9 43.25C221.25 43.25 222.775 41.65 222.775 39.525ZM238.276 25.375H231.776V43H238.276C242.976 43 247.876 41.775 247.876 34.175C247.876 26.6 242.976 25.375 238.276 25.375ZM238.276 39.5H235.776V28.875H238.276C241.401 28.875 243.876 29.125 243.876 34.175C243.876 39.25 241.401 39.5 238.276 39.5ZM249.123 36.525C249.123 40.1 251.348 43.25 256.198 43.25C260.573 43.25 262.648 40.375 262.898 38.55H258.898C258.648 39.5 257.598 40 256.198 40C253.923 40 252.873 38.975 252.873 37.525H262.448V36.275C262.448 32.45 259.698 30.125 255.773 30.125C251.848 30.125 249.123 32.525 249.123 36.525ZM252.873 35.275C252.873 34.325 253.548 33.375 255.773 33.375C257.998 33.375 258.698 34.325 258.698 35.275H252.873ZM276.413 39.525C276.413 36.9 274.163 36.275 271.713 35.475C269.713 34.825 268.463 34.45 268.463 33.85C268.463 33.35 268.988 33.125 269.938 33.125C271.313 33.125 271.988 33.8 271.988 34.7H275.988C275.988 32.25 274.238 30.125 269.963 30.125C266.488 30.125 264.463 31.425 264.463 33.675C264.463 36.5 267.338 37.125 269.688 37.9C271.713 38.575 272.413 38.75 272.413 39.4C272.413 40 271.738 40.25 270.663 40.25C268.563 40.25 267.888 39.4 267.888 38.425H263.888C263.888 41.375 265.888 43.25 270.538 43.25C274.888 43.25 276.413 41.65 276.413 39.525ZM283.082 29.125C284.557 29.125 285.482 28.425 285.482 27.125C285.482 25.85 284.557 25.125 283.082 25.125C281.607 25.125 280.732 25.85 280.732 27.125C280.732 28.425 281.607 29.125 283.082 29.125ZM277.907 43H288.907V39.5H285.332V32.225C285.332 30.825 284.557 30.05 283.157 30.125L278.407 30.375V33.875L281.482 33.725V39.5H277.907V43ZM303.705 30.375C302.58 30.375 301.28 30.5 300.53 31.475C299.205 30.5 297.455 30.125 295.53 30.125C291.555 30.125 288.405 31.725 288.405 35.05C288.405 39.2 293.28 39.875 297.905 38.225V39.225C295.605 39.775 293.005 40.075 290.13 40.375L290.555 42.625C294.43 41.975 298.955 41.15 298.955 43C298.955 44.375 297.405 44.5 289.23 44.5V48C298.605 48 302.98 47.575 302.98 43.85C302.98 41.175 300.305 40.425 297.43 40.6C300.905 39.425 303.13 37.925 303.13 35.55C303.13 34.875 302.93 34.3 302.78 34.1C303.13 33.875 303.58 33.875 303.955 33.875H304.805V30.375H303.705ZM295.78 36.975C293.38 36.975 292.405 36.375 292.405 35.3C292.405 34.25 293.38 33.625 295.78 33.625C298.18 33.625 299.13 34.25 299.13 35.3C299.13 36.375 298.18 36.975 295.78 36.975ZM314.157 33.625C316.082 33.625 316.757 34.5 316.757 36.8V43H320.757V36.175C320.757 32.275 318.807 30.125 315.582 30.125C312.882 30.125 311.307 31.9 310.807 34.15H309.807L310.557 31.9V30.375H306.557V43H310.557V38.325C310.557 34.775 311.982 33.625 314.157 33.625ZM214.955 61.525H212.605V54.625H210.955V61.525H203.33L202.08 61.775V61.275C207.98 58.35 210.505 54.125 211.23 49.375H209.58C209.005 54.375 205.53 58.075 201.58 60V62.925H210.955V67H212.605V62.925H214.955V61.525ZM225.805 49.375L229.705 67H233.055L236.93 49.875H237.43L241.305 67H244.655L248.555 49.375H247.005L243.23 66.5H242.73L238.855 49.375H235.505L231.63 66.5H231.13L227.355 49.375H225.805ZM249.377 60.8C249.377 64.275 251.852 67.25 255.827 67.25C259.777 67.25 262.252 64.275 262.252 60.8C262.252 57.35 259.777 54.375 255.827 54.375C251.852 54.375 249.377 57.35 249.377 60.8ZM251.027 60.8C251.027 58.125 252.677 55.775 255.827 55.775C258.952 55.775 260.602 58.125 260.602 60.8C260.602 63.5 258.952 65.85 255.827 65.85C252.677 65.85 251.027 63.5 251.027 60.8ZM264.806 60.8C264.806 64.275 267.006 67.25 271.031 67.25C273.231 67.25 276.281 66 276.631 62.4H274.956C274.556 65.025 272.881 65.85 271.031 65.85C267.881 65.85 266.456 63.5 266.456 60.8C266.456 58.125 267.881 55.775 271.031 55.775C272.881 55.775 274.556 56.6 274.956 59.225H276.631C276.281 55.625 273.231 54.375 271.031 54.375C267.006 54.375 264.806 57.35 264.806 60.8ZM286.605 54.375C283.905 54.375 282.33 55.9 281.83 58.15H281.33L281.58 56.9V48.625H279.93V67H281.58V61.325C281.58 58.025 283.505 55.775 286.23 55.775C288.405 55.775 289.48 56.8 289.48 59.45V67H291.13V59.25C291.13 55.9 289.33 54.375 286.605 54.375ZM294.176 60.65C294.176 64.225 295.976 67.25 300.326 67.25C304.201 67.25 305.601 64.625 306.101 62.675H304.451C303.951 64.75 302.526 65.85 300.326 65.85C297.101 65.85 295.976 63.625 295.826 61.1H305.676V60.4C305.676 56.575 303.476 54.375 300.051 54.375C296.626 54.375 294.176 56.65 294.176 60.65ZM295.826 59.7C295.826 57.5 297.576 55.775 300.051 55.775C302.601 55.775 304.026 57.5 304.026 59.7H295.826ZM315.454 55.775C317.629 55.775 318.704 56.8 318.704 59.45V67H320.354V59.25C320.354 55.9 318.554 54.375 315.829 54.375C313.129 54.375 311.554 55.9 311.054 58.15H310.554L310.804 56.9V54.625H309.154V67H310.804V61.325C310.804 58.025 312.729 55.775 315.454 55.775Z" fill="#03000F"/>
<path d="M0.671924 50.3181C0.324192 49.5662 0.651845 48.6747 1.40376 48.327L13.6569 42.6604C14.4088 42.3127 15.3002 42.6403 15.648 43.3922C15.9957 44.1441 15.6681 45.0356 14.9161 45.3833L4.02447 50.4203L9.06147 61.312C9.4092 62.0639 9.08155 62.9553 8.32964 63.3031C7.57772 63.6508 6.68628 63.3231 6.33855 62.5712L0.671924 50.3181ZM12.6733 53.2124L12.4685 54.6984L12.6733 53.2124ZM26.933 53.6043L26.955 55.1041L26.933 53.6043ZM39.884 51.1665L39.446 49.7319L39.884 51.1665ZM60.8971 42.1176L61.8118 43.3064L60.8971 42.1176ZM62.7083 40.7109L61.3395 40.0972L62.7083 40.7109ZM2.55087 48.2806C3.41408 48.5978 4.30321 48.9505 5.18596 49.3003C6.07509 49.6527 6.96056 50.0034 7.84521 50.3296C9.62443 50.9856 11.3206 51.5118 12.8781 51.7264L12.4685 54.6984C10.5846 54.4387 8.64543 53.8221 6.80733 53.1443C5.88332 52.8036 4.96464 52.4396 4.08065 52.0893C3.19027 51.7364 2.33729 51.3983 1.5159 51.0964L2.55087 48.2806ZM12.8781 51.7264C17.7022 52.3913 22.215 52.1734 26.911 52.1044L26.955 55.1041C22.3893 55.1712 17.5791 55.4027 12.4685 54.6984L12.8781 51.7264ZM26.911 52.1044C31.6051 52.0355 35.4674 50.9466 39.446 49.7319L40.3221 52.6011C36.3135 53.825 32.1038 55.0285 26.955 55.1041L26.911 52.1044ZM39.446 49.7319C41.1377 49.2153 43.1104 48.7552 44.7772 48.2959C46.5263 47.814 48.0799 47.3001 49.3108 46.6211L50.7598 49.2479C49.2029 50.1067 47.3627 50.6953 45.5741 51.1881C43.703 51.7037 41.994 52.0906 40.3221 52.6011L39.446 49.7319ZM49.3108 46.6211C51.1302 45.6175 53.1776 44.7025 55.0101 43.8134C56.8925 42.9001 58.6027 41.9903 59.9824 40.9288L61.8118 43.3064C60.1732 44.5671 58.2267 45.5872 56.3197 46.5125C54.3629 47.4619 52.4886 48.2943 50.7598 49.2479L49.3108 46.6211ZM59.9824 40.9288C60.1851 40.7728 60.4092 40.6318 60.5868 40.5222C60.7877 40.3982 60.9385 40.3086 61.0948 40.2067C61.2466 40.1078 61.3402 40.0371 61.3947 39.9881C61.4583 39.9309 61.3988 39.965 61.3395 40.0972L64.077 41.3246C63.8947 41.7311 63.6153 42.0258 63.401 42.2186C63.1776 42.4195 62.9355 42.5879 62.7331 42.7199C62.5352 42.8489 62.3132 42.9821 62.1621 43.0753C61.9876 43.1829 61.8804 43.2536 61.8118 43.3064L59.9824 40.9288ZM61.3395 40.0972C61.5123 39.712 61.7946 39.4747 61.9121 39.3805C62.0659 39.2571 62.2274 39.1567 62.3602 39.0809C62.6292 38.9274 62.9219 38.7954 63.14 38.7042C63.3248 38.627 63.5693 38.5317 63.7257 38.491C63.7449 38.486 63.7851 38.4759 63.836 38.4665C63.8613 38.4618 63.9049 38.4543 63.9594 38.4488C63.9994 38.4447 64.1174 38.4335 64.2675 38.4491C64.3423 38.4569 64.4856 38.477 64.6542 38.5422C64.8147 38.6044 65.1215 38.7554 65.3548 39.0999C65.9353 39.9565 65.3859 40.7418 65.3258 40.8244C65.1965 41.0022 65.0581 41.1075 65.0251 41.1328C64.9702 41.1749 64.9236 41.2045 64.8987 41.22C64.8148 41.2718 64.7401 41.3058 64.7301 41.3105C64.7024 41.3234 64.6765 41.3347 64.6566 41.3432C64.5806 41.3755 64.473 41.4177 64.3378 41.4687L63.2789 38.6618C63.405 38.6143 63.4647 38.59 63.4806 38.5832C63.5325 38.5611 63.4325 38.5995 63.3223 38.6675C63.2987 38.6821 63.2532 38.711 63.1991 38.7525C63.167 38.7771 63.0291 38.8819 62.9001 39.0592C62.8403 39.1414 62.291 39.9264 62.8713 40.7827C63.1046 41.127 63.4112 41.278 63.5715 41.3401C63.7399 41.4052 63.8829 41.4253 63.9574 41.433C64.1068 41.4486 64.224 41.4374 64.2628 41.4334C64.3162 41.428 64.3584 41.4207 64.3822 41.4163C64.4298 41.4075 64.4659 41.3983 64.4802 41.3946C64.5567 41.3747 64.4949 41.3895 64.2967 41.4723C64.132 41.5411 63.965 41.6192 63.8474 41.6863C63.7869 41.7209 63.7733 41.7334 63.7891 41.7208C63.7981 41.7135 63.8325 41.6854 63.8775 41.6354C63.9184 41.5899 64.0045 41.4863 64.077 41.3246L61.3395 40.0972Z" fill="#5D3EDE"/>
</svg>
