<svg width="164" height="103" viewBox="0 0 164 103" fill="none" xmlns="http://www.w3.org/2000/svg">
<path d="M145.901 14.1792C124.485 6.40258 102.897 3.56457 80.8322 3.22108C61.0669 2.91338 34.0742 -2.81398 16.3284 13.5028C7.38719 21.7239 0.00530386 42.6746 2.48593 58.0118C4.16965 68.4219 8.5132 77.1636 15.0571 82.3633C30.9226 94.9697 51.8915 97.3144 69.5794 99.4093C89.1695 101.729 110.831 102.663 129.752 93.9302C137.656 90.2822 145.152 84.699 152.022 78.0341C155.135 75.0133 159.996 70.5784 161.439 65.1143C164.218 54.5867 156.027 39.731 151.127 33.2545C144.035 23.8806 135.748 19.3227 126.409 17.8319" stroke="#30E1B9" stroke-width="3" stroke-linecap="round" stroke-linejoin="round"/>
</svg>
