<svg width="291" height="102" viewBox="0 0 291 102" fill="none" xmlns="http://www.w3.org/2000/svg">
<path d="M260.123 14.0562C221.707 6.35811 182.983 3.54876 143.405 3.20874C107.951 2.90415 59.5332 -2.76536 27.7015 13.3866C11.6633 21.5247 -1.57799 42.2637 2.87164 57.4461C5.89181 67.751 13.683 76.4044 25.4212 81.5515C53.8799 94.0306 91.4929 96.3517 123.22 98.4254C158.36 100.722 197.215 101.646 231.154 93.0016C245.333 89.3905 258.78 83.8636 271.102 77.2661C276.687 74.2758 285.405 69.8857 287.993 64.4768C292.979 54.0555 278.286 39.3499 269.497 32.9388C256.776 23.6595 241.91 19.1477 225.158 17.672" stroke="#30E1B9" stroke-width="3" stroke-linecap="round" stroke-linejoin="round"/>
</svg>
