<svg width="240" height="44" viewBox="0 0 240 44" fill="none" xmlns="http://www.w3.org/2000/svg">
<path d="M0.764649 12.45C0.764649 16.85 3.48965 19.25 8.71465 19.25C13.9396 19.25 16.6896 16.85 16.6896 12.45V1.375H12.6896V10.675C12.6896 13.825 12.3896 15.75 8.71465 15.75C5.03965 15.75 4.76465 13.825 4.76465 10.675V1.375H0.764649V12.45ZM16.9395 19H21.5395L26.2895 12.225L31.0645 19H35.6645L29.6895 10.675V9.675L35.6645 1.375H31.0645L26.2895 8.125L21.5395 1.375H16.9395L22.8895 9.675V10.675L16.9395 19ZM40.641 11.625C42.291 11.625 43.416 10.425 43.416 8.85C43.416 7.325 42.291 6.125 40.641 6.125C38.941 6.125 37.916 7.325 37.916 8.85C37.916 10.425 38.941 11.625 40.641 11.625ZM40.641 19.25C42.291 19.25 43.416 18.05 43.416 16.475C43.416 14.95 42.291 13.75 40.641 13.75C38.941 13.75 37.916 14.95 37.916 16.475C37.916 18.05 38.941 19.25 40.641 19.25ZM52.6816 1.375L57.7566 19H66.0066L71.1066 1.375H67.0566L62.3816 18H61.3816L56.7316 1.375H52.6816ZM70.3691 12.525C70.3691 16.1 72.5941 19.25 77.4441 19.25C81.8191 19.25 83.8941 16.375 84.1441 14.55H80.1441C79.8941 15.5 78.8441 16 77.4441 16C75.1691 16 74.1191 14.975 74.1191 13.525H83.6941V12.275C83.6941 8.45 80.9441 6.125 77.0191 6.125C73.0941 6.125 70.3691 8.525 70.3691 12.525ZM74.1191 11.275C74.1191 10.325 74.7941 9.375 77.0191 9.375C79.2441 9.375 79.9441 10.325 79.9441 11.275H74.1191ZM85.8838 19H89.8838V9.725L96.3088 9.875V6.375L88.0338 6.175C86.6588 6.15 85.8838 6.9 85.8838 8.275V19ZM109.597 15.525C109.597 12.9 107.347 12.275 104.897 11.475C102.897 10.825 101.647 10.45 101.647 9.85C101.647 9.35 102.172 9.125 103.122 9.125C104.497 9.125 105.172 9.8 105.172 10.7H109.172C109.172 8.25 107.422 6.125 103.147 6.125C99.6723 6.125 97.6473 7.425 97.6473 9.675C97.6473 12.5 100.522 13.125 102.872 13.9C104.897 14.575 105.597 14.75 105.597 15.4C105.597 16 104.922 16.25 103.847 16.25C101.747 16.25 101.072 15.4 101.072 14.425H97.0723C97.0723 17.375 99.0723 19.25 103.722 19.25C108.072 19.25 109.597 17.65 109.597 15.525ZM117.098 15.75V9.875H121.248V6.375H117.098V2.75L113.098 4V6.375H110.098V9.875H113.098V17.125C113.098 18.5 113.848 19.3 115.223 19.25L121.748 19V15.5L117.098 15.75ZM122.737 12.525C122.737 16.1 124.962 19.25 129.812 19.25C134.187 19.25 136.262 16.375 136.512 14.55H132.512C132.262 15.5 131.212 16 129.812 16C127.537 16 126.487 14.975 126.487 13.525H136.062V12.275C136.062 8.45 133.312 6.125 129.387 6.125C125.462 6.125 122.737 8.525 122.737 12.525ZM126.487 11.275C126.487 10.325 127.162 9.375 129.387 9.375C131.612 9.375 132.312 10.325 132.312 11.275H126.487ZM147.033 6.125C144.333 6.125 142.758 7.9 142.258 10.15H141.258L142.008 7.9V0.625H138.008V19H142.008V14.325C142.008 10.775 143.433 9.625 145.608 9.625C147.533 9.625 148.208 10.5 148.208 12.8V19H152.208V12.175C152.208 8.275 150.258 6.125 147.033 6.125ZM153.694 12.525C153.694 16.1 155.919 19.25 160.769 19.25C165.144 19.25 167.219 16.375 167.469 14.55H163.469C163.219 15.5 162.169 16 160.769 16C158.494 16 157.444 14.975 157.444 13.525H167.019V12.275C167.019 8.45 164.269 6.125 160.344 6.125C156.419 6.125 153.694 8.525 153.694 12.525ZM157.444 11.275C157.444 10.325 158.119 9.375 160.344 9.375C162.569 9.375 163.269 10.325 163.269 11.275H157.444ZM176.809 9.625C178.734 9.625 179.409 10.5 179.409 12.8V19H183.409V12.175C183.409 8.275 181.459 6.125 178.234 6.125C175.534 6.125 173.959 7.9 173.459 10.15H172.459L173.209 7.9V6.375H169.209V19H173.209V14.325C173.209 10.775 174.634 9.625 176.809 9.625ZM199.509 15.75C197.584 15.75 196.909 14.875 196.909 12.575V6.375H192.909V13.2C192.909 17.1 194.859 19.25 198.084 19.25C200.784 19.25 202.359 17.475 202.859 15.225H203.859L203.109 17.475V19H207.109V6.375H203.109V11.05C203.109 14.6 201.684 15.75 199.509 15.75ZM216.702 9.625C218.627 9.625 219.302 10.5 219.302 12.8V19H223.302V12.175C223.302 8.275 221.352 6.125 218.127 6.125C215.427 6.125 213.852 7.9 213.352 10.15H212.352L213.102 7.9V6.375H209.102V19H213.102V14.325C213.102 10.775 214.527 9.625 216.702 9.625ZM239.488 19V0.625H235.488V7.15L236.238 9.4H235.238C234.588 7.725 233.388 6.125 230.263 6.125C226.613 6.125 224.788 9.1 224.788 12.675C224.788 16.25 226.613 19.25 230.263 19.25C233.388 19.25 234.588 17.65 235.238 15.975H236.238L235.488 18.225V19H239.488ZM235.488 12.675C235.488 14.8 234.288 15.75 232.138 15.75C229.988 15.75 228.788 14.8 228.788 12.675C228.788 10.55 229.988 9.625 232.138 9.625C234.288 9.625 235.488 10.55 235.488 12.675ZM107.381 39.55C107.381 40.85 108.056 43.25 111.981 43.25C115.506 43.25 116.731 41.475 117.206 39.375H118.206L117.581 40.875V41.125C117.581 42.325 118.256 43 119.456 43H122.231V39.5H120.406V35.95C120.406 31.8 117.356 30.125 113.881 30.125C110.356 30.125 107.631 32 107.631 35.2H111.381C111.381 34.05 112.281 33.375 113.881 33.375C115.606 33.375 116.406 34 116.406 35.025L112.431 35.575C108.681 36.1 107.381 37.375 107.381 39.55ZM111.381 38.8C111.381 38.075 111.981 37.9 113.181 37.725L116.406 37.275C116.406 38.825 114.956 39.75 112.756 39.75C112.081 39.75 111.381 39.525 111.381 38.8ZM131.326 33.625C133.251 33.625 133.926 34.5 133.926 36.8V43H137.926V36.175C137.926 32.275 135.976 30.125 132.751 30.125C130.051 30.125 128.476 31.9 127.976 34.15H126.976L127.726 31.9V30.375H123.726V43H127.726V38.325C127.726 34.775 129.151 33.625 131.326 33.625ZM138.931 30.375L140.706 43H149.056L150.031 31.375H151.031L152.006 43H160.356L162.131 30.375H158.331L156.681 42H155.681L154.706 30.375H146.356L145.381 42H144.381L142.756 30.375H138.931ZM162.63 36.525C162.63 40.1 164.855 43.25 169.705 43.25C174.08 43.25 176.155 40.375 176.405 38.55H172.405C172.155 39.5 171.105 40 169.705 40C167.43 40 166.38 38.975 166.38 37.525H175.955V36.275C175.955 32.45 173.205 30.125 169.28 30.125C165.355 30.125 162.63 32.525 162.63 36.525ZM166.38 35.275C166.38 34.325 167.055 33.375 169.28 33.375C171.505 33.375 172.205 34.325 172.205 35.275H166.38ZM185.745 33.625C187.67 33.625 188.345 34.5 188.345 36.8V43H192.345V36.175C192.345 32.275 190.395 30.125 187.17 30.125C184.47 30.125 182.895 31.9 182.395 34.15H181.395L182.145 31.9V30.375H178.145V43H182.145V38.325C182.145 34.775 183.57 33.625 185.745 33.625ZM208.531 43V24.625H204.531V31.15L205.281 33.4H204.281C203.631 31.725 202.431 30.125 199.306 30.125C195.656 30.125 193.831 33.1 193.831 36.675C193.831 40.25 195.656 43.25 199.306 43.25C202.431 43.25 203.631 41.65 204.281 39.975H205.281L204.531 42.225V43H208.531ZM204.531 36.675C204.531 38.8 203.331 39.75 201.181 39.75C199.031 39.75 197.831 38.8 197.831 36.675C197.831 34.55 199.031 33.625 201.181 33.625C203.331 33.625 204.531 34.55 204.531 36.675ZM210.042 36.525C210.042 40.1 212.267 43.25 217.117 43.25C221.492 43.25 223.567 40.375 223.817 38.55H219.817C219.567 39.5 218.517 40 217.117 40C214.842 40 213.792 38.975 213.792 37.525H223.367V36.275C223.367 32.45 220.617 30.125 216.692 30.125C212.767 30.125 210.042 32.525 210.042 36.525ZM213.792 35.275C213.792 34.325 214.467 33.375 216.692 33.375C218.917 33.375 219.617 34.325 219.617 35.275H213.792ZM233.157 33.625C235.082 33.625 235.757 34.5 235.757 36.8V43H239.757V36.175C239.757 32.275 237.807 30.125 234.582 30.125C231.882 30.125 230.307 31.9 229.807 34.15H228.807L229.557 31.9V30.375H225.557V43H229.557V38.325C229.557 34.775 230.982 33.625 233.157 33.625Z" fill="#03000F"/>
</svg>
