<svg width="135" height="26" viewBox="0 0 135 26" fill="none" xmlns="http://www.w3.org/2000/svg">
<path d="M0.468203 7.332C0.468203 9.796 1.9942 11.14 4.9202 11.14C7.8462 11.14 9.3862 9.796 9.3862 7.332V1.13H7.1462V6.338C7.1462 8.102 6.9782 9.18 4.9202 9.18C2.8622 9.18 2.7082 8.102 2.7082 6.338V1.13H0.468203V7.332ZM9.52609 11H12.1021L14.7621 7.206L17.4361 11H20.0121L16.6661 6.338V5.778L20.0121 1.13H17.4361L14.7621 4.91L12.1021 1.13H9.52609L12.8581 5.778V6.338L9.52609 11ZM22.799 6.87C23.723 6.87 24.353 6.198 24.353 5.316C24.353 4.462 23.723 3.79 22.799 3.79C21.847 3.79 21.273 4.462 21.273 5.316C21.273 6.198 21.847 6.87 22.799 6.87ZM22.799 11.14C23.723 11.14 24.353 10.468 24.353 9.586C24.353 8.732 23.723 8.06 22.799 8.06C21.847 8.06 21.273 8.732 21.273 9.586C21.273 10.468 21.847 11.14 22.799 11.14ZM29.5417 1.13L32.3837 11H37.0037L39.8597 1.13H37.5917L34.9737 10.44H34.4137L31.8097 1.13H29.5417ZM39.4467 7.374C39.4467 9.376 40.6927 11.14 43.4087 11.14C45.8587 11.14 47.0207 9.53 47.1607 8.508H44.9207C44.7807 9.04 44.1927 9.32 43.4087 9.32C42.1347 9.32 41.5467 8.746 41.5467 7.934H46.9087V7.234C46.9087 5.092 45.3687 3.79 43.1707 3.79C40.9727 3.79 39.4467 5.134 39.4467 7.374ZM41.5467 6.674C41.5467 6.142 41.9247 5.61 43.1707 5.61C44.4167 5.61 44.8087 6.142 44.8087 6.674H41.5467ZM48.1349 11H50.3749V5.806L53.9729 5.89V3.93L49.3389 3.818C48.5689 3.804 48.1349 4.224 48.1349 4.994V11ZM61.4145 9.054C61.4145 7.584 60.1545 7.234 58.7825 6.786C57.6625 6.422 56.9625 6.212 56.9625 5.876C56.9625 5.596 57.2565 5.47 57.7885 5.47C58.5585 5.47 58.9365 5.848 58.9365 6.352H61.1765C61.1765 4.98 60.1965 3.79 57.8025 3.79C55.8565 3.79 54.7225 4.518 54.7225 5.778C54.7225 7.36 56.3325 7.71 57.6485 8.144C58.7825 8.522 59.1745 8.62 59.1745 8.984C59.1745 9.32 58.7965 9.46 58.1945 9.46C57.0185 9.46 56.6405 8.984 56.6405 8.438H54.4005C54.4005 10.09 55.5205 11.14 58.1245 11.14C60.5605 11.14 61.4145 10.244 61.4145 9.054ZM65.6147 9.18V5.89H67.9387V3.93H65.6147V1.9L63.3747 2.6V3.93H61.6947V5.89H63.3747V9.95C63.3747 10.72 63.7947 11.168 64.5647 11.14L68.2187 11V9.04L65.6147 9.18ZM68.7729 7.374C68.7729 9.376 70.0189 11.14 72.7349 11.14C75.1849 11.14 76.3469 9.53 76.4869 8.508H74.2469C74.1069 9.04 73.5189 9.32 72.7349 9.32C71.4609 9.32 70.8729 8.746 70.8729 7.934H76.2349V7.234C76.2349 5.092 74.6949 3.79 72.4969 3.79C70.2989 3.79 68.7729 5.134 68.7729 7.374ZM70.8729 6.674C70.8729 6.142 71.2509 5.61 72.4969 5.61C73.7429 5.61 74.1349 6.142 74.1349 6.674H70.8729ZM82.3784 3.79C80.8664 3.79 79.9844 4.784 79.7044 6.044H79.1444L79.5644 4.784V0.71H77.3244V11H79.5644V8.382C79.5644 6.394 80.3624 5.75 81.5804 5.75C82.6584 5.75 83.0364 6.24 83.0364 7.528V11H85.2764V7.178C85.2764 4.994 84.1844 3.79 82.3784 3.79ZM86.1088 7.374C86.1088 9.376 87.3548 11.14 90.0708 11.14C92.5208 11.14 93.6828 9.53 93.8228 8.508H91.5828C91.4428 9.04 90.8548 9.32 90.0708 9.32C88.7968 9.32 88.2088 8.746 88.2088 7.934H93.5708V7.234C93.5708 5.092 92.0308 3.79 89.8328 3.79C87.6348 3.79 86.1088 5.134 86.1088 7.374ZM88.2088 6.674C88.2088 6.142 88.5868 5.61 89.8328 5.61C91.0788 5.61 91.4708 6.142 91.4708 6.674H88.2088ZM99.053 5.75C100.131 5.75 100.509 6.24 100.509 7.528V11H102.749V7.178C102.749 4.994 101.657 3.79 99.851 3.79C98.339 3.79 97.457 4.784 97.177 6.044H96.617L97.037 4.784V3.93H94.797V11H97.037V8.382C97.037 6.394 97.835 5.75 99.053 5.75ZM111.765 9.18C110.687 9.18 110.309 8.69 110.309 7.402V3.93H108.069V7.752C108.069 9.936 109.161 11.14 110.967 11.14C112.479 11.14 113.361 10.146 113.641 8.886H114.201L113.781 10.146V11H116.021V3.93H113.781V6.548C113.781 8.536 112.983 9.18 111.765 9.18ZM121.393 5.75C122.471 5.75 122.849 6.24 122.849 7.528V11H125.089V7.178C125.089 4.994 123.997 3.79 122.191 3.79C120.679 3.79 119.797 4.784 119.517 6.044H118.957L119.377 4.784V3.93H117.137V11H119.377V8.382C119.377 6.394 120.175 5.75 121.393 5.75ZM134.153 11V0.71H131.913V4.364L132.333 5.624H131.773C131.409 4.686 130.737 3.79 128.987 3.79C126.943 3.79 125.921 5.456 125.921 7.458C125.921 9.46 126.943 11.14 128.987 11.14C130.737 11.14 131.409 10.244 131.773 9.306H132.333L131.913 10.566V11H134.153ZM131.913 7.458C131.913 8.648 131.241 9.18 130.037 9.18C128.833 9.18 128.161 8.648 128.161 7.458C128.161 6.268 128.833 5.75 130.037 5.75C131.241 5.75 131.913 6.268 131.913 7.458ZM60.1733 23.068C60.1733 23.796 60.5513 25.14 62.7493 25.14C64.7233 25.14 65.4093 24.146 65.6753 22.97H66.2353L65.8853 23.81V23.95C65.8853 24.622 66.2633 25 66.9353 25H68.4893V23.04H67.4673V21.052C67.4673 18.728 65.7593 17.79 63.8133 17.79C61.8393 17.79 60.3133 18.84 60.3133 20.632H62.4133C62.4133 19.988 62.9173 19.61 63.8133 19.61C64.7793 19.61 65.2273 19.96 65.2273 20.534L63.0013 20.842C60.9013 21.136 60.1733 21.85 60.1733 23.068ZM62.4133 22.648C62.4133 22.242 62.7493 22.144 63.4213 22.046L65.2273 21.794C65.2273 22.662 64.4153 23.18 63.1833 23.18C62.8053 23.18 62.4133 23.054 62.4133 22.648ZM73.5823 19.75C74.6603 19.75 75.0383 20.24 75.0383 21.528V25H77.2783V21.178C77.2783 18.994 76.1863 17.79 74.3803 17.79C72.8683 17.79 71.9863 18.784 71.7063 20.044H71.1463L71.5663 18.784V17.93H69.3263V25H71.5663V22.382C71.5663 20.394 72.3643 19.75 73.5823 19.75ZM77.8412 17.93L78.8352 25H83.5112L84.0572 18.49H84.6172L85.1632 25H89.8392L90.8332 17.93H88.7052L87.7812 24.44H87.2212L86.6752 17.93H81.9992L81.4532 24.44H80.8932L79.9832 17.93H77.8412ZM91.1127 21.374C91.1127 23.376 92.3587 25.14 95.0747 25.14C97.5247 25.14 98.6867 23.53 98.8267 22.508H96.5867C96.4467 23.04 95.8587 23.32 95.0747 23.32C93.8007 23.32 93.2127 22.746 93.2127 21.934H98.5747V21.234C98.5747 19.092 97.0347 17.79 94.8367 17.79C92.6387 17.79 91.1127 19.134 91.1127 21.374ZM93.2127 20.674C93.2127 20.142 93.5907 19.61 94.8367 19.61C96.0827 19.61 96.4747 20.142 96.4747 20.674H93.2127ZM104.057 19.75C105.135 19.75 105.513 20.24 105.513 21.528V25H107.753V21.178C107.753 18.994 106.661 17.79 104.855 17.79C103.343 17.79 102.461 18.784 102.181 20.044H101.621L102.041 18.784V17.93H99.8009V25H102.041V22.382C102.041 20.394 102.839 19.75 104.057 19.75ZM116.817 25V14.71H114.577V18.364L114.997 19.624H114.437C114.073 18.686 113.401 17.79 111.651 17.79C109.607 17.79 108.585 19.456 108.585 21.458C108.585 23.46 109.607 25.14 111.651 25.14C113.401 25.14 114.073 24.244 114.437 23.306H114.997L114.577 24.566V25H116.817ZM114.577 21.458C114.577 22.648 113.905 23.18 112.701 23.18C111.497 23.18 110.825 22.648 110.825 21.458C110.825 20.268 111.497 19.75 112.701 19.75C113.905 19.75 114.577 20.268 114.577 21.458ZM117.664 21.374C117.664 23.376 118.91 25.14 121.626 25.14C124.076 25.14 125.238 23.53 125.378 22.508H123.138C122.998 23.04 122.41 23.32 121.626 23.32C120.352 23.32 119.764 22.746 119.764 21.934H125.126V21.234C125.126 19.092 123.586 17.79 121.388 17.79C119.19 17.79 117.664 19.134 117.664 21.374ZM119.764 20.674C119.764 20.142 120.142 19.61 121.388 19.61C122.634 19.61 123.026 20.142 123.026 20.674H119.764ZM130.608 19.75C131.686 19.75 132.064 20.24 132.064 21.528V25H134.304V21.178C134.304 18.994 133.212 17.79 131.406 17.79C129.894 17.79 129.012 18.784 128.732 20.044H128.172L128.592 18.784V17.93H126.352V25H128.592V22.382C128.592 20.394 129.39 19.75 130.608 19.75Z" fill="#03000F"/>
</svg>
