<svg width="345" height="103" viewBox="0 0 345 103" fill="none" xmlns="http://www.w3.org/2000/svg">
<path d="M308.689 14.1792C263.045 6.40258 217.036 3.56457 170.011 3.22108C127.886 2.91338 70.3582 -2.81398 32.5373 13.5028C13.4814 21.7239 -2.2512 42.6746 3.03564 58.0118C6.62407 68.4219 15.8813 77.1636 29.828 82.3633C63.6412 94.9697 108.331 97.3144 146.029 99.4093C187.78 101.729 233.945 102.663 274.271 93.9302C291.116 90.2822 307.094 84.699 321.734 78.0341C328.37 75.0133 338.729 70.5784 341.803 65.1143C347.727 54.5867 330.271 39.731 319.828 33.2545C304.712 23.8806 287.05 19.3227 267.146 17.8319" stroke="#00ECAA" stroke-width="3" stroke-linecap="round" stroke-linejoin="round"/>
</svg>
